<svg id="Layer_1" data-name="Layer 1" xmlns="http://www.w3.org/2000/svg" width="127.78mm" height="82.8mm" viewBox="0 0 362.22 234.72">
  <defs>
    <style>
      .cls-1 {
        fill: #e7d8b2;
      }

      .cls-2 {
        fill: #cbad53;
      }

      .cls-3 {
        fill: #4996d1;
      }

      .cls-4 {
        font-size: 8px;
        fill: #231f20;
        font-family: FranklinGothic-Demi, Franklin Gothic Demi;
        font-weight: 300;
      }
    </style>
  </defs>
  <title>disaster report (2)</title>
  <g>
    <rect class="cls-1" x="51.4" y="21.85" width="158.27" height="23.64"/>
    <rect class="cls-1" x="51.4" y="57.31" width="242.09" height="23.64"/>
    <rect class="cls-1" x="51.4" y="92.76" width="158.27" height="23.64"/>
    <rect class="cls-1" x="51.4" y="128.22" width="212.59" height="23.64"/>
    <rect class="cls-1" x="51.4" y="163.68" width="302.96" height="23.64"/>
  </g>
  <g>
    <rect class="cls-2" x="51.4" y="21.85" width="138.33" height="23.64"/>
    <rect class="cls-2" x="51.4" y="57.31" width="211.58" height="23.64"/>
    <rect class="cls-2" x="51.4" y="92.76" width="138.33" height="23.64"/>
    <rect class="cls-2" x="51.4" y="128.22" width="185.8" height="23.64"/>
    <rect class="cls-2" x="51.4" y="163.68" width="264.78" height="23.64"/>
  </g>
  <g>
    <rect class="cls-3" x="51.4" y="21.85" width="97.49" height="23.64"/>
    <rect class="cls-3" x="51.4" y="57.31" width="149.12" height="23.64"/>
    <rect class="cls-3" x="51.4" y="92.76" width="97.49" height="23.64"/>
    <rect class="cls-3" x="51.4" y="128.22" width="130.95" height="23.64"/>
    <rect class="cls-3" x="51.4" y="163.68" width="186.61" height="23.64"/>
  </g>
  <text class="cls-4" transform="translate(118.24 208.96)">Female</text>
  <text class="cls-4" transform="translate(64.55 208.74)">Male</text>
  <text class="cls-4" transform="translate(17.99 33.67)">Ward 1</text>
  <text class="cls-4" transform="translate(17.99 70.77)">Ward 2</text>
  <text class="cls-4" transform="translate(17.99 106.01)">Ward 3</text>
  <text class="cls-4" transform="translate(17.99 141.24)">Ward 5</text>
  <text class="cls-4" transform="translate(17.99 176.48)">Ward 7</text>
  <rect class="cls-3" x="51.4" y="202.67" width="7.88" height="7.88"/>
  <rect class="cls-2" x="101.16" y="201.08" width="7.88" height="7.88"/>
  <text class="cls-4" transform="translate(169.81 208.96)">Others</text>
  <rect class="cls-1" x="156.67" y="202.67" width="7.88" height="7.88"/>
</svg>
