<svg id="Layer_1" data-name="Layer 1" xmlns="http://www.w3.org/2000/svg" width="32" height="32" viewBox="0 0 32 32">
  <defs>
    <style>
      .cls-1 {
        fill: #9d6c3b;
      }
    </style>
  </defs>
  <title>icon</title>
  <g>
    <path class="cls-1" d="M19,8.17c-4,0-7.09,2.81-7.09,6.54a1.09,1.09,0,0,0,2.18,0A4.06,4.06,0,0,1,16.27,11V27.79a1.09,1.09,0,0,0,2.18,0V19.61h1.09v8.18a1.09,1.09,0,1,0,2.18,0V11a4.06,4.06,0,0,1,2.18,3.67,1.09,1.09,0,1,0,2.18,0c0-3.73-3-6.54-7.08-6.54"/>
    <path class="cls-1" d="M19,7.08A2.18,2.18,0,1,0,16.82,4.9,2.17,2.17,0,0,0,19,7.08"/>
    <path class="cls-1" d="M7.55,2.72a4.36,4.36,0,1,0,4.36,4.36A4.36,4.36,0,0,0,7.55,2.72m2,5.62a.55.55,0,0,1,0,.77.59.59,0,0,1-.39.16.55.55,0,0,1-.38-.16L7.55,7.85,6.3,9.11a.59.59,0,0,1-.39.16.55.55,0,0,1-.38-.16.53.53,0,0,1,0-.77L6.78,7.08,5.53,5.83a.54.54,0,0,1,.77-.77L7.55,6.31,8.81,5.06a.53.53,0,0,1,.77,0,.55.55,0,0,1,0,.77L8.32,7.08Z"/>
  </g>
</svg>
