<svg id="Layer_1" data-name="Layer 1" xmlns="http://www.w3.org/2000/svg" width="32" height="32" viewBox="0 0 32 32">
  <defs>
    <style>
      .cls-1 {
        fill: #9d6c3b;
      }
    </style>
  </defs>
  <title>icon</title>
  <g>
    <path class="cls-1" d="M19.58,8.17c-4,0-7.09,2.81-7.09,6.54a1.09,1.09,0,0,0,2.18,0A4.06,4.06,0,0,1,16.85,11V27.79a1.09,1.09,0,1,0,2.18,0V19.61h1.09v8.18a1.09,1.09,0,0,0,2.18,0V11a4,4,0,0,1,2.18,3.67,1.09,1.09,0,0,0,2.18,0c0-3.73-3-6.54-7.08-6.54"/>
    <path class="cls-1" d="M19.58,7.08A2.18,2.18,0,1,0,17.4,4.9a2.18,2.18,0,0,0,2.18,2.18"/>
    <path class="cls-1" d="M8.14,2.72a4.36,4.36,0,1,0,4.35,4.36A4.36,4.36,0,0,0,8.14,2.72m0,7.68a.6.6,0,1,1,.59-.59.6.6,0,0,1-.59.59m1.6-4.52A1.65,1.65,0,0,1,8.68,7.1V8a.55.55,0,0,1-.54.55A.55.55,0,0,1,7.59,8V6.65a.55.55,0,0,1,.55-.55h.12a.54.54,0,0,0,.41-.42s0-.08,0-.11,0-.09,0-.12A.55.55,0,0,0,8.24,5H8a.56.56,0,0,0-.4.36.54.54,0,0,1-1-.35A1.64,1.64,0,0,1,7.8,4a1.89,1.89,0,0,1,.67,0A1.67,1.67,0,0,1,9.74,5.22a1.87,1.87,0,0,1,0,.34,1.66,1.66,0,0,1,0,.32"/>
  </g>
</svg>
