<svg id="Layer_1" data-name="Layer 1" xmlns="http://www.w3.org/2000/svg" width="32" height="32" viewBox="0 0 32 32">
  <defs>
    <style>
      .cls-1 {
        fill: #9d6c3b;
      }
    </style>
  </defs>
  <title>icon</title>
  <g>
    <path class="cls-1" d="M7.93,8.28A1.19,1.19,0,0,0,6.74,9.47H9.12A1.19,1.19,0,0,0,7.93,8.28"/>
    <path class="cls-1" d="M11.22,6.3a5.14,5.14,0,0,1-.91,8.52V25.3H23V6.3Zm6.21,16.63a.79.79,0,1,1-1.58,0V20.55a.79.79,0,1,1,1.58,0Zm0-5.94a.79.79,0,0,1-1.58,0V14.61a.79.79,0,0,1,1.35-.56.81.81,0,0,1,.23.56Zm0-5.94a.79.79,0,0,1-1.58,0V8.67a.79.79,0,0,1,.79-.79.76.76,0,0,1,.56.24.79.79,0,0,1,.23.55Z"/>
    <path class="cls-1" d="M11.89,10.26a4,4,0,1,0-4,4,4,4,0,0,0,4-4m-2,1.58a.79.79,0,0,1-.79.79H6.74A.79.79,0,0,1,6,11.84V9.47a2,2,0,1,1,4,0Z"/>
    <path class="cls-1" d="M8.33,10.26H7.54a.39.39,0,0,0-.4.39v.8a.4.4,0,0,0,.4.39h.79a.39.39,0,0,0,.39-.39v-.8a.38.38,0,0,0-.39-.39"/>
  </g>
</svg>
