<svg width="16" height="16" viewBox="0 0 16 16" fill="none" xmlns="http://www.w3.org/2000/svg">
<path d="M12 9.5H10.5V8H9.5V9.5H8V10.5H9.5V12H10.5V10.5H12V9.5Z" fill="#484848"/>
<path d="M15.5 14.793L13.1555 12.449C13.7821 11.6426 14.0777 10.6277 13.9822 9.6109C13.8867 8.59415 13.4072 7.65203 12.6415 6.97638C11.8757 6.30073 10.8812 5.94235 9.86049 5.97423C8.83976 6.0061 7.86956 6.42583 7.14745 7.14795C6.42533 7.87006 6.0056 8.84026 5.97373 9.86099C5.94185 10.8817 6.30023 11.8762 6.97588 12.642C7.65153 13.4077 8.59365 13.8872 9.6104 13.9827C10.6272 14.0782 11.6421 13.7826 12.4485 13.156L14.793 15.5L15.5 14.793ZM10 13C9.40666 13 8.82664 12.8241 8.33329 12.4944C7.83994 12.1648 7.45542 11.6962 7.22836 11.1481C7.0013 10.5999 6.94189 9.99667 7.05764 9.41473C7.1734 8.83279 7.45912 8.29824 7.87868 7.87868C8.29824 7.45912 8.83279 7.1734 9.41473 7.05764C9.99667 6.94189 10.5999 7.0013 11.1481 7.22836C11.6962 7.45542 12.1648 7.83994 12.4944 8.33329C12.8241 8.82664 13 9.40666 13 10C12.9991 10.7954 12.6827 11.5579 12.1203 12.1203C11.5579 12.6827 10.7954 12.9991 10 13ZM3 4H1V2C1.00026 1.73486 1.10571 1.48066 1.29319 1.29319C1.48066 1.10571 1.73486 1.00026 2 1H6V3H3V4ZM13 4H11V3H8V1H12C12.2651 1.00026 12.5193 1.10571 12.7068 1.29319C12.8943 1.48066 12.9997 1.73486 13 2V4ZM6 1H8V3H6V1ZM4 13H2C1.73486 12.9997 1.48066 12.8943 1.29319 12.7068C1.10571 12.5193 1.00026 12.2651 1 12V8H3V11H4V13ZM1 4H3V8H1V4Z" fill="#484848"/>
</svg>
