<svg width="16" height="16" viewBox="0 0 16 16" fill="none" xmlns="http://www.w3.org/2000/svg">
<path d="M10.3125 7.5C10.3125 8.15039 10.2773 8.77734 10.2158 9.375H4.78418C4.72266 8.77734 4.66113 8.15039 4.66113 7.5C4.66113 6.84961 4.72266 6.22266 4.78418 5.625H10.2158C10.2773 6.22266 10.3125 6.84961 10.3125 7.5ZM14.7627 5.625C14.918 6.22559 15 6.85254 15 7.5C15 8.14746 14.918 8.77441 14.7627 9.375H11.1562C11.2178 8.77148 11.25 8.11816 11.25 7.5C11.25 6.85547 11.2178 6.22852 11.1562 5.625H14.7627ZM14.4551 4.6875H11.0361C10.7432 2.8166 10.1631 1.24863 9.41602 0.247324C11.7129 0.852246 13.5762 2.51777 14.4551 4.6875ZM10.0869 4.6875H4.91309C5.0918 3.62109 5.36719 2.67715 5.7041 1.91455C6.01172 1.22285 6.35449 0.720996 6.68555 0.40459C7.01367 0.0931055 7.28613 0 7.5 0C7.71387 0 7.98633 0.0931055 8.31445 0.40459C8.64551 0.720996 8.98828 1.22285 9.2959 1.91455C9.63281 2.67715 9.9082 3.62109 10.0869 4.6875ZM0.545215 4.6875C1.42354 2.51777 3.28711 0.852246 5.58398 0.247324C4.83691 1.24863 4.25684 2.8166 3.96387 4.6875H0.545215ZM3.84375 5.625C3.78223 6.22852 3.72363 6.85547 3.72363 7.5C3.72363 8.11816 3.78223 8.77148 3.84375 9.375H0.236279C0.0820312 8.77441 0 8.14746 0 7.5C0 6.85254 0.0820312 6.22559 0.236279 5.625H3.84375ZM5.7041 13.084C5.36719 12.3223 5.0918 11.3789 4.91309 10.3125H10.0869C9.9082 11.3789 9.63281 12.3223 9.2959 13.084C8.98828 13.7783 8.64551 14.2793 8.31445 14.5957C7.98633 14.9062 7.71387 15 7.47363 15C7.28613 15 7.01367 14.9062 6.68555 14.5957C6.35449 14.2793 6.01172 13.7783 5.7041 13.084ZM5.58398 14.7539C3.28711 14.1475 1.42354 12.4834 0.545215 10.3125H3.96387C4.25684 12.1846 4.83691 13.752 5.58398 14.7539ZM9.41602 14.7539C10.1631 13.752 10.7432 12.1846 11.0361 10.3125H14.4551C13.5762 12.4834 11.7129 14.1475 9.41602 14.7539Z" fill="#4C4C4C"/>
</svg>
