<svg width="16" height="16" viewBox="0 0 16 16" fill="none" xmlns="http://www.w3.org/2000/svg">
<path d="M7.33325 2C8.92455 2 10.4507 2.63214 11.5759 3.75736C12.7011 4.88258 13.3333 6.4087 13.3333 8L15.3333 8L12.6666 10.6667L9.99992 8L11.9999 8C11.9999 5.42667 9.90659 3.33333 7.33325 3.33333C4.75992 3.33333 2.66659 5.42667 2.66659 8C2.66659 10.5733 4.75992 12.6667 7.33325 12.6667C8.59992 12.6667 9.74659 12.16 10.5866 11.34L11.5333 12.28C10.4132 13.3822 8.90471 14 7.33325 14C5.74195 14 4.21583 13.3679 3.09061 12.2426C1.96539 11.1174 1.33325 9.5913 1.33325 8C1.33325 6.4087 1.96539 4.88258 3.09061 3.75736C4.21583 2.63214 5.74195 2 7.33325 2Z" fill="#4C4C4C"/>
</svg>
