<svg xmlns="http://www.w3.org/2000/svg" xmlns:xlink="http://www.w3.org/1999/xlink" width="76" height="76" viewBox="0 0 76 76">
  <defs>
    <clipPath id="clip-Cases">
      <rect width="76" height="76"/>
    </clipPath>
  </defs>
  <g id="Cases" clip-path="url(#clip-Cases)">
    <path id="Path_37016" data-name="Path 37016" d="M123.573,1184.1a2.084,2.084,0,0,0-2.084,2.083v2.082h-5.73a23.446,23.446,0,0,0-4.9-11.818l4.055-4.055,1.631,1.381a2.083,2.083,0,0,0,2.947-2.945l-6.94-6.94a2.083,2.083,0,0,0-2.947,2.945l1.383,1.631-4.055,4.057a23.467,23.467,0,0,0-11.818-4.9v-5.73H97.2a2.083,2.083,0,0,0,0-4.165H87.479a2.083,2.083,0,0,0,0,4.165h2.084v5.73a23.466,23.466,0,0,0-11.82,4.9l-4.055-4.057,1.383-1.631a2.083,2.083,0,0,0-2.947-2.945h0l-6.78,6.94a2.082,2.082,0,0,0,2.945,2.945l1.472-1.381,4.055,4.055a23.446,23.446,0,0,0-4.9,11.818h-5.73v-2.082a2.083,2.083,0,1,0-4.165,0v9.716a2.083,2.083,0,1,0,4.165,0h0v-2.081h5.73a23.446,23.446,0,0,0,4.9,11.818l-4.055,4.055-1.631-1.382a2.083,2.083,0,0,0-2.947,2.945l6.94,6.94a2.083,2.083,0,1,0,2.947-2.945l-1.383-1.631,4.055-4.057a23.466,23.466,0,0,0,11.82,4.9v5.73H87.479a2.081,2.081,0,1,0,0,4.163H97.2a2.081,2.081,0,1,0,0-4.163H95.115v-5.73a23.466,23.466,0,0,0,11.818-4.9l4.055,4.057-1.383,1.631a2.083,2.083,0,0,0,2.947,2.945h0l6.94-6.94a2.083,2.083,0,0,0-2.947-2.945l-1.631,1.382-4.055-4.055a23.446,23.446,0,0,0,4.9-11.818h5.73v2.081a2.083,2.083,0,1,0,4.165,0h0v-9.716A2.083,2.083,0,0,0,123.573,1184.1ZM84.7,1185.486a4.858,4.858,0,1,1,4.859-4.857A4.858,4.858,0,0,1,84.7,1185.486Zm15.964,18.048a2.776,2.776,0,1,1,2.775-2.777A2.778,2.778,0,0,1,100.668,1203.534Z" transform="translate(-54.338 -1153.039)" fill="#375da1"/>
  </g>
</svg>
