<svg width="30" height="30" viewBox="0 0 30 30" fill="none" xmlns="http://www.w3.org/2000/svg">
<path d="M7.18113 2.06553C7.13099 2.11468 7.11428 3.02662 7.11428 5.83345V9.53584L7.73827 10.4532C8.57955 11.6819 8.66869 11.9495 8.47926 12.572C8.36227 12.9652 8.16727 13.1563 7.08642 13.9809C6.55157 14.3904 6.08914 14.7727 6.05571 14.8328C6.02786 14.8874 6 14.9911 6 15.0567C6 15.3133 6.89699 16.7549 7.56556 17.5795L7.91098 18H18.3072C26.5751 18 28.7312 17.9836 28.8427 17.929L28.9819 17.858L28.9987 10.0382C29.0042 4.70307 28.9931 2.1802 28.9541 2.10375C28.8928 2 28.7257 2 18.0732 2C9.72725 2 7.23127 2.01638 7.18113 2.06553ZM9.11997 3.2942C9.19797 3.34334 11.1201 4.7686 13.3932 6.46143C15.6663 8.14881 17.6052 9.57952 17.711 9.64505C17.9172 9.76519 18.1512 9.78703 18.3295 9.68874C18.3963 9.65597 20.3574 8.21433 22.6807 6.48328C25.0095 4.75222 26.9651 3.31058 27.0264 3.27236C27.227 3.15768 27.4442 3.19044 27.6225 3.35973C27.8454 3.57816 27.8398 3.80205 27.6058 4.04232C27.3774 4.27713 19.154 10.3823 18.8142 10.5734C18.5969 10.6935 18.4966 10.7099 18.062 10.7099C17.6498 10.7099 17.5216 10.6881 17.3266 10.5843C17.0536 10.4423 8.58512 4.16246 8.44026 3.99317C8.28427 3.81843 8.31212 3.54539 8.50155 3.35973C8.69098 3.17952 8.91383 3.15222 9.11997 3.2942ZM14.4574 10.4969C14.6858 10.7536 14.6301 10.9556 14.2011 11.4034C13.9894 11.6218 12.7637 12.916 11.4711 14.2703C9.83868 15.9795 9.0754 16.744 8.99183 16.7549C8.75783 16.7713 8.65198 16.7386 8.52941 16.6294C8.37341 16.4874 8.32327 16.3017 8.39569 16.1215C8.46255 15.9522 13.7721 10.3713 13.9002 10.3331C14.0841 10.284 14.3292 10.3549 14.4574 10.4969ZM22.4021 10.4587C22.4969 10.5352 26.6977 14.9311 27.4665 15.7502C27.7061 16.0068 27.7841 16.1379 27.7841 16.258C27.7841 16.602 27.4498 16.8478 27.1211 16.7386C27.0208 16.7058 26.0403 15.7174 24.4357 14.03C23.0429 12.572 21.8394 11.2942 21.7559 11.185C21.5553 10.9392 21.5441 10.6389 21.728 10.4805C21.9397 10.284 22.1904 10.2785 22.4021 10.4587Z" fill="white"/>
<path d="M4.21147 7.00803C4.01565 7.06684 1.94554 8.28592 1.73293 8.46772C1.21261 8.90081 1.00559 9.60125 1 10.8952C1 11.5903 1.02238 11.863 1.12868 12.3388C1.7721 15.2742 4.05481 18.5893 7.88731 22.1503C9.48186 23.6367 10.8694 24.7328 12.3241 25.6738C13.7843 26.6095 14.9481 27.1817 16.2013 27.5773C17.3483 27.9356 17.7791 28.0051 18.954 27.9997C20.3583 27.9944 20.8842 27.8554 21.4325 27.3367C21.6507 27.1282 22.9488 25.0803 22.9935 24.8772C23.0103 24.797 22.9935 24.6793 22.9544 24.6152C22.9208 24.551 21.757 23.7757 20.3751 22.8988C17.656 21.1611 17.6168 21.1451 17.3427 21.4124C17.2755 21.4819 16.8839 21.9418 16.4811 22.4444C16.0726 22.9416 15.653 23.4121 15.5411 23.4816C15.3397 23.61 14.8641 23.7543 14.6348 23.7543C14.411 23.7543 14.0193 23.5993 13.4039 23.2624C12.0443 22.5299 10.9365 21.6851 9.3252 20.1452C7.75863 18.6534 6.89142 17.6536 6.18087 16.5094C5.61019 15.5844 5.49829 15.3331 5.49829 14.9427C5.49829 14.2851 5.65495 14.0872 6.90821 13.1569C7.43972 12.7612 7.91529 12.3923 7.96005 12.3442C8.16706 12.0982 8.1167 12.0073 6.39348 9.53174C5.4927 8.2378 4.7206 7.15239 4.68144 7.12031C4.58633 7.04546 4.31218 6.97595 4.21147 7.00803Z" fill="white"/>
</svg>
