<svg width="28" height="28" viewBox="0 0 28 28" fill="none" xmlns="http://www.w3.org/2000/svg">
<g clip-path="url(#clip0_142_142)">
<path d="M27.125 11.0833C26.8929 11.0833 26.6704 11.1755 26.5063 11.3396C26.3422 11.5037 26.25 11.7263 26.25 11.9583V12.8333H23.842C23.629 11.019 22.9161 9.29957 21.7828 7.86683L23.4867 6.16292L24.1727 6.74392C24.3369 6.90806 24.5595 7.00028 24.7917 7.00028C25.0238 7.00028 25.2464 6.90806 25.4106 6.74392C25.5747 6.57977 25.6669 6.35714 25.6669 6.125C25.6669 5.89286 25.5747 5.67023 25.4106 5.50608L22.4939 2.58942C22.3298 2.42527 22.1071 2.33305 21.875 2.33305C21.6429 2.33305 21.4202 2.42527 21.2561 2.58942C21.0919 2.75356 20.9997 2.97619 20.9997 3.20833C20.9997 3.44047 21.0919 3.6631 21.2561 3.82725L21.8371 4.51267L20.1332 6.21717C18.7004 5.08394 16.981 4.37104 15.1667 4.158V1.75H16.0417C16.2737 1.75 16.4963 1.65781 16.6604 1.49372C16.8245 1.32962 16.9167 1.10706 16.9167 0.875C16.9167 0.642936 16.8245 0.420376 16.6604 0.256282C16.4963 0.0921872 16.2737 0 16.0417 0L11.9583 0C11.7263 0 11.5037 0.0921872 11.3396 0.256282C11.1755 0.420376 11.0833 0.642936 11.0833 0.875C11.0833 1.10706 11.1755 1.32962 11.3396 1.49372C11.5037 1.65781 11.7263 1.75 11.9583 1.75H12.8333V4.158C11.019 4.37104 9.29961 5.08394 7.86683 6.21717L6.16292 4.51267L6.74392 3.82725C6.90806 3.6631 7.00028 3.44047 7.00028 3.20833C7.00028 2.97619 6.90806 2.75356 6.74392 2.58942C6.57977 2.42527 6.35714 2.33305 6.125 2.33305C5.89286 2.33305 5.67023 2.42527 5.50608 2.58942L2.65708 5.50608C2.49762 5.67103 2.40931 5.89202 2.4112 6.12144C2.41308 6.35087 2.505 6.57037 2.66716 6.73268C2.82932 6.89499 3.04873 6.98712 3.27816 6.98922C3.50758 6.99132 3.72865 6.90323 3.89375 6.74392L4.51325 6.16292L6.21658 7.86683C5.08351 9.29964 4.37081 11.0191 4.158 12.8333H1.75V11.9583C1.75 11.7263 1.65781 11.5037 1.49372 11.3396C1.32962 11.1755 1.10706 11.0833 0.875 11.0833C0.642936 11.0833 0.420376 11.1755 0.256282 11.3396C0.0921872 11.5037 0 11.7263 0 11.9583L0 16.0417C0 16.2737 0.0921872 16.4963 0.256282 16.6604C0.420376 16.8245 0.642936 16.9167 0.875 16.9167C1.10706 16.9167 1.32962 16.8245 1.49372 16.6604C1.65781 16.4963 1.75 16.2737 1.75 16.0417V15.1667H4.158C4.37098 16.981 5.08388 18.7004 6.21717 20.1332L4.51325 21.8371L3.82725 21.2561C3.74597 21.1748 3.64948 21.1103 3.54329 21.0663C3.43709 21.0224 3.32328 20.9997 3.20833 20.9997C3.09339 20.9997 2.97957 21.0224 2.87338 21.0663C2.76718 21.1103 2.67069 21.1748 2.58942 21.2561C2.50814 21.3374 2.44367 21.4339 2.39968 21.54C2.35569 21.6462 2.33305 21.7601 2.33305 21.875C2.33305 21.9899 2.35569 22.1038 2.39968 22.21C2.44367 22.3161 2.50814 22.4126 2.58942 22.4939L5.50608 25.4106C5.58736 25.4919 5.68385 25.5563 5.79004 25.6003C5.89624 25.6443 6.01006 25.6669 6.125 25.6669C6.23994 25.6669 6.35376 25.6443 6.45996 25.6003C6.56615 25.5563 6.66264 25.4919 6.74392 25.4106C6.82519 25.3293 6.88967 25.2328 6.93365 25.1266C6.97764 25.0204 7.00028 24.9066 7.00028 24.7917C7.00028 24.6767 6.97764 24.5629 6.93365 24.4567C6.88967 24.3505 6.82519 24.254 6.74392 24.1727L6.16292 23.4873L7.86683 21.7828C9.29961 22.9161 11.019 23.629 12.8333 23.842V26.25H11.9583C11.7263 26.25 11.5037 26.3422 11.3396 26.5063C11.1755 26.6704 11.0833 26.8929 11.0833 27.125C11.0833 27.3571 11.1755 27.5796 11.3396 27.7437C11.5037 27.9078 11.7263 28 11.9583 28H16.0417C16.2737 28 16.4963 27.9078 16.6604 27.7437C16.8245 27.5796 16.9167 27.3571 16.9167 27.125C16.9167 26.8929 16.8245 26.6704 16.6604 26.5063C16.4963 26.3422 16.2737 26.25 16.0417 26.25H15.1667V23.842C16.981 23.629 18.7004 22.9161 20.1332 21.7828L21.8371 23.4873L21.2561 24.1727C21.1748 24.254 21.1103 24.3505 21.0663 24.4567C21.0224 24.5629 20.9997 24.6767 20.9997 24.7917C20.9997 24.9066 21.0224 25.0204 21.0663 25.1266C21.1103 25.2328 21.1748 25.3293 21.2561 25.4106C21.3374 25.4919 21.4339 25.5563 21.54 25.6003C21.6462 25.6443 21.7601 25.6669 21.875 25.6669C21.9899 25.6669 22.1038 25.6443 22.21 25.6003C22.3161 25.5563 22.4126 25.4919 22.4939 25.4106L25.4106 22.4939C25.4919 22.4126 25.5563 22.3161 25.6003 22.21C25.6443 22.1038 25.6669 21.9899 25.6669 21.875C25.6669 21.7601 25.6443 21.6462 25.6003 21.54C25.5563 21.4339 25.4919 21.3374 25.4106 21.2561C25.3293 21.1748 25.2328 21.1103 25.1266 21.0663C25.0204 21.0224 24.9066 20.9997 24.7917 20.9997C24.6767 20.9997 24.5629 21.0224 24.4567 21.0663C24.3505 21.1103 24.254 21.1748 24.1727 21.2561L23.4867 21.8371L21.7834 20.1332C22.9165 18.7004 23.6292 16.9809 23.842 15.1667H26.25V16.0417C26.25 16.2737 26.3422 16.4963 26.5063 16.6604C26.6704 16.8245 26.8929 16.9167 27.125 16.9167C27.3571 16.9167 27.5796 16.8245 27.7437 16.6604C27.9078 16.4963 28 16.2737 28 16.0417V11.9583C28 11.7263 27.9078 11.5037 27.7437 11.3396C27.5796 11.1755 27.3571 11.0833 27.125 11.0833ZM10.7917 11.6667C10.3879 11.6667 9.99313 11.5469 9.65738 11.3226C9.32163 11.0982 9.05994 10.7794 8.90541 10.4063C8.75088 10.0332 8.71045 9.62273 8.78923 9.22669C8.86801 8.83065 9.06246 8.46686 9.34799 8.18132C9.63352 7.89579 9.99731 7.70134 10.3934 7.62256C10.7894 7.54378 11.1999 7.58422 11.573 7.73875C11.946 7.89327 12.2649 8.15496 12.4892 8.49071C12.7136 8.82646 12.8333 9.2212 12.8333 9.625C12.8333 10.1665 12.6182 10.6858 12.2353 11.0687C11.8525 11.4516 11.3331 11.6667 10.7917 11.6667V11.6667ZM17.5 19.25C17.2693 19.25 17.0437 19.1816 16.8518 19.0534C16.66 18.9252 16.5104 18.743 16.4221 18.5298C16.3338 18.3166 16.3107 18.082 16.3557 17.8557C16.4008 17.6294 16.5119 17.4215 16.675 17.2584C16.8382 17.0952 17.0461 16.9841 17.2724 16.9391C17.4987 16.8941 17.7333 16.9172 17.9465 17.0055C18.1596 17.0938 18.3419 17.2433 18.47 17.4352C18.5982 17.627 18.6667 17.8526 18.6667 18.0833C18.6667 18.3928 18.5437 18.6895 18.325 18.9083C18.1062 19.1271 17.8094 19.25 17.5 19.25Z" fill="white"/>
</g>
<defs>
<clipPath id="clip0_142_142">
<rect width="28" height="28" fill="white"/>
</clipPath>
</defs>
</svg>
