<svg xmlns="http://www.w3.org/2000/svg" xmlns:xlink="http://www.w3.org/1999/xlink" width="76" height="76" viewBox="0 0 76 76">
  <defs>
    <clipPath id="clip-Death">
      <rect width="76" height="76"/>
    </clipPath>
  </defs>
  <g id="Death" clip-path="url(#clip-Death)">
    <g id="Group_656" data-name="Group 656" transform="translate(-1019.974 -3029.121)">
      <path id="Path_37019" data-name="Path 37019" d="M165.895,1165.342c-10.458,0-18.346,7.281-18.346,16.936a2.822,2.822,0,1,0,5.644,0,10.513,10.513,0,0,1,5.646-9.519v43.39a2.822,2.822,0,1,0,5.644,0V1194.98h2.823v21.169a2.823,2.823,0,0,0,5.646,0v-43.39a10.515,10.515,0,0,1,5.644,9.519,2.823,2.823,0,1,0,5.646,0C184.242,1172.623,176.355,1165.342,165.895,1165.342Z" transform="translate(903.368 1882.021)" fill="#FA0B00
      "/>
      <circle id="Ellipse_122" data-name="Ellipse 122" cx="5.645" cy="5.645" r="5.645" transform="translate(1063.618 3033.251)" fill="#FA0B00
      "/>
      <path id="Path_37020" data-name="Path 37020" d="M146.649,1157.723a11.291,11.291,0,1,0,11.29,11.292A11.287,11.287,0,0,0,146.649,1157.723Zm5.25,14.537a1.423,1.423,0,0,1,0,2,1.431,1.431,0,0,1-2,0l-3.245-3.26-3.247,3.26a1.429,1.429,0,0,1-2,0,1.42,1.42,0,0,1,0-2l3.26-3.246-3.26-3.247a1.417,1.417,0,1,1,2-2l3.247,3.26,3.245-3.26a1.417,1.417,0,0,1,2,2l-3.26,3.247Z" transform="translate(892.978 1875.527)" fill="#FA0B00
      "/>
    </g>
  </g>
</svg>
