<svg width="25" height="25" viewBox="0 0 25 25" fill="none" xmlns="http://www.w3.org/2000/svg">
<g clip-path="url(#clip0_191_7369)">
<path d="M9.04443 0.0537109C8.4269 0.175781 7.80455 0.664062 7.54403 1.23047C7.36552 1.61621 7.3028 1.94336 7.3028 2.49512V2.9248L4.95329 2.93945C2.66167 2.9541 2.59413 2.95898 2.37703 3.05664C2.08756 3.19336 1.77397 3.51074 1.64371 3.80371C1.49897 4.11621 1.49897 4.67285 1.64371 4.98535C1.77397 5.27832 2.08756 5.5957 2.37703 5.73242L2.59895 5.83496H12.3685H22.138L22.36 5.73242C22.6494 5.5957 22.963 5.27832 23.0933 4.98535C23.238 4.67285 23.238 4.11621 23.0933 3.80371C22.963 3.51074 22.6494 3.19336 22.36 3.05664C22.1429 2.95898 22.0753 2.9541 19.7885 2.93945L17.4342 2.9248V2.49512C17.4342 2.25586 17.4101 1.94824 17.3859 1.80176C17.2219 0.922852 16.5224 0.214844 15.6539 0.0488281C15.3355 -0.00976562 9.3532 -0.00976562 9.04443 0.0537109ZM15.6009 1.5625C15.8903 1.71387 15.9868 1.94336 15.9868 2.49023V2.92969H12.3685H8.75014V2.49023C8.75014 1.95312 8.84663 1.71387 9.12645 1.56738C9.30013 1.47461 9.41592 1.46973 12.3588 1.46484C15.3259 1.46484 15.4176 1.46973 15.6009 1.5625Z" fill="#484848"/>
<path d="M3.03389 7.5293C3.04836 7.64649 3.333 11.0791 3.66107 15.1611C3.99396 19.2432 4.28825 22.7686 4.3172 22.998C4.43298 23.96 5.08428 24.7168 5.97199 24.9268C6.41101 25.0342 18.3274 25.0342 18.7665 24.9268C19.6542 24.7168 20.3055 23.96 20.4213 22.998C20.4502 22.7686 20.7445 19.2432 21.0774 15.1611C21.4054 11.0791 21.6901 7.64649 21.7046 7.5293L21.7287 7.32422H12.3692H3.00977L3.03389 7.5293ZM8.44694 8.92579C8.52895 8.98438 8.62544 9.10157 8.66886 9.18946C8.72675 9.31641 8.82324 10.6738 9.11271 15.4053L9.4842 21.4551L9.38288 21.665C9.20438 22.041 8.76053 22.1729 8.39387 21.958C8.02721 21.748 8.07545 22.1484 7.66537 15.4541L7.29389 9.4043L7.3952 9.19434C7.57853 8.8086 8.09957 8.67676 8.44694 8.92579ZM12.7069 8.88672C12.8324 8.9502 12.9337 9.05274 12.9964 9.17969C13.0929 9.37012 13.0929 9.45313 13.0929 15.4297C13.0929 21.4063 13.0929 21.4893 12.9964 21.6797C12.8854 21.8994 12.6104 22.0703 12.3692 22.0703C12.128 22.0703 11.853 21.8994 11.742 21.6797C11.6456 21.4893 11.6456 21.4063 11.6456 15.4297C11.6456 9.45801 11.6456 9.37012 11.742 9.17969C11.9205 8.82325 12.3403 8.69629 12.7069 8.88672ZM17.0538 8.88672C17.184 8.95508 17.2757 9.05274 17.3432 9.19434L17.4446 9.4043L17.0731 15.4541C16.663 22.1484 16.7112 21.748 16.3446 21.958C15.9779 22.1729 15.5341 22.041 15.3556 21.665L15.2543 21.4551L15.6209 15.4297C15.9634 9.79004 15.9924 9.38477 16.0889 9.19434C16.1613 9.05274 16.2529 8.95996 16.3928 8.88672C16.6437 8.76465 16.8077 8.76465 17.0538 8.88672Z" fill="#484848"/>
</g>
<defs>
<clipPath id="clip0_191_7369">
<rect width="25" height="25" fill="white"/>
</clipPath>
</defs>
</svg>
