<svg width="30" height="30" viewBox="0 0 30 30" fill="none" xmlns="http://www.w3.org/2000/svg">
<path d="M15.7969 1.00781C15.6445 2.51367 15.7031 2.36133 15.2168 2.51953C14.9824 2.58984 14.6191 2.74219 14.4023 2.84766C14.1855 2.95898 13.9805 3.04688 13.9395 3.04688C13.9043 3.04688 13.4766 2.71875 12.9844 2.32031L12.0879 1.59375L11.25 2.43164C10.6582 3.02344 10.4297 3.29297 10.4648 3.3457C10.4883 3.39258 10.8223 3.80859 11.1973 4.27734L11.8887 5.12695L11.6543 5.58984C11.5312 5.8418 11.3672 6.22852 11.3027 6.45117C11.2324 6.67383 11.1504 6.85547 11.1152 6.85547C11.0742 6.85547 10.582 6.9082 10.0195 6.97266C9.45703 7.03711 8.94727 7.08984 8.89453 7.08984C8.79492 7.08984 8.78906 7.18945 8.78906 8.29102C8.78906 9.21094 8.80664 9.49219 8.86523 9.49219C8.90039 9.49219 9.41016 9.54492 9.98438 9.60938C10.5645 9.67383 11.0684 9.72656 11.1094 9.72656C11.1445 9.72656 11.2324 9.9082 11.3027 10.1309C11.3672 10.3535 11.5312 10.7402 11.6543 10.9922L11.8887 11.4551L11.3027 12.1758C10.9863 12.5684 10.7227 12.9023 10.7227 12.9141C10.7227 12.9258 10.9277 12.8496 11.1797 12.7383C12.4453 12.1934 13.2305 12.1113 16.875 12.1406L19.5996 12.1641L20.0684 12.3223C20.6602 12.5215 21.0469 12.7441 21.4688 13.1309L21.8027 13.4355L22.3828 12.8613L22.9629 12.2871L22.6875 11.9414C22.5352 11.7539 22.3887 11.5605 22.3594 11.5254C22.3301 11.4727 22.3945 11.2734 22.5469 10.9512C22.6758 10.6816 22.834 10.2949 22.8926 10.0957C22.9629 9.85547 23.0273 9.72656 23.0859 9.72656C23.1328 9.72656 23.6367 9.67383 24.1992 9.60938C24.7617 9.54492 25.2598 9.49219 25.3008 9.49219C25.3535 9.49219 25.3711 9.21094 25.3711 8.29102C25.3711 7.37109 25.3535 7.08984 25.3008 7.08984C25.2598 7.08984 24.75 7.03711 24.1758 6.97266C23.5957 6.9082 23.0977 6.85547 23.0625 6.85547C23.0273 6.85547 22.9512 6.69141 22.8926 6.48633C22.834 6.28711 22.6816 5.90625 22.5527 5.64258C22.4297 5.37891 22.3242 5.15039 22.3242 5.12695C22.3242 5.10938 22.6582 4.68164 23.0625 4.18359L23.8066 3.26953L22.9629 2.42578L22.1191 1.58203L21.1875 2.33789L20.2559 3.08789L19.8105 2.86523C19.5645 2.74219 19.1777 2.58398 18.9492 2.51367L18.5332 2.37891L18.4336 1.38281C18.375 0.832031 18.3164 0.292969 18.2988 0.1875L18.2695 0H17.0801H15.8965L15.7969 1.00781ZM17.6426 5.56641C18.3867 5.70703 19.207 6.31055 19.5352 6.95508C20.1152 8.11523 19.9219 9.39844 19.0312 10.2656C17.4141 11.8535 14.6953 10.9453 14.3496 8.70117C14.2617 8.16211 14.3496 7.60547 14.6074 7.07227C15.1465 5.94141 16.3828 5.32617 17.6426 5.56641Z" fill="white"/>
<path d="M26.373 11.9004C25.7871 12.0176 25.6641 12.1172 23.1504 14.6133C21.8145 15.9375 20.748 16.9688 20.7715 16.9043C20.9707 16.3945 20.9883 16.2949 20.9648 15.8496C20.9414 15.4863 20.9004 15.3105 20.7773 15.0703C20.4609 14.4551 19.9219 14.0566 19.2422 13.9453C18.7617 13.8633 14.0449 13.8691 13.3887 13.9512C12.6621 14.0391 11.9004 14.2969 11.2793 14.6602C10.8047 14.9355 10.5352 15.1875 8.56641 17.1387L6.38086 19.3066L8.67188 21.5918L10.957 23.877L11.3496 23.4844L11.748 23.0918L15.3809 23.0684C18.4512 23.0449 19.0781 23.0273 19.418 22.9512C20.1973 22.7695 20.877 22.4531 21.5039 22.002C21.9902 21.6445 28.2949 15.3516 28.5059 15.0059C29.0156 14.1855 28.8984 13.1309 28.2246 12.457C27.9023 12.1348 27.6094 11.9824 27.1582 11.9004C26.7715 11.8301 26.7363 11.8301 26.373 11.9004Z" fill="white"/>
<path d="M2.7832 21.5039L1.14258 23.1445L4.57031 26.5723L7.99805 30L9.65039 28.3477L11.3086 26.6895L7.89844 23.2793C6.01758 21.3984 4.4707 19.8633 4.45312 19.8633C4.43555 19.8633 3.68555 20.6016 2.7832 21.5039ZM8.96484 26.6309C9.67969 27 9.41602 28.084 8.60742 28.084C8.33789 28.084 8.12109 27.9492 7.96875 27.6973C7.58203 27.0703 8.30859 26.291 8.96484 26.6309Z" fill="white"/>
</svg>
