<svg width="25" height="24" viewBox="0 0 25 24" fill="none" xmlns="http://www.w3.org/2000/svg">
<path d="M17.474 3.78785L21.3889 7.89933C21.5538 8.07254 21.5538 8.35515 21.3889 8.52836L11.9097 18.4834L7.88194 18.9529C7.34375 19.0167 6.88802 18.5381 6.94878 17.9729L7.39583 13.7429L16.875 3.78785C17.0399 3.61464 17.309 3.61464 17.474 3.78785ZM24.5052 2.74403L22.3872 0.519633C21.7274 -0.173211 20.6554 -0.173211 19.9913 0.519633L18.4549 2.13323C18.2899 2.30644 18.2899 2.58905 18.4549 2.76226L22.3698 6.87374C22.5347 7.04695 22.8038 7.04695 22.9688 6.87374L24.5052 5.26014C25.1649 4.56274 25.1649 3.43687 24.5052 2.74403ZM16.6667 15.7759V20.4161H2.77778V5.82992H12.7517C12.8906 5.82992 13.0208 5.77066 13.1207 5.67038L14.8568 3.84711C15.1866 3.50068 14.9523 2.91268 14.4878 2.91268H2.08333C0.93316 2.91268 0 3.89269 0 5.10061V21.1454C0 22.3533 0.93316 23.3333 2.08333 23.3333H17.3611C18.5113 23.3333 19.4444 22.3533 19.4444 21.1454V13.9526C19.4444 13.4649 18.8845 13.2233 18.5547 13.5652L16.8186 15.3884C16.7231 15.4933 16.6667 15.63 16.6667 15.7759Z" fill="#484848"/>
</svg>
