<svg width="25" height="17" viewBox="0 0 25 17" fill="none" xmlns="http://www.w3.org/2000/svg">
<path d="M24.8489 7.86634C22.4952 3.27389 17.8355 0.166687 12.5 0.166687C7.16447 0.166687 2.50345 3.27606 0.151018 7.86677C0.0517306 8.06318 0 8.28017 0 8.50024C0 8.72031 0.0517306 8.9373 0.151018 9.1337C2.50475 13.7261 7.16447 16.8334 12.5 16.8334C17.8355 16.8334 22.4965 13.724 24.8489 9.13327C24.9482 8.93686 25 8.71987 25 8.4998C25 8.27973 24.9482 8.06274 24.8489 7.86634ZM12.5 14.75C11.2638 14.75 10.0555 14.3835 9.02766 13.6967C7.99985 13.0099 7.19878 12.0338 6.72573 10.8918C6.25268 9.74975 6.12891 8.49309 6.37007 7.28071C6.61123 6.06832 7.20648 4.95468 8.08056 4.0806C8.95464 3.20652 10.0683 2.61127 11.2807 2.37011C12.493 2.12895 13.7497 2.25273 14.8917 2.72577C16.0338 3.19882 17.0099 3.9999 17.6967 5.02771C18.3834 6.05551 18.75 7.26389 18.75 8.50002C18.7504 9.32089 18.589 10.1338 18.275 10.8923C17.9611 11.6507 17.5007 12.3399 16.9203 12.9203C16.3398 13.5008 15.6507 13.9611 14.8922 14.2751C14.1338 14.589 13.3208 14.7504 12.5 14.75ZM12.5 4.33335C12.1281 4.33855 11.7586 4.39388 11.4015 4.49785C11.6958 4.89788 11.8371 5.39016 11.7996 5.88541C11.7621 6.38066 11.5484 6.84609 11.1972 7.19729C10.846 7.54848 10.3806 7.76219 9.88537 7.79966C9.39012 7.83712 8.89784 7.69586 8.49781 7.4015C8.27001 8.24073 8.31113 9.13026 8.61538 9.9449C8.91962 10.7595 9.47167 11.4583 10.1938 11.9427C10.916 12.4272 11.7719 12.673 12.641 12.6455C13.5102 12.618 14.3489 12.3187 15.039 11.7897C15.7291 11.2606 16.236 10.5284 16.4882 9.6962C16.7404 8.86398 16.7253 7.97362 16.445 7.15044C16.1647 6.32726 15.6333 5.61271 14.9256 5.10736C14.2179 4.60201 13.3696 4.33131 12.5 4.33335Z" fill="#484848"/>
</svg>
