<svg width="28" height="28" viewBox="0 0 28 28" fill="none" xmlns="http://www.w3.org/2000/svg">
<path d="M1.98516 2.04926C1.05547 2.18597 0.229687 2.97894 0.0546875 3.90316C0.0164062 4.09457 0 8.15785 0 15.7157C0 27.0524 0 27.2328 0.109375 27.4078C0.229687 27.6102 0.486719 27.7032 0.738281 27.6321C0.853125 27.6047 1.78281 26.7078 3.77344 24.7172L6.64453 21.8461H15.0937C22.1867 21.8461 23.5977 21.8297 23.8711 21.7696C24.6531 21.5836 25.2711 21.0094 25.5445 20.2164C25.643 19.9321 25.6484 19.7078 25.6484 16.2789V12.6477L25.4789 12.4891C25.282 12.3032 24.9867 12.2758 24.7734 12.418C24.6969 12.4672 23.7781 13.3641 22.7227 14.4141C21.2789 15.8469 20.7484 16.3446 20.5625 16.4266C20.4258 16.4868 19.5562 16.6836 18.632 16.8696C17.1117 17.1703 16.9148 17.1977 16.6523 17.1485C16.0562 17.0391 15.575 16.6618 15.3289 16.1203C15.132 15.6938 15.1539 15.3274 15.4492 13.8672C15.5859 13.1891 15.6953 12.6039 15.6953 12.5657C15.6953 12.5055 14.8312 12.4946 10.943 12.4946H6.19062L6.02109 12.325C5.79141 12.0953 5.78594 11.8055 6.01016 11.5539L6.16875 11.3735L11.1945 11.3571L16.2148 11.3461L17.3523 10.2086C17.9758 9.58519 18.4844 9.06019 18.4844 9.03832C18.4844 9.01097 15.7172 8.99457 12.3375 8.99457H6.19062L6.02109 8.82504C5.79141 8.59535 5.78594 8.3055 6.01016 8.05394L6.16875 7.87347L12.7695 7.85707C17.5273 7.84613 19.3977 7.86254 19.4797 7.90629C19.5836 7.96097 19.7805 7.77504 21.7055 5.86644C23.6906 3.89222 23.8437 3.75551 24.2484 3.54769C24.7461 3.3016 24.9047 3.11566 24.8609 2.82035C24.8445 2.71644 24.7734 2.57426 24.7078 2.49769C24.5383 2.31176 24.0844 2.12035 23.6687 2.04926C23.2641 1.98363 2.43359 1.98363 1.98516 2.04926ZM13.6719 14.9282C14.0328 15.1141 14.0875 15.5899 13.7758 15.8524L13.6062 15.9946H9.89844H6.19062L6.02109 15.825C5.88984 15.6993 5.85156 15.6118 5.85156 15.4532C5.85156 15.2235 6.01016 14.9774 6.20156 14.9008C6.26172 14.8735 7.93516 14.8516 9.91484 14.8516C13.0266 14.8461 13.5352 14.8571 13.6719 14.9282Z" fill="white"/>
<path d="M25.2273 4.42822C25.0687 4.47197 24.8336 4.55947 24.7078 4.6251C24.4289 4.76182 17.0461 12.1063 16.9586 12.3251C16.8711 12.5548 16.3516 15.2399 16.3516 15.4642C16.3516 15.7485 16.6031 15.9946 16.893 15.9946C17.1117 15.9946 19.7969 15.4751 20.0211 15.3876C20.0977 15.3603 21.8367 13.654 23.8875 11.6032C27.9398 7.54541 27.8141 7.6876 27.9562 6.92197C28.1586 5.82822 27.393 4.69072 26.2773 4.42275C25.8727 4.32979 25.5937 4.32979 25.2273 4.42822ZM24.9375 7.43604L25.6758 8.17432L25.2492 8.59541L24.8281 9.02197L24.0789 8.27275L23.3242 7.51807L23.7344 7.10791C23.9586 6.88369 24.1555 6.69775 24.1719 6.69775C24.1883 6.69775 24.5328 7.03135 24.9375 7.43604Z" fill="white"/>
</svg>
