<svg xmlns="http://www.w3.org/2000/svg" width="13.5" height="18" viewBox="0 0 13.5 18"><defs><style>.a{opacity:0.4;}</style></defs><path class="a" d="M7.875,4.781V0H.844A.842.842,0,0,0,0,.844V17.156A.842.842,0,0,0,.844,18H12.656a.842.842,0,0,0,.844-.844V5.625H8.719A.846.846,0,0,1,7.875,4.781Zm2.688,7.431-3.39,3.364a.6.6,0,0,1-.845,0l-3.39-3.364a.562.562,0,0,1,.4-.962H5.625V8.438a.562.562,0,0,1,.563-.562H7.313a.562.562,0,0,1,.563.563V11.25h2.291A.563.563,0,0,1,10.563,12.212Zm2.691-8.52L9.812.246A.843.843,0,0,0,9.214,0H9V4.5h4.5V4.286A.841.841,0,0,0,13.254,3.691Z"/></svg>