<svg width="14" height="28" viewBox="0 0 14 28" fill="none" xmlns="http://www.w3.org/2000/svg">
<path d="M6.27375 0.0547856C4.7261 0.333692 3.46282 1.28525 2.81204 2.65244C2.34719 3.63135 2.38547 3.05713 2.36907 9.78369L2.34719 15.7665L1.90969 16.2313C0.974536 17.2212 0.340161 18.4681 0.105005 19.797C-0.00436984 20.404 0.0120364 21.7438 0.12688 22.3126C0.52063 24.1829 1.60344 25.8071 3.11829 26.8079C4.36516 27.6282 5.50266 27.9673 7.0011 27.9673C8.49954 27.9673 9.63704 27.6282 10.8839 26.8079C12.3988 25.8071 13.4816 24.1829 13.8753 22.3126C13.9902 21.7438 14.0066 20.404 13.8972 19.797C13.662 18.4681 13.0277 17.2212 12.0925 16.2313L11.655 15.7665L11.6331 9.78369C11.6167 3.05713 11.655 3.63135 11.1902 2.65244C10.4409 1.07744 8.92063 0.0821294 7.16516 0.0274419C6.82063 0.0165044 6.41594 0.0274419 6.27375 0.0547856ZM7.95813 2.55947C8.55969 2.84385 9.00813 3.3415 9.23235 3.98135C9.31438 4.2165 9.32532 4.83447 9.33625 10.5329L9.35813 16.8274L9.95422 17.3853C11.212 18.561 11.7097 19.704 11.6331 21.2735C11.6058 21.9024 11.4308 22.6024 11.1792 23.0892C10.7253 23.9751 9.81204 24.8556 8.94797 25.2384C8.23704 25.5556 7.90344 25.6212 7.0011 25.6212C6.26829 25.6212 6.09875 25.5993 5.74329 25.4899C4.62766 25.1399 3.79094 24.5438 3.18391 23.6634C2.83391 23.1548 2.76282 23.0126 2.56594 22.4056C2.42922 22.0009 2.39094 21.7767 2.36907 21.2462C2.29797 19.6985 2.79563 18.5501 4.04797 17.3853L4.64407 16.8274L4.66594 10.5329C4.67688 4.77432 4.68782 4.2165 4.77532 3.97041C5.03235 3.22666 5.6011 2.67979 6.37219 2.42275C6.50891 2.379 6.78235 2.35713 7.08313 2.36807C7.50422 2.379 7.63 2.40635 7.95813 2.55947Z" fill="white"/>
<path d="M5.85139 13.5189L5.84592 17.6916L5.39748 17.9103C4.51701 18.3314 3.78967 19.2721 3.58185 20.2674C3.05685 22.7338 5.26623 24.9431 7.73264 24.4181C9.03967 24.1447 10.1444 23.04 10.4178 21.733C10.7459 20.1963 9.96936 18.5666 8.60217 17.9103L8.15373 17.6916L8.14826 13.5189V9.35175H6.99982H5.85139V13.5189Z" fill="white"/>
</svg>
