<svg width="35" height="35" viewBox="0 0 35 35" fill="none" xmlns="http://www.w3.org/2000/svg">
<path d="M17.5 0.546875C8.1377 0.546875 0.546875 8.14044 0.546875 17.5C0.546875 26.865 8.1377 34.4531 17.5 34.4531C26.8623 34.4531 34.4531 26.865 34.4531 17.5C34.4531 8.14044 26.8623 0.546875 17.5 0.546875ZM17.5 8.06641C19.0857 8.06641 20.3711 9.35184 20.3711 10.9375C20.3711 12.5232 19.0857 13.8086 17.5 13.8086C15.9143 13.8086 14.6289 12.5232 14.6289 10.9375C14.6289 9.35184 15.9143 8.06641 17.5 8.06641ZM21.3281 25.4297C21.3281 25.8827 20.9608 26.25 20.5078 26.25H14.4922C14.0392 26.25 13.6719 25.8827 13.6719 25.4297V23.7891C13.6719 23.336 14.0392 22.9688 14.4922 22.9688H15.3125V18.5938H14.4922C14.0392 18.5938 13.6719 18.2265 13.6719 17.7734V16.1328C13.6719 15.6798 14.0392 15.3125 14.4922 15.3125H18.8672C19.3202 15.3125 19.6875 15.6798 19.6875 16.1328V22.9688H20.5078C20.9608 22.9688 21.3281 23.336 21.3281 23.7891V25.4297Z" fill="#003572"/>
</svg>
