<svg xmlns="http://www.w3.org/2000/svg" xmlns:xlink="http://www.w3.org/1999/xlink" width="26" height="26" viewBox="0 0 26 26">
  <defs>
    <clipPath id="clip-injured">
      <rect width="26" height="26"/>
    </clipPath>
  </defs>
  <g id="injured" clip-path="url(#clip-injured)">
    <g id="injured-2" data-name="injured" transform="translate(-0.025 0.3)">
      <path id="Path_651" data-name="Path 651" d="M10.55,20.53A2.18,2.18,0,0,1,9.89,19a2.24,2.24,0,0,1,2.24-2.24h2L15.27,10H9.44a2.69,2.69,0,0,0-2.69,2.69v9a1.8,1.8,0,0,0,1.8,1.79h6.27a1.79,1.79,0,0,0,1.79-1.79v-.45H12.13a2.18,2.18,0,0,1-1.58-.71Z" fill="#a56a2e"/>
      <path id="Path_652" data-name="Path 652" d="M10.79,19a1.33,1.33,0,0,0,1.34,1.34h1.34l.47-2.68H12.13A1.34,1.34,0,0,0,10.79,19Z" fill="#a56a2e"/>
      <path id="Path_653" data-name="Path 653" d="M17.51,10V20.3H18A1.34,1.34,0,0,0,19.3,19V11.78A1.79,1.79,0,0,0,17.51,10Z" fill="#a56a2e"/>
      <circle id="Ellipse_14" data-name="Ellipse 14" cx="3.14" cy="3.14" r="3.14" transform="translate(9.89 1.92)" fill="#a56a2e"/>
    </g>
  </g>
</svg>
