<svg width="30" height="30" viewBox="0 0 30 30" fill="none" xmlns="http://www.w3.org/2000/svg">
<path d="M28.9434 15.0268C28.9062 14.9486 28.852 14.8796 28.7847 14.825L19.6667 7.41667L10.5492 14.825C10.4818 14.8797 10.4275 14.9487 10.3902 15.027C10.3528 15.1053 10.3334 15.1909 10.3333 15.2777V29H29V15.2777C29.0001 15.1909 28.9807 15.1052 28.9434 15.0268ZM24.9167 21.4167C24.9167 21.5714 24.8552 21.7197 24.7458 21.8291C24.6364 21.9385 24.488 22 24.3333 22H21.4167V24.9167C21.4167 25.0714 21.3552 25.2197 21.2458 25.3291C21.1364 25.4385 20.988 25.5 20.8333 25.5H18.5C18.3453 25.5 18.1969 25.4385 18.0875 25.3291C17.9781 25.2197 17.9167 25.0714 17.9167 24.9167V22H15C14.8453 22 14.6969 21.9385 14.5875 21.8291C14.4781 21.7197 14.4167 21.5714 14.4167 21.4167V19.0833C14.4167 18.9286 14.4781 18.7803 14.5875 18.6709C14.6969 18.5615 14.8453 18.5 15 18.5H17.9167V15.5833C17.9167 15.4286 17.9781 15.2803 18.0875 15.1709C18.1969 15.0615 18.3453 15 18.5 15H20.8333C20.988 15 21.1364 15.0615 21.2458 15.1709C21.3552 15.2803 21.4167 15.4286 21.4167 15.5833V18.5H24.3333C24.488 18.5 24.6364 18.5615 24.7458 18.6709C24.8552 18.7803 24.9167 18.9286 24.9167 19.0833V21.4167ZM12.6667 6.83334C12.6667 5.67961 12.3245 4.5518 11.6836 3.59251C11.0426 2.63322 10.1316 1.88555 9.06566 1.44404C7.99975 1.00253 6.82686 0.887008 5.69531 1.11209C4.56375 1.33717 3.52435 1.89274 2.70855 2.70855C1.89274 3.52435 1.33717 4.56375 1.11209 5.69531C0.887008 6.82686 1.00253 7.99975 1.44404 9.06566C1.88555 10.1316 2.63322 11.0426 3.59251 11.6836C4.5518 12.3245 5.67961 12.6667 6.83334 12.6667C8.38043 12.6667 9.86416 12.0521 10.9581 10.9581C12.0521 9.86416 12.6667 8.38043 12.6667 6.83334ZM10.1292 5.52667L6.04584 9.02667C5.93422 9.1221 5.79073 9.17192 5.64399 9.16619C5.49726 9.16046 5.35808 9.09959 5.25425 8.99575L3.50425 7.24575C3.39799 7.13573 3.3392 6.98838 3.34053 6.83543C3.34185 6.68249 3.4032 6.53618 3.51136 6.42803C3.61951 6.31987 3.76582 6.25852 3.91877 6.25719C4.07172 6.25586 4.21907 6.31466 4.32909 6.42092L5.69759 7.78884L9.37084 4.64059C9.48907 4.54681 9.63904 4.50251 9.78925 4.51698C9.93946 4.53146 10.0782 4.60357 10.1764 4.71819C10.2745 4.83281 10.3245 4.98101 10.3157 5.13166C10.3068 5.2823 10.24 5.42426 10.1292 5.52667Z" fill="white"/>
</svg>
