<svg width="30" height="30" viewBox="0 0 30 30" fill="none" xmlns="http://www.w3.org/2000/svg">
<path d="M15.2988 2.53125C15.5039 3.33984 15.5039 3.42773 15.3223 3.60352C15.1875 3.74414 15.1523 3.75 14.3848 3.75H13.5938V4.21875V4.6875H16.4062H19.2188V4.21875V3.75H18.4277C17.6602 3.75 17.625 3.74414 17.4902 3.60352C17.3086 3.42773 17.3086 3.33984 17.5137 2.53125L17.6836 1.875H16.4062H15.1289L15.2988 2.53125Z" fill="white"/>
<path d="M9.46289 3.83203C9.24609 3.92578 9.05273 4.13672 8.9707 4.35352C8.92383 4.46484 8.90625 5.91797 8.90625 8.82422V13.125H9.375H9.84375V9.05273V4.97461L9.99023 4.83398C10.1309 4.6875 10.1309 4.6875 11.3965 4.6875H12.6562V4.21875V3.75H11.1504C10.0195 3.75586 9.5918 3.77344 9.46289 3.83203Z" fill="white"/>
<path d="M20.1562 4.21875V4.6875H21.416C22.6816 4.6875 22.6816 4.6875 22.8223 4.83399L22.9688 4.97461V9.58594C22.9688 13.9453 22.9746 14.1914 23.0742 14.1621C23.127 14.1504 23.3379 14.0859 23.543 14.0273L23.9062 13.9277L23.8945 9.14063L23.877 4.35352L23.707 4.13672C23.4258 3.76758 23.332 3.75 21.6504 3.75H20.1562V4.21875Z" fill="white"/>
<path d="M10.7812 13.125V20.625H14.8535H18.9316L19.0723 20.7715C19.2188 20.9121 19.2188 20.9297 19.2188 21.9434V22.9688H20.625H22.0312V20.1914V17.4141L21.4629 17.584C21.1465 17.6777 19.5117 18.1699 17.8242 18.6738L14.7598 19.5879L13.6055 19.3887C12.3281 19.1719 12.1875 19.1074 12.1875 18.7441C12.1875 18.5859 12.2754 18.4746 12.8496 17.9297C13.207 17.5898 13.6113 17.209 13.7402 17.0977C13.957 16.9043 14.2383 16.8105 17.9883 15.6914L22.002 14.4902L22.0195 10.0547L22.0312 5.625H16.4062H10.7812V13.125ZM14.3848 6.70898C14.5312 6.84961 14.5312 6.86133 14.5312 7.96875C14.5312 9.47461 14.6309 9.375 13.125 9.375C11.6191 9.375 11.7188 9.47461 11.7188 7.96875C11.7188 6.46289 11.6191 6.5625 13.125 6.5625C14.2324 6.5625 14.2441 6.5625 14.3848 6.70898ZM16.4062 7.03125V7.5H15.9375H15.4688V7.03125V6.5625H15.9375H16.4062V7.03125ZM21.0938 7.03125V7.5H19.2188H17.3438V7.03125V6.5625H19.2188H21.0938V7.03125ZM21.0938 8.90625V9.375H18.2812H15.4688V8.90625V8.4375H18.2812H21.0938V8.90625ZM14.3848 10.9277C14.5312 11.0684 14.5312 11.0801 14.5312 12.1875C14.5312 13.6934 14.6309 13.5938 13.125 13.5938C11.6191 13.5938 11.7188 13.6934 11.7188 12.1875C11.7188 10.6816 11.6191 10.7812 13.125 10.7812C14.2324 10.7812 14.2441 10.7812 14.3848 10.9277ZM16.4062 11.25V11.7188H15.9375H15.4688V11.25V10.7812H15.9375H16.4062V11.25ZM21.0938 11.25V11.7188H19.2188H17.3438V11.25V10.7812H19.2188H21.0938V11.25ZM21.0938 13.125V13.5938H18.2812H15.4688V13.125V12.6562H18.2812H21.0938V13.125Z" fill="white"/>
<path d="M12.6562 7.96875V8.4375H13.125H13.5938V7.96875V7.5H13.125H12.6562V7.96875Z" fill="white"/>
<path d="M12.6562 12.1875V12.6562H13.125H13.5938V12.1875V11.7188H13.125H12.6562V12.1875Z" fill="white"/>
<path d="M22.1535 15.416C19.5988 16.1836 17.4953 16.8223 17.4836 16.8281C17.4484 16.8691 17.7238 17.6953 17.7707 17.6953C17.8468 17.6953 26.8 15.0234 27.1164 14.9062C27.2511 14.8535 27.3918 14.7656 27.4211 14.707C27.5968 14.3789 27.3742 13.998 27.005 14.0098C26.8937 14.0098 24.714 14.6426 22.1535 15.416Z" fill="white"/>
<path d="M2.34375 17.3438V20.625H6.09375H9.84375V17.3438V14.0625H8.90625H7.96875V15.3223C7.96875 16.5879 7.96875 16.5879 7.82227 16.7285L7.68164 16.875H6.09375H4.50586L4.36523 16.7285C4.21875 16.5879 4.21875 16.5879 4.21875 15.3223V14.0625H3.28125H2.34375V17.3438ZM8.90625 19.2188V19.6875H8.4375H7.96875V19.2188V18.75H8.4375H8.90625V19.2188Z" fill="white"/>
<path d="M5.15625 15V15.9375H6.09375H7.03125V15V14.0625H6.09375H5.15625V15Z" fill="white"/>
<path d="M23.3672 17.0039L22.9688 17.127V20.373V23.6191L22.8223 23.7598L22.6816 23.9063H20.9473H19.2188V24.375V24.8496L21.2637 24.832C23.2266 24.8145 23.3203 24.8086 23.4727 24.6914C23.5606 24.627 23.6895 24.498 23.7539 24.4102C23.877 24.252 23.877 24.1816 23.8945 20.5605C23.9063 17.6074 23.8945 16.875 23.8359 16.8809C23.7949 16.8867 23.584 16.9395 23.3672 17.0039Z" fill="white"/>
<path d="M15.4162 17.4316L14.4025 17.7422L14.0568 18.082C13.8693 18.2695 13.7228 18.4277 13.7287 18.4395C13.7404 18.4453 13.9572 18.4922 14.215 18.5449L14.6779 18.6328L15.7033 18.334C16.2658 18.1641 16.7521 18.0117 16.7756 17.9883C16.8459 17.9297 16.5881 17.1094 16.506 17.1152C16.465 17.1152 15.9787 17.2617 15.4162 17.4316Z" fill="white"/>
<path d="M2.34375 24.8438V28.125H6.09375H9.84375V24.8438V21.5625H8.90625H7.96875V22.8223C7.96875 24.0879 7.96875 24.0879 7.82227 24.2285L7.68164 24.375H6.09375H4.50586L4.36523 24.2285C4.21875 24.0879 4.21875 24.0879 4.21875 22.8223V21.5625H3.28125H2.34375V24.8438ZM8.90625 26.7188V27.1875H8.4375H7.96875V26.7188V26.25H8.4375H8.90625V26.7188Z" fill="white"/>
<path d="M5.15625 22.5V23.4375H6.09375H7.03125V22.5V21.5625H6.09375H5.15625V22.5Z" fill="white"/>
<path d="M10.7812 24.8438V28.125H14.5312H18.2812V24.8438V21.5625H17.3438H16.4062V22.8223C16.4062 24.0879 16.4062 24.0879 16.2598 24.2285L16.1191 24.375H14.5312H12.9434L12.8027 24.2285C12.6562 24.0879 12.6562 24.0879 12.6562 22.8223V21.5625H11.7188H10.7812V24.8438ZM17.3438 26.7188V27.1875H16.875H16.4062V26.7188V26.25H16.875H17.3438V26.7188Z" fill="white"/>
<path d="M13.5938 22.5V23.4375H14.5312H15.4688V22.5V21.5625H14.5312H13.5938V22.5Z" fill="white"/>
</svg>
