<svg width="20" height="26" viewBox="0 0 20 26" fill="none" xmlns="http://www.w3.org/2000/svg">
<path d="M0.0273438 13.4316V26H9.24414H18.4551L18.6836 25.8652C18.8066 25.7949 18.959 25.6426 19.0176 25.5312C19.123 25.3379 19.1289 24.8926 19.1289 13.0977V0.863281H9.57812H0.0273438V13.4316ZM10.9375 2.21094C13.2402 2.67969 14.9453 4.61914 15.0625 6.89844C15.1035 7.63672 15.0215 7.8418 14.6172 8.05273C14.3652 8.1875 14.3477 8.1875 12.0742 8.1875C9.94141 8.1875 9.76562 8.17578 9.53711 8.07031C9.39062 8.00586 9.23828 7.87695 9.16797 7.76562C9.05664 7.57812 9.05078 7.47852 9.05078 5.13477C9.05078 2.70312 9.05078 2.69727 9.18555 2.50391C9.47266 2.07617 9.91211 2.00586 10.9375 2.21094ZM7.97852 4.76562C8.33594 5.03516 8.34766 5.11719 8.34766 7.06836V8.82617L10.1523 8.84375C11.8281 8.86133 11.9629 8.86719 12.1504 8.97852C12.5898 9.23633 12.707 9.66406 12.5723 10.5371C12.4082 11.5742 11.9043 12.582 11.1602 13.3438C10.4746 14.041 9.81836 14.4453 8.89258 14.7324C8.42969 14.873 8.2832 14.8906 7.46875 14.8906C6.42578 14.8965 5.98047 14.8027 5.1543 14.3984C3.85938 13.7598 2.79883 12.4531 2.41797 11.0293C2.25977 10.4141 2.24219 9.23047 2.38867 8.62695C2.92188 6.45898 4.66211 4.88281 6.8125 4.61328C7.4043 4.53711 7.73828 4.58398 7.97852 4.76562ZM15.2441 17.0703C15.8125 17.4922 15.8125 18.1602 15.2441 18.582C15.0801 18.7051 15.0684 18.7051 8.6582 18.7227C2.30664 18.7344 2.23047 18.7344 1.99609 18.6172C1.67383 18.459 1.5332 18.248 1.50977 17.8906C1.48047 17.498 1.62695 17.2285 1.96094 17.0527L2.21875 16.918L8.64648 16.9297C15.0684 16.9473 15.0801 16.9473 15.2441 17.0703ZM15.1973 20.4805C15.4785 20.6211 15.625 20.8438 15.6543 21.1777C15.6836 21.5234 15.5488 21.8105 15.2676 21.998L15.0684 22.1328H8.58789C2.22461 22.1328 2.10156 22.1328 1.91406 22.0156C1.65039 21.8516 1.49219 21.5703 1.49219 21.2539C1.49219 20.9375 1.65039 20.6562 1.91406 20.4922C2.10156 20.375 2.22461 20.375 8.55273 20.375C14.5762 20.375 15.0098 20.3809 15.1973 20.4805Z" fill="white"/>
</svg>
