<svg xmlns="http://www.w3.org/2000/svg" xmlns:xlink="http://www.w3.org/1999/xlink" width="26" height="26" viewBox="0 0 26 26">
  <defs>
    <clipPath id="clip-livestock">
      <rect width="26" height="26"/>
    </clipPath>
  </defs>
  <g id="livestock" clip-path="url(#clip-livestock)">
    <path id="livestock-2" data-name="livestock" d="M24.13,9.07,21,6.62,21.64,6a1.33,1.33,0,1,0-1.88-1.88L18.69,5.15,18.51,5a1.33,1.33,0,0,0-1.88,1.88l.18.18-.51.51H3.35A2.78,2.78,0,0,0,.58,10.31v4.61a1,1,0,1,0,2,0V10.31a.76.76,0,0,1,.76-.75H3.6V20.15a1.52,1.52,0,0,0,3,0v-3h.9a5.78,5.78,0,0,0,8.78,0h.91v3a1.51,1.51,0,1,0,3,0V12.08h2.85a1.69,1.69,0,0,0,1.09-3.01Z" transform="translate(0.234 0.232)" fill="#a56a2e"/>
  </g>
</svg>
