<svg width="30" height="30" viewBox="0 0 30 30" fill="none" xmlns="http://www.w3.org/2000/svg">
<g clip-path="url(#clip0_576_42)">
<path d="M15 1.6665C11.3755 1.6665 8.4375 4.60452 8.4375 8.229C8.4375 11.1592 12.7266 16.4998 14.3698 18.4384C14.7026 18.8311 15.2979 18.8311 15.6302 18.4384C17.2734 16.4998 21.5625 11.1592 21.5625 8.229C21.5625 4.60452 18.6245 1.6665 15 1.6665ZM15 10.4165C13.7917 10.4165 12.8125 9.43734 12.8125 8.229C12.8125 7.02067 13.7917 6.0415 15 6.0415C16.2083 6.0415 17.1875 7.02067 17.1875 8.229C17.1875 9.43734 16.2083 10.4165 15 10.4165ZM1.04792 12.9139C0.738634 13.0376 0.473505 13.2511 0.286724 13.5269C0.099942 13.8027 7.40733e-05 14.1282 0 14.4613L0 27.4988C0 28.0884 0.595313 28.4915 1.14271 28.2728L8.33333 24.9998V12.8603C7.87292 12.028 7.49635 11.2175 7.22656 10.4425L1.04792 12.9139ZM15 20.3993C14.2672 20.3993 13.574 20.0774 13.0984 19.516C12.0745 18.3076 10.9854 16.9316 10 15.5201V24.9993L20 28.3326V15.5207C19.0146 16.9316 17.926 18.3082 16.9016 19.5165C16.426 20.0774 15.7328 20.3993 15 20.3993ZM28.8573 10.0603L21.6667 13.3332V28.3332L28.9521 25.4191C29.2614 25.2955 29.5266 25.0819 29.7134 24.8061C29.9002 24.5303 30 24.2048 30 23.8717V10.8342C30 10.2446 29.4047 9.8415 28.8573 10.0603Z" fill="white"/>
</g>
<defs>
<clipPath id="clip0_576_42">
<rect width="30" height="30" fill="white"/>
</clipPath>
</defs>
</svg>
