<svg width="35" height="27" viewBox="0 0 35 27" fill="none" xmlns="http://www.w3.org/2000/svg">
<path d="M33.9746 14.6621L22.4902 25.4C21.4648 26.4254 19.6875 25.4697 19.6875 24L19.6 16.9999H10.3906C9.48145 16.9999 8.75 17.2091 8.75 16.2999V10.2188C8.75 9.30957 9.48145 9.29991 10.3906 9.29991H19.6875V3C19.6875 1.53711 21.458 1.27461 22.4902 2.3L33.9746 12.3379C34.6104 12.9805 34.6104 14.0195 33.9746 14.6621ZM13.125 25.8047V23.0703C13.125 22.6191 12.7559 22.25 12.3047 22.25H6.5625C5.35254 22.25 4.375 21.2725 4.375 20.0625V6.9375C4.375 5.72754 5.35254 4.75 6.5625 4.75H12.3047C12.7559 4.75 13.125 4.38086 13.125 3.92969V1.19531C13.125 0.744141 12.7559 0.375 12.3047 0.375H6.5625C2.93945 0.375 0 3.31445 0 6.9375V20.0625C0 23.6855 2.93945 26.625 6.5625 26.625H12.3047C12.7559 26.625 13.125 26.2559 13.125 25.8047Z" fill="#3E3E3E"/>
</svg>
