<svg width="28" height="28" viewBox="0 0 28 28" fill="none" xmlns="http://www.w3.org/2000/svg">
<path d="M0.776562 0.776563L0 1.55859L6.79219 8.35078L13.5898 15.1484L15.7828 12.9555L17.9758 10.7625L21.1039 13.9781L24.232 17.1992L22.8484 17.2266L21.4648 17.2539L21.4484 18.3313L21.4375 19.4141H24.7187H28V16.1875V12.9609H26.9062H25.8125L25.8016 14.3117L25.7852 15.6625L21.9023 11.6648L18.0195 7.66172L15.8156 9.86016L13.6172 12.0586L7.58516 6.02656L1.55859 3.3062e-07L0.776562 0.776563Z" fill="white"/>
<path d="M2.24219 17.3797V27.8906H3.33594H4.42969V18.468V9.05078L3.33594 7.95703L2.24219 6.86328V17.3797Z" fill="white"/>
<path d="M6.5625 19.5398V27.8906H7.65625H8.75V20.6281V13.3711L7.65625 12.2773L6.5625 11.1836V19.5398Z" fill="white"/>
<path d="M16.1984 15.657L15.1484 16.707V22.3016V27.8906H16.2148H17.2812V21.2461C17.2812 17.593 17.2758 14.6016 17.2648 14.6016C17.2594 14.6016 16.7781 15.0773 16.1984 15.657Z" fill="white"/>
<path d="M10.8828 21.7V27.8906H11.9766H13.0703V22.7883V17.6914L11.9766 16.5977L10.8828 15.5039V21.7Z" fill="white"/>
<path d="M19.3594 23.9258V27.8906H20.4531H21.5469V25.0688V22.2469L20.475 21.1039C19.8898 20.475 19.3977 19.9609 19.3812 19.9609C19.3703 19.9609 19.3594 21.7438 19.3594 23.9258Z" fill="white"/>
<path d="M23.6797 24.8008V27.8906H24.7734H25.8672V24.8008V21.7109H24.7734H23.6797V24.8008Z" fill="white"/>
</svg>
