<svg xmlns="http://www.w3.org/2000/svg" xmlns:xlink="http://www.w3.org/1999/xlink" width="26" height="26" viewBox="0 0 26 26">
  <defs>
    <clipPath id="clip-male">
      <rect width="26" height="26"/>
    </clipPath>
  </defs>
  <g id="male" clip-path="url(#clip-male)">
    <g id="male-2" data-name="male" transform="translate(0.172 0.325)">
      <path id="Path_657" data-name="Path 657" d="M10.63,8.28h-.36v5.88A1.29,1.29,0,0,1,10,15a.81.81,0,0,1-1.39,0,1.38,1.38,0,0,1-.22-.71V8.23A2.23,2.23,0,0,1,10.57,6H15.1a2.23,2.23,0,0,1,2.16,2.19v6.06a.94.94,0,1,1-1.86-.01V8.29H15V23a1.83,1.83,0,0,1,0,.33,1,1,0,0,1-1,.89,1.06,1.06,0,0,1-1-1c0-.12,0-.24,0-.35V15.33h-.31v7.62a1.5,1.5,0,0,1-.09.56.991.991,0,0,1-1.91-.15,2.28,2.28,0,0,1,0-.45V8.28Z" fill="#606060"/>
      <path id="Path_658" data-name="Path 658" d="M12.83,1.13a2.1,2.1,0,1,1-1.5.619,2.11,2.11,0,0,1,1.5-.619Z" fill="#606060"/>
    </g>
  </g>
</svg>
