<svg width="30" height="30" viewBox="0 0 30 30" fill="none" xmlns="http://www.w3.org/2000/svg">
<g clip-path="url(#clip0_576_44)">
<path d="M25 23.3335V24.1668C25 25.5476 23.8807 26.6668 22.5 26.6668H2.5C1.11927 26.6668 0 25.5476 0 24.1668V10.8335C0 9.45277 1.11927 8.3335 2.5 8.3335H3.33333V19.1668C3.33333 21.4643 5.2025 23.3335 7.5 23.3335H25ZM30 19.1668V5.8335C30 4.45277 28.8807 3.3335 27.5 3.3335H7.5C6.11927 3.3335 5 4.45277 5 5.8335V19.1668C5 20.5476 6.11927 21.6668 7.5 21.6668H27.5C28.8807 21.6668 30 20.5476 30 19.1668ZM13.3333 8.3335C13.3333 9.71423 12.2141 10.8335 10.8333 10.8335C9.4526 10.8335 8.33333 9.71423 8.33333 8.3335C8.33333 6.95277 9.4526 5.8335 10.8333 5.8335C12.2141 5.8335 13.3333 6.95277 13.3333 8.3335ZM8.33333 15.8335L11.2247 12.9421C11.4688 12.698 11.8645 12.698 12.1086 12.9421L14.1667 15.0002L21.2247 7.94209C21.4688 7.69803 21.8645 7.69803 22.1086 7.94209L26.6667 12.5002V18.3335H8.33333V15.8335Z" fill="white"/>
</g>
<defs>
<clipPath id="clip0_576_44">
<rect width="30" height="30" fill="white"/>
</clipPath>
</defs>
</svg>
