<svg width="25" height="25" viewBox="0 0 25 25" fill="none" xmlns="http://www.w3.org/2000/svg">
<circle cx="12.5" cy="12.5" r="12.5" fill="white"/>
<path d="M18.125 11.0938H6.875C6.35732 11.0938 5.9375 11.5136 5.9375 12.0312V12.9688C5.9375 13.4864 6.35732 13.9062 6.875 13.9062H18.125C18.6427 13.9062 19.0625 13.4864 19.0625 12.9688V12.0312C19.0625 11.5136 18.6427 11.0938 18.125 11.0938Z" fill="#003572"/>
<path d="M11.0938 6.875L11.0938 18.125C11.0938 18.6427 11.5136 19.0625 12.0312 19.0625H12.9688C13.4864 19.0625 13.9062 18.6427 13.9062 18.125L13.9063 6.875C13.9063 6.35732 13.4864 5.9375 12.9688 5.9375H12.0313C11.5136 5.9375 11.0938 6.35732 11.0938 6.875Z" fill="#003572"/>
</svg>
