<svg width="28" height="28" viewBox="0 0 28 28" fill="none" xmlns="http://www.w3.org/2000/svg">
<g clip-path="url(#clip0_140_372)">
<path d="M0 14V28H10.7188H21.4375V26.2172V24.4289L21.257 24.4727C20.6445 24.6039 20.207 24.6586 19.7969 24.6641C18.1727 24.6695 16.4609 23.9805 15.2633 22.8375C14.7711 22.3617 14.2297 21.618 13.9125 20.9727C13.0156 19.1188 13.0156 17.0789 13.9125 15.2305C14.8148 13.3875 16.4172 12.1625 18.4953 11.725C19.2445 11.5664 20.5023 11.5992 21.3172 11.7961L21.4375 11.8234V10.0406V8.25781H17.3359H13.2344V4.12891V0H6.61719H0V14ZM14.875 10.7188V11.5391H9.07812H3.28125V10.7188V9.89844H9.07812H14.875V10.7188ZM11.5938 14V14.8203H7.4375H3.28125V14V13.1797H7.4375H11.5938V14ZM11.5938 17.2812V18.1016H7.4375H3.28125V17.2812V16.4609H7.4375H11.5938V17.2812ZM11.5938 20.5625V21.3828H7.4375H3.28125V20.5625V19.7422H7.4375H11.5938V20.5625Z" fill="white"/>
<path d="M14.875 3.54375V6.61719H17.9211H20.9672L18.375 4.00312C16.9477 2.57031 15.5805 1.18672 15.3289 0.929688L14.875 0.464844V3.54375Z" fill="white"/>
<path d="M19.0573 13.2836C18.1768 13.4313 17.3291 13.7922 16.6838 14.3063C15.9401 14.9023 15.2838 15.9141 15.0268 16.8711C14.8573 17.5 14.8627 18.7086 15.0323 19.332C15.7979 22.1539 18.7455 23.7016 21.4745 22.7062C21.7096 22.6188 22.0651 22.4492 22.2729 22.3234L22.6393 22.0992L24.1323 23.5539C24.9471 24.3578 25.8987 25.282 26.2377 25.6156L26.8502 26.2227L27.4299 25.643L28.0041 25.0633L25.9041 23.0016L23.7987 20.9398L24.0229 20.5734C24.4987 19.7914 24.7557 18.7414 24.6956 17.8281C24.5588 15.6789 23.1205 13.918 21.0807 13.3984C20.594 13.2727 19.5002 13.2125 19.0573 13.2836Z" fill="white"/>
</g>
<defs>
<clipPath id="clip0_140_372">
<rect width="28" height="28" fill="white"/>
</clipPath>
</defs>
</svg>
