<svg width="12" height="12" viewBox="0 0 12 12" fill="none" xmlns="http://www.w3.org/2000/svg">
<path d="M6.00078 6.65005C7.61562 6.65005 8.92578 5.33989 8.92578 3.72505C8.92578 2.11021 7.61562 0.800049 6.00078 0.800049C4.38594 0.800049 3.07578 2.11021 3.07578 3.72505C3.07578 5.33989 4.38594 6.65005 6.00078 6.65005ZM8.60078 7.30005H7.48156C7.03062 7.50724 6.52891 7.62505 6.00078 7.62505C5.47266 7.62505 4.97297 7.50724 4.52 7.30005H3.40078C1.96469 7.30005 0.800781 8.46395 0.800781 9.90005V10.225C0.800781 10.7633 1.2375 11.2 1.77578 11.2H10.2258C10.7641 11.2 11.2008 10.7633 11.2008 10.225V9.90005C11.2008 8.46395 10.0369 7.30005 8.60078 7.30005Z" fill="white"/>
</svg>
