<svg xmlns="http://www.w3.org/2000/svg" xmlns:xlink="http://www.w3.org/1999/xlink" width="32" height="32" viewBox="0 0 32 32">
  <defs>
    <clipPath id="clip-resource">
      <rect width="32" height="32"/>
    </clipPath>
  </defs>
  <g id="resource" clip-path="url(#clip-resource)">
    <g id="settings" transform="translate(3.928 4.269)">
      <path id="Path_681" data-name="Path 681" d="M138.727,11.247a1.948,1.948,0,0,1,2.255.355l.79-.79a5.563,5.563,0,0,0,7.334-6.144.507.507,0,0,0-.858-.277l-1.173,1.173A2.445,2.445,0,0,1,143.616,2.1L144.789.932a.507.507,0,0,0-.278-.858,5.562,5.562,0,0,0-6.111,7.42l-1.713,1.713Z" transform="translate(-125.405 0)" fill="#405467"/>
      <path id="Path_682" data-name="Path 682" d="M10.2,155.943,8.17,153.911l-7.1,7.1a2.365,2.365,0,0,0,3.345,3.345l6.124-6.124A1.948,1.948,0,0,1,10.2,155.943Z" transform="translate(0 -141.591)" fill="#405467"/>
      <path id="Path_683" data-name="Path 683" d="M14.972,28.882a.744.744,0,0,0-1.052,0l-.424.424L5.941,21.751l.353-.353a.744.744,0,0,0-.085-1.125L3.127,18a.744.744,0,0,0-.967.073L.851,19.385a.744.744,0,0,0-.073.967l2.27,3.082a.744.744,0,0,0,1.125.085l.353-.353,7.555,7.555-.454.454a.744.744,0,0,0,0,1.052L18.6,39.2a2.365,2.365,0,0,0,3.345-3.345Z" transform="translate(-0.24 -16.427)" fill="#405467"/>
    </g>
  </g>
</svg>
