<svg xmlns="http://www.w3.org/2000/svg" xmlns:xlink="http://www.w3.org/1999/xlink" width="76" height="76" viewBox="0 0 76 76">
  <defs>
    <clipPath id="clip-Tested">
      <rect width="76" height="76"/>
    </clipPath>
  </defs>
  <g id="Tested" clip-path="url(#clip-Tested)">
    <path id="Path_37015" data-name="Path 37015" d="M493.106,1152.808h18.953v9.475H493.106Zm1.354,12.183H510.7v44.674a8.122,8.122,0,0,1-16.244,0Zm4.061,25.721h8.122V1175.82h-8.122Zm44.674-.676a2.081,2.081,0,0,1-2.031,2.031h-.27l-3.927-.406a6.856,6.856,0,0,1-1.218,2.167l1.49,1.759a2.02,2.02,0,0,1-3.115,2.573l-1.488-1.76a8.8,8.8,0,0,1-2.843.948l-.136,2.437a1.941,1.941,0,0,1-2.031,1.76h-.27a2.025,2.025,0,0,1-1.76-2.3l.27-2.165a8.922,8.922,0,0,1-3.249-1.49l-1.895,1.49a2.031,2.031,0,1,1-2.437-3.249l1.76-1.354a7.847,7.847,0,0,1-.948-2.843l-2.573-.272a2.049,2.049,0,0,1,.542-4.061l2.167.272a9.424,9.424,0,0,1,1.488-3.115l-2.707-3.249a2.019,2.019,0,1,1,3.113-2.573l2.707,3.115a12.194,12.194,0,0,1,4.333-1.219l.27-2.3a2.049,2.049,0,0,1,4.061.542l-.27,2.573a8.931,8.931,0,0,1,2.707,1.894l1.084-.812a2.031,2.031,0,1,1,2.437,3.249l-1.218.948a8.033,8.033,0,0,1,.676,3.113l3.655.406A1.811,1.811,0,0,1,543.2,1190.036Zm-14.89-4.739a2.708,2.708,0,1,0-2.709,2.709A2.717,2.717,0,0,0,528.305,1185.3Zm4.061,6.092a2.031,2.031,0,1,0-2.031,2.032A2.083,2.083,0,0,0,532.366,1191.388Z" transform="translate(-472.942 -1147.298)" fill="#375da1"/>
  </g>
</svg>
