<svg width="30" height="30" viewBox="0 0 30 30" fill="none" xmlns="http://www.w3.org/2000/svg">
<path d="M10.3008 0.755912C9.88477 0.919974 9.64453 1.0899 9.33398 1.42974C8.96484 1.83404 8.67188 2.39654 8.29102 3.42779C7.89258 4.51177 7.69922 4.86919 7.4707 4.93365C7.37695 4.96294 6.78516 5.00982 6.16406 5.03911C5.54297 5.07427 4.82812 5.13872 4.58203 5.19146C3.41602 5.43169 2.69531 6.08208 2.48438 7.09576C2.34375 7.75786 2.41992 8.33794 2.8418 9.78521C2.94727 10.1543 3.05273 10.6114 3.07617 10.7989C3.11719 11.1329 3.11719 11.1446 2.92383 11.3497C2.8125 11.461 2.39648 11.8126 1.99219 12.129C1.02539 12.879 0.515625 13.4239 0.240234 13.9981C0.0410156 14.4141 0.0292969 14.4786 0.0292969 15.0001C0.0292969 15.5215 0.0410156 15.586 0.240234 16.002C0.515625 16.5762 1.02539 17.1211 1.99219 17.8711C2.39648 18.1876 2.8125 18.5391 2.92383 18.6504C3.11133 18.8497 3.11719 18.8672 3.07617 19.1895C3.05273 19.377 2.91797 19.9336 2.77734 20.4317C2.63672 20.9297 2.49023 21.5743 2.45508 21.8555C2.25586 23.4083 3.03516 24.4922 4.58789 24.8086C4.83984 24.8614 5.54883 24.9258 6.16992 24.961C6.79102 24.9903 7.37695 25.0372 7.4707 25.0665C7.69922 25.1309 7.89258 25.4883 8.29102 26.5723C8.85352 28.0958 9.31055 28.7637 10.0664 29.1329C10.3887 29.2969 10.5352 29.3321 10.9395 29.3497C11.748 29.379 12.3516 29.1446 13.5527 28.3243C14.25 27.8438 14.8125 27.5391 15 27.5391C15.1875 27.5391 15.75 27.8438 16.4473 28.3243C17.6602 29.1504 18.2637 29.3848 19.0723 29.3438C19.4707 29.3204 19.6289 29.2852 19.9395 29.1329C20.6836 28.7637 21.1523 28.0899 21.709 26.5723C22.1074 25.4883 22.3008 25.1309 22.5293 25.0665C22.6289 25.0372 23.2148 24.9903 23.8359 24.961C24.457 24.9258 25.1719 24.8614 25.418 24.8086C26.5898 24.5684 27.2988 23.9239 27.5156 22.9043C27.6562 22.2422 27.5801 21.6622 27.1582 20.2149C27.0527 19.8458 26.9473 19.3887 26.9238 19.2012C26.8828 18.8614 26.8828 18.8555 27.1055 18.6211C27.2344 18.4981 27.5859 18.1993 27.8906 17.9708C28.1953 17.7422 28.6875 17.3145 28.9863 17.0215C29.4258 16.5821 29.5664 16.4004 29.748 16.0196C29.959 15.586 29.9707 15.5215 29.9707 15.0001C29.9707 14.4786 29.959 14.4141 29.7598 13.9981C29.4844 13.4239 28.9746 12.879 28.0078 12.129C27.6035 11.8126 27.1875 11.461 27.0762 11.3438L26.8711 11.1329L26.9473 10.6641C26.9824 10.4063 27.0703 10.0489 27.1289 9.8731C27.3105 9.35161 27.5273 8.38482 27.5684 7.93951C27.668 6.84966 27.1582 5.89458 26.2441 5.46099C25.7109 5.20904 25.125 5.10357 23.8359 5.03911C23.2148 5.00982 22.6289 4.96294 22.5293 4.93365C22.3008 4.86919 22.1074 4.51177 21.709 3.42779C21.1465 1.90435 20.6895 1.23638 19.9336 0.86724C19.6113 0.703177 19.4648 0.668021 19.0605 0.650443C18.252 0.621146 17.6484 0.855521 16.4473 1.67583C15.75 2.1563 15.1875 2.46099 15 2.46099C14.8184 2.46099 14.2383 2.15044 13.6348 1.73443C12.8496 1.18951 12.4395 0.96099 11.9355 0.791068C11.3848 0.609427 10.7227 0.591849 10.3008 0.755912ZM20.0566 10.67C20.332 10.7461 20.6953 11.0626 20.8301 11.3438C20.9648 11.6251 20.9531 12.1231 20.8066 12.3985C20.7422 12.5333 19.2949 14.0157 17.3613 15.9434C14.2031 19.0899 14.0215 19.2657 13.752 19.3301C13.4062 19.4122 13.1133 19.3711 12.8027 19.1895C12.4336 18.9727 9.28125 15.7793 9.16406 15.4981C8.8125 14.6602 9.39258 13.7637 10.2891 13.7637C10.8105 13.7637 10.998 13.8985 12.2754 15.1758L13.4473 16.3477L16.2598 13.5411C18.3984 11.4141 19.1191 10.7286 19.2773 10.6817C19.5527 10.5938 19.7871 10.5938 20.0566 10.67Z" fill="white"/>
</svg>
