<?xml version="1.0" encoding="utf-8"?>
<!-- Generator: Adobe Illustrator 25.0.0, SVG Export Plug-In . SVG Version: 6.00 Build 0)  -->
<svg version="1.1" id="Layer_1" xmlns="http://www.w3.org/2000/svg" xmlns:xlink="http://www.w3.org/1999/xlink" x="0px" y="0px"
	 viewBox="0 0 50 50" style="enable-background:new 0 0 50 50;" xml:space="preserve">
<style type="text/css">
	.st0{fill:#FFFFFF;}
	.st1{fill:#1664C1;}
</style>
<circle class="st0" cx="25.4" cy="19.5" r="12.9"/>
<g id="OBJECTS">
	<g>
		<g>
			<path class="st1" d="M25,3.5c-8.7,0-15.8,7.1-15.8,15.8c0,6.9,4.5,13,11.1,15.1l3.3,5.7c0.4,0.7,1.3,0.9,2,0.5
				c0.2-0.1,0.4-0.3,0.5-0.5l3.3-5.7c8.4-2.4,13.2-11.2,10.8-19.6C38.3,8.1,32.1,3.5,25,3.5L25,3.5z M25,31.4
				C18.4,31.4,13,26,13,19.3S18.4,7.2,25,7.2c6.7,0,12.1,5.4,12.1,12.1c0,0,0,0,0,0C37.1,26,31.7,31.4,25,31.4z M26.6,44.6
				c0,0.9-0.7,1.6-1.6,1.6c-0.9,0-1.6-0.7-1.6-1.6c0-0.9,0.7-1.6,1.6-1.6c0,0,0,0,0,0C25.9,43,26.6,43.7,26.6,44.6z"/>
		</g>
		<g>
			<path class="st1" d="M20.3,21.3c0.4-0.2,0.7-0.6,0.7-1.1c0-0.5-0.3-1-0.8-1.3v-1.7l5,2.2l7.6-3.5l-7.6-3.5L17.5,16l1.7,0.7v2.2
				c-0.5,0.2-0.8,0.7-0.8,1.3c0,0.5,0.3,0.9,0.7,1.1l-0.7,2.4c-0.4,1.4,0.7,1.4,0.7,1.4h1.4c0,0,1.1,0,0.7-1.4L20.3,21.3z"/>
			<path class="st1" d="M22.4,19.8v0.4c0,0.6-0.2,1.1-0.6,1.5c0.3,0.6,0.5,1.3,0.6,1.9v0.8c0.9,0.4,1.8,0.5,2.8,0.6
				c1.9,0.1,3.7-0.6,4.9-2.1v-4.2L25.2,21L22.4,19.8z"/>
		</g>
	</g>
</g>
</svg>
