<svg id="Layer_1" data-name="Layer 1" xmlns="http://www.w3.org/2000/svg" width="53.245" height="46.565" viewBox="0 0 53.245 46.565">
  <path d="M39.964,32.417h-.831V28.952a2.491,2.491,0,0,0-.83-4.839H35.756V21.622a.829.829,0,0,0-.83-.83h-2.55a5.825,5.825,0,0,0-4.923-4.923V14.093h4.152a.831.831,0,0,0,.83-.83V9.941a.831.831,0,0,0-.83-.83H26.622a.831.831,0,0,0-.83.83v5.928a5.825,5.825,0,0,0-4.923,4.923h-2.55a.83.83,0,0,0-.831.83v2.491H14.942a2.491,2.491,0,0,0-.83,4.839v3.465h-.831a.83.83,0,0,0-.83.83v3.377a.831.831,0,0,0,.83.83H39.964a.831.831,0,0,0,.83-.83V33.247A.83.83,0,0,0,39.964,32.417ZM27.453,10.772h3.321v1.661H27.453Zm10.85,15a.83.83,0,1,1,0,1.66H32.435v-1.66ZM37.472,29.1v3.322H32.435V29.1ZM19.149,22.452H21.64a.831.831,0,0,0,.831-.83,4.152,4.152,0,1,1,8.3,0,.831.831,0,0,0,.831.83H34.1v1.661h-2.24l-4.773-3.182a.83.83,0,0,0-.921,0l-4.773,3.182h-2.24Zm9.134,3.322a.83.83,0,0,0-.83.83v5.813H25.792V26.6a.831.831,0,0,0-1.661,0v5.813h-1.66V25.388l4.151-2.768,4.152,2.768v7.029H29.113V26.6A.829.829,0,0,0,28.283,25.774Zm-13.341,0H20.81v1.66H14.942a.83.83,0,1,1,0-1.66ZM20.81,29.1v3.322H15.772V29.1Zm-2.94,6.7H14.112V34.077H19Zm1.986,0,1.126-1.716H32.263l1.126,1.716Zm19.277,0H35.375l-1.126-1.716h4.884Z" fill="#4b4c4c"/>
</svg>
