<svg id="Layer_1" data-name="Layer 1" xmlns="http://www.w3.org/2000/svg" width="53.245" height="46.565" viewBox="0 0 53.245 46.565">
  <g>
    <path d="M17.905,10.6H29.537a.852.852,0,0,1,.851.851v1.7a.851.851,0,0,0,1.7,0v-1.7A2.556,2.556,0,0,0,29.537,8.9H17.905a.852.852,0,0,1-.851-.851.852.852,0,0,0-1.7,0A2.557,2.557,0,0,0,17.905,10.6Zm0,0" fill="#4b4c4c"/>
    <path d="M14.5,14.007h8.8a.851.851,0,0,0,0-1.7H14.5a.852.852,0,0,1-.851-.851.851.851,0,0,0-1.7,0A2.556,2.556,0,0,0,14.5,14.007Zm0,0" fill="#4b4c4c"/>
    <path d="M24.288,15.255H22.3a.851.851,0,0,0-.844.746l-.935,7.482h5.545L25.133,16a.852.852,0,0,0-.845-.746Zm0,0" fill="#4b4c4c"/>
    <path d="M29.4,16l-.935,7.482h5.545L33.077,16a.852.852,0,0,0-.845-.746H30.246A.851.851,0,0,0,29.4,16Zm0,0" fill="#4b4c4c"/>
    <path d="M34.928,36.25a.851.851,0,0,0,.851-.851V26.037a.851.851,0,0,0-.851-.852H19.606a.85.85,0,0,0-.85.85v9.223a.992.992,0,0,0,.992.992h2.7m.851-6.809H22.16a.851.851,0,0,1,0-1.7H23.3a.851.851,0,0,1,0,1.7Zm4.54,0H26.7a.851.851,0,0,1,0-1.7h1.135a.851.851,0,0,1,0,1.7Zm4.539,0H31.239a.851.851,0,0,1,0-1.7h1.135a.851.851,0,0,1,0,1.7Zm0,0" fill="#4b4c4c"/>
  </g>
</svg>
