<?xml version="1.0" encoding="utf-8"?>
<!-- Generator: Adobe Illustrator 25.0.0, SVG Export Plug-In . SVG Version: 6.00 Build 0)  -->
<svg version="1.1" id="Layer_1" xmlns="http://www.w3.org/2000/svg" xmlns:xlink="http://www.w3.org/1999/xlink" x="0px" y="0px"
	 viewBox="0 0 50 50" style="enable-background:new 0 0 50 50;" xml:space="preserve">
<style type="text/css">
	.st0{fill:#FFFFFF;}
	.st1{fill:#1664C1;}
</style>
<circle class="st0" cx="25.4" cy="19.5" r="12.9"/>
<path class="st1" d="M25,3.5c-8.7,0-15.8,7.1-15.8,15.8c0,6.9,4.5,13,11.1,15.1l3.3,5.7c0.4,0.7,1.3,0.9,2,0.5
	c0.2-0.1,0.4-0.3,0.5-0.5l3.3-5.7c8.4-2.4,13.2-11.2,10.8-19.6C38.3,8.1,32.1,3.5,25,3.5L25,3.5z M25,31.4C18.4,31.4,13,26,13,19.3
	S18.4,7.2,25,7.2c6.7,0,12.1,5.4,12.1,12.1c0,0,0,0,0,0C37.1,26,31.7,31.4,25,31.4z M26.3,44.6c0,0.9-0.7,1.6-1.6,1.6
	c-0.9,0-1.6-0.7-1.6-1.6c0-0.9,0.7-1.6,1.6-1.6c0,0,0,0,0,0C25.6,43,26.3,43.7,26.3,44.6z"/>
<path class="st1" d="M20.8,13.4h5.8c0.2,0,0.4,0.2,0.4,0.4v0.8c0,0.2,0.2,0.4,0.4,0.4c0.2,0,0.4-0.2,0.4-0.4v-0.8
	c0-0.7-0.6-1.3-1.3-1.3h-5.8c-0.2,0-0.4-0.2-0.4-0.4v0c0-0.2-0.2-0.4-0.5-0.4c-0.2,0-0.4,0.2-0.4,0.4C19.5,12.9,20.1,13.4,20.8,13.4
	z"/>
<path class="st1" d="M19.1,15.1h4.4c0.2,0,0.4-0.2,0.4-0.4c0-0.2-0.2-0.4-0.4-0.4h-4.4c-0.2,0-0.4-0.2-0.4-0.4
	c0-0.2-0.2-0.4-0.5-0.4c-0.2,0-0.4,0.2-0.4,0.4C17.8,14.5,18.4,15.1,19.1,15.1z"/>
<path class="st1" d="M23.9,15.7h-1c-0.2,0-0.4,0.2-0.4,0.4l-0.5,3.7h2.8l-0.5-3.7C24.3,15.9,24.1,15.7,23.9,15.7z"/>
<path class="st1" d="M26.5,16.1L26,19.8h2.8l-0.5-3.7c0-0.2-0.2-0.4-0.4-0.4h-1C26.7,15.7,26.5,15.9,26.5,16.1z"/>
<path class="st1" d="M29.2,26.2c0.2,0,0.4-0.2,0.4-0.4l0,0v-4.6c0-0.2-0.2-0.4-0.4-0.4h0h-7.6c-0.2,0-0.4,0.2-0.4,0.4c0,0,0,0,0,0
	l0,0v4.6c0,0.3,0.2,0.5,0.5,0.5c0,0,0,0,0,0H29.2z M23.4,22.8h-0.6c-0.2,0-0.4-0.2-0.4-0.4c0-0.2,0.2-0.4,0.4-0.4h0.6
	c0.2,0,0.4,0.2,0.4,0.4C23.8,22.6,23.6,22.8,23.4,22.8L23.4,22.8z M25.7,22.8h-0.6c-0.2,0-0.4-0.2-0.4-0.4c0-0.2,0.2-0.4,0.4-0.4
	h0.6c0.2,0,0.4,0.2,0.4,0.4C26.1,22.6,25.9,22.8,25.7,22.8L25.7,22.8z M27.9,22.8h-0.6c-0.2,0-0.4-0.2-0.4-0.4
	c0-0.2,0.2-0.4,0.4-0.4h0.6c0.2,0,0.4,0.2,0.4,0.4C28.3,22.6,28.1,22.8,27.9,22.8L27.9,22.8z"/>
</svg>
