<svg xmlns="http://www.w3.org/2000/svg" xmlns:xlink="http://www.w3.org/1999/xlink" width="48" height="50" viewBox="0 0 48 50">
  <defs>
    <clipPath id="clip-rainfall">
      <rect width="48" height="50"/>
    </clipPath>
  </defs>
  <g id="rainfall" clip-path="url(#clip-rainfall)">
    <g id="Group_18286" data-name="Group 18286" transform="translate(3.652 -87.964)" opacity="1">
      <path id="Path_36837" data-name="Path 36837" d="M10.132,127a1.5,1.5,0,0,0-1.06.441L4.44,132.072a1.5,1.5,0,1,0,2.112,2.12l4.631-4.631A1.5,1.5,0,0,0,10.132,127Z" transform="translate(-0.606 -4.706)" fill="#f1faff"/>
      <path id="Path_36838" data-name="Path 36838" d="M23.143,127a1.5,1.5,0,0,0-1.06.441l-4.631,4.631a1.5,1.5,0,1,0,2.12,2.12l4.631-4.631A1.5,1.5,0,0,0,23.143,127Z" transform="translate(-2.582 -4.706)" fill="#f1faff"/>
      <path id="Path_36839" data-name="Path 36839" d="M36.143,127a1.5,1.5,0,0,0-1.06.441l-4.631,4.631a1.5,1.5,0,1,0,2.12,2.12l4.631-4.631A1.5,1.5,0,0,0,36.143,127Z" transform="translate(-4.556 -4.706)" fill="#f1faff"/>
      <path id="Path_36840" data-name="Path 36840" d="M33.063,103.642a7.408,7.408,0,0,0-2.68.492h-.008a9.745,9.745,0,0,0-19.356,1.493,5.082,5.082,0,0,0-6.794,4.792,5.016,5.016,0,0,0,.085.882H4.3a3.235,3.235,0,0,0-.5-.034,3.817,3.817,0,0,0,0,7.634H33.063a7.636,7.636,0,0,0,7.49-6.141,7.884,7.884,0,0,0,.144-1.493A7.627,7.627,0,0,0,33.063,103.642Z" transform="translate(0 0)" fill="#f1faff"/>
    </g>
  </g>
</svg>
