<svg id="Layer_1" data-name="Layer 1" xmlns="http://www.w3.org/2000/svg" width="53.245" height="46.565" viewBox="0 0 53.245 46.565">
  <g>
    <path d="M11.464,32.876c2.3,1.675,4.391,3.227,6.527,4.717A1.133,1.133,0,0,0,19,37.41c1.9-1.53,3.759-3.113,5.643-4.664A3.246,3.246,0,0,0,25.92,30.2c.036-2.846.043-5.692.051-8.538,0-.837-.4-1.4-1.27-1.386s-1.239.584-1.239,1.418c0,1.085.053,2.173-.028,3.252-.025.331-.413.635-.635.952-.2-.306-.547-.6-.565-.919-.065-1.183-.055-2.373-.008-3.558a2.319,2.319,0,0,1,1.91-2.325c.642-.14.789-.438.845-1.015q.345-3.542.768-7.074c.108-.918.062-1.731-.983-2.051-.826-.253-1.42.2-1.907,1.383-1.056,2.569-2.164,5.118-3.136,7.719a8.656,8.656,0,0,0-.545,3.057c.023,2.1.242,4.2.368,6.292.1,1.633.029,1.727-1.433,2.4C15.967,30.792,13.824,31.786,11.464,32.876Zm30.316,0c-2.488-1.15-4.746-2.219-7.027-3.235a1.634,1.634,0,0,1-1.1-1.824c.17-2.129.356-4.259.4-6.392a8.436,8.436,0,0,0-.427-3.078C32.564,15.5,31.346,12.7,30.19,9.88A1.359,1.359,0,0,0,28.5,8.939a1.333,1.333,0,0,0-1.045,1.619c.275,2.56.538,5.121.861,7.676a1.174,1.174,0,0,0,.66.784,2.58,2.58,0,0,1,2.052,2.672c.022,1.084.05,2.173-.032,3.251-.025.332-.406.636-.624.953-.2-.308-.542-.6-.566-.927-.076-1.011-.025-2.031-.036-3.048-.011-1.084-.424-1.631-1.224-1.647s-1.265.494-1.274,1.587c-.023,2.745-.082,5.494.057,8.233A3.869,3.869,0,0,0,28.409,32.5c1.9,1.78,3.96,3.4,5.986,5.04a.914.914,0,0,0,.856.052C37.38,36.1,39.48,34.552,41.78,32.88Z" fill="#4b4c4c"/>
    <path d="M11.464,32.876c2.36-1.09,4.5-2.084,6.649-3.072,1.462-.672,1.531-.766,1.433-2.4-.126-2.1-.345-4.193-.368-6.292a8.656,8.656,0,0,1,.545-3.057c.972-2.6,2.08-5.15,3.136-7.719.487-1.185,1.081-1.636,1.907-1.383,1.045.32,1.091,1.133.983,2.051q-.42,3.532-.768,7.074c-.056.577-.2.875-.845,1.015a2.319,2.319,0,0,0-1.91,2.325c-.047,1.185-.057,2.375.008,3.558.018.315.368.613.565.919.222-.317.61-.621.635-.952.081-1.079.028-2.167.028-3.252,0-.834.367-1.407,1.239-1.418s1.272.549,1.27,1.386c-.008,2.846-.015,5.692-.051,8.538a3.246,3.246,0,0,1-1.28,2.548C22.756,34.3,20.9,35.88,19,37.41a1.133,1.133,0,0,1-1.006.183C15.855,36.1,13.761,34.551,11.464,32.876Z" fill="#4b4c4c"/>
    <path d="M41.78,32.88c-2.3,1.672-4.4,3.216-6.529,4.716a.914.914,0,0,1-.856-.052c-2.026-1.644-4.083-3.26-5.986-5.04a3.869,3.869,0,0,1-1.079-2.412c-.139-2.739-.08-5.488-.057-8.233.009-1.093.47-1.6,1.274-1.587s1.213.563,1.224,1.647c.011,1.017-.04,2.037.036,3.048.024.322.368.619.566.927.218-.317.6-.621.624-.953.082-1.078.054-2.167.032-3.251a2.58,2.58,0,0,0-2.052-2.672,1.174,1.174,0,0,1-.66-.784c-.323-2.555-.586-5.116-.861-7.676A1.333,1.333,0,0,1,28.5,8.939a1.359,1.359,0,0,1,1.689.941c1.156,2.819,2.374,5.616,3.437,8.471a8.436,8.436,0,0,1,.427,3.078c-.047,2.133-.233,4.263-.4,6.392a1.634,1.634,0,0,0,1.1,1.824C37.034,30.661,39.292,31.73,41.78,32.88Z" fill="#4b4c4c"/>
  </g>
</svg>
