<svg id="Layer_1" data-name="Layer 1" xmlns="http://www.w3.org/2000/svg" width="53.245" height="46.565" viewBox="0 0 53.245 46.565">
  <path d="M14.769,12.483H38.1v3.385H27.171a13.816,13.816,0,0,1,.745,1.777,9.534,9.534,0,0,1,.414,1.776,4.613,4.613,0,0,1,.91-.271,5.041,5.041,0,0,1,.956-.09,5.4,5.4,0,0,1,2.017.384,5.14,5.14,0,0,1,2.86,2.776,5.416,5.416,0,0,1,.436,2.2A5.719,5.719,0,0,1,34.5,27.676a11.958,11.958,0,0,1-3.04,2.942l-2.529-2.9c.511-.361.935-.686,1.272-.971a6.024,6.024,0,0,0,.8-.8,2.245,2.245,0,0,0,.542-1.5,1.872,1.872,0,0,0-.445-1.332,1.518,1.518,0,0,0-1.166-.475,2.423,2.423,0,0,0-.873.151,2.841,2.841,0,0,0-.715.4,4.6,4.6,0,0,0-.609.564c-.19.211-.371.421-.542.632a6.12,6.12,0,0,1-3.838,2.077l-.03.061q.633.9,1.287,1.745T26,29.911q.722.813,1.535,1.611t1.777,1.61l-2.484,2.754a23.581,23.581,0,0,1-2.288-2.054q-1.1-1.122-2.092-2.341t-1.866-2.468q-.873-1.248-1.6-2.438t-1.31-2.265q-.579-1.075-.985-1.934l3.326-1.7a5.2,5.2,0,0,0,1.1,1.911,1.781,1.781,0,0,0,1.235.557,1.7,1.7,0,0,0,.8-.2,1.952,1.952,0,0,0,.662-.579,3.114,3.114,0,0,0,.459-.933,4.254,4.254,0,0,0,.173-1.272,7.3,7.3,0,0,0-.362-2.167,7.6,7.6,0,0,0-1.053-2.138H14.769Z" fill="#4b4c4c"/>
</svg>
