<svg xmlns="http://www.w3.org/2000/svg" width="35" height="49.412" viewBox="0 0 35 49.412"><defs><style>.a{opacity:0.67;}.b{fill:#f1faff;}</style></defs><g class="a" transform="translate(-446 -960)"><path class="b" d="M462.471,966.691a6.691,6.691,0,0,0-13.382,0v25.815a9.779,9.779,0,1,0,13.382,0Zm-6.691,39.632a6.688,6.688,0,0,1-4.18-11.91l.578-.463V966.691a3.6,3.6,0,1,1,7.206,0V993.95l.578.463a6.688,6.688,0,0,1-4.18,11.91Z" transform="translate(0 0)"/><path class="b" d="M457.162,995.615v-27.07a1.544,1.544,0,1,0-3.088,0v27.07a4.118,4.118,0,1,0,3.088,0Z" transform="translate(0.162 0.206)"/><path class="b" d="M478.9,970.176h-4.632v-4.632a1.544,1.544,0,1,0-3.088,0v4.632h-4.632a1.544,1.544,0,0,0,0,3.088h4.632V977.9a1.544,1.544,0,1,0,3.088,0v-4.632H478.9a1.544,1.544,0,0,0,0-3.088Z" transform="translate(0.559 0.118)"/></g></svg>