<svg id="Layer_1" data-name="Layer 1" xmlns="http://www.w3.org/2000/svg" width="53.245" height="46.565" viewBox="0 0 53.245 46.565">
  <g>
    <path d="M30.258,16.244a6.333,6.333,0,0,1,2.537-.538,5.847,5.847,0,0,1,1.444.176.269.269,0,0,0,.329-.3l-.065-.527h0a2.087,2.087,0,0,0-2.262-1.587c-1.236,0-2.416.742-2.416,1.658l.055.879A.272.272,0,0,0,30.258,16.244Z" fill="#4b4c4c"/>
    <path d="M40.548,31.348l-.028-.159c0-.011-.005-.022-.005-.033L39.5,26a3.846,3.846,0,0,0-2.262-2.871l-.483-3.75c0-1.593-1.8-2.894-3.959-2.894s-4.211,1.29-4.211,2.888a1.7,1.7,0,0,0,.016.236l.028.406a4.28,4.28,0,0,0-1.433-.241,4.2,4.2,0,0,0-1.444.247l.027-.412a1.649,1.649,0,0,0,.017-.236c0-1.592-2.059-2.888-4.211-2.888s-3.959,1.3-3.959,2.894l-.483,3.75A3.834,3.834,0,0,0,14.88,26l-1.016,5.161c0,.011-.006.022-.006.033l-.027.159h0a3.76,3.76,0,0,0-.038.5c0,2.449,2.564,4.436,5.721,4.436s5.721-1.987,5.721-4.436h0V29.816a4.659,4.659,0,0,0,1.96.412,4.723,4.723,0,0,0,1.954-.406v2.026h0c0,2.449,2.564,4.436,5.721,4.436s5.722-1.987,5.722-4.436C40.586,31.678,40.57,31.513,40.548,31.348ZM19.514,34.686c-2.235,0-4.124-1.3-4.124-2.838s1.889-2.839,4.124-2.839,4.123,1.3,4.123,2.839S21.748,34.686,19.514,34.686ZM27.2,28.823c-.939,0-1.7-.533-1.7-1.186s.763-1.186,1.7-1.186,1.7.532,1.7,1.186S28.134,28.823,27.2,28.823Zm7.67,5.863c-2.235,0-4.123-1.3-4.123-2.838s1.888-2.839,4.123-2.839,4.123,1.3,4.123,2.839S37.1,34.686,34.865,34.686Z" fill="#4b4c4c"/>
    <path d="M20.134,15.882a5.876,5.876,0,0,1,1.444-.176,6.315,6.315,0,0,1,2.537.538.266.266,0,0,0,.373-.231l.055-.878c0-.917-1.181-1.658-2.416-1.658a2.089,2.089,0,0,0-2.262,1.587h0l-.066.527A.269.269,0,0,0,20.134,15.882Z" fill="#4b4c4c"/>
  </g>
</svg>
