<svg xmlns="http://www.w3.org/2000/svg" xmlns:xlink="http://www.w3.org/1999/xlink" width="32" height="32" viewBox="0 0 32 32">
  <defs>
    <clipPath id="clip-contacts">
      <rect width="32" height="32"/>
    </clipPath>
  </defs>
  <g id="contacts" clip-path="url(#clip-contacts)">
    <path id="Icon_material-contact-phone" data-name="Icon material-contact-phone" d="M22.733,4.5H2.067A2.073,2.073,0,0,0,0,6.567V21.033A2.073,2.073,0,0,0,2.067,23.1H22.733a2.064,2.064,0,0,0,2.056-2.067L24.8,6.567A2.073,2.073,0,0,0,22.733,4.5ZM8.267,7.6a3.1,3.1,0,1,1-3.1,3.1A3.1,3.1,0,0,1,8.267,7.6Zm6.2,12.4H2.067V18.967c0-2.067,4.133-3.2,6.2-3.2s6.2,1.137,6.2,3.2Zm3.978-4.133H20.14l1.56,2.067L19.644,19.99a7.762,7.762,0,0,1-2.821-4.123,7.526,7.526,0,0,1,0-4.133A7.723,7.723,0,0,1,19.644,7.61L21.7,9.667l-1.56,2.067H18.445a6.086,6.086,0,0,0,0,4.133Z" transform="translate(3.6 2.2)" fill="#405467"/>
  </g>
</svg>
