<svg xmlns="http://www.w3.org/2000/svg" xmlns:xlink="http://www.w3.org/1999/xlink" width="26" height="26" viewBox="0 0 26 26">
  <defs>
    <clipPath id="clip-missing">
      <rect width="26" height="26"/>
    </clipPath>
  </defs>
  <g id="missing" clip-path="url(#clip-missing)">
    <g id="missing-2" data-name="missing" transform="translate(-1.18 0.133)">
      <path id="Path_659" data-name="Path 659" d="M16.29,6.48c-3.35,0-5.87,2.33-5.87,5.42a.91.91,0,0,0,1.81,0A3.35,3.35,0,0,1,14,8.85V22.73a.91.91,0,1,0,1.81,0V16h.9v6.77a.91.91,0,1,0,1.81,0V8.85a3.35,3.35,0,0,1,1.8,3.05.91.91,0,0,0,1.81,0C22.16,8.81,19.64,6.48,16.29,6.48Z" fill="#16b57e"/>
      <circle id="Ellipse_15" data-name="Ellipse 15" cx="1.81" cy="1.81" r="1.81" transform="translate(14.48 1.96)" fill="#16b57e"/>
      <path id="Path_660" data-name="Path 660" d="M6.81,2a3.62,3.62,0,1,0,3.61,3.62A3.62,3.62,0,0,0,6.81,2Zm0,6.37a.51.51,0,0,1-.5-.5.5.5,0,0,1,.5-.49.49.49,0,0,1,.49.49.5.5,0,0,1-.49.46ZM8.13,4.58a1.34,1.34,0,0,1-.87,1V6.3a.45.45,0,1,1-.9,0V5.21a.45.45,0,0,1,.45-.45h.1a.45.45,0,0,0,.34-.35V4.22a.45.45,0,0,0-.35-.34.31.31,0,0,0-.19,0,.44.44,0,0,0-.33.3.46.46,0,0,1-.86-.3,1.38,1.38,0,0,1,1-.89,1.69,1.69,0,0,1,.55,0A1.38,1.38,0,0,1,8.13,4a1.41,1.41,0,0,1,0,.28A1.12,1.12,0,0,1,8.13,4.58Z" fill="#16b57e"/>
    </g>
  </g>
</svg>
