<svg id="Layer_1" data-name="Layer 1" xmlns="http://www.w3.org/2000/svg" width="290.35mm" height="95.85mm" viewBox="0 0 823.03 271.69">
  <defs>
    <style>
      .cls-1 {
        fill: #4996d1;
      }

      .cls-2 {
        fill: #cbad53;
      }

      .cls-3 {
        font-size: 9.41px;
        fill: #231f20;
        font-family: FranklinGothic-Demi, Franklin Gothic Demi;
        font-weight: 300;
      }

      .cls-4 {
        fill: none;
        stroke: #afa5a7;
        stroke-miterlimit: 10;
      }
    </style>
  </defs>
  <title>BENEFICIARIES</title>
  <rect class="cls-1" x="79.6" y="187.48" width="20.16" height="13.81" transform="translate(-104.71 284.07) rotate(-90)"/>
  <rect class="cls-2" x="82.28" y="169.44" width="56.25" height="13.81" transform="translate(-65.95 286.75) rotate(-90)"/>
  <text class="cls-3" transform="translate(268.66 250.29)">Relief Amount </text>
  <text class="cls-3" transform="translate(99.46 250.29)">No. of Benefciaries for Family</text>
  <text class="cls-3" transform="translate(82.77 221.82)">January</text>
  <rect class="cls-1" x="125.05" y="176.07" width="42.98" height="13.81" transform="translate(-36.44 329.52) rotate(-90)"/>
  <rect class="cls-2" x="124.28" y="154.58" width="85.97" height="13.81" transform="translate(5.77 328.75) rotate(-90)"/>
  <text class="cls-3" transform="translate(139.63 221.82)">Februrary</text>
  <rect class="cls-1" x="172.79" y="166.95" width="61.23" height="13.81" transform="translate(29.55 377.25) rotate(-90)"/>
  <rect class="cls-2" x="200.52" y="173.97" width="47.19" height="13.81" transform="translate(43.25 404.99) rotate(-90)"/>
  <text class="cls-3" transform="translate(196.49 221.82)">March</text>
  <rect class="cls-1" x="256.49" y="193.79" width="7.54" height="13.81" transform="translate(59.57 460.96) rotate(-90)"/>
  <rect class="cls-2" x="264.07" y="180.65" width="33.82" height="13.81" transform="translate(93.42 468.54) rotate(-90)"/>
  <text class="cls-3" transform="translate(253.36 221.82)">April</text>
  <rect class="cls-1" x="232.73" y="113.17" width="168.78" height="13.81" transform="translate(197.05 437.2) rotate(-90)"/>
  <rect class="cls-2" x="294.86" y="154.58" width="85.96" height="13.81" transform="translate(176.36 499.33) rotate(-90)"/>
  <text class="cls-3" transform="translate(310.22 221.82)">May</text>
  <rect class="cls-1" x="368.94" y="192.52" width="10.08" height="13.81" transform="translate(174.56 573.41) rotate(-90)"/>
  <rect class="cls-2" x="340.17" y="143.03" width="109.07" height="13.81" transform="translate(244.77 544.64) rotate(-90)"/>
  <text class="cls-3" transform="translate(367.08 221.82)">June</text>
  <rect class="cls-1" x="422.8" y="189.52" width="16.09" height="13.81" transform="translate(234.42 627.27) rotate(-90)"/>
  <rect class="cls-2" x="434.66" y="180.65" width="33.82" height="13.81" transform="translate(264.01 639.12) rotate(-90)"/>
  <text class="cls-3" transform="translate(423.94 221.82)">July</text>
  <rect class="cls-1" x="466.71" y="176.56" width="42" height="13.81" transform="translate(304.24 671.18) rotate(-90)"/>
  <rect class="cls-2" x="451.92" y="141.05" width="113.02" height="13.81" transform="translate(360.47 656.39) rotate(-90)"/>
  <text class="cls-3" transform="translate(480.8 221.82)">August</text>
  <rect class="cls-1" x="511.16" y="164.15" width="66.82" height="13.81" transform="translate(373.51 715.63) rotate(-90)"/>
  <rect class="cls-2" x="521.73" y="154.01" width="87.11" height="13.81" transform="translate(404.37 726.2) rotate(-90)"/>
  <text class="cls-3" transform="translate(537.66 221.82)">September</text>
  <rect class="cls-1" x="598.91" y="195.04" width="5.04" height="13.81" transform="translate(399.48 803.38) rotate(-90)"/>
  <rect class="cls-2" x="605.24" y="180.65" width="33.82" height="13.81" transform="translate(434.59 809.71) rotate(-90)"/>
  <text class="cls-3" transform="translate(594.52 221.82)">October</text>
  <rect class="cls-1" x="645.9" y="185.17" width="24.79" height="13.81" transform="translate(466.22 850.36) rotate(-90)"/>
  <rect class="cls-2" x="635.46" y="154.01" width="87.11" height="13.81" transform="translate(518.1 839.92) rotate(-90)"/>
  <text class="cls-3" transform="translate(651.38 221.82)">November</text>
  <rect class="cls-1" x="660.62" y="143.03" width="109.07" height="13.81" transform="translate(565.22 865.08) rotate(-90)"/>
  <rect class="cls-2" x="702.1" y="163.79" width="67.54" height="13.81" transform="translate(565.18 906.57) rotate(-90)"/>
  <text class="cls-3" transform="translate(708.25 221.82)">December</text>
  <rect class="cls-1" x="84" y="243.17" width="9.27" height="9.27"/>
  <rect class="cls-2" x="248.56" y="243.17" width="9.27" height="9.27"/>
  <text class="cls-3" transform="translate(47.64 165.07) rotate(-90)">No. of Benefciaries for Family</text>
  <text class="cls-3" transform="translate(789.2 144.57) rotate(-90)">Relief Amount (NPR)</text>
  <polyline class="cls-4" points="52.03 19.41 52.03 204.47 775.47 204.47 775.47 19.41"/>
</svg>
