<svg xmlns="http://www.w3.org/2000/svg" xmlns:xlink="http://www.w3.org/1999/xlink" width="32" height="32" viewBox="0 0 32 32">
  <defs>
    <clipPath id="clip-budget_activity">
      <rect width="32" height="32"/>
    </clipPath>
  </defs>
  <g id="budget_activity" data-name="budget activity" clip-path="url(#clip-budget_activity)">
    <path id="Icon_material-local-activity" data-name="Icon material-local-activity" d="M23.161,14.961a2.247,2.247,0,0,1,2.24-2.24V8.24A2.247,2.247,0,0,0,23.161,6H5.24A2.237,2.237,0,0,0,3.011,8.24v4.48A2.24,2.24,0,0,1,3,17.2v4.48a2.247,2.247,0,0,0,2.24,2.24H23.161a2.247,2.247,0,0,0,2.24-2.24V17.2A2.247,2.247,0,0,1,23.161,14.961Zm-4.951,5.376L14.2,17.761l-4.01,2.576,1.21-4.615L7.715,12.709l4.749-.28L14.2,8.016l1.725,4.424,4.749.28L16.99,15.733l1.221,4.6Z" transform="translate(1.799 1.04)" fill="#405467"/>
  </g>
</svg>
