<svg id="Layer_1" data-name="Layer 1" xmlns="http://www.w3.org/2000/svg" viewBox="0 0 25.35 25.35"><defs><style>.cls-1{fill:#16b57e;}</style></defs><path class="cls-1" d="M15.9,6.48C12.55,6.48,10,8.81,10,11.9a.91.91,0,0,0,1.81,0,3.35,3.35,0,0,1,1.8-3.05V22.73a.91.91,0,1,0,1.81,0V16h.9v6.77a.91.91,0,1,0,1.81,0V8.85A3.35,3.35,0,0,1,20,11.9a.91.91,0,0,0,1.81,0C21.77,8.81,19.25,6.48,15.9,6.48Z"/><circle class="cls-1" cx="15.9" cy="3.77" r="1.81"/><path class="cls-1" d="M6.42,2A3.62,3.62,0,1,0,10,5.58,3.62,3.62,0,0,0,6.42,2ZM8.1,6.61a.48.48,0,0,1,0,.65.5.5,0,0,1-.32.13.48.48,0,0,1-.32-.13l-1-1-1,1a.46.46,0,0,1-.64,0,.46.46,0,0,1,0-.65l1-1-1-1a.45.45,0,0,1,.64-.64l1,1,1-1a.45.45,0,0,1,.64,0,.47.47,0,0,1,0,.64l-1,1Z"/></svg>