<svg xmlns="http://www.w3.org/2000/svg" xmlns:xlink="http://www.w3.org/1999/xlink" width="26" height="26" viewBox="0 0 26 26">
  <defs>
    <clipPath id="clip-family">
      <rect width="26" height="26"/>
    </clipPath>
  </defs>
  <g id="family" clip-path="url(#clip-family)">
    <g id="family-2" data-name="family" transform="translate(0.319 0.338)">
      <path id="Path_643" data-name="Path 643" d="M14.32,17.36,15,19.22c.07.2.13.41.21.61a.64.64,0,0,0,.84.35.59.59,0,0,0,.39-.78c-.28-.9-.57-1.79-.88-2.68a3.45,3.45,0,0,0-.33-.7A1.28,1.28,0,0,0,14,15.36H11.26a1.3,1.3,0,0,0-1.33.85c-.34.82-.61,1.66-.91,2.5-.06.18-.11.37-.16.56-.14.48,0,.8.38.93s.71-.07.87-.55c.23-.67.45-1.34.68-2a.7.7,0,0,1,.15-.28v6.82H8.13a.75.75,0,0,1-.85-.86V17.16a.062.062,0,0,0-.07-.06,1.91,1.91,0,0,1-1.81-2q0-1.17,0-2.34V8.31A2,2,0,0,1,7.47,6.23h5.11A2.13,2.13,0,0,1,14.3,7a.55.55,0,0,0,.36.13h2.57a.74.74,0,0,1,.86.66c.42,1.53.84,3.07,1.27,4.6.19.69.4,1.37.57,2.06a2.83,2.83,0,0,1,0,.87A1.36,1.36,0,0,1,19,16.5c.09.32.17.63.26.94.17.67-.07,1-.76,1H17.25v4.82c0,.63-.26.89-.89.89H14.27V17.38Zm-1.73-2.55a1.74,1.74,0,0,0,1.86-1.75,1.85,1.85,0,0,0-1.83-1.86A1.83,1.83,0,0,0,10.8,13a1.74,1.74,0,0,0,1.79,1.81Z" fill="#16b57e"/>
      <path id="Path_644" data-name="Path 644" d="M11.91,3.37A2.15,2.15,0,0,1,9.67,5.63,2.16,2.16,0,0,1,7.38,3.39,2.16,2.16,0,0,1,9.62,1.13a2.15,2.15,0,0,1,2.29,2.24Z" fill="#16b57e"/>
      <path id="Path_645" data-name="Path 645" d="M17.46,4.19a2.17,2.17,0,0,1-2.28,2.25A2.18,2.18,0,0,1,12.91,4.2,2.17,2.17,0,0,1,15.2,2a2.15,2.15,0,0,1,2.26,2.19Z" fill="#16b57e"/>
    </g>
  </g>
</svg>
