<svg id="Layer_1" data-name="Layer 1" xmlns="http://www.w3.org/2000/svg" viewBox="0 0 25.35 25.35"><defs><style>.cls-1{fill:#16b57e;}</style></defs><path class="cls-1" d="M14.32,17.36,15,19.22c.07.2.13.41.21.61a.64.64,0,0,0,.84.35.59.59,0,0,0,.39-.78c-.28-.9-.57-1.79-.88-2.68a3.45,3.45,0,0,0-.33-.7A1.28,1.28,0,0,0,14,15.36c-.91,0-1.82,0-2.74,0a1.3,1.3,0,0,0-1.33.85c-.34.82-.61,1.66-.91,2.5-.06.18-.11.37-.16.56-.14.48,0,.8.38.93s.71-.07.87-.55c.23-.67.45-1.34.68-2a.7.7,0,0,1,.15-.28v6.82H8.13a.75.75,0,0,1-.85-.86V17.16s0-.06-.07-.06a1.91,1.91,0,0,1-1.81-2c0-.78,0-1.56,0-2.34V8.31A2,2,0,0,1,7.47,6.23h5.11A2.13,2.13,0,0,1,14.3,7a.55.55,0,0,0,.36.13c.85,0,1.71,0,2.57,0a.74.74,0,0,1,.86.66c.42,1.53.84,3.07,1.27,4.6.19.69.4,1.37.57,2.06a2.83,2.83,0,0,1,0,.87A1.36,1.36,0,0,1,19,16.5c.09.32.17.63.26.94.17.67-.07,1-.76,1H17.25c0,.13,0,.25,0,.36v4.46c0,.63-.26.89-.89.89H14.27V17.38Zm-1.73-2.55a1.74,1.74,0,0,0,1.86-1.75,1.85,1.85,0,0,0-1.83-1.86A1.83,1.83,0,0,0,10.8,13,1.74,1.74,0,0,0,12.59,14.81Z"/><path class="cls-1" d="M11.91,3.37A2.15,2.15,0,0,1,9.67,5.63,2.16,2.16,0,0,1,7.38,3.39,2.16,2.16,0,0,1,9.62,1.13,2.15,2.15,0,0,1,11.91,3.37Z"/><path class="cls-1" d="M17.46,4.19a2.17,2.17,0,0,1-2.28,2.25A2.18,2.18,0,0,1,12.91,4.2,2.17,2.17,0,0,1,15.2,2,2.15,2.15,0,0,1,17.46,4.19Z"/></svg>