<svg id="Layer_1" data-name="Layer 1" xmlns="http://www.w3.org/2000/svg" viewBox="0 0 25.35 25.35"><defs><style>.cls-1{fill:#16b57e;}</style></defs><path class="cls-1" d="M14.9,8.71c.24,1.31.49,2.61.73,3.9l.87,4.66c.08.44-.05.6-.5.6H14.74v.32c0,1.67,0,3.34,0,5a1.39,1.39,0,0,1-.14.6.75.75,0,0,1-1.36,0,1.44,1.44,0,0,1-.14-.65c0-1.66,0-3.33,0-5v-.29h-.53v.31c0,1.65,0,3.31,0,5a1.53,1.53,0,0,1-.12.6.76.76,0,0,1-1.4,0,1.47,1.47,0,0,1-.12-.58c0-1.67,0-3.33,0-5v-.32H9.65c-.45,0-.58-.15-.5-.59.29-1.55.59-3.1.88-4.66.24-1.29.47-2.59.71-3.91h-.4c-.15.75-.29,1.5-.44,2.25s-.3,1.6-.46,2.4a1.59,1.59,0,0,1-.24.55.77.77,0,0,1-.8.37.8.8,0,0,1-.63-.68,1.69,1.69,0,0,1,0-.67c.36-1.91.73-3.81,1.1-5.72a1.11,1.11,0,0,1,1-1,5.29,5.29,0,0,1,1-.13Q13,6,15,6.07a4.52,4.52,0,0,1,.8.11,1.06,1.06,0,0,1,.94,1c.3,1.54.59,3.08.89,4.62L17.91,13a1.34,1.34,0,0,1-.13.9.71.71,0,0,1-1.2.17,1.56,1.56,0,0,1-.36-.7c-.3-1.44-.57-2.88-.85-4.33C15.3,8.67,15.3,8.67,14.9,8.71Z"/><path class="cls-1" d="M12.81,5.36a2.1,2.1,0,0,1-2.1-2.13,2.12,2.12,0,1,1,2.1,2.13Z"/></svg>