<svg xmlns="http://www.w3.org/2000/svg" xmlns:xlink="http://www.w3.org/1999/xlink" width="32" height="32" viewBox="0 0 32 32">
  <defs>
    <clipPath id="clip-general">
      <rect width="32" height="32"/>
    </clipPath>
  </defs>
  <g id="general" clip-path="url(#clip-general)">
    <path id="Path_686" data-name="Path 686" d="M183.987,192h-6.921A8.87,8.87,0,0,1,171,196.327V204.4a13.955,13.955,0,0,0,9.527,13.3,13.955,13.955,0,0,0,9.527-13.3v-8.069A8.871,8.871,0,0,1,183.987,192Zm2.483,10.908-6.34,6.34a1.681,1.681,0,0,1-2.377,0l-3.17-3.17a1.681,1.681,0,0,1,2.378-2.378l1.981,1.981,5.151-5.151a1.681,1.681,0,1,1,2.377,2.378Z" transform="translate(-164.527 -188.848)" fill="#405467"/>
  </g>
</svg>
