<svg id="Layer_1" data-name="Layer 1" xmlns="http://www.w3.org/2000/svg" viewBox="0 0 25.35 25.35"><defs><style>.cls-1{fill:#66b4c6;}</style></defs><path class="cls-1" d="M6.52,2.13a4.4,4.4,0,1,0,4.4,4.39A4.4,4.4,0,0,0,6.52,2.13ZM8.59,8a.42.42,0,0,1,0,.62.4.4,0,0,1-.31.13A.43.43,0,0,1,8,8.59L6.52,7.15,5.08,8.59a.43.43,0,0,1-.31.13.4.4,0,0,1-.31-.13.42.42,0,0,1,0-.62L5.9,6.52,4.46,5.08a.44.44,0,1,1,.62-.62L6.52,5.9,8,4.46a.44.44,0,0,1,.62.62L7.15,6.52Z"/><path class="cls-1" d="M23.15,12.17,16.91,6.63a.43.43,0,0,0-.56,0l-6.23,5.54a.25.25,0,0,0-.08.17V23.22h4.83V18.83a.88.88,0,0,1,.88-.88h1.76a.87.87,0,0,1,.88.88v4.39h4.83V12.34A.28.28,0,0,0,23.15,12.17Z"/></svg>