<svg xmlns="http://www.w3.org/2000/svg" xmlns:xlink="http://www.w3.org/1999/xlink" width="25" height="26" viewBox="0 0 25 26">
  <defs>
    <clipPath id="clip-infrastructure">
      <rect width="25" height="26"/>
    </clipPath>
  </defs>
  <g id="infrastructure" clip-path="url(#clip-infrastructure)">
    <g id="infrastructure-2" data-name="infrastructure" transform="translate(0.81 0.33)">
      <path id="Path_648" data-name="Path 648" d="M6,5A1.21,1.21,0,0,0,4.79,6.19H7.22A1.22,1.22,0,0,0,6,5Z" fill="#16b57e"/>
      <path id="Path_649" data-name="Path 649" d="M9.37,3a5.28,5.28,0,0,1-.93,8.73V22.4h13V3Zm6.36,17a.81.81,0,0,1-1.62,0V17.54A.81.81,0,0,1,15.49,17a.78.78,0,0,1,.24.57Zm0-6.08a.81.81,0,0,1-1.62,0V11.46a.81.81,0,0,1,.81-.81.82.82,0,0,1,.81.81Zm0-6.08a.81.81,0,0,1-1.62,0V5.38a.81.81,0,0,1,.81-.81.82.82,0,0,1,.81.81Z" fill="#16b57e"/>
      <path id="Path_650" data-name="Path 650" d="M10.06,7A4.06,4.06,0,1,0,6,11.06,4.06,4.06,0,0,0,10.06,7ZM8,8.62a.82.82,0,0,1-.81.82H4.79A.82.82,0,0,1,4,8.62V6.19a2,2,0,0,1,4,0Z" fill="#16b57e"/>
      <rect id="Rectangle_932" data-name="Rectangle 932" width="1.62" height="1.62" rx="0.41" transform="translate(5.19 7)" fill="#16b57e"/>
    </g>
  </g>
</svg>
