<svg id="Layer_1" data-name="Layer 1" xmlns="http://www.w3.org/2000/svg" viewBox="0 0 25.35 25.35"><defs><style>.cls-1{fill:#16b57e;}</style></defs><path class="cls-1" d="M6,5A1.21,1.21,0,0,0,4.79,6.19H7.22A1.22,1.22,0,0,0,6,5Z"/><path class="cls-1" d="M9.37,3a5.28,5.28,0,0,1-.93,8.73V22.4h13V3Zm6.36,17a.81.81,0,0,1-1.62,0V17.54A.81.81,0,0,1,15.49,17a.78.78,0,0,1,.24.57Zm0-6.08a.81.81,0,0,1-1.62,0V11.46a.81.81,0,0,1,.81-.81.82.82,0,0,1,.81.81Zm0-6.08a.81.81,0,1,1-1.62,0V5.38a.81.81,0,0,1,.81-.81.82.82,0,0,1,.81.81Z"/><path class="cls-1" d="M10.06,7A4.06,4.06,0,1,0,6,11.06,4.06,4.06,0,0,0,10.06,7ZM8,8.62a.82.82,0,0,1-.81.82H4.79A.82.82,0,0,1,4,8.62V6.19a2,2,0,0,1,4,0Z"/><rect class="cls-1" x="5.19" y="7" width="1.62" height="1.62" rx="0.41"/></svg>