<svg id="Layer_1" data-name="Layer 1" xmlns="http://www.w3.org/2000/svg" viewBox="0 0 25.35 25.35"><defs><style>.cls-1{fill:#16b57e;}</style></defs><path class="cls-1" d="M10.55,20.53A2.18,2.18,0,0,1,9.89,19a2.24,2.24,0,0,1,2.24-2.24h2L15.27,10H9.44a2.69,2.69,0,0,0-2.69,2.69v9a1.8,1.8,0,0,0,1.8,1.79h6.27a1.79,1.79,0,0,0,1.79-1.79v-.45H12.13A2.18,2.18,0,0,1,10.55,20.53Z"/><path class="cls-1" d="M10.79,19a1.33,1.33,0,0,0,1.34,1.34h1.34l.47-2.68H12.13A1.34,1.34,0,0,0,10.79,19Z"/><path class="cls-1" d="M17.51,10v10.3H18A1.34,1.34,0,0,0,19.3,19V11.78A1.79,1.79,0,0,0,17.51,10Z"/><circle class="cls-1" cx="13.03" cy="5.06" r="3.14"/></svg>