<svg id="Layer_1" data-name="Layer 1" xmlns="http://www.w3.org/2000/svg" viewBox="0 0 25.35 25.35"><defs><style>.cls-1{fill:#16b57e;}</style></defs><path class="cls-1" d="M20.13,14.67,16.66,7.81h-8L5.22,14.67a6.18,6.18,0,0,0,5.69,8.63h3.54a6.1,6.1,0,0,0,4.43-1.87A6.17,6.17,0,0,0,20.13,14.67Zm-4.24-1.2H12.55a7.71,7.71,0,0,1,.07,1,2.27,2.27,0,0,1,0,.47l0,0a2,2,0,0,1,1.15-.42,1.38,1.38,0,0,1,1,.45,1.73,1.73,0,0,1,.51,1.25c0,.66-.51,1.14-1.25,1.54h0l-.65-.63c.83-.4,1.38-.84,1.38-1.37,0-.32-.23-.51-.65-.51a2.37,2.37,0,0,0-1.43.67A5.56,5.56,0,0,1,11.34,17a11.07,11.07,0,0,0,2.86,2.08l-.48.89h-.08a14.66,14.66,0,0,1-3-2.91,2.47,2.47,0,0,1-.52-1.16.6.6,0,0,1,.13-.37c.1-.15.31-.23.66-.23s.53,0,.77,0a2.91,2.91,0,0,0,.16-1.09,6.14,6.14,0,0,0-.05-.81H9.47l-.33-.67,0-.08h6.43l.33.68Z"/><path class="cls-1" d="M8.69,6.93h3.55l-.73-3.29a.89.89,0,0,0-.87-.7H8.25a.44.44,0,0,0-.43.54Z"/><path class="cls-1" d="M14.89,6.93h1.77l.88-4.35a.44.44,0,0,0-.44-.52H15.78a.9.9,0,0,0-.89.88A.89.89,0,0,0,14,2.06H12.68a.45.45,0,0,0-.44.52l.88,4.35Z"/></svg>