<svg id="Layer_1" data-name="Layer 1" xmlns="http://www.w3.org/2000/svg" viewBox="0 0 25.35 25.35"><defs><style>.cls-1{fill:#16b57e;}</style></defs><path class="cls-1" d="M10.63,8.28h-.36v5.88A1.29,1.29,0,0,1,10,15a.81.81,0,0,1-1.39,0,1.38,1.38,0,0,1-.22-.71q0-3,0-6.06A2.23,2.23,0,0,1,10.57,6q2.27,0,4.53,0a2.23,2.23,0,0,1,2.16,2.19q0,3,0,6.06a1,1,0,0,1-.94,1.11,1,1,0,0,1-.92-1.12c0-1.89,0-3.77,0-5.66V8.29H15V23a1.83,1.83,0,0,1,0,.33,1,1,0,0,1-1,.89,1.06,1.06,0,0,1-1-1c0-.12,0-.24,0-.35V15.33h-.31v.3q0,3.66,0,7.32a1.5,1.5,0,0,1-.09.56,1,1,0,0,1-1,.66,1,1,0,0,1-.91-.81,2.28,2.28,0,0,1,0-.45V8.28Z"/><path class="cls-1" d="M12.83,1.13a2.11,2.11,0,1,1-2.11,2.12A2.1,2.1,0,0,1,12.83,1.13Z"/></svg>