<svg xmlns="http://www.w3.org/2000/svg" xmlns:xlink="http://www.w3.org/1999/xlink" width="32" height="32" viewBox="0 0 32 32">
  <defs>
    <clipPath id="clip-Fire_Fighting_Apparatus">
      <rect width="32" height="32"/>
    </clipPath>
  </defs>
  <g id="Fire_Fighting_Apparatus" data-name="Fire Fighting Apparatus" clip-path="url(#clip-Fire_Fighting_Apparatus)">
    <g id="Group_266" data-name="Group 266" transform="translate(2610.929 1378.616)">
      <path id="Path_661" data-name="Path 661" d="M-2606.168-1363.007c0-1.107-.071-2.2.022-3.279a1.94,1.94,0,0,1,1.792-1.586c.326-.029.655-.022.982-.026s.65,0,1,0v-1.4c-.161-.008-.326-.023-.491-.023-1.045,0-2.091,0-3.137,0-.6,0-.921-.241-.932-.683-.011-.462.324-.731.942-.732q7.728,0,15.456,0l6.51,0a2.47,2.47,0,0,1,.466.025.662.662,0,0,1,.608.709.656.656,0,0,1-.647.672,6.638,6.638,0,0,1-.7.016l-6.6,0h-.475v1.417h1v4.9Zm11.6-3.166c0-.259-.005-.46,0-.661a1.029,1.029,0,0,1,1.012-1.064c.75-.062.75-.062.747-.838a.9.9,0,0,1,0-.14c.053-.349-.093-.453-.443-.451-2.4.015-4.8.009-7.2.011-.15,0-.3.015-.452.022v1.395h.528c1.045,0,2.09-.006,3.134,0a1.1,1.1,0,0,1,1.268,1.253c0,.151.017.3.026.471Z" transform="translate(0 0)" fill="#0070ab"/>
      <path id="Path_662" data-name="Path 662" d="M-2583.3-1272.518v1.935c0,.39.01.781,0,1.171-.009.238.033.393.293.489a.571.571,0,0,1,.388.749,1.041,1.041,0,0,1-.6.552,4.313,4.313,0,0,1-1.1.024c-.3-1.936-1.4-3.072-3.028-3.174-1.707-.106-2.819.918-3.416,3.16h-4.841c-.051-.269-.087-.543-.159-.808a3.175,3.175,0,0,0-4.081-2.184,1.007,1.007,0,0,1-.616.053,3.2,3.2,0,0,0-4.366,2.947,5.157,5.157,0,0,1-1.181-.025.849.849,0,0,1-.535-.547c-.04-.214.166-.489.3-.712.054-.087.215-.109.378-.182v-3.448Z" transform="translate(-0.344 -89.019)" fill="#0070ab"/>
      <path id="Path_663" data-name="Path 663" d="M-2573.312-1238.907c-1.205.714-2.3.624-3.029-.249a2.117,2.117,0,0,1,.065-2.819,2.151,2.151,0,0,1,2.928-.172,2.164,2.164,0,0,1,3.123.343,2.112,2.112,0,0,1-.094,2.671A2.159,2.159,0,0,1-2573.312-1238.907Zm1.4-.92a.674.674,0,0,0,.695-.669.678.678,0,0,0-.683-.728.734.734,0,0,0-.716.669A.73.73,0,0,0-2571.912-1239.827Zm-2.837-1.4a.734.734,0,0,0-.69.695.724.724,0,0,0,.729.7.682.682,0,0,0,.673-.739A.682.682,0,0,0-2574.75-1241.225Z" transform="translate(-27.264 -116.086)" fill="#0070ab"/>
      <path id="Path_664" data-name="Path 664" d="M-2414.661-1335.312v-4.847a26.182,26.182,0,0,1,2.67.021,1.706,1.706,0,0,1,1.463,1.233c.363,1.169.643,2.365.969,3.593Z" transform="translate(-174.251 -27.693)" fill="#0070ab"/>
      <path id="Path_665" data-name="Path 665" d="M-2426.05-1240.446a2.1,2.1,0,0,1,2.086-2.124,2.141,2.141,0,0,1,2.138,2.138,2.143,2.143,0,0,1-2.129,2.1A2.1,2.1,0,0,1-2426.05-1240.446Zm2.813,0a.725.725,0,0,0-.729-.7.664.664,0,0,0-.67.688.678.678,0,0,0,.662.7A.729.729,0,0,0-2423.238-1240.445Z" transform="translate(-163.929 -116.16)" fill="#0070ab"/>
    </g>
  </g>
</svg>
