<svg xmlns="http://www.w3.org/2000/svg" width="55" height="55" viewBox="0 0 55 55">
  <g id="forward" transform="translate(1835 10171.409)">
    <g id="Ellipse_578" data-name="Ellipse 578" transform="translate(-1781 -10117.409) rotate(180)" fill="none" stroke="#71a3bb" stroke-width="1">
      <circle cx="26.5" cy="26.5" r="26.5" stroke="none"/>
      <circle cx="26.5" cy="26.5" r="27" fill="none"/>
    </g>
    <path id="Icon_ionic-ios-arrow-round-back" data-name="Icon ionic-ios-arrow-round-back" d="M17.55,11.592a1.211,1.211,0,0,1,.009,1.706l-5.626,5.645h21.44a1.205,1.205,0,0,1,0,2.41H11.933L17.568,27a1.22,1.22,0,0,1-.009,1.706,1.2,1.2,0,0,1-1.7-.009L8.225,21h0a1.353,1.353,0,0,1-.25-.38,1.15,1.15,0,0,1-.093-.463,1.208,1.208,0,0,1,.343-.843l7.638-7.693A1.181,1.181,0,0,1,17.55,11.592Z" transform="translate(-1786.118 -10124.157) rotate(180)" fill="#fff"/>
  </g>
</svg>
