<svg xmlns="http://www.w3.org/2000/svg" xmlns:xlink="http://www.w3.org/1999/xlink" width="32" height="32" viewBox="0 0 32 32">
  <defs>
    <clipPath id="clip-heli">
      <rect width="32" height="32"/>
    </clipPath>
  </defs>
  <g id="heli" clip-path="url(#clip-heli)">
    <g id="Group_635" data-name="Group 635" transform="translate(-255.098 -398.24)">
      <path id="Path_1970" data-name="Path 1970" d="M280.16,425.073c.228,0,.523-.016.816,0,.248.017.312-.076.307-.313a6.064,6.064,0,0,0-.658-2.458,2.539,2.539,0,0,0-2.017-1.543c-.449-.07-.9-.151-1.36-.229a7.372,7.372,0,0,0,.455-3.4c-.174-1.66-.41-3.313-.652-4.965a4.22,4.22,0,0,0-1.21-2.61,6.519,6.519,0,0,0-2.427-1.432c-.566-.186-1.148-.322-1.74-.484V405.9l.291.036a16.471,16.471,0,0,0,2.271.262c3.516-.067,7.032-.182,10.547-.3a8.458,8.458,0,0,0,1.29-.241v-.089a11.549,11.549,0,0,0-1.339-.245c-.823-.057-1.65-.055-2.476-.079q-4.066-.12-8.132-.24a2.5,2.5,0,0,0-.425.027c-.671.1-1.341.2-2.051.3,0-.468,0-.894,0-1.32,0-.4-.2-.613-.555-.617s-.573.218-.574.628c0,.426,0,.852,0,1.3-.174-.025-.313-.047-.453-.065a13.924,13.924,0,0,0-2.027-.245c-3.516.073-7.032.185-10.547.305a9.3,9.3,0,0,0-1.369.248l.01.09a8.606,8.606,0,0,0,1.287.237q4.952.171,9.9.294a16.734,16.734,0,0,0,1.885-.105c.44-.039.876-.125,1.322-.191v1.8a8.155,8.155,0,0,0-2.821.907,4.222,4.222,0,0,0-2.444,3.02c-.226,1.283-.467,2.566-.612,3.859a22.187,22.187,0,0,0-.12,3.107,13.114,13.114,0,0,0,.347,1.962c-.3.048-.636.118-.978.155a2.725,2.725,0,0,0-2.459,1.9c-.159.439-.319.88-.434,1.332a4.139,4.139,0,0,0-.085.909c0,.074.1.211.165.215.342.021.686.01,1.007.01.073-.45.115-.865.211-1.266a2.421,2.421,0,0,1,1.387-1.823c.5-.209,1.01-.374,1.522-.538a.336.336,0,0,1,.293.094,4.544,4.544,0,0,0,3.022,1.74,22.365,22.365,0,0,0,4.486.078,4.669,4.669,0,0,0,3.7-1.861.288.288,0,0,1,.256-.055c.511.168,1.024.336,1.523.538a2.011,2.011,0,0,1,1.19,1.246C279.88,423.8,279.994,424.411,280.16,425.073Z" transform="translate(0 0)" fill="#fff"/>
      <path id="Path_1971" data-name="Path 1971" d="M280.16,425.073c-.166-.661-.28-1.269-.474-1.85a2.011,2.011,0,0,0-1.19-1.246c-.5-.2-1.011-.369-1.523-.538a.288.288,0,0,0-.256.055,4.669,4.669,0,0,1-3.7,1.861,22.365,22.365,0,0,1-4.486-.078,4.544,4.544,0,0,1-3.022-1.74.336.336,0,0,0-.293-.094c-.512.164-1.027.329-1.522.538a2.421,2.421,0,0,0-1.387,1.823c-.1.4-.138.815-.211,1.266-.321,0-.665.011-1.007-.01-.062,0-.166-.141-.165-.215a4.139,4.139,0,0,1,.085-.909c.114-.452.275-.893.434-1.332a2.725,2.725,0,0,1,2.459-1.9c.342-.036.679-.106.978-.155a13.114,13.114,0,0,1-.347-1.962,22.187,22.187,0,0,1,.12-3.107c.146-1.293.386-2.576.612-3.859a4.222,4.222,0,0,1,2.444-3.02,8.155,8.155,0,0,1,2.821-.907v-1.8c-.446.066-.882.152-1.322.191a16.734,16.734,0,0,1-1.885.105q-4.953-.123-9.9-.294a8.606,8.606,0,0,1-1.287-.237l-.01-.09a9.3,9.3,0,0,1,1.369-.248c3.515-.121,7.031-.233,10.547-.305a13.924,13.924,0,0,1,2.027.245c.14.018.28.04.453.065,0-.448,0-.874,0-1.3,0-.41.206-.632.574-.628s.552.216.555.617c0,.426,0,.851,0,1.32.709-.106,1.379-.208,2.051-.3a2.5,2.5,0,0,1,.425-.027q4.066.117,8.132.24c.825.024,1.652.023,2.476.079a11.549,11.549,0,0,1,1.339.245v.089a8.458,8.458,0,0,1-1.29.241c-3.515.119-7.031.233-10.547.3a16.471,16.471,0,0,1-2.271-.262l-.291-.036v1.742c.591.163,1.174.3,1.74.484a6.519,6.519,0,0,1,2.427,1.432,4.22,4.22,0,0,1,1.21,2.61c.242,1.652.478,3.305.652,4.965a7.372,7.372,0,0,1-.455,3.4c.463.078.911.159,1.36.229a2.539,2.539,0,0,1,2.017,1.543,6.064,6.064,0,0,1,.658,2.458c0,.237-.059.33-.307.313C280.683,425.057,280.388,425.073,280.16,425.073Zm-8.69-13.786V416.9h5.423a27.372,27.372,0,0,0-.6-4.378.369.369,0,0,0-.184-.213A11.389,11.389,0,0,0,271.47,411.287Zm-.731,0a11.481,11.481,0,0,0-4.645,1.035.5.5,0,0,0-.211.327c-.152.831-.3,1.663-.419,2.5-.082.58-.114,1.167-.169,1.761h5.444Z" transform="translate(0 0)" fill="#0070ab"/>
      <path id="Path_1972" data-name="Path 1972" d="M507.05,532.352a11.388,11.388,0,0,1,4.638,1.028.368.368,0,0,1,.184.213,27.368,27.368,0,0,1,.6,4.378H507.05Z" transform="translate(-235.58 -121.065)" fill="#fff"/>
      <path id="Path_1973" data-name="Path 1973" d="M411.527,532.316v5.622h-5.444c.055-.593.087-1.181.169-1.761.118-.836.267-1.668.419-2.5a.5.5,0,0,1,.211-.327A11.48,11.48,0,0,1,411.527,532.316Z" transform="translate(-140.788 -121.032)" fill="#fff"/>
    </g>
  </g>
</svg>
