<svg width="12" height="23" viewBox="0 0 12 23" fill="none" xmlns="http://www.w3.org/2000/svg">
<g clip-path="url(#clip0_1_30)">
<path d="M1.14051 23.0007H0.571242C0.524602 23.0007 0.479866 22.9627 0.446856 22.895C0.413846 22.8274 0.395261 22.7356 0.395174 22.6399C0.393422 18.5542 0.393422 14.4682 0.395174 10.3816C0.395174 10.2387 0.392546 10.0943 0.395174 9.95135C0.413569 9.28839 0.592267 8.89655 0.864584 8.90667C0.929808 8.91023 0.993943 8.9418 1.05286 8.99935C1.11178 9.0569 1.16417 9.13916 1.20667 9.24082C1.24916 9.34248 1.2808 9.46129 1.29956 9.58959C1.31833 9.71789 1.32379 9.85284 1.3156 9.98574C1.31921 12.2026 1.3156 14.4194 1.3156 16.6362V17.5534H11.3279C11.3956 17.5536 11.4604 17.6089 11.5082 17.7071C11.556 17.8054 11.5828 17.9386 11.5828 18.0774V22.1239C11.5828 22.2391 11.5718 22.3531 11.5503 22.4594C11.5289 22.5658 11.4974 22.6625 11.4577 22.7439C11.4181 22.8253 11.371 22.8899 11.3192 22.9339C11.2674 22.978 11.2119 23.0007 11.1558 23.0007V23.0007C11.0935 23.0008 11.0318 22.9756 10.9742 22.9267C10.9166 22.8778 10.8643 22.8061 10.8203 22.7156C10.7762 22.6252 10.7413 22.5178 10.7175 22.3996C10.6936 22.2814 10.6814 22.1547 10.6815 22.0268V19.8532C10.6815 19.7385 10.6593 19.6286 10.6198 19.5475C10.5803 19.4664 10.5267 19.4209 10.4709 19.4209H1.51762C1.47078 19.4207 1.42576 19.4581 1.39218 19.5251C1.3586 19.5922 1.33913 19.6835 1.33793 19.7797L1.26632 22.7552C1.26472 22.8215 1.25076 22.8839 1.22734 22.9296C1.20391 22.9753 1.17283 23.0008 1.14051 23.0007Z" fill="#0078D1"/>
<path d="M0 5.95609C1.39629 4.54386 2.79248 3.13117 4.18855 1.71804C4.7253 1.17446 5.25647 0.606597 5.79815 0.0886432C5.91914 -0.0215537 6.05642 -0.0293073 6.18018 0.0670634C8.08892 1.99051 9.99414 3.92879 11.8959 5.8819C11.932 5.92705 11.9668 5.97659 12 6.03027L11.5106 8.065C11.3887 7.94832 11.2826 7.85121 11.1785 7.74532C9.53372 6.06939 7.88733 4.39885 6.24686 2.70471C6.17116 2.61493 6.08511 2.5685 5.99769 2.57028C5.91026 2.57206 5.82468 2.62199 5.74986 2.71483C4.10742 4.40538 2.46344 6.08535 0.817937 7.75476C0.719391 7.8539 0.620844 7.94697 0.513428 8.0515L0 6.2036V5.95609Z" fill="#0078D1"/>
<path d="M11.5891 14.9461C11.5947 14.9933 11.5947 15.0426 11.5891 15.0897C11.5814 15.3915 11.5171 15.6756 11.4098 15.8824C11.3025 16.0893 11.1604 16.203 11.0132 16.1998H2.54578C2.45648 16.2095 2.36693 16.2014 2.27839 16.1755C2.22568 16.1692 2.17415 16.141 2.12689 16.0927C2.07963 16.0443 2.03762 15.9769 2.0034 15.8943C1.96918 15.8118 1.94345 15.7159 1.92777 15.6124C1.91208 15.5088 1.90676 15.3999 1.91213 15.2921C1.91043 15.1825 1.92018 15.0735 1.94071 14.9724C1.96125 14.8712 1.9921 14.7803 2.03119 14.7056C2.07028 14.631 2.1167 14.5744 2.16733 14.5397C2.21796 14.505 2.27162 14.4929 2.32471 14.5043C2.70838 14.4922 3.09239 14.5043 3.49347 14.5043C3.56181 14.5036 3.62942 14.4753 3.69242 14.4209C3.75542 14.3665 3.81258 14.2871 3.86063 14.1874C3.90868 14.0876 3.94668 13.9693 3.97245 13.8394C3.99823 13.7094 4.01127 13.5703 4.01084 13.43V13.3942C4.00803 13.0995 4.03601 12.8069 4.09288 12.5363C4.14974 12.2656 4.23419 12.023 4.34053 11.8249C4.44688 11.6269 4.57265 11.4778 4.70939 11.3879C4.84613 11.298 4.99068 11.2692 5.13328 11.3035C6.23788 11.5185 7.34258 11.7412 8.4474 11.9719C9.15135 12.1155 9.8599 12.2585 10.5642 12.4143C10.7243 12.4304 10.8835 12.4703 11.0408 12.5337C11.172 12.5635 11.2949 12.6796 11.3914 12.8646C11.4878 13.0495 11.5525 13.2935 11.5759 13.5602C11.5919 14.0214 11.5963 14.4839 11.5891 14.9461V14.9461Z" fill="#0078D1"/>
<path d="M3.5388 11.9544C3.5345 12.4 3.44526 12.8245 3.29025 13.1365C3.13523 13.4486 2.9268 13.6235 2.70969 13.6236C2.48719 13.6166 2.27501 13.4297 2.11927 13.1034C1.96353 12.7771 1.87681 12.3377 1.87796 11.8809C1.88784 11.4351 1.97993 11.0138 2.13554 10.7023C2.29116 10.3908 2.49865 10.2125 2.71594 10.2036C2.82598 10.2074 2.93458 10.2558 3.03551 10.3459C3.13645 10.436 3.22774 10.5661 3.30416 10.7287C3.38059 10.8913 3.44065 11.0833 3.48091 11.2936C3.52117 11.5039 3.54084 11.7284 3.5388 11.9544Z" fill="#0078D1"/>
</g>
<defs>
<clipPath id="clip0_1_30">
<rect width="12" height="23" fill="white"/>
</clipPath>
</defs>
</svg>
