<?xml version="1.0" encoding="UTF-8"?>
<svg xmlns="http://www.w3.org/2000/svg" xmlns:xlink="http://www.w3.org/1999/xlink" width="33px" height="50px" viewBox="0 0 33 49" version="1.1">
<g id="surface1">
<path style=" stroke:none;fill-rule:nonzero;fill:rgb(25.490196%,56.078431%,87.058824%);fill-opacity:1;" d="M 30.9375 6.125 L 2.0625 6.125 C 0.925781 6.128906 0.00390625 7.039062 0 8.167969 L 0 30.625 L 33 30.625 L 33 8.167969 C 32.996094 7.039062 32.074219 6.128906 30.9375 6.125 Z M 11.34375 13.269531 C 12.484375 13.269531 13.40625 14.183594 13.40625 15.3125 C 13.40625 16.441406 12.484375 17.355469 11.34375 17.355469 C 10.203125 17.355469 9.28125 16.441406 9.28125 15.3125 C 9.285156 14.1875 10.207031 13.273438 11.34375 13.269531 Z M 29.90625 25.011719 C 29.90625 25.855469 29.214844 26.542969 28.359375 26.542969 C 27.503906 26.542969 26.8125 25.855469 26.8125 25.011719 L 26.8125 23.480469 L 6.1875 23.480469 L 6.1875 25.011719 C 6.1875 25.855469 5.496094 26.542969 4.640625 26.542969 C 3.785156 26.542969 3.09375 25.855469 3.09375 25.011719 L 3.09375 11.738281 C 3.09375 10.894531 3.785156 10.207031 4.640625 10.207031 C 5.496094 10.207031 6.1875 10.894531 6.1875 11.738281 L 6.1875 20.417969 L 29.90625 20.417969 Z M 29.90625 15.457031 C 29.90625 15.960938 29.707031 16.441406 29.34375 16.800781 C 28.984375 17.15625 28.496094 17.355469 27.988281 17.355469 L 18.417969 17.355469 C 17.910156 17.355469 17.421875 17.15625 17.0625 16.800781 C 16.699219 16.441406 16.5 15.960938 16.5 15.457031 L 16.5 15.167969 C 16.5 14.664062 16.699219 14.183594 17.0625 13.824219 C 17.421875 13.46875 17.910156 13.269531 18.417969 13.269531 L 27.988281 13.269531 C 28.496094 13.269531 28.984375 13.46875 29.34375 13.824219 C 29.707031 14.183594 29.90625 14.664062 29.90625 15.167969 Z M 29.90625 15.457031 "/>
<path style=" stroke:none;fill-rule:nonzero;fill:rgb(25.490196%,56.078431%,87.058824%);fill-opacity:1;" d="M 6.1875 4.082031 L 26.8125 4.082031 C 27.953125 4.082031 28.875 3.167969 28.875 2.042969 C 28.875 0.914062 27.953125 0 26.8125 0 L 6.1875 0 C 5.046875 0 4.125 0.914062 4.125 2.042969 C 4.125 3.167969 5.046875 4.082031 6.1875 4.082031 Z M 6.1875 4.082031 "/>
<path style=" stroke:none;fill-rule:nonzero;fill:rgb(25.490196%,56.078431%,87.058824%);fill-opacity:1;" d="M 0 49 L 12.375 49 L 12.375 38.792969 C 12.378906 37.664062 13.300781 36.753906 14.4375 36.75 L 18.5625 36.75 C 19.699219 36.753906 20.621094 37.664062 20.625 38.792969 L 20.625 49 L 33 49 L 33 32.667969 L 0 32.667969 Z M 0 49 "/>
</g>
</svg>
