<svg width="15" height="14" viewBox="0 0 15 14" fill="none" xmlns="http://www.w3.org/2000/svg">
<g clip-path="url(#clip0_1_27)">
<path d="M13.8283 0H15V2.4883C13.9859 3.04002 13.1446 3.83033 12.5598 4.78031C11.975 5.73029 11.6673 6.80677 11.6673 7.90241C11.6673 8.99806 11.975 10.0745 12.5598 11.0245C13.1446 11.9745 13.9859 12.7647 15 13.3165V14H0.0113619C0.00671424 13.9668 0.00309902 13.9518 0.00309902 13.9403C-0.0494104 11.8736 0.398573 9.82246 1.31364 7.9399C2.22872 6.05734 3.58726 4.39187 5.28798 3.06773C6.52559 2.10254 7.93388 1.34602 9.44969 0.832044C10.6952 0.403698 11.9989 0.140331 13.3227 0.0496637C13.4906 0.0385767 13.6594 0.0168715 13.8283 0ZM9.92633 3.78698L11.3046 2.89997L10.875 2.18756L9.36654 3.15935L9.92633 3.78698ZM7.78841 6.18754L8.73498 4.90047L8.06366 4.37794L7.0262 5.78982L7.78841 6.18754ZM6.30168 7.37194C6.1034 7.9117 5.96277 8.46844 5.88185 9.03403L6.71532 9.14148L7.10469 7.62497L6.30168 7.37194ZM5.75791 10.7511L5.99804 12.4464C6.27638 12.3866 6.51134 12.3293 6.74941 12.2888C6.85785 12.2704 6.87025 12.2271 6.85269 12.1408C6.81086 11.9402 6.76851 11.7393 6.7396 11.5368C6.70138 11.2678 6.67659 10.9969 6.64458 10.7144L5.75791 10.7511ZM12.843 2.25887L14.4702 1.89399L14.3437 1.08654L12.5605 1.4852L12.843 2.25887Z" fill="#0078D1"/>
</g>
<defs>
<clipPath id="clip0_1_27">
<rect width="15" height="14" fill="white"/>
</clipPath>
</defs>
</svg>
