<svg width="346" height="355" viewBox="0 0 346 355" fill="none" xmlns="http://www.w3.org/2000/svg">
<path d="M165.842 217.375L163.924 264.403L163.669 267.214L109.969 263.508C106.9 263.253 104.045 261.911 101.403 259.483C98.7602 257.055 96.7572 254.265 95.3934 251.113C94.4557 248.812 93.8378 246.469 93.5394 244.084C93.2411 241.699 93.4116 238.93 94.0509 235.777C94.6902 232.625 95.2016 230.282 95.5851 228.749C95.9687 227.215 96.885 224.489 98.3341 220.57C99.7831 216.651 100.593 214.394 100.763 213.797C107.412 214.82 129.105 216.012 165.842 217.375ZM116.362 142.489L139.376 190.922L120.581 179.165C115.211 185.299 110.459 191.455 106.325 197.631C102.191 203.808 99.1012 209.133 97.0555 213.605C95.0098 218.078 93.3263 222.104 92.0052 225.682C90.684 229.26 89.8955 231.944 89.6398 233.733L89.1284 236.416L64.8357 190.795C63.3867 188.579 62.6195 186.194 62.5343 183.638C62.449 181.082 62.7048 179.08 63.3014 177.632L64.3243 175.332C67.3076 169.964 72.1661 161.956 78.8999 151.307L61 140.316L116.362 142.489ZM273.753 208.558L249.716 254.435C248.693 256.906 247.138 258.887 245.049 260.378C242.961 261.868 241.107 262.742 239.487 262.997L237.186 263.508C231.134 264.105 221.801 264.616 209.186 265.042L210.208 286L180.801 239.1L207.779 192.839L208.674 214.947C223.164 216.31 235.226 216.523 244.857 215.586C254.489 214.649 261.734 213.243 266.593 211.369L273.753 208.558ZM173.386 90.4773C169.38 95.8446 158.086 114.375 139.504 146.067L98.9733 122.17L96.5441 120.636L125.312 75.1422C127.017 72.5011 129.574 70.5843 132.983 69.3915C136.393 68.1988 139.802 67.7728 143.212 68.1136C145.257 68.284 147.324 68.7952 149.413 69.6471C151.501 70.4991 153.291 71.3936 154.783 72.3307C156.274 73.2679 158.043 74.6736 160.089 76.5479C162.134 78.4222 163.669 79.8918 164.692 80.9568C165.714 82.0217 167.249 83.7043 169.294 86.0046C171.34 88.3048 172.704 89.7957 173.386 90.4773ZM257.132 129.71L284.237 176.098C285.771 179.251 286.304 182.488 285.835 185.811C285.367 189.133 284.195 192.285 282.319 195.267C281.211 196.971 279.805 198.547 278.1 199.996C276.395 201.444 274.776 202.637 273.242 203.574C271.707 204.511 269.64 205.448 267.041 206.385C264.441 207.322 262.438 208.004 261.031 208.43C259.625 208.856 257.43 209.452 254.447 210.219C251.463 210.986 249.503 211.497 248.565 211.752C245.667 205.618 234.373 187.046 214.683 156.035L254.702 131.115L257.132 129.71ZM238.848 100.829L257.004 90.2217L228.875 137.888L175.304 135.333L194.61 124.342C191.712 116.76 188.515 109.689 185.021 103.129C181.526 96.5687 178.308 91.308 175.368 87.3464C172.427 83.3848 169.678 79.977 167.121 77.123C164.564 74.2689 162.561 72.2882 161.112 71.1806L158.938 69.5193L210.72 69.6471C213.362 69.3915 215.834 69.8388 218.135 70.9889C220.437 72.1391 222.099 73.3531 223.122 74.631L224.528 76.5479C227.853 81.7448 232.626 89.8383 238.848 100.829Z" fill="white"/>
</svg>
