<svg width="16" height="21" viewBox="0 0 16 21" fill="none" xmlns="http://www.w3.org/2000/svg">
<path d="M6.00184 10.0365C6.70744 10.0383 7.38466 9.65621 7.88456 8.97434C8.38445 8.29248 8.66607 7.36661 8.66749 6.40045C8.66749 4.58477 6.4851 0.751339 6.06859 0.0449468C6.06072 0.0309662 6.0506 0.0196369 6.03903 0.0118474C6.02746 0.00405787 6.01473 0 6.00184 0C5.98894 0 5.97621 0.00405787 5.96464 0.0118474C5.95307 0.0196369 5.94296 0.0309662 5.93509 0.0449468C5.51858 0.752006 3.33619 4.58477 3.33619 6.40045C3.33761 7.36661 3.61922 8.29248 4.11912 8.97434C4.61901 9.65621 5.29624 10.0383 6.00184 10.0365V10.0365Z" fill="#0078D1"/>
<path d="M12.9992 11.3659H8.5009C8.19207 11.368 7.89633 11.5369 7.67795 11.8359C7.45958 12.1349 7.33622 12.5399 7.33469 12.9628C7.33546 13.3859 7.45858 13.7915 7.67712 14.0908C7.89566 14.39 8.19184 14.5586 8.5009 14.5596H10.3336C10.5099 14.5612 10.6788 14.6579 10.8035 14.8287C10.9282 14.9994 10.9988 15.2306 11 15.4722C10.9994 15.714 10.9291 15.9456 10.8042 16.1166C10.6793 16.2876 10.5101 16.384 10.3336 16.3847H7.33469C7.13896 16.3824 6.95016 16.2852 6.80175 16.1105L2.27131 10.0745C2.13918 9.89499 1.98116 9.7552 1.80736 9.66404C1.63356 9.57288 1.44779 9.53236 1.26191 9.54504C1.07602 9.55772 0.89411 9.62333 0.727786 9.73769C0.561462 9.85205 0.414363 10.0127 0.295915 10.2092C0.0881662 10.5752 -0.0134709 11.0334 0.0105381 11.4957C0.0345472 11.9581 0.182522 12.3919 0.425997 12.714L5.50058 19.4984C5.75089 19.8404 6.09009 20.0323 6.44368 20.032H13.0012C13.7965 20.032 14.5593 19.5994 15.1217 18.8293C15.6841 18.0593 16 17.0148 16 15.9257V15.4695C15.9997 14.9302 15.9219 14.3964 15.771 13.8983C15.6201 13.4002 15.3989 12.9478 15.1203 12.5667C14.8416 12.1856 14.5109 11.8834 14.147 11.6774C13.783 11.4714 13.393 11.3655 12.9992 11.3659Z" fill="#0078D1"/>
</svg>
