<svg width="33" height="61" viewBox="0 0 33 61" fill="none" xmlns="http://www.w3.org/2000/svg">
<g opacity="0.97">
<path opacity="0.97" d="M23.192 12.485C23.192 10.7104 22.4871 9.00859 21.2323 7.75378C19.9774 6.49898 18.2756 5.79401 16.501 5.79401C14.7264 5.79401 13.0245 6.49898 11.7697 7.75378C10.5149 9.00859 9.80998 10.7104 9.80998 12.485V38.3C8.38013 39.6415 7.38655 41.3819 6.95821 43.2952C6.52986 45.2085 6.68656 47.2063 7.40791 49.0294C8.12927 50.8525 9.38197 52.4168 11.0035 53.519C12.625 54.6212 14.5403 55.2106 16.501 55.2106C18.4616 55.2106 20.377 54.6212 21.9985 53.519C23.62 52.4168 24.8727 50.8525 25.5941 49.0294C26.3154 47.2063 26.4721 45.2085 26.0438 43.2952C25.6154 41.3819 24.6219 39.6415 23.192 38.3V12.485ZM16.501 52.117C15.1151 52.1173 13.7633 51.6871 12.6325 50.8857C11.5018 50.0844 10.6479 48.9515 10.1889 47.6438C9.72992 46.3361 9.68856 44.9181 10.0705 43.5858C10.4525 42.2536 11.2389 41.0729 12.321 40.207L12.899 39.744V12.485C12.899 11.5294 13.2786 10.613 13.9543 9.93732C14.63 9.26162 15.5464 8.88202 16.502 8.88202C17.4576 8.88202 18.374 9.26162 19.0497 9.93732C19.7254 10.613 20.105 11.5294 20.105 12.485V39.744L20.683 40.207C21.7651 41.0729 22.5515 42.2536 22.9335 43.5858C23.3154 44.9181 23.274 46.3361 22.8151 47.6438C22.3561 48.9515 21.5022 50.0844 20.3715 50.8857C19.2407 51.6871 17.8889 52.1173 16.503 52.117H16.501Z" fill="#D1E8F5"/>
<path opacity="0.97" d="M18.045 41.615V30C18.045 29.5905 17.7896 28.7896 17.5 28.5C17.2104 28.2104 16.9095 28 16.5 28C16.0905 28 15.7896 28.2104 15.5 28.5C15.2104 28.7896 15 29.5905 15 30L14.957 41.615C14.071 41.9733 13.3373 42.6286 12.8815 43.4686C12.4257 44.3086 12.2763 45.281 12.4588 46.2191C12.6413 47.1571 13.1444 48.0025 13.8819 48.6103C14.6194 49.2182 15.5453 49.5506 16.501 49.5506C17.4567 49.5506 18.3826 49.2182 19.1201 48.6103C19.8576 48.0025 20.3607 47.1571 20.5432 46.2191C20.7257 45.281 20.5763 44.3086 20.1205 43.4686C19.6647 42.6286 18.9309 41.9733 18.045 41.615Z" fill="#D1E8F5"/>
</g>
</svg>
