<svg id="Layer_1" data-name="Layer 1" xmlns="http://www.w3.org/2000/svg" width="32" height="32" viewBox="0 0 32 32">
  <defs>
    <style>
      .cls-1 {
        fill: #9d6c3b;
      }
    </style>
  </defs>
  <title>icon</title>
  <path class="cls-1" d="M27.44,12.48l-3.08-2.4L25,9.44a1.29,1.29,0,0,0-1.83-1.83l-1.05,1-.18-.18a1.3,1.3,0,1,0-1.83,1.84l.18.17-.5.5H7.14a2.72,2.72,0,0,0-2.71,2.71v4.5a1,1,0,1,0,2,0v-4.5A.74.74,0,0,1,7.14,13h.25V23.3a1.48,1.48,0,1,0,3,0v-3h.88a5.66,5.66,0,0,0,8.58,0h.88v3a1.48,1.48,0,0,0,3,0V15.42h2.79a1.64,1.64,0,0,0,1-2.94"/>
</svg>
