<svg xmlns="http://www.w3.org/2000/svg" width="44.047" height="44.047" viewBox="0 0 44.047 44.047"><defs><style>.a{opacity:0.67;}.b{fill:#f1faff;}</style></defs><g class="a" transform="translate(0 -217.002)"><g transform="translate(0 217.002)"><g transform="translate(0 0)"><path class="b" d="M17.8,12.941a2.205,2.205,0,0,1,2.2,2.2.734.734,0,0,0,1.468,0,2.205,2.205,0,0,1,2.2-2.2.734.734,0,0,0,0-1.468,2.205,2.205,0,0,1-2.2-2.2.734.734,0,0,0-1.468,0,2.205,2.205,0,0,1-2.2,2.2.734.734,0,0,0,0,1.468Zm2.937-1.47a3.723,3.723,0,0,0,.736.736,3.7,3.7,0,0,0-.736.736A3.7,3.7,0,0,0,20,12.207,3.723,3.723,0,0,0,20.74,11.47Z" transform="translate(-15.601 -7.802)"/><circle class="b" cx="0.734" cy="0.734" r="0.734" transform="translate(13.948 8.809)"/><circle class="b" cx="0.734" cy="0.734" r="0.734" transform="translate(19.087 0.734)"/><path class="b" d="M8.812,445.936a2.187,2.187,0,0,0-1.321.442,2.943,2.943,0,0,0-1.718-1.108,2.2,2.2,0,0,0-4.206.024,2.2,2.2,0,0,0,.639,4.312.734.734,0,0,0,0-1.468.735.735,0,0,1-.037-1.469.745.745,0,0,0,.771-.733.734.734,0,1,1,1.468,0,.734.734,0,0,0,.734.734,1.47,1.47,0,0,1,1.468,1.468.734.734,0,0,0,1.468,0,.734.734,0,0,1,1.468,0,.734.734,0,0,0,1.468,0A2.2,2.2,0,0,0,8.812,445.936Z" transform="translate(-0.003 -405.56)"/><path class="b" d="M58.544,343.536a2.187,2.187,0,0,0-1.321.442A2.943,2.943,0,0,0,55.5,342.87a2.2,2.2,0,0,0-4.3.665h0a.734.734,0,0,0,1.468,0,.734.734,0,1,1,1.468,0,.734.734,0,0,0,.734.734,1.47,1.47,0,0,1,1.468,1.468.734.734,0,1,0,1.468,0,.734.734,0,0,1,1.468,0,.734.734,0,1,0,1.468,0A2.2,2.2,0,0,0,58.544,343.536Z" transform="translate(-46.798 -311.969)"/><path class="b" d="M306.011,394.736a2.187,2.187,0,0,0-1.321.442,2.943,2.943,0,0,0-1.718-1.108,2.2,2.2,0,0,0-4.3.665h0a.734.734,0,1,0,1.468,0,.734.734,0,0,1,1.468,0,.734.734,0,0,0,.734.734,1.47,1.47,0,0,1,1.468,1.468.734.734,0,0,0,1.468,0,.734.734,0,1,1,1.468,0,.734.734,0,0,0,1.468,0A2.2,2.2,0,0,0,306.011,394.736Z" transform="translate(-272.976 -358.765)"/><path class="b" d="M169.477,420.336a2.187,2.187,0,0,0-1.321.442,2.943,2.943,0,0,0-1.718-1.108,2.2,2.2,0,0,0-4.3.665h0a.734.734,0,1,0,1.468,0,.734.734,0,1,1,1.468,0,.734.734,0,0,0,.734.734,1.47,1.47,0,0,1,1.468,1.468.734.734,0,1,0,1.468,0,.734.734,0,1,1,1.468,0,.734.734,0,1,0,1.468,0A2.2,2.2,0,0,0,169.477,420.336Z" transform="translate(-148.188 -382.162)"/><path class="b" d="M43.7,117.735c-2.014-1.234-3.759-4.5-5.172-8.193-.006-.022-.015-.041-.023-.063a96.824,96.824,0,0,1-4-14.716l0-.023a.729.729,0,0,0-.034-.1c-.011-.031-.045-.112-.051-.123a.686.686,0,0,0-.095-.138c-.014-.015-.172-.136-.18-.14a.768.768,0,0,0-.166-.073,1.475,1.475,0,0,0-.206-.026.736.736,0,0,0-.543.251c-.424.484-.748.5-.955.476-1.066-.139-2.389-2.07-2.972-3.254a.734.734,0,0,0-1.3-.029c-.667,1.216-1.406,1.811-2.258,1.821h-.023c-2.287,0-5.093-3.972-5.983-5.507a.734.734,0,0,0-1.363.272c-.02.152-.543,3.66-4.963,3.758a44.03,44.03,0,0,1-2-5.834c-.03-.119-.046-.19-.048-.2a.763.763,0,0,0-.06-.15c-.009-.018-.012-.04-.023-.057s-.029-.034-.043-.052a.73.73,0,0,0-.49-.3h0a.728.728,0,0,0-.743.376c-.245.449-.486.886-.725,1.316-.079.144-.156.281-.234.421-.161.29-.322.577-.48.858l-.244.432q-.249.439-.493.865c-.061.106-.123.216-.183.319q-.329.572-.649,1.116c-.036.062-.07.12-.106.181q-.277.47-.547.921l-.136.225q-.643,1.068-1.241,2.013l-.039.061q-.307.485-.6.937v0c-2.681,4.1-3.714,4.778-3.84,4.85a.734.734,0,0,0,.457,1.393c.366-.1,1.512-.784,4.281-4.936a5.257,5.257,0,0,1,1.939,1.5l1.827,2.285a.735.735,0,0,0,1.147,0l1.7-2.122a5.96,5.96,0,0,1,2.206-1.7c2.164,3.909,5.289,7.93,9.648,10.12a.734.734,0,1,0,.659-1.312c-4.336-2.178-7.414-6.438-9.483-10.429l1.39,1.186A13.267,13.267,0,0,0,20.2,98.549l1.22.457a11.749,11.749,0,0,1,4.212,2.712l1.012,1.012a.729.729,0,0,0,.519.215h.051a.734.734,0,0,0,.535-.292,11.811,11.811,0,0,1,5.311-3.978l.689-.258a87.481,87.481,0,0,0,3.259,11.239,2.813,2.813,0,0,1-2.224,1.627c-2.409.1-5.333-3.627-6.273-5.066a.734.734,0,0,0-1.343.3,4.57,4.57,0,0,1-4.57,3.747,7.089,7.089,0,0,0-.686-1.837.736.736,0,0,0-.564-.344.723.723,0,0,0-.611.249c-.424.484-.748.5-.955.476-1.066-.139-2.389-2.07-2.972-3.254a.734.734,0,0,0-.642-.41.742.742,0,0,0-.66.38c-.667,1.216-1.406,1.811-2.258,1.821h-.023c-2.287,0-5.093-3.972-5.983-5.507a.734.734,0,0,0-1.363.272c-.021.154-.55,3.767-5.145,3.767a.734.734,0,0,0,0,1.468c3.7,0,5.353-1.982,6.074-3.461,1.277,1.853,3.794,4.93,6.418,4.93h.038a3.625,3.625,0,0,0,2.837-1.532c.721,1.144,2,2.785,3.488,2.981a2.282,2.282,0,0,0,1.4-.265,11.447,11.447,0,0,1,.315,1.174.734.734,0,0,0,.718.578c3.766,0,5.414-2.057,6.114-3.544,1.314,1.7,3.9,4.54,6.562,4.54l.139,0a3.815,3.815,0,0,0,2.812-1.477c1.446,3.459,3.215,6.452,5.278,7.716a.734.734,0,0,0,.767-1.252Z" transform="translate(0 -77.985)"/><path class="b" d="M402.35,14.309a6.609,6.609,0,0,1-3.939-6.231,6.609,6.609,0,0,1,3.939-6.232.734.734,0,0,0,0-1.366A6.72,6.72,0,0,0,399.879,0c-4.048,0-7.341,3.622-7.341,8.075s3.293,8.075,7.341,8.075a6.721,6.721,0,0,0,2.471-.478.734.734,0,0,0,0-1.366Z" transform="translate(-358.768 -0.002)"/><path class="b" d="M265.27,96.805H266v.734a.734.734,0,0,0,1.468,0v-.734h.734a.734.734,0,0,0,0-1.468h-.734V94.6a.734.734,0,0,0-1.468,0v.734h-.734a.734.734,0,0,0,0,1.468Z" transform="translate(-241.778 -85.794)"/></g></g></g></svg>