<svg xmlns="http://www.w3.org/2000/svg" width="25" height="25" viewBox="0 0 50 50">
  <g id="OBJECTS">
    <g>
      <path d="M8.951,35.159c2.435,1.773,4.649,3.416,6.911,4.994a1.2,1.2,0,0,0,1.068-.194c2.012-1.62,3.98-3.3,5.975-4.938a3.438,3.438,0,0,0,1.352-2.7c.038-3.013.045-6.026.054-9.039,0-.887-.424-1.483-1.345-1.468s-1.312.618-1.312,1.5c0,1.149.056,2.3-.029,3.444-.027.35-.438.672-.673,1.007-.211-.324-.579-.635-.6-.973-.069-1.252-.058-2.512-.008-3.767a2.455,2.455,0,0,1,2.022-2.461c.68-.148.835-.464.9-1.075q.364-3.75.813-7.49c.114-.972.065-1.832-1.041-2.171-.875-.268-1.5.212-2.019,1.464-1.118,2.72-2.291,5.419-3.32,8.173a9.145,9.145,0,0,0-.577,3.236c.024,2.224.256,4.447.389,6.662.106,1.729.031,1.829-1.517,2.541C13.719,32.952,11.45,34,8.951,35.159Zm32.1,0c-2.634-1.218-5.025-2.35-7.44-3.426A1.73,1.73,0,0,1,32.444,29.8c.18-2.254.377-4.509.424-6.767a8.945,8.945,0,0,0-.452-3.259C31.291,16.761,30,13.8,28.778,10.811a1.44,1.44,0,0,0-1.772-1l-.018,0a1.411,1.411,0,0,0-1.119,1.652c0,.021.008.041.013.062.291,2.71.57,5.422.912,8.127a1.243,1.243,0,0,0,.7.83,2.732,2.732,0,0,1,2.173,2.829c.023,1.148.053,2.3-.034,3.442-.026.352-.43.674-.661,1.009-.211-.326-.573-.635-.6-.981-.08-1.071-.026-2.151-.038-3.227-.012-1.148-.449-1.727-1.3-1.744s-1.339.523-1.349,1.68c-.024,2.906-.087,5.817.061,8.717a4.09,4.09,0,0,0,1.143,2.549c2.012,1.885,4.193,3.6,6.338,5.337a.97.97,0,0,0,.906.055c2.254-1.58,4.478-3.219,6.913-4.989Z" fill="#3c64bc"/>
      <path d="M8.951,35.159c2.5-1.155,4.765-2.207,7.04-3.253,1.548-.711,1.621-.811,1.517-2.541-.133-2.223-.365-4.439-.389-6.662a9.141,9.141,0,0,1,.577-3.236c1.029-2.753,2.2-5.453,3.32-8.173.515-1.255,1.144-1.732,2.019-1.464,1.106.339,1.155,1.2,1.041,2.171q-.446,3.74-.813,7.49c-.06.611-.212.926-.9,1.075a2.454,2.454,0,0,0-2.022,2.461c-.05,1.255-.061,2.515.008,3.767.019.334.39.649.6.973.235-.335.646-.657.673-1.008.085-1.142.029-2.294.029-3.443,0-.883.389-1.489,1.312-1.5s1.347.581,1.345,1.467c-.009,3.014-.016,6.027-.054,9.04a3.441,3.441,0,0,1-1.355,2.7c-2,1.646-3.96,3.319-5.972,4.939a1.2,1.2,0,0,1-1.065.194C13.6,38.572,11.383,36.932,8.951,35.159Z" fill="#3c64bc"/>
      <path d="M41.049,35.163c-2.435,1.77-4.659,3.405-6.913,4.993a.967.967,0,0,1-.906-.055c-2.145-1.741-4.323-3.452-6.338-5.336a4.094,4.094,0,0,1-1.142-2.554c-.148-2.9-.085-5.811-.061-8.717.01-1.157.5-1.694,1.349-1.68s1.284.6,1.3,1.744c.012,1.076-.042,2.156.038,3.227.026.341.39.655.6.981.231-.335.636-.657.661-1.009.087-1.141.057-2.294.034-3.442a2.732,2.732,0,0,0-2.173-2.829,1.243,1.243,0,0,1-.7-.83c-.342-2.7-.621-5.417-.912-8.127a1.411,1.411,0,0,1,1.044-1.7l.061-.013a1.44,1.44,0,0,1,1.784.98l.005.016C30,13.8,31.29,16.757,32.416,19.78a8.945,8.945,0,0,1,.452,3.259c-.05,2.258-.247,4.513-.424,6.767a1.731,1.731,0,0,0,1.165,1.932C36.024,32.813,38.415,33.945,41.049,35.163Z" fill="#3c64bc"/>
    </g>
  </g>
</svg>
