<svg xmlns="http://www.w3.org/2000/svg" width="16.064" height="41.72" viewBox="0 0 16.064 41.72">
  <g id="Group_18206" data-name="Group 18206" transform="translate(-48.95 -809.589)">
    <path id="Path_36865" data-name="Path 36865" d="M53,822.529h-.652v.528q0,5.055,0,10.109a2.4,2.4,0,0,1-.45,1.541,1.481,1.481,0,0,1-2.524-.064,2.527,2.527,0,0,1-.4-1.273q-.047-5.487-.01-10.975a4.025,4.025,0,0,1,3.918-3.96q4.1-.057,8.2,0A4.031,4.031,0,0,1,65,822.4c.024,3.658.015,7.316,0,10.974a1.716,1.716,0,1,1-3.379-.026c-.009-3.415,0-6.831,0-10.246v-.566h-.654v.6q0,12.978-.006,25.956a3.61,3.61,0,0,1-.04.588,1.87,1.87,0,0,1-1.891,1.626,1.913,1.913,0,0,1-1.757-1.784c-.018-.211-.009-.425-.009-.637q0-6.513,0-13.024v-.575H56.7v.532q0,6.627-.007,13.252a3.043,3.043,0,0,1-.162,1.022,1.793,1.793,0,0,1-1.808,1.19,1.873,1.873,0,0,1-1.653-1.47A3.949,3.949,0,0,1,53,849Q53,836.066,53,823.133Z" fill="#a5b0b9"/>
    <path id="Path_36866" data-name="Path 36866" d="M56.979,809.589a3.815,3.815,0,1,1-3.813,3.825A3.812,3.812,0,0,1,56.979,809.589Z" fill="#a5b0b9"/>
  </g>
</svg>
