<svg width="20" height="20" viewBox="0 0 20 20" fill="none" xmlns="http://www.w3.org/2000/svg">
<path d="M16.8421 17H3.15789L0 20V3C0 1.35 1.42105 0 3.15789 0H16.8421C18.5789 0 20 1.35 20 3V14C20 15.65 18.5789 17 16.8421 17Z" fill="#626262"/>
<path d="M8.94824 7H11.0535V12.5H8.94824V7Z" fill="white"/>
<path d="M10.0009 5.5C10.5822 5.5 11.0535 5.05228 11.0535 4.5C11.0535 3.94772 10.5822 3.5 10.0009 3.5C9.41952 3.5 8.94824 3.94772 8.94824 4.5C8.94824 5.05228 9.41952 5.5 10.0009 5.5Z" fill="white"/>
</svg>
