<svg xmlns="http://www.w3.org/2000/svg" xmlns:xlink="http://www.w3.org/1999/xlink" width="32" height="32" viewBox="0 0 32 32">
  <defs>
    <clipPath id="clip-airway">
      <rect width="32" height="32"/>
    </clipPath>
  </defs>
  <g id="airway" clip-path="url(#clip-airway)">
    <path id="Path_94943" data-name="Path 94943" d="M69.843,1739.463s-8.662-4.872-8.662-4.872v-4.708a1.883,1.883,0,0,0-3.766,0v4.708l-8.812,4.976a1.387,1.387,0,0,0-.6,1.144,1.41,1.41,0,0,0,1.412,1.412,1.325,1.325,0,0,0,.433-.071l7.57-2.283v7.061l-2.853,2.029a.876.876,0,0,0-.212.183.914.914,0,0,0-.231.612.944.944,0,0,0,.941.941.711.711,0,0,0,.141-.014l4.1-1.346,3.9,1.294a.9.9,0,0,0,.339.066.944.944,0,0,0,.941-.941.92.92,0,0,0-.193-.565.834.834,0,0,0-.249-.23l-2.853-2.029v-7.061l7.518,2.264a1.382,1.382,0,0,0,.485.09,1.411,1.411,0,0,0,.659-2.66Z" transform="translate(-42.333 -1723)" fill="#0070ab"/>
  </g>
</svg>
