<svg xmlns="http://www.w3.org/2000/svg" width="37.301" height="37.135" viewBox="0 0 37.301 37.135"><defs><style>.a{opacity:0.67;}.b{fill:#f1faff;}</style></defs><g transform="translate(-928 -562)"><g class="a" transform="translate(928 562)"><path class="b" d="M428.066,190.716h1.658c.07.04.136.108.209.116a8.547,8.547,0,0,1,6.625,11.912,4.84,4.84,0,0,0-.287,2.247c.376,3.948.821,7.889,1.257,11.831.2,1.8.433,3.6.651,5.393v1.658a15.274,15.274,0,0,1-.8,1.861,4.925,4.925,0,0,1-3.348,2.118H405.023a4.729,4.729,0,0,1-3.1-1.847,19.756,19.756,0,0,1-1.046-2.3v-1.16c.064-.4.145-.8.188-1.2.6-5.618,1.263-11.232,1.782-16.858.364-3.943,2.318-5.513,5.837-5.408s7.065.023,10.6.019c.316,0,.633-.029.932-.044.475-4.338,2.929-7.264,6.729-8.107C427.317,190.864,427.692,190.792,428.066,190.716ZM434,206.883c-.3.315-.458.505-.641.667-1.237,1.1-2.472,2.2-3.725,3.275a1.173,1.173,0,0,1-1.593.1c-3.035-2.365-5.742-5.012-7.18-8.691a.933.933,0,0,0-1-.738c-3.949.024-7.9,0-11.846.021a2.3,2.3,0,0,0-2.6,2.3c-.208,1.669-.359,3.345-.538,5.018-.481,4.5-.946,9-1.453,13.491-.227,2.015.63,3.039,2.663,3.039h26.924c.166,0,.332,0,.5,0a2.153,2.153,0,0,0,2.2-2.282c0-.468-.058-.936-.107-1.4q-.281-2.715-.574-5.429C434.686,213.184,434.351,210.12,434,206.883Zm-5.233,1.725a19.656,19.656,0,0,0,5.13-5.655,6.778,6.778,0,0,0,.965-4.751,5.931,5.931,0,0,0-4.377-4.887,6.153,6.153,0,0,0-7.449,8.154C424.185,204.432,426.412,206.52,428.766,208.608Z" transform="translate(-400.878 -190.716)"/><path class="b" d="M552.242,228.532a3.432,3.432,0,0,1-3.362-3.472,3.5,3.5,0,0,1,3.508-3.36,3.419,3.419,0,0,1,3.321,3.5A3.343,3.343,0,0,1,552.242,228.532Zm2.625-3.4a2.584,2.584,0,0,0-2.552-2.589,2.661,2.661,0,0,0-2.585,2.59,2.586,2.586,0,0,0,2.585,2.559A2.509,2.509,0,0,0,554.867,225.132Z" transform="translate(-524.343 -216.564)"/></g></g></svg>