<?xml version="1.0" encoding="utf-8"?>
<!-- Generator: Adobe Illustrator 25.2.1, SVG Export Plug-In . SVG Version: 6.00 Build 0)  -->
<svg version="1.1" id="Layer_1" xmlns="http://www.w3.org/2000/svg" xmlns:xlink="http://www.w3.org/1999/xlink" x="0px" y="0px"
	 viewBox="0 0 58.7 51.1" style="enable-background:new 0 0 58.7 51.1;" xml:space="preserve">
<style type="text/css">
	.st0{fill:#707071;}
</style>
<g id="Group_677" transform="translate(-2343.75 598.583)">
	<path id="Path_37023" class="st0" d="M2373.4-582.7c2.1-0.6,4.1-1.1,6.1-1.6c0.7-0.2,1.3-0.3,2-0.5c0.7-0.2,0.8-0.1,1,0.6
		c0.7,2.8,1.5,5.6,2.2,8.4c1.3,5,2.6,10.1,3.9,15.1c0.3,1,0.2,1.1-0.8,1.4c-2.4,0.6-4.7,1.3-7.1,1.9c-0.7,0.2-0.9,0.1-1.1-0.6
		c-2-7.6-4-15.2-6-22.8c-0.1-0.3-0.2-0.6-0.4-0.9v0.6c0,7.6,0,15.1,0,22.7c0,1,0,1.1-1.1,1.1H2358c-0.9,0-1-0.1-1-1
		c0-8.5,0-17.1,0-25.6c0-0.9,0.1-1,1-1c2.3,0,4.5,0,6.8,0h0.7c0-1.1,0-2.2,0-3.3c0-0.8,0.1-1,1-1c2,0,4.1,0,6.1,0
		c0.8,0,0.9,0.1,0.9,0.9C2373.4-586.5,2373.4-584.6,2373.4-582.7z M2372.3-582.3h-5.8v18.5h5.8V-582.3z M2358.1-581.3v15.8h7.3
		v-15.8L2358.1-581.3z M2379-565l6.9-1.9c-1-4-2.1-7.9-3.1-11.8l-6.9,1.8C2377-572.8,2378-568.9,2379-565L2379-565z M2358.1-558.6
		h7.3v-3.1h-7.3V-558.6z M2381.5-583.8l-6.9,1.8c0.2,0.8,0.4,1.5,0.6,2.2l6.9-1.8C2381.9-582.4,2381.7-583.1,2381.5-583.8
		L2381.5-583.8z M2387-562.7l-6.9,1.8l0.6,2.2l6.9-1.8L2387-562.7z M2386.2-565.8l-6.9,1.9c0.2,0.7,0.4,1.4,0.6,2.1l6.9-1.8
		L2386.2-565.8z M2372.3-588.1h-5.8v2h5.8V-588.1z M2366.6-558.6h5.7v-2h-5.7V-558.6z M2365.4-583.9h-7.3v1.5h7.3V-583.9z
		 M2365.4-562.8v-1.5h-7.3v1.5H2365.4z M2372.3-585h-5.8v1.5h5.8V-585z M2382.4-580.6l-6.9,1.8l0.2,1l6.9-1.8L2382.4-580.6z
		 M2372.3-562.7h-5.7v1h5.7V-562.7z"/>
	<path id="Path_37024" class="st0" d="M2361.8-579.7c0.7,0,1.3,0,2,0c0.3,0,0.6,0.2,0.7,0.5c0,0.1,0,0.1,0,0.2c0,1.3,0,2.7,0,4
		c0,0.3-0.2,0.6-0.5,0.6c0,0-0.1,0-0.1,0c-1.3,0-2.7,0-4,0c-0.3,0-0.6-0.2-0.7-0.5c0,0,0-0.1,0-0.1c0-1.3,0-2.6,0-4
		c0-0.3,0.2-0.6,0.5-0.7c0.1,0,0.1,0,0.2,0C2360.5-579.7,2361.1-579.7,2361.8-579.7z M2360.2-578.6v3.1h3.1v-3.1H2360.2z"/>
</g>
</svg>
