<svg id="Layer_1" data-name="Layer 1" xmlns="http://www.w3.org/2000/svg" width="53.245" height="46.565" viewBox="0 0 53.245 46.565">
  <path d="M45.887,30.415a3.053,3.053,0,0,0-.991-2.132c-.3-.278-.613-.55-.928-.813V21.547a1.131,1.131,0,0,0-.366-.833,20.527,20.527,0,0,0-4.619-3.182v-1.36a1.129,1.129,0,1,0-2.258,0v.373c-.3-.11-.594-.217-.9-.317a26.543,26.543,0,0,0-4.354-1.018V14.078a1.129,1.129,0,0,0-2.258,0v.881q-1.264-.094-2.583-.1c-.909,0-1.8.036-2.669.1v-.888a1.129,1.129,0,1,0-2.258,0v1.145a26.5,26.5,0,0,0-4.272,1.005c-.331.109-.657.226-.979.347v-.4a1.129,1.129,0,0,0-2.258,0v1.4a20.408,20.408,0,0,0-4.534,3.142,1.13,1.13,0,0,0-.366.832l0,5.9q-.485.4-.952.834A3.071,3.071,0,0,0,12.5,32.807a21.077,21.077,0,0,1,1.639-1.357,20.875,20.875,0,0,1,24.959,0,21.038,21.038,0,0,1,1.639,1.357,3.071,3.071,0,0,0,5.146-2.392ZM38.983,20.1a18.178,18.178,0,0,1,2.727,1.954v3.719a26.679,26.679,0,0,0-2.727-1.614Zm-7.509-2.606a22.762,22.762,0,0,1,5.251,1.477v4.154a26.881,26.881,0,0,0-5.251-1.518Zm-7.51-.263q1.3-.106,2.669-.108,1.328,0,2.583.1v4.07q-1.287-.125-2.594-.125-1.338,0-2.658.131ZM16.455,19a22.651,22.651,0,0,1,5.251-1.5v4.112a26.9,26.9,0,0,0-5.251,1.533ZM14.2,20.145V24.19a26.922,26.922,0,0,0-2.639,1.565l0-3.7A18.019,18.019,0,0,1,14.2,20.145ZM43.417,31.1a.8.8,0,0,1-.6.263.813.813,0,0,1-.55-.214,23.131,23.131,0,0,0-31.291,0,.814.814,0,0,1-1.1-1.2,24.762,24.762,0,0,1,33.492,0,.812.812,0,0,1,.049,1.149Z" fill="#4b4c4c"/>
</svg>
