<svg xmlns="http://www.w3.org/2000/svg" xmlns:xlink="http://www.w3.org/1999/xlink" width="32" height="32" viewBox="0 0 32 32">
  <defs>
    <clipPath id="clip-governance">
      <rect width="32" height="32"/>
    </clipPath>
  </defs>
  <g id="governance" clip-path="url(#clip-governance)">
    <g id="Group_265" data-name="Group 265" transform="translate(-429.551 -185.329)">
      <g id="Group_264" data-name="Group 264" transform="translate(432.98 188.758)">
        <path id="Path_659" data-name="Path 659" d="M457.386,209.432h-.736v-3.073a2.21,2.21,0,0,0-.737-4.293h-2.259v-2.211a.737.737,0,0,0-.737-.736h-2.262a5.168,5.168,0,0,0-4.367-4.367v-1.575h3.683a.736.736,0,0,0,.736-.737v-2.946a.736.736,0,0,0-.736-.736h-4.419a.736.736,0,0,0-.737.736v5.258a5.169,5.169,0,0,0-4.367,4.367h-2.262a.737.737,0,0,0-.736.736v2.211H435.19a2.209,2.209,0,0,0-.736,4.293v3.073h-.736a.737.737,0,0,0-.737.737v2.995a.737.737,0,0,0,.737.737h23.669a.736.736,0,0,0,.736-.737v-2.995A.736.736,0,0,0,457.386,209.432Zm-11.1-19.2h2.947V191.7h-2.947Zm9.625,13.308a.737.737,0,1,1,0,1.473h-5.205v-1.473Zm-5.205,5.893v-2.946h4.469v2.946m-13.308-9.576a3.683,3.683,0,0,1,7.366,0,.736.736,0,0,0,.736.737h2.21v1.473h-1.987l-4.234-2.823a.736.736,0,0,0-.817,0l-4.234,2.823h-1.987v-1.473m10.313,8.839h-1.473v-5.156a.737.737,0,1,0-1.473,0v5.156h-1.473v-5.156a.736.736,0,1,0-1.473,0v5.156h-1.473V203.2l3.683-2.455,3.683,2.455m-14.045.342H440.4v1.473H435.19a.737.737,0,0,1,0-1.473Zm5.205,2.947v2.946h-4.468v-2.946Zm-2.607,5.942h-3.335V210.9h4.333Zm1.762,0,1-1.522h10.008l1,1.522Zm17.1,0h-3.335l-1-1.522h4.333Z" transform="translate(-432.98 -188.758)" fill="#0070ab"/>
      </g>
    </g>
  </g>
</svg>
