<?xml version="1.0" encoding="utf-8"?>
<!-- Generator: Adobe Illustrator 25.0.0, SVG Export Plug-In . SVG Version: 6.00 Build 0)  -->
<svg version="1.1" id="Layer_1" xmlns="http://www.w3.org/2000/svg" xmlns:xlink="http://www.w3.org/1999/xlink" x="0px" y="0px"
	 viewBox="0 0 841.89 595.28" style="enable-background:new 0 0 841.89 595.28;" xml:space="preserve">
<style type="text/css">
	.st0{fill:#FFFFFF;}
</style>
<g>
	<path class="st0" d="M410.17,355.85c19.54-4.4,37.96-1.76,56.46,1.69c0.18-1.31,0.38-2.12,0.38-2.93
		c0.02-31.33,0.08-62.66-0.12-93.99c-0.01-1.87-1.65-4.27-3.24-5.51c-26.26-20.5-52.69-40.79-78.93-61.32
		c-3.09-2.42-4.96-2.38-7.97,0.02c-25.27,20.14-50.65,40.16-76.1,60.08c-2.68,2.1-3.52,4.32-3.51,7.58
		c0.1,31.83,0.06,63.66,0.06,95.5c0,1.64,0,3.29,0,5.31c18.82,4.29,37.18,9.29,56.88,9.11c0-2.48,0-4.29,0-6.1
		c0.03-11.83-0.2-23.67,0.15-35.49c0.36-12,7.89-21.14,19.38-24.43c19.04-5.45,36.1,7.02,36.52,26.79
		C410.31,339.79,410.17,347.42,410.17,355.85z M190.6,458.64c1.41-0.82,2.14-1.2,2.82-1.64c19.64-12.86,41.32-17.76,64.36-14.69
		c17.61,2.35,35.17,5.69,52.44,9.85c30.08,7.24,59.39,9.24,88.07-5.7c9.8-5.11,20.98-6.13,32.11-6.22
		c15.97-0.13,31.52,2.59,46.83,6.71c19.28,5.18,38.39,11,57.74,15.88c10.04,2.53,20.44,3.46,30.2-1.95c2.93-1.63,5.91-3.18,8.93-4.8
		c0-9.37,0-19.1,0-28.55c-4.84,1.75-9.37,3.88-14.14,5.01c-10.47,2.47-20.96,1.05-31.14-1.65c-18.97-5.02-37.76-10.75-56.73-15.8
		c-26.97-7.18-53.7-9.33-79.95,3.55c-20.1,9.86-41.5,10.34-63.06,6.32c-21.59-4.02-42.97-9.25-64.62-12.84
		c-24.33-4.04-47.48-0.47-68.03,14.44c-1.66,1.21-3.77,1.81-5.84,2.77C190.6,438.69,190.6,448.31,190.6,458.64z M574.1,413.32
		c0-9.99,0-19.7,0-28.98c-5.31,1.78-10.34,3.99-15.61,5.14c-11.04,2.41-21.94,0.23-32.58-2.59c-20.42-5.4-40.59-11.77-61.09-16.79
		c-22.31-5.46-44.99-7.54-66.54,2.9c-25.6,12.4-51.86,12.74-78.97,6.96c-20.33-4.33-40.67-8.89-61.22-11.8
		c-21.79-3.09-42.42,1.48-60.75,14.43c-1.99,1.41-4.31,2.36-6.5,3.53c0,9.35,0,19.03,0,29.31c22.8-16.02,47.74-19.79,73.95-15.83
		c15.77,2.38,31.44,5.7,46.93,9.53c29.42,7.26,58.06,8.43,86.17-5.73c7.2-3.63,15.89-4.97,24.06-5.89
		c20.7-2.33,40.76,2.06,60.59,7.52c17.64,4.85,35.16,10.13,52.91,14.52c11.66,2.88,23.47,3.62,33.8-4.81
		C570.44,413.78,572.4,413.79,574.1,413.32z M380.29,183.21c0.74,0.27,1.1,0.32,1.35,0.51c29.81,23.01,59.62,46.02,89.37,69.1
		c1.03,0.8,2.22,2.5,2.04,3.55c-0.83,4.78,2.03,4.77,5.33,4.75c11.67-0.06,23.33-0.04,35-0.03c3.47,0.01,6.8-0.25,8.18-4.19
		c1.38-3.96-1.06-6.16-3.84-8.31c-43.78-33.82-87.55-67.64-131.25-101.56c-4.08-3.17-7.32-3.35-11.49-0.02
		c-21.47,17.17-43.12,34.12-64.7,51.15c-21.58,17.03-43.14,34.1-64.76,51.08c-2.68,2.1-4.42,4.77-2.79,7.67
		c1.08,1.93,3.98,3.91,6.12,3.99c12.82,0.44,25.66,0.31,38.49,0.42c2.5,0.02,3.18-1.1,3.68-3.54c0.5-2.46,1.78-5.34,3.66-6.86
		c16.07-12.99,32.35-25.71,48.57-38.51C355.66,202.62,368.07,192.85,380.29,183.21z M366.48,371.53
		c10.43-3.92,19.89-7.39,29.26-11.12c0.94-0.37,1.77-2.29,1.79-3.5c0.13-8.82,0.25-17.65-0.04-26.46
		c-0.27-8.3-6.54-13.83-15.19-13.94c-8.61-0.12-15.49,5.33-15.72,13.43C366.21,343.23,366.48,356.54,366.48,371.53z"/>
	<path d="M410.17,355.85c0-8.42,0.14-16.06-0.03-23.68c-0.42-19.78-17.48-32.24-36.52-26.79c-11.49,3.29-19.02,12.43-19.38,24.43
		c-0.35,11.82-0.13,23.66-0.15,35.49c0,1.81,0,3.61,0,6.1c-19.7,0.18-38.06-4.82-56.88-9.11c0-2.02,0-3.67,0-5.31
		c0-31.83,0.04-63.66-0.06-95.5c-0.01-3.27,0.83-5.48,3.51-7.58c25.45-19.92,50.83-39.93,76.1-60.08c3.01-2.4,4.89-2.44,7.97-0.02
		c26.24,20.53,52.67,40.82,78.93,61.32c1.59,1.24,3.23,3.64,3.24,5.51c0.2,31.33,0.14,62.66,0.12,93.99c0,0.81-0.21,1.62-0.38,2.93
		C448.13,354.08,429.71,351.44,410.17,355.85z"/>
	<path d="M190.6,458.64c0-10.33,0-19.95,0-29.32c2.07-0.96,4.18-1.57,5.84-2.77c20.55-14.91,43.7-18.48,68.03-14.44
		c21.65,3.6,43.03,8.82,64.62,12.84c21.55,4.02,42.96,3.54,63.06-6.32c26.25-12.88,52.98-10.73,79.95-3.55
		c18.97,5.05,37.76,10.77,56.73,15.8c10.18,2.7,20.67,4.12,31.14,1.65c4.77-1.13,9.3-3.26,14.14-5.01c0,9.46,0,19.18,0,28.55
		c-3.02,1.62-5.99,3.18-8.93,4.8c-9.76,5.42-20.15,4.48-30.2,1.95c-19.35-4.87-38.46-10.7-57.74-15.88
		c-15.32-4.12-30.86-6.84-46.83-6.71c-11.13,0.09-22.31,1.11-32.11,6.22c-28.68,14.94-57.99,12.94-88.07,5.7
		c-17.28-4.16-34.83-7.49-52.44-9.85c-23.04-3.08-44.72,1.83-64.36,14.69C192.75,457.44,192.02,457.82,190.6,458.64z"/>
	<path d="M574.1,413.32c-1.7,0.47-3.66,0.46-4.83,1.41c-10.34,8.44-22.14,7.7-33.8,4.81c-17.75-4.39-35.28-9.67-52.91-14.52
		c-19.83-5.46-39.89-9.85-60.59-7.52c-8.17,0.92-16.86,2.26-24.06,5.89c-28.11,14.16-56.75,12.99-86.17,5.73
		c-15.49-3.82-31.16-7.14-46.93-9.53c-26.21-3.96-51.14-0.18-73.95,15.83c0-10.29,0-19.96,0-29.31c2.19-1.17,4.5-2.12,6.5-3.53
		c18.34-12.94,38.96-17.52,60.75-14.43c20.55,2.92,40.89,7.47,61.22,11.8c27.1,5.78,53.37,5.44,78.97-6.96
		c21.55-10.44,44.22-8.36,66.54-2.9c20.51,5.02,40.68,11.39,61.09,16.79c10.64,2.82,21.54,4.99,32.58,2.59
		c5.26-1.15,10.3-3.35,15.61-5.14C574.1,393.62,574.1,403.34,574.1,413.32z"/>
	<path d="M380.29,175.21c-12.22,9.63-24.63,19.41-37.04,29.2c-16.22,12.8-32.5,25.52-48.57,38.51c-1.88,1.52-3.16,4.4-3.66,6.86
		c-0.5,2.44-1.18,3.56-3.68,3.54c-12.83-0.11-25.67,0.02-38.49-0.42c-2.15-0.07-5.04-2.06-6.12-3.99c-1.63-2.9,0.11-5.57,2.79-7.67
		c21.62-16.98,43.18-34.05,64.76-51.08c21.58-17.03,43.23-33.98,64.7-51.15c4.17-3.33,7.4-3.15,11.49,0.02
		c43.7,33.92,87.48,67.74,131.25,101.56c2.78,2.15,5.22,4.35,3.84,8.31c-1.38,3.94-4.71,4.2-8.18,4.19
		c-11.67-0.02-23.33-0.03-35,0.03c-3.3,0.02-6.16,0.03-5.33-4.75c0.18-1.05-1.01-2.75-2.04-3.55
		c-29.75-23.08-59.56-46.09-89.37-69.1C381.39,175.53,381.04,175.49,380.29,175.21z"/>
	<path d="M366.48,371.53c0-14.99-0.27-28.3,0.1-41.59c0.23-8.1,7.1-13.55,15.72-13.43c8.65,0.12,14.92,5.64,15.19,13.94
		c0.29,8.81,0.17,17.64,0.04,26.46c-0.02,1.21-0.85,3.12-1.79,3.5C386.38,364.14,376.91,367.61,366.48,371.53z"/>
</g>
</svg>
