<svg xmlns="http://www.w3.org/2000/svg" xmlns:xlink="http://www.w3.org/1999/xlink" width="32" height="32" viewBox="0 0 32 32">
  <defs>
    <clipPath id="clip-Communication">
      <rect width="32" height="32"/>
    </clipPath>
  </defs>
  <g id="Communication" clip-path="url(#clip-Communication)">
    <g id="Group_253" data-name="Group 253" transform="translate(-427.243 -379.253)">
      <path id="Path_633" data-name="Path 633" d="M438.537,413.157a6.681,6.681,0,0,0,8.97.368.473.473,0,0,0,.018-.713l-9.113-8.245a.475.475,0,0,0-.68.052C435.555,407.164,436.095,410.715,438.537,413.157Z" transform="translate(-2.321 -10.867)" fill="#0070ab"/>
      <path id="Path_634" data-name="Path 634" d="M468.26,393.1a14.322,14.322,0,0,0-9.035-9.053.937.937,0,1,0-.58,1.783,12.412,12.412,0,0,1,7.831,7.849.938.938,0,0,0,.891.648.949.949,0,0,0,.29-.046A.938.938,0,0,0,468.26,393.1Z" transform="translate(-13.819)" fill="#0070ab"/>
      <path id="Path_635" data-name="Path 635" d="M456.3,391.111a.937.937,0,0,0-.719,1.73,10.562,10.562,0,0,1,6.053,6.052.937.937,0,0,0,1.731-.716A12.481,12.481,0,0,0,456.3,391.111Z" transform="translate(-12.224 -3.741)" fill="#0070ab"/>
      <path id="Path_636" data-name="Path 636" d="M453.4,398.158a.937.937,0,1,0-.919,1.633,10.774,10.774,0,0,1,4.328,4.329.937.937,0,0,0,1.633-.921A12.722,12.722,0,0,0,453.4,398.158Z" transform="translate(-10.63 -7.461)" fill="#0070ab"/>
      <path id="Path_637" data-name="Path 637" d="M453.379,407.313a.925.925,0,0,0-1.321,0l-1.349,1.349,1.382,1.26,1.288-1.288A.925.925,0,0,0,453.379,407.313Z" transform="translate(-9.944 -12.243)" fill="#0070ab"/>
      <path id="Path_638" data-name="Path 638" d="M435.179,424.217a.469.469,0,0,0-.738,0L432.1,427.03a.468.468,0,0,0,.37.756h4.684a.468.468,0,0,0,.37-.756Z" transform="translate(0 -21.28)" fill="#0070ab"/>
    </g>
  </g>
<?xml version="1.0" encoding="utf-8"?>
<!-- Generator: Adobe Illustrator 25.0.0, SVG Export Plug-In . SVG Version: 6.00 Build 0)  -->
<svg version="1.1" id="Layer_1" xmlns="http://www.w3.org/2000/svg" xmlns:xlink="http://www.w3.org/1999/xlink" x="0px" y="0px"
	 viewBox="0 0 50 50" style="enable-background:new 0 0 50 50;" xml:space="preserve">
<style type="text/css">
	.st0{fill:#FFFFFF;}
	.st1{fill:#1664C1;}
</style>
<circle class="st0" cx="25.4" cy="19.5" r="12.9"/>
<g id="OBJECTS">
	<g>
		<path class="st1" d="M25,15c-1.1,0-2,0.9-2,2c0,1.1,0.9,2,2,2c1.1,0,2-0.9,2-2C27,15.9,26.1,15,25,15z M25,17.9
			c-0.5,0-0.9-0.4-0.9-0.9c0-0.5,0.4-0.9,0.9-0.9c0.5,0,0.9,0.4,0.9,0.9c0,0,0,0,0,0C25.9,17.5,25.5,17.9,25,17.9L25,17.9z"/>
		<path class="st1" d="M22.8,14.7c0.2-0.2,0.2-0.6,0-0.8c-0.2-0.2-0.6-0.2-0.8,0l0,0c-1.7,1.7-1.7,4.4,0,6.1c0.2,0.2,0.6,0.2,0.8,0
			s0.2-0.6,0-0.8l0,0C21.5,18,21.5,16,22.8,14.7z"/>
		<path class="st1" d="M28.1,13.9c-0.2-0.2-0.6-0.2-0.8,0c-0.2,0.2-0.2,0.6,0,0.8l0,0c1.2,1.2,1.2,3.2,0,4.5c0,0,0,0,0,0
			c-0.2,0.2-0.2,0.6,0,0.8c0.2,0.2,0.6,0.2,0.8,0C29.7,18.4,29.7,15.6,28.1,13.9C28.1,13.9,28.1,13.9,28.1,13.9L28.1,13.9z"/>
		<path class="st1" d="M19.2,17c0-1.5,0.6-3,1.7-4.1c0.2-0.2,0.2-0.6,0-0.8c-0.2-0.2-0.6-0.2-0.8,0c-2.7,2.7-2.7,7.1,0,9.8
			c0,0,0,0,0,0c0.2,0.2,0.6,0.2,0.8,0s0.2-0.6,0-0.8C19.8,20,19.2,18.5,19.2,17z"/>
		<path class="st1" d="M29.9,12.1c-0.2-0.2-0.6-0.2-0.8,0c-0.2,0.2-0.2,0.6,0,0.8c2.3,2.3,2.3,5.9,0,8.2c-0.2,0.2-0.2,0.6,0,0.8
			s0.6,0.2,0.8,0C32.6,19.2,32.6,14.8,29.9,12.1z"/>
		
			<rect x="25.5" y="20.9" transform="matrix(0.7138 -0.7003 0.7003 0.7138 -10.1329 25.4699)" class="st1" width="1.1" height="8.5"/>
		
			<rect x="19.7" y="24.6" transform="matrix(0.7015 -0.7127 0.7127 0.7015 -10.7723 24.5498)" class="st1" width="8.5" height="1.1"/>
		<path class="st1" d="M30.1,29.2l-4-11.1c-0.1-0.3-0.4-0.5-0.7-0.4c-0.3,0.1-0.5,0.4-0.4,0.7c0,0,0,0,0,0l4,11.1
			c0.1,0.3,0.4,0.5,0.7,0.4C30,29.9,30.2,29.6,30.1,29.2C30.1,29.3,30.1,29.2,30.1,29.2z"/>
		<path class="st1" d="M24.7,17.8c-0.3-0.1-0.6,0-0.7,0.3l-4,11.1c-0.1,0.3,0,0.6,0.3,0.7c0.1,0,0.1,0,0.2,0c0.2,0,0.5-0.2,0.5-0.4
			l4-11.1C25.1,18.3,25,17.9,24.7,17.8C24.7,17.8,24.7,17.8,24.7,17.8z"/>
	</g>
	<g>
		<path class="st1" d="M25,3.5c-8.7,0-15.8,7.1-15.8,15.8c0,6.9,4.5,13,11.1,15.1l3.3,5.7c0.4,0.7,1.3,0.9,2,0.5
			c0.2-0.1,0.4-0.3,0.5-0.5l3.3-5.7c8.4-2.4,13.2-11.2,10.8-19.6C38.3,8.1,32.1,3.5,25,3.5L25,3.5z M25,31.4
			C18.4,31.4,13,26,13,19.3S18.4,7.2,25,7.2c6.7,0,12.1,5.4,12.1,12.1c0,0,0,0,0,0C37.1,26,31.7,31.4,25,31.4z M26.6,44.6
			c0,0.9-0.7,1.6-1.6,1.6c-0.9,0-1.6-0.7-1.6-1.6c0-0.9,0.7-1.6,1.6-1.6c0,0,0,0,0,0C25.9,43,26.6,43.7,26.6,44.6z"/>
	</g>
</g>
</svg>
