<svg xmlns="http://www.w3.org/2000/svg" xmlns:xlink="http://www.w3.org/1999/xlink" width="171" height="171" viewBox="0 0 171 171">
  <defs>
    <clipPath id="clip-communication">
      <rect width="171" height="171"/>
    </clipPath>
  </defs>
  <g id="communication" clip-path="url(#clip-communication)">
    <g id="Group_18238" data-name="Group 18238" transform="translate(880.642 -305.044)">
      <path id="Path_36894" data-name="Path 36894" d="M-799.516,380.569c.032-.73.016-1.392.1-2.042.289-2.338-.347-3.719-2.793-4.877-5.761-2.728-8.384-9.276-6.8-15.516a13.781,13.781,0,0,1,12.843-10.224,13.713,13.713,0,0,1,13.783,9.972,13.821,13.821,0,0,1-6.235,15.639c-3.672,2.194-3.933,2.811-2.969,7.443,2.976,0,6.02-.008,9.064,0,4.258.014,5.318,1.065,5.315,5.223,0,5.046.218,10.1-.052,15.134a59.65,59.65,0,0,0,3.522,23.3c3.528,10.044,6.534,20.273,9.644,30.46.512,1.677,1.244,2.179,2.937,2.112,3.386-.134,6.781-.033,10.172-.027,3.508.006,5.309,1.309,5.264,3.806-.043,2.392-1.808,3.647-5.169,3.648q-34.616,0-69.233,0-9.8,0-19.6,0c-3.077-.005-4.845-1.394-4.832-3.745s1.772-3.693,4.869-3.7c2.978-.012,5.957-.059,8.933.014a2.131,2.131,0,0,0,2.521-1.669c4.589-13.7,9.283-27.366,13.9-41.057a9.346,9.346,0,0,0,.358-2.92c.027-8.437.011-16.874.017-25.311,0-4.1,1.167-5.232,5.349-5.26q4.216-.028,8.431-.091C-800.036,380.868-799.893,380.745-799.516,380.569Zm-21.12,76.509h49.357c-.626-2.015-1.324-3.867-1.757-5.778-.381-1.681-1.19-2.17-2.916-2.158-11.662.079-23.324.032-34.986.029-7.7,0-7.7,0-9.741,7.386A2.7,2.7,0,0,0-820.637,457.078Zm16.3-39.222,8.469,18.713,8.949-18.713Zm19.506-7.741V403.21h-21.512v6.906Zm3.187,13.99-8.3,17.483h13.8Zm-20.134,17.535-7.951-17.51c-2.086,6.194-3.958,11.756-5.9,17.51Z" transform="translate(0 -10.53)" fill="#1664c1"/>
      <path id="Path_36895" data-name="Path 36895" d="M-840.044,348.789a30.735,30.735,0,0,1,8.424-19.838c2.012-2.2,4.067-2.532,5.834-1.026,1.787,1.523,1.669,3.814-.315,6.073-8.7,9.906-8.691,22.964.021,32.867,1.917,2.179,2.075,4.355.428,5.9-1.7,1.591-3.974,1.223-6.034-.978C-837.008,366.1-840.016,358.381-840.044,348.789Z" transform="translate(-2.275 -0.003)" fill="#1664c1"/>
      <path id="Path_36896" data-name="Path 36896" d="M-666.444,350.717a30.844,30.844,0,0,1-8.441,21.172c-1.959,2.127-4.151,2.434-5.845.919-1.742-1.558-1.637-3.707.287-5.872,8.815-9.922,8.818-22.964.006-33.07-1.988-2.279-2.033-4.538-.121-6.041,1.684-1.324,3.669-1.076,5.484.87A31.077,31.077,0,0,1-666.444,350.717Z" transform="translate(-81.887)" fill="#1664c1"/>
      <path id="Path_36897" data-name="Path 36897" d="M-689.635,360.021a17.7,17.7,0,0,1-4.632,12.194c-1.812,2.026-3.919,2.287-5.649.8-1.671-1.44-1.671-3.6,0-5.7,3.851-4.839,3.843-9.475-.022-14.378-1.646-2.088-1.635-4.307.027-5.715,1.722-1.458,3.809-1.151,5.669.836A18.135,18.135,0,0,1-689.635,360.021Z" transform="translate(-72.215 -9.725)" fill="#1664c1"/>
      <path id="Path_36898" data-name="Path 36898" d="M-812.846,359.967a18.15,18.15,0,0,1,4.669-11.887c1.869-2.051,3.9-2.346,5.647-.887s1.757,3.557.052,5.685c-3.821,4.768-3.836,9.691-.045,14.391,1.742,2.16,1.763,4.211.06,5.7s-3.81,1.229-5.65-.77A18.076,18.076,0,0,1-812.846,359.967Z" transform="translate(-15.973 -9.712)" fill="#1664c1"/>
    </g>
  </g>
</svg>
