<svg xmlns="http://www.w3.org/2000/svg" xmlns:xlink="http://www.w3.org/1999/xlink" width="32" height="32" viewBox="0 0 32 32">
  <defs>
    <clipPath id="clip-Culture">
      <rect width="32" height="32"/>
    </clipPath>
  </defs>
  <g id="Culture" clip-path="url(#clip-Culture)">
    <g id="Group_263" data-name="Group 263" transform="translate(-560.078 -179.69)">
      <path id="Path_656" data-name="Path 656" d="M563,204.464c2.006,1.463,3.835,2.818,5.7,4.119a.987.987,0,0,0,.879-.16c1.66-1.336,3.283-2.719,4.928-4.073a2.834,2.834,0,0,0,1.118-2.225c.031-2.485.038-4.971.044-7.456,0-.731-.348-1.22-1.109-1.21s-1.082.51-1.082,1.238c0,.947.046,1.9-.024,2.84-.022.289-.361.555-.555.831-.172-.267-.479-.527-.493-.8-.057-1.033-.048-2.072-.007-3.107a2.025,2.025,0,0,1,1.668-2.03c.561-.122.689-.382.738-.886q.3-3.093.67-6.178c.1-.8.055-1.512-.858-1.791-.721-.221-1.24.173-1.665,1.208-.923,2.243-1.89,4.47-2.739,6.741a7.561,7.561,0,0,0-.476,2.67c.02,1.833.211,3.663.321,5.5.086,1.425.025,1.507-1.251,2.095C566.931,202.644,565.06,203.512,563,204.464Zm26.474,0c-2.173-1-4.145-1.938-6.137-2.825a1.427,1.427,0,0,1-.961-1.593c.148-1.858.31-3.719.352-5.582a7.385,7.385,0,0,0-.373-2.688c-.928-2.492-1.992-4.935-3-7.4a1.187,1.187,0,0,0-1.475-.822,1.164,1.164,0,0,0-.913,1.414c.24,2.236.47,4.473.752,6.7a1.025,1.025,0,0,0,.576.685,2.253,2.253,0,0,1,1.792,2.333c.019.947.044,1.9-.028,2.839-.022.29-.355.555-.545.832-.173-.269-.473-.528-.494-.809-.066-.884-.022-1.775-.031-2.663-.01-.947-.37-1.424-1.069-1.438s-1.1.431-1.113,1.386c-.02,2.4-.072,4.8.05,7.19a3.379,3.379,0,0,0,.942,2.106c1.662,1.554,3.458,2.966,5.227,4.4a.8.8,0,0,0,.748.045C585.631,207.276,587.465,205.927,589.473,204.467Z" fill="#0070ab"/>
      <path id="Path_657" data-name="Path 657" d="M563,204.464c2.061-.952,3.932-1.82,5.806-2.682,1.277-.588,1.337-.67,1.251-2.095-.11-1.832-.3-3.663-.321-5.5a7.561,7.561,0,0,1,.476-2.67c.849-2.271,1.816-4.5,2.739-6.741.425-1.035.944-1.429,1.665-1.208.913.279.953.989.858,1.791q-.365,3.085-.67,6.178c-.049.5-.177.764-.738.886a2.025,2.025,0,0,0-1.668,2.03c-.041,1.035-.05,2.074.007,3.107.015.276.321.535.493.8.194-.277.533-.542.555-.831.071-.942.024-1.892.024-2.84,0-.728.32-1.229,1.082-1.238s1.111.479,1.109,1.21c-.007,2.485-.013,4.971-.044,7.456a2.834,2.834,0,0,1-1.118,2.225c-1.645,1.354-3.268,2.737-4.928,4.073a.987.987,0,0,1-.879.16C566.834,207.282,565,205.927,563,204.464Z" fill="#0070ab"/>
      <path id="Path_658" data-name="Path 658" d="M591.473,204.468c-2.009,1.46-3.842,2.808-5.7,4.118a.8.8,0,0,1-.748-.045c-1.769-1.436-3.566-2.847-5.227-4.4a3.379,3.379,0,0,1-.942-2.106c-.121-2.392-.07-4.793-.05-7.19.008-.954.41-1.4,1.113-1.386s1.059.492,1.069,1.438c.01.888-.035,1.779.031,2.663.021.28.321.54.494.809.19-.277.523-.542.545-.832.072-.941.047-1.892.028-2.839a2.253,2.253,0,0,0-1.792-2.333,1.025,1.025,0,0,1-.576-.685c-.282-2.23-.512-4.468-.752-6.7a1.164,1.164,0,0,1,.913-1.414,1.187,1.187,0,0,1,1.475.822c1.01,2.463,2.073,4.905,3,7.4a7.385,7.385,0,0,1,.373,2.688c-.042,1.863-.2,3.724-.352,5.582a1.427,1.427,0,0,0,.961,1.593C587.328,202.53,589.3,203.463,591.473,204.468Z" transform="translate(-1.999 0)" fill="#0070ab"/>
    </g>
  </g>
<?xml version="1.0" encoding="utf-8"?>
<!-- Generator: Adobe Illustrator 25.0.0, SVG Export Plug-In . SVG Version: 6.00 Build 0)  -->
<svg version="1.1" id="Layer_1" xmlns="http://www.w3.org/2000/svg" xmlns:xlink="http://www.w3.org/1999/xlink" x="0px" y="0px"
	 viewBox="0 0 50 50" style="enable-background:new 0 0 50 50;" xml:space="preserve">
<style type="text/css">
	.st0{fill:#FFFFFF;}
	.st1{fill:#1664C1;}
	.st2{filter:url(#Adobe_OpacityMaskFilter);}
	.st3{mask:url(#mask_1_);}
</style>
<circle class="st0" cx="25.4" cy="19.5" r="12.9"/>
<g id="OBJECTS">
	<g>
		<path class="st1" d="M18.1,23.5c1.1,0.8,2.1,1.5,3.1,2.2c0.2,0,0.3,0,0.5-0.1c0.9-0.7,1.8-1.5,2.7-2.2c0.4-0.3,0.6-0.7,0.6-1.2
			c0-1.3,0-2.7,0-4c0-0.4-0.2-0.7-0.6-0.7s-0.6,0.3-0.6,0.7c0,0.5,0,1,0,1.5c0,0.2-0.2,0.3-0.3,0.5c-0.1-0.1-0.3-0.3-0.3-0.4
			c0-0.6,0-1.1,0-1.7c0-0.5,0.4-1,0.9-1.1c0.3-0.1,0.4-0.2,0.4-0.5c0.1-1.1,0.2-2.2,0.4-3.3c0.1-0.4,0-0.8-0.5-1
			c-0.4-0.1-0.7,0.1-0.9,0.7c-0.5,1.2-1,2.4-1.5,3.7c-0.2,0.5-0.3,1-0.3,1.4c0,1,0.1,2,0.2,3c0,0.8,0,0.8-0.7,1.1
			C20.2,22.5,19.2,23,18.1,23.5z M32.4,23.5c-1.2-0.5-2.2-1-3.3-1.5c-0.4-0.1-0.6-0.5-0.5-0.9c0.1-1,0.2-2,0.2-3c0-0.5,0-1-0.2-1.5
			c-0.5-1.3-1.1-2.7-1.6-4c-0.1-0.3-0.4-0.5-0.8-0.4h0c-0.3,0.1-0.6,0.4-0.5,0.7c0,0,0,0,0,0l0,0c0.1,1.2,0.3,2.4,0.4,3.6
			c0,0.2,0.2,0.3,0.3,0.4c0.6,0.1,1,0.7,1,1.3c0,0.5,0,1,0,1.5c0,0.2-0.2,0.3-0.3,0.5c-0.1-0.1-0.3-0.3-0.3-0.4c0-0.5,0-1,0-1.4
			c0-0.5-0.2-0.8-0.6-0.8s-0.6,0.2-0.6,0.8c0,1.3,0,2.6,0,3.9c0,0.4,0.2,0.8,0.5,1.1c0.9,0.8,1.9,1.6,2.8,2.4c0.1,0.1,0.3,0.1,0.4,0
			C30.4,25,31.3,24.3,32.4,23.5L32.4,23.5z"/>
		<path class="st1" d="M18.1,23.5c1.1-0.5,2.1-1,3.1-1.5c0.7-0.3,0.7-0.4,0.7-1.1c-0.1-1-0.2-2-0.2-3c0-0.5,0.1-1,0.3-1.4
			c0.5-1.2,1-2.4,1.5-3.7c0.2-0.6,0.5-0.8,0.9-0.7c0.5,0.2,0.5,0.5,0.5,1c-0.1,1.1-0.3,2.2-0.4,3.3c0,0.3-0.1,0.4-0.4,0.5
			c-0.5,0.1-0.9,0.6-0.9,1.1c0,0.6,0,1.1,0,1.7c0,0.1,0.2,0.3,0.3,0.4c0.1-0.1,0.3-0.3,0.3-0.5c0-0.5,0-1,0-1.5
			c0-0.4,0.2-0.7,0.6-0.7s0.6,0.3,0.6,0.7c0,1.3,0,2.7,0,4c0,0.5-0.2,0.9-0.6,1.2c-0.9,0.7-1.8,1.5-2.7,2.2
			c-0.1,0.1-0.3,0.1-0.5,0.1C20.2,25,19.2,24.3,18.1,23.5z"/>
		<path class="st1" d="M32.4,23.5c-1.1,0.8-2.1,1.5-3.1,2.2c-0.1,0.1-0.3,0.1-0.4,0c-1-0.8-1.9-1.5-2.8-2.4
			c-0.3-0.3-0.5-0.7-0.5-1.1c-0.1-1.3,0-2.6,0-3.9c0-0.5,0.2-0.8,0.6-0.8s0.6,0.3,0.6,0.8c0,0.5,0,1,0,1.4c0,0.2,0.2,0.3,0.3,0.4
			c0.1-0.2,0.3-0.3,0.3-0.5c0-0.5,0-1,0-1.5c0-0.6-0.4-1.1-1-1.3c-0.2-0.1-0.3-0.2-0.3-0.4c-0.2-1.2-0.3-2.4-0.4-3.6
			c-0.1-0.3,0.1-0.7,0.5-0.8l0,0c0.3-0.1,0.7,0.1,0.8,0.4c0,0,0,0,0,0v0c0.5,1.3,1.1,2.7,1.6,4c0.2,0.5,0.2,1,0.2,1.5
			c0,1-0.1,2-0.2,3c-0.1,0.4,0.2,0.7,0.5,0.9C30.2,22.4,31.3,23,32.4,23.5z"/>
	</g>
	<g>
		<defs>
			<filter id="Adobe_OpacityMaskFilter" filterUnits="userSpaceOnUse" x="24.5" y="43.7" width="3.2" height="3.2">
				<feColorMatrix  type="matrix" values="1 0 0 0 0  0 1 0 0 0  0 0 1 0 0  0 0 0 1 0"/>
			</filter>
		</defs>
		<mask maskUnits="userSpaceOnUse" x="24.5" y="43.7" width="3.2" height="3.2" id="mask_1_">
			<g class="st2">
				
					<image style="overflow:visible;enable-background:new    ;" width="36" height="47" xlink:href="E66BC182.png"  transform="matrix(1 0 0 1 7.988 2)">
				</image>
			</g>
		</mask>
		<g class="st3">
			<g>
				<path class="st1" d="M26.1,43.7c-0.9,0-1.6,0.7-1.6,1.6s0.7,1.6,1.6,1.6c0.9,0,1.6-0.7,1.6-1.6c0,0,0,0,0,0
					C27.7,44.4,27,43.7,26.1,43.7z"/>
			</g>
		</g>
		<path class="st1" d="M25,3.5c-8.7,0-15.8,7.1-15.8,15.8c0,6.9,4.5,13,11.1,15.1l3.3,5.7c0.4,0.7,1.3,0.9,2,0.5
			c0.2-0.1,0.4-0.3,0.5-0.5l3.3-5.7c8.4-2.4,13.2-11.2,10.8-19.6C38.3,8.1,32.1,3.5,25,3.5L25,3.5z M25,31.4
			C18.4,31.4,13,26,13,19.3S18.4,7.2,25,7.2c6.7,0,12.1,5.4,12.1,12.1c0,0,0,0,0,0C37.1,26,31.7,31.4,25,31.4z M26.6,44.6
			c0,0.9-0.7,1.6-1.6,1.6c-0.9,0-1.6-0.7-1.6-1.6c0-0.9,0.7-1.6,1.6-1.6c0,0,0,0,0,0C25.9,43,26.6,43.7,26.6,44.6z"/>
	</g>
</g>
</svg>
