<svg xmlns="http://www.w3.org/2000/svg" xmlns:xlink="http://www.w3.org/1999/xlink" width="32" height="32" viewBox="0 0 32 32">
  <defs>
    <clipPath id="clip-Culture">
      <rect width="32" height="32"/>
    </clipPath>
  </defs>
  <g id="Culture" clip-path="url(#clip-Culture)">
    <g id="Group_263" data-name="Group 263" transform="translate(-560.078 -179.69)">
      <path id="Path_656" data-name="Path 656" d="M563,204.464c2.006,1.463,3.835,2.818,5.7,4.119a.987.987,0,0,0,.879-.16c1.66-1.336,3.283-2.719,4.928-4.073a2.834,2.834,0,0,0,1.118-2.225c.031-2.485.038-4.971.044-7.456,0-.731-.348-1.22-1.109-1.21s-1.082.51-1.082,1.238c0,.947.046,1.9-.024,2.84-.022.289-.361.555-.555.831-.172-.267-.479-.527-.493-.8-.057-1.033-.048-2.072-.007-3.107a2.025,2.025,0,0,1,1.668-2.03c.561-.122.689-.382.738-.886q.3-3.093.67-6.178c.1-.8.055-1.512-.858-1.791-.721-.221-1.24.173-1.665,1.208-.923,2.243-1.89,4.47-2.739,6.741a7.561,7.561,0,0,0-.476,2.67c.02,1.833.211,3.663.321,5.5.086,1.425.025,1.507-1.251,2.095C566.931,202.644,565.06,203.512,563,204.464Zm26.474,0c-2.173-1-4.145-1.938-6.137-2.825a1.427,1.427,0,0,1-.961-1.593c.148-1.858.31-3.719.352-5.582a7.385,7.385,0,0,0-.373-2.688c-.928-2.492-1.992-4.935-3-7.4a1.187,1.187,0,0,0-1.475-.822,1.164,1.164,0,0,0-.913,1.414c.24,2.236.47,4.473.752,6.7a1.025,1.025,0,0,0,.576.685,2.253,2.253,0,0,1,1.792,2.333c.019.947.044,1.9-.028,2.839-.022.29-.355.555-.545.832-.173-.269-.473-.528-.494-.809-.066-.884-.022-1.775-.031-2.663-.01-.947-.37-1.424-1.069-1.438s-1.1.431-1.113,1.386c-.02,2.4-.072,4.8.05,7.19a3.379,3.379,0,0,0,.942,2.106c1.662,1.554,3.458,2.966,5.227,4.4a.8.8,0,0,0,.748.045C585.631,207.276,587.465,205.927,589.473,204.467Z" fill="#0070ab"/>
      <path id="Path_657" data-name="Path 657" d="M563,204.464c2.061-.952,3.932-1.82,5.806-2.682,1.277-.588,1.337-.67,1.251-2.095-.11-1.832-.3-3.663-.321-5.5a7.561,7.561,0,0,1,.476-2.67c.849-2.271,1.816-4.5,2.739-6.741.425-1.035.944-1.429,1.665-1.208.913.279.953.989.858,1.791q-.365,3.085-.67,6.178c-.049.5-.177.764-.738.886a2.025,2.025,0,0,0-1.668,2.03c-.041,1.035-.05,2.074.007,3.107.015.276.321.535.493.8.194-.277.533-.542.555-.831.071-.942.024-1.892.024-2.84,0-.728.32-1.229,1.082-1.238s1.111.479,1.109,1.21c-.007,2.485-.013,4.971-.044,7.456a2.834,2.834,0,0,1-1.118,2.225c-1.645,1.354-3.268,2.737-4.928,4.073a.987.987,0,0,1-.879.16C566.834,207.282,565,205.927,563,204.464Z" fill="#0070ab"/>
      <path id="Path_658" data-name="Path 658" d="M591.473,204.468c-2.009,1.46-3.842,2.808-5.7,4.118a.8.8,0,0,1-.748-.045c-1.769-1.436-3.566-2.847-5.227-4.4a3.379,3.379,0,0,1-.942-2.106c-.121-2.392-.07-4.793-.05-7.19.008-.954.41-1.4,1.113-1.386s1.059.492,1.069,1.438c.01.888-.035,1.779.031,2.663.021.28.321.54.494.809.19-.277.523-.542.545-.832.072-.941.047-1.892.028-2.839a2.253,2.253,0,0,0-1.792-2.333,1.025,1.025,0,0,1-.576-.685c-.282-2.23-.512-4.468-.752-6.7a1.164,1.164,0,0,1,.913-1.414,1.187,1.187,0,0,1,1.475.822c1.01,2.463,2.073,4.905,3,7.4a7.385,7.385,0,0,1,.373,2.688c-.042,1.863-.2,3.724-.352,5.582a1.427,1.427,0,0,0,.961,1.593C587.328,202.53,589.3,203.463,591.473,204.468Z" transform="translate(-1.999 0)" fill="#0070ab"/>
    </g>
  </g>
</svg>
