<svg width="33" height="28" viewBox="0 0 33 28" fill="none" xmlns="http://www.w3.org/2000/svg">
<path d="M16.644 27.1311C17.074 27.1121 17.4824 26.9372 17.793 26.6391L31.577 14.8241C31.7925 14.673 31.9761 14.481 32.1174 14.2591C32.2587 14.0371 32.3549 13.7894 32.4005 13.5302C32.4461 13.2711 32.4402 13.0054 32.3831 12.7486C32.3261 12.4917 32.219 12.2485 32.068 12.033C31.9169 11.8175 31.725 11.6339 31.503 11.4926C31.281 11.3513 31.0333 11.2551 30.7742 11.2095C30.515 11.1639 30.2494 11.1698 29.9925 11.2269C29.7356 11.2839 29.4925 11.3911 29.277 11.5421L28.949 11.8701L16.48 22.536L4.00896 11.8701C3.65202 11.493 3.16478 11.2661 2.64644 11.2356C2.12809 11.2051 1.61762 11.3734 1.21896 11.7061C0.83991 12.0619 0.611647 12.5494 0.581141 13.0684C0.550634 13.5874 0.720205 14.0983 1.05496 14.4961L1.38296 14.8241L15.17 26.6391C15.3396 26.8575 15.5701 27.0208 15.8324 27.1084C16.0948 27.1959 16.3771 27.2038 16.644 27.1311Z" fill="#00CEFF"/>
<path d="M16.644 16.015C17.074 15.996 17.4824 15.8211 17.793 15.523L31.577 3.70803C31.7925 3.55701 31.9761 3.36502 32.1174 3.14303C32.2587 2.92103 32.3549 2.67337 32.4005 2.4142C32.4461 2.15504 32.4402 1.88942 32.3831 1.63253C32.3261 1.37564 32.219 1.13251 32.068 0.917012C31.9169 0.701513 31.725 0.517909 31.503 0.376607C31.281 0.235304 31.0333 0.139058 30.7742 0.0934645C30.515 0.047871 30.2494 0.0538031 29.9925 0.11086C29.7356 0.167916 29.4925 0.275025 29.277 0.426045L28.949 0.754048L16.48 11.42L4.00896 0.754048C3.65202 0.376946 3.16478 0.150057 2.64644 0.119588C2.12809 0.0891186 1.61762 0.25736 1.21896 0.590047C0.83991 0.945844 0.611647 1.43337 0.581141 1.95235C0.550634 2.47133 0.720205 2.98227 1.05496 3.38002L1.38296 3.70803L15.17 15.523C15.3396 15.7415 15.5701 15.9048 15.8324 15.9923C16.0948 16.0799 16.3771 16.0878 16.644 16.015Z" fill="#00CEFF"/>
</svg>
