<?xml version="1.0" encoding="iso-8859-1"?>
<!-- Generator: Adobe Illustrator 19.0.0, SVG Export Plug-In . SVG Version: 6.00 Build 0)  -->
<svg version="1.1" id="Layer_1" xmlns="http://www.w3.org/2000/svg" xmlns:xlink="http://www.w3.org/1999/xlink" x="0px" y="0px"
	 viewBox="0 0 511.971 511.971" style="enable-background:new 0 0 511.971 511.971;" xml:space="preserve">
<g>
	<g>
		<g>
			<path d="M395.819,88.916l-128-85.333c-7.166-4.777-16.501-4.777-23.667,0l-128,85.333c-5.935,3.957-9.5,10.618-9.5,17.75v128V320
				c0,11.782,9.551,21.333,21.333,21.333c11.782,0,21.333-9.551,21.333-21.333v-45.472l85.333,56.889v19.832l-54.5,36.333
				c-5.935,3.957-9.5,10.618-9.5,17.75c0,42.476,15.335,72.668,41.125,90.665c15.704,10.959,31.316,15.239,42.881,15.96l2.435,0.013
				c11.612-0.604,27.277-4.764,43.04-15.682c25.845-17.902,41.186-48.185,41.186-90.956c0-7.133-3.565-13.794-9.5-17.75
				l-54.5-36.333v-19.832l85.333-56.889V320c0,11.782,9.551,21.333,21.333,21.333c11.782,0,21.333-9.551,21.333-21.333v-85.333v-128
				C405.319,99.534,401.754,92.873,395.819,88.916z M149.319,118.084l106.667-71.111l106.667,71.111v105.165l-106.667,71.111
				l-106.667-71.111V118.084z M275.838,461.215c-7.531,5.216-15.142,7.514-19.746,8.044c-4.647-0.579-12.311-2.955-19.898-8.249
				c-12.273-8.564-20.409-22.457-22.4-44.576l42.191-28.128l42.2,28.134C296.213,438.802,288.081,452.734,275.838,461.215z"/>
			<path d="M319.986,170.667c0-35.355-28.645-64-64-64s-64,28.645-64,64s28.645,64,64,64S319.986,206.022,319.986,170.667z
				 M234.652,170.667c0-11.791,9.542-21.333,21.333-21.333c11.791,0,21.333,9.542,21.333,21.333S267.777,192,255.986,192
				C244.194,192,234.652,182.458,234.652,170.667z"/>
		</g>
	</g>
</g>
<g>
</g>
<g>
</g>
<g>
</g>
<g>
</g>
<g>
</g>
<g>
</g>
<g>
</g>
<g>
</g>
<g>
</g>
<g>
</g>
<g>
</g>
<g>
</g>
<g>
</g>
<g>
</g>
<g>
</g>
</svg>
