<svg xmlns="http://www.w3.org/2000/svg" xmlns:xlink="http://www.w3.org/1999/xlink" width="200" height="200" viewBox="0 0 200 200">
  <defs>
    <clipPath id="clip-charts">
      <rect width="200" height="200"/>
    </clipPath>
  </defs>
  <g id="charts" clip-path="url(#clip-charts)">
    <g id="Group_235" data-name="Group 235" transform="matrix(-0.966, 0.259, -0.259, -0.966, 406.073, 354.01)">
      <path id="Path_623" data-name="Path 623" d="M218.92,330.279c-10.272-16.209-20.1-32.7-30.1-49.08-1.809-2.962-2.138-3.111-4.941-1.153-23.99,16.766-34.867,39.727-31.125,68.8,4.282,33.271,32.131,58.355,65.659,60.075.458.025.917.054,1.375.075,3.792.174,4-.029,4-3.885,0-19.055-.215-38.114.127-57.163A30.409,30.409,0,0,0,218.92,330.279Z" transform="translate(0.504 -11.723)" fill="#6f6f6f"/>
      <path id="Path_624" data-name="Path 624" d="M280.339,364.735c0-9.391-.033-18.782.018-28.174.014-2.61.247-5.221.423-7.829a9.88,9.88,0,0,0-1.728-6.2c-7.8-12.472-15.4-25.069-23.064-37.627q-5.841-9.571-11.672-19.148c-1.561-2.565-1.447-3.007,1.074-4.5,41.936-24.867,97.316-.857,107.879,46.771,9.086,40.964-16.856,80.3-58.191,88.122a85.332,85.332,0,0,1-10.906,1.109c-3.661.213-3.831-.058-3.831-3.636Q280.338,379.18,280.339,364.735Zm-32.793-100.5c.371.662.662,1.222.99,1.76,11.218,18.381,22.477,36.737,33.6,55.177a14.1,14.1,0,0,1,1.693,6c.27,3.383.065,6.8.065,10.209q0,26.862,0,53.724v2.535c22.465.171,51.018-13.778,62.931-43.874a69.606,69.606,0,0,0-21.794-80.123C300.506,250.418,268.374,251.444,247.546,264.24Z" transform="translate(-48.604)" fill="#6f6f6f"/>
    </g>
  </g>
</svg>
