<?xml version="1.0" encoding="utf-8"?>
<!-- Svg Vector Icons : http://www.onlinewebfonts.com/icon -->
<!DOCTYPE svg PUBLIC "-//W3C//DTD SVG 1.1//EN" "http://www.w3.org/Graphics/SVG/1.1/DTD/svg11.dtd">
<svg version="1.1" xmlns="http://www.w3.org/2000/svg" xmlns:xlink="http://www.w3.org/1999/xlink" x="0px" y="0px" viewBox="0 0 1000 1000" enable-background="new 0 0 1000 1000" xml:space="preserve">
<metadata> Svg Vector Icons : http://www.onlinewebfonts.com/icon </metadata>
<g><path d="M500,10C229.4,10,10,229.4,10,500s219.4,490,490,490s490-219.4,490-490S770.6,10,500,10z M832.6,832.6c-43.2,43.2-93.5,77.1-149.5,100.8c-58,24.5-119.6,37-183.1,37c-63.5,0-125.1-12.4-183.1-37c-56-23.7-106.3-57.6-149.5-100.8c-43.2-43.2-77.1-93.5-100.8-149.5c-24.5-58-37-119.6-37-183.1c0-63.5,12.4-125.1,37-183.1c23.7-56,57.6-106.3,100.8-149.5c43.2-43.2,93.5-77.1,149.5-100.8c58-24.5,119.6-37,183.1-37c63.5,0,125.1,12.4,183.1,37c56,23.7,106.3,57.6,149.5,100.8c43.2,43.2,77.1,93.5,100.8,149.5c24.5,58,37,119.6,37,183.1c0,63.5-12.4,125.1-37,183.1C909.8,739.1,875.8,789.4,832.6,832.6z"/><path d="M738.7,470.8H543.6l175.1-288.2l-459,348.7h195.1L279.7,819.4L738.7,470.8z"/></g>
</svg>