<svg width="20" height="20" viewBox="0 0 20 20" fill="none" xmlns="http://www.w3.org/2000/svg">
<g clip-path="url(#clip0)">
<path d="M15 16.6667C13.8508 16.6667 12.9167 15.7317 12.9167 14.5833C12.9167 13.435 13.8508 12.5 15 12.5C16.1492 12.5 17.0833 13.435 17.0833 14.5833C17.0833 15.7317 16.1492 16.6667 15 16.6667ZM15 13.3333C14.3108 13.3333 13.75 13.8942 13.75 14.5833C13.75 15.2725 14.3108 15.8333 15 15.8333C15.6892 15.8333 16.25 15.2725 16.25 14.5833C16.25 13.8942 15.6892 13.3333 15 13.3333Z" fill="#559572"/>
<path d="M15.645 20H14.3542C13.9292 20 13.5775 19.6767 13.5367 19.2475L13.4342 18.1867C13.1917 18.0759 12.9608 17.9375 12.7433 17.7742L11.8092 18.2084C11.4167 18.3892 10.9642 18.24 10.7533 17.8625L10.1075 16.7117C9.90083 16.3434 9.99916 15.8767 10.3367 15.6259L11.17 15.0092C11.1542 14.8792 11.1425 14.7342 11.1425 14.5825C11.1425 14.4309 11.155 14.2859 11.17 14.1559L10.3367 13.5392C9.99916 13.2884 9.90083 12.8225 10.1083 12.4534L10.7525 11.3025C10.965 10.925 11.4175 10.7767 11.8083 10.9567L12.7433 11.3909C12.9608 11.2275 13.1917 11.0892 13.4342 10.9784L13.5367 9.91669C13.5783 9.49002 13.93 9.16669 14.355 9.16669H15.6458C16.0708 9.16669 16.4225 9.49002 16.4633 9.91919L16.5658 10.98C16.8083 11.0917 17.0392 11.2292 17.2567 11.3925L18.1908 10.9584C18.5842 10.7784 19.0358 10.9267 19.2467 11.3042L19.8925 12.455C20.0992 12.8234 20.0008 13.29 19.6633 13.5409L18.83 14.1575C18.8458 14.2875 18.8575 14.4325 18.8575 14.5842C18.8575 14.7359 18.845 14.8809 18.83 15.0109L19.6633 15.6275C20.0008 15.8784 20.0992 16.3442 19.8917 16.7134L19.2475 17.8642C19.0358 18.2417 18.5817 18.3909 18.1917 18.21L17.2567 17.7759C17.0392 17.9392 16.8083 18.0775 16.5658 18.1884L16.4633 19.25C16.4217 19.6767 16.07 20 15.645 20ZM12.8025 16.8709C12.9008 16.8709 12.9975 16.9059 13.075 16.9725C13.3467 17.2075 13.6483 17.3884 13.9708 17.5092C14.12 17.565 14.2242 17.7009 14.2392 17.8592L14.3658 19.1684L15.645 19.1667L15.76 17.8584C15.7758 17.7 15.88 17.5642 16.0283 17.5084C16.3508 17.3875 16.6525 17.2067 16.9242 16.9717C17.0483 16.8642 17.2225 16.8392 17.3725 16.9092L18.5417 17.4525L19.1642 16.3042L18.1317 15.5309C18.0058 15.4375 17.9425 15.2809 17.9692 15.1259C18 14.9492 18.0233 14.77 18.0233 14.5842C18.0233 14.3984 18 14.2192 17.9692 14.0425C17.9433 13.8875 18.0058 13.7309 18.1317 13.6375L19.1667 12.8709L18.52 11.7117L17.3733 12.2575C17.2242 12.3267 17.0492 12.3025 16.925 12.1942C16.6542 11.9592 16.3517 11.7792 16.0292 11.6575C15.88 11.6017 15.7758 11.4659 15.7608 11.3075L15.6342 9.99835L14.355 10L14.24 11.3084C14.2242 11.4667 14.12 11.6025 13.9717 11.6584C13.6492 11.7792 13.3475 11.96 13.0758 12.195C12.9517 12.3017 12.7767 12.3259 12.6275 12.2575L11.4583 11.7142L10.8358 12.8625L11.8683 13.6359C11.9942 13.7292 12.0575 13.8859 12.0308 14.0409C12 14.2175 11.9767 14.3967 11.9767 14.5825C11.9767 14.7684 12 14.9475 12.0308 15.1242C12.0567 15.2792 11.9942 15.4359 11.8683 15.5292L10.8333 16.2959L11.48 17.455L12.6267 16.9092C12.6833 16.8834 12.7433 16.8709 12.8025 16.8709Z" fill="#559572"/>
<path d="M2.91667 20H1.25C0.560833 20 0 19.4392 0 18.75V13.75C0 13.0608 0.560833 12.5 1.25 12.5H2.91667C3.60583 12.5 4.16667 13.0608 4.16667 13.75V18.75C4.16667 19.4392 3.60583 20 2.91667 20ZM1.25 13.3333C1.02083 13.3333 0.833333 13.52 0.833333 13.75V18.75C0.833333 18.98 1.02083 19.1667 1.25 19.1667H2.91667C3.14583 19.1667 3.33333 18.98 3.33333 18.75V13.75C3.33333 13.52 3.14583 13.3333 2.91667 13.3333H1.25Z" fill="#559572"/>
<path d="M7.91667 20H6.25C5.56083 20 5 19.4392 5 18.75V10.4167C5 9.72752 5.56083 9.16669 6.25 9.16669H7.91667C8.60584 9.16669 9.16667 9.72752 9.16667 10.4167V18.75C9.16667 19.4392 8.60584 20 7.91667 20ZM6.25 10C6.02083 10 5.83333 10.1867 5.83333 10.4167V18.75C5.83333 18.98 6.02083 19.1667 6.25 19.1667H7.91667C8.14584 19.1667 8.33334 18.98 8.33334 18.75V10.4167C8.33334 10.1867 8.14584 10 7.91667 10H6.25Z" fill="#559572"/>
<path d="M10.4167 9.16669C10.1867 9.16669 10 8.98002 10 8.75002V5.41669C10 4.72752 10.5608 4.16669 11.25 4.16669H12.9167C13.6058 4.16669 14.1667 4.72752 14.1667 5.41669V7.08335C14.1667 7.31335 13.98 7.50002 13.75 7.50002C13.52 7.50002 13.3333 7.31335 13.3333 7.08335V5.41669C13.3333 5.18669 13.1458 5.00002 12.9167 5.00002H11.25C11.0208 5.00002 10.8333 5.18669 10.8333 5.41669V8.75002C10.8333 8.98002 10.6467 9.16669 10.4167 9.16669Z" fill="#559572"/>
<path d="M18.75 9.16667C18.52 9.16667 18.3333 8.98 18.3333 8.75V1.25C18.3333 1.02 18.1458 0.833334 17.9167 0.833334H16.25C16.0208 0.833334 15.8333 1.02 15.8333 1.25V7.08334C15.8333 7.31334 15.6467 7.5 15.4167 7.5C15.1867 7.5 15 7.31334 15 7.08334V1.25C15 0.560833 15.5608 0 16.25 0H17.9167C18.6058 0 19.1667 0.560833 19.1667 1.25V8.75C19.1667 8.98 18.98 9.16667 18.75 9.16667Z" fill="#559572"/>
</g>
<defs>
<clipPath id="clip0">
<rect width="20" height="20" fill="white"/>
</clipPath>
</defs>
</svg>
