<svg width="22" height="20" viewBox="0 0 22 20" fill="none" xmlns="http://www.w3.org/2000/svg">
<path d="M8.04508e-06 8.33172C0.000404269 6.53262 0.576992 4.78196 1.64359 3.3414C2.7102 1.90083 4.20953 0.847725 5.91751 0.339467C7.62549 -0.16879 9.45039 -0.104899 11.1195 0.52159C12.7885 1.14808 14.2121 2.30352 15.1775 3.81523C16.1429 5.32693 16.5982 7.11372 16.4753 8.90852C16.3525 10.7033 15.6581 12.4098 14.496 13.7728C13.3339 15.1359 11.7664 16.0823 10.0279 16.4707C8.28933 16.859 6.4731 16.6685 4.85062 15.9275C3.46725 16.2497 1.9772 16.5275 1.29211 16.652C1.11703 16.6836 0.936964 16.6716 0.767475 16.6171C0.597986 16.5627 0.444176 16.4673 0.319337 16.3393C0.194498 16.2113 0.102386 16.0545 0.0509644 15.8825C-0.000457722 15.7104 -0.00964358 15.5283 0.0242007 15.3519C0.153961 14.6741 0.442073 13.2207 0.773072 11.8596C0.262255 10.7552 -0.00167987 9.55075 8.04508e-06 8.33172V8.33172ZM6.75634 3.67269C6.27029 3.93492 5.88761 4.34271 5.5984 4.88384C5.50374 5.07715 5.48694 5.30002 5.55153 5.50559C5.61612 5.71116 5.75708 5.88342 5.94476 5.98615C6.13244 6.08889 6.35224 6.1141 6.55793 6.05648C6.76363 5.99886 6.93921 5.86291 7.04775 5.6772C7.2094 5.37719 7.37545 5.22829 7.5338 5.14385C7.69875 5.05385 7.92309 4.9994 8.24749 4.9994C8.49381 4.9994 8.78302 5.08718 8.99526 5.26385C9.1833 5.41941 9.34715 5.66831 9.34715 6.10943C9.34715 6.3261 9.26467 6.42611 8.70055 6.8739C8.2057 7.26724 7.42274 7.90504 7.42274 9.16507C7.42274 9.38609 7.50963 9.59806 7.6643 9.75434C7.81897 9.91063 8.02875 9.99843 8.24749 9.99843C8.46622 9.99843 8.676 9.91063 8.83067 9.75434C8.98534 9.59806 9.07223 9.38609 9.07223 9.16507C9.07223 8.75395 9.25258 8.55505 9.71884 8.18393L9.81231 8.11171C10.2379 7.78059 10.9966 7.19279 10.9966 6.10943C10.9966 5.16718 10.6107 4.44494 10.0421 3.97381C9.53334 3.56036 8.9004 3.33425 8.24749 3.33268C7.74714 3.33268 7.2336 3.41491 6.75634 3.67269ZM9.34715 12.2207C9.34715 11.926 9.23129 11.6434 9.02507 11.435C8.81884 11.2266 8.53913 11.1096 8.24749 11.1096C7.95584 11.1096 7.67613 11.2266 7.46991 11.435C7.26368 11.6434 7.14782 11.926 7.14782 12.2207C7.14782 12.5154 7.26368 12.798 7.46991 13.0064C7.67613 13.2148 7.95584 13.3319 8.24749 13.3319C8.53913 13.3319 8.81884 13.2148 9.02507 13.0064C9.23129 12.798 9.34715 12.5154 9.34715 12.2207ZM8.13752 17.7764C9.66122 19.2077 11.6654 20.0019 13.7458 19.9987C14.9172 20.0003 16.0754 19.7488 17.1427 19.2609C18.5282 19.5831 20.0249 19.8609 20.7144 19.9832C20.8898 20.0144 21.07 20.002 21.2396 19.947C21.4092 19.892 21.5629 19.796 21.6875 19.6674C21.8121 19.5388 21.9037 19.3814 21.9545 19.2089C22.0053 19.0365 22.0137 18.8541 21.979 18.6776C21.7509 17.5107 21.4979 16.3489 21.2202 15.193C21.7092 14.1352 21.9728 12.9854 21.994 11.818C22.0152 10.6507 21.7935 9.49188 21.3433 8.41663C20.893 7.34138 20.2243 6.37367 19.3804 5.57617C18.5365 4.77868 17.5362 4.16918 16.4444 3.78714C17.2304 5.23383 17.6276 6.86338 17.5963 8.51345C17.5649 10.1635 17.1063 11.7765 16.2659 13.1917C15.4256 14.6069 14.2329 15.7748 12.8068 16.5793C11.3806 17.3837 9.77072 17.7964 8.13752 17.7764V17.7764Z" fill="#626262"/>
</svg>
