<svg xmlns="http://www.w3.org/2000/svg" xmlns:xlink="http://www.w3.org/1999/xlink" width="81" height="81" viewBox="0 0 81 81">
  <defs>
    <clipPath id="clip-icon">
      <rect width="81" height="81"/>
    </clipPath>
  </defs>
  <g id="icon" clip-path="url(#clip-icon)">
    <g id="Group_18236" data-name="Group 18236" transform="translate(-8.91 -3.653)">
      <path id="Path_36876" data-name="Path 36876" d="M49.5,72.4H30.234c-3.954,0-7.908.009-11.861,0a5.586,5.586,0,0,1-1.429-.2,1.522,1.522,0,0,1-1.14-2.033,3.85,3.85,0,0,1,.354-.856q3.332-5.929,6.678-11.851,3.111-5.521,6.218-11.044,2.494-4.439,4.98-8.883,2.221-3.953,4.453-7.9,2.65-4.714,5.291-9.434c.867-1.545,1.716-3.1,2.62-4.624a7.18,7.18,0,0,1,1.132-1.362,2.923,2.923,0,0,1,3.425-.2,5.3,5.3,0,0,1,1.824,2.108q2.348,4.2,4.7,8.4,2.178,3.892,4.351,7.787c1.479,2.636,2.971,5.266,4.451,7.9q2.666,4.748,5.324,9.5,2.111,3.76,4.231,7.514,2.156,3.841,4.3,7.688c.739,1.319,1.486,2.632,2.22,3.954a11.094,11.094,0,0,1,.571,1.168,1.556,1.556,0,0,1-1.276,2.284,6.917,6.917,0,0,1-1.182.1q-15.488.008-30.976,0Zm27.659-4.265L49.476,19.158,21.233,68.139Z" transform="translate(0 0)" fill="#FFAD2E"/>
      <path id="Path_36877" data-name="Path 36877" d="M99.154,102.479q1.273-1.5,2.546-3c.361-.425.719-.852,1.087-1.271a1.24,1.24,0,0,1,2.093-.079c.935,1.007,1.811,2.068,2.709,3.109q3.579,4.149,7.156,8.3l.606.7c.032.038.066.075.094.115.26.362.055,1.082-.453,1.595a.807.807,0,0,1-1.166.085,7.559,7.559,0,0,1-.616-.589c-.1-.1-.175-.235-.291-.28a.8.8,0,0,0-.49-.041c-.067.02-.1.25-.1.383.033.94.083,1.88.122,2.82.029.717.07,1.436.061,2.153a1.2,1.2,0,0,1-.237.7,4,4,0,0,1-3.305,1.771,4.306,4.306,0,0,1-1.269-.244,12.32,12.32,0,0,1-2.175-.947,2.328,2.328,0,0,0-2.51.007,7.98,7.98,0,0,1-2.309.867,4.96,4.96,0,0,1-3.663-.9,1.578,1.578,0,0,0-1.506-.219c-.082.028-.165.055-.249.075-.374.09-.448.037-.44-.344.024-1.1.054-2.2.082-3.306.02-.78.049-1.56.052-2.34,0-.148-.1-.419-.156-.421a1.094,1.094,0,0,0-.642.14c-.276.2-.47.509-.737.725a.87.87,0,0,1-1.4-.223,3.008,3.008,0,0,1-.349-.65.861.861,0,0,1,.222-.95q2.244-2.4,4.456-4.836a.867.867,0,0,0,.169-.536c.014-1.425.018-2.85,0-4.275,0-.361.118-.484.47-.471.545.02,1.09.015,1.635,0,.3-.007.422.1.414.411-.017.64-.005,1.282-.005,1.923Zm11.91,10.29c0-.619-.008-1.238,0-1.857,0-.248-.069-.357-.337-.355q-1.689.015-3.379,0c-.254,0-.355.088-.353.345q.01,1.82,0,3.639c0,.263.087.383.365.381q1.671-.011,3.342,0c.276,0,.369-.1.363-.374C111.055,113.958,111.064,113.363,111.064,112.769Z" transform="translate(-53.872 -59.634)" fill="#FFAD2E"/>
      <path id="Path_36878" data-name="Path 36878" d="M76.156,179.791H55.069c-.741,0-.788-.079-.456-.745.558-1.118,1.111-2.239,1.678-3.353a3.876,3.876,0,0,1,.4-.582.687.687,0,0,1,1.141-.124c.519.421,1.02.866,1.556,1.263a4.21,4.21,0,0,0,3.891.557,6.488,6.488,0,0,0,2.167-1.117,2.155,2.155,0,0,1,2.711-.08,7.653,7.653,0,0,0,2.357,1.3,4.775,4.775,0,0,0,4.8-.954,2.889,2.889,0,0,1,2.065-.876,2.412,2.412,0,0,1,1.643.756,5.031,5.031,0,0,0,1.661,1.1,3.906,3.906,0,0,0,3.239-.125c.855-.448,1.7-.917,2.549-1.373a2.084,2.084,0,0,1,1.715-.406,2.7,2.7,0,0,1,1,.606c2.039,2.065,5.228,1.566,6.885.37.16-.115.3-.257.452-.384a1.305,1.305,0,0,1,1.991.174,10.55,10.55,0,0,1,.689,1.1c.349.557.712,1.1,1.047,1.669.429.724.242,1.071-.589,1.087-2.774.054-5.548.128-8.322.141-5.058.022-10.116.006-15.173.006Z" transform="translate(-27.455 -114.376)" fill="#FFAD2E"/>
    </g>
  </g>
</svg>
