<?xml version="1.0" encoding="iso-8859-1"?>
<!-- Generator: Adobe Illustrator 19.0.0, SVG Export Plug-In . SVG Version: 6.00 Build 0)  -->
<svg version="1.1" id="Layer_1" xmlns="http://www.w3.org/2000/svg" xmlns:xlink="http://www.w3.org/1999/xlink" x="0px" y="0px"
	 viewBox="0 0 512.002 512.002" style="enable-background:new 0 0 512.002 512.002;" xml:space="preserve">
<g>
	<g>
		<path d="M485.492,338.004L452.1,300.63c-10.133-11.352-29.141-4.226-29.141,11.125v48.504c0,3.071-2.5,5.565-5.565,5.565
			c-3.065,0-5.565-2.494-5.565-5.565V333.89c0-53.722-38.119-100.943-91.106-112.389c-15.608-3.375-26.609,15.317-16,27.396
			c23.056,25.77,24.505,60.58,0.055,89.107c-64.807,72.26-1.708,173.99,90.357,173.99c64.854,0,116.867-51.511,116.867-107.214
			C512.002,368.09,486.578,339.216,485.492,338.004z"/>
	</g>
</g>
<g>
	<g>
		<path d="M376.242,138.461L242.68,4.899c-6.521-6.521-17.087-6.521-23.608,0L85.51,138.461
			c-10.484,10.485-3.049,28.499,11.803,28.499h36.26l-88.366,88.367c-10.484,10.485-3.049,28.499,11.803,28.499h36.26L4.905,372.192
			c-10.485,10.485-3.049,28.499,11.804,28.499h161.387v94.606c0,9.222,7.478,16.695,16.695,16.695h66.781
			c9.31,0,16.695-6.419,16.695-20.136c-51.694-60.164-36.143-134.058,1.653-176.147c12.369-14.446,12.521-30.466-0.087-44.553
			c-32.191-36.66,1.131-92.416,47.944-82.292c12.252,2.646,23.807,6.936,34.67,12.362l-34.269-34.269h36.26
			C379.292,166.959,386.725,148.944,376.242,138.461z"/>
	</g>
</g>
<g>
</g>
<g>
</g>
<g>
</g>
<g>
</g>
<g>
</g>
<g>
</g>
<g>
</g>
<g>
</g>
<g>
</g>
<g>
</g>
<g>
</g>
<g>
</g>
<g>
</g>
<g>
</g>
<g>
</g>
</svg>
