<svg width="20" height="20" viewBox="0 0 20 20" fill="none" xmlns="http://www.w3.org/2000/svg">
<path d="M8.60807 12.8949C8.65755 12.9621 8.72461 13 8.7946 13C8.86452 13 8.93158 12.9622 8.98106 12.8949L9.92272 11.613C10.0258 11.4727 10.0258 11.2454 9.92272 11.1051C9.81974 10.965 9.6527 10.965 9.54972 11.1051L8.7946 12.1331L8.4503 11.6644C8.34725 11.5242 8.18028 11.5242 8.07723 11.6644C7.97426 11.8046 7.97426 12.032 8.07723 12.1723L8.60807 12.8949Z" fill="#559572"/>
<path d="M9.00005 15C10.6543 15 12 13.6542 12 12C12 10.3457 10.6543 9 9.00005 9C7.34575 9 6 10.3457 6 12C6 13.6542 7.34584 15 9.00005 15ZM9.00005 9.75577C10.2375 9.75577 11.2442 10.7625 11.2442 12C11.2442 13.2374 10.2375 14.2442 9.00005 14.2442C7.76259 14.2442 6.75577 13.2374 6.75577 12C6.75577 10.7625 7.76259 9.75577 9.00005 9.75577Z" fill="#559572"/>
<path d="M15.4362 3.00598H14.5543V2.47241C14.5543 2.21155 14.3377 2 14.0707 2C13.8037 2 13.5872 2.21155 13.5872 2.47241V3.00598H12.637V2.47241C12.637 2.21155 12.4205 2 12.1534 2C11.8864 2 11.6699 2.21155 11.6699 2.47241V3.00598H6.33038V2.47241C6.33038 2.21155 6.11385 2 5.84673 2C5.57973 2 5.3632 2.21155 5.3632 2.47241V3.00598H4.41303V2.47241C4.41303 2.21155 4.1965 2 3.92938 2C3.66238 2 3.44585 2.21155 3.44585 2.47241V3.00598H2.56377C1.70155 3.00598 1 3.69141 1 4.53394V16.4722C1 17.3146 1.70155 18 2.56377 18H15.4362C16.2986 18 17 17.3146 17 16.4722V4.53394C17 3.69141 16.2985 3.00598 15.4362 3.00598ZM16.0328 16.4722C16.0328 16.7936 15.7652 17.0552 15.4362 17.0552H2.56377C2.2348 17.0552 1.96705 16.7936 1.96705 16.4722V6.93433H16.0328V16.4722ZM1.96705 4.53394C1.96705 4.2124 2.2348 3.95093 2.56377 3.95093H3.44585V4.4845C3.44585 4.74536 3.66238 4.95691 3.9295 4.95691C4.1965 4.95691 4.41303 4.74536 4.41303 4.4845V3.95093H5.3632V4.4845C5.3632 4.74536 5.57973 4.95691 5.84685 4.95691C6.11385 4.95691 6.33038 4.74536 6.33038 4.4845V3.95093H11.6699V4.4845C11.6699 4.74536 11.8864 4.95691 12.1535 4.95691C12.4205 4.95691 12.637 4.74536 12.637 4.4845V3.95093H13.5872V4.4845C13.5872 4.74536 13.8037 4.95691 14.0707 4.95691C14.3379 4.95691 14.5544 4.74536 14.5544 4.4845V3.95093H15.4362C15.7652 3.95093 16.033 4.2124 16.033 4.53394V5.98938H1.96705V4.53394Z" fill="#559572"/>
</svg>
