<svg xmlns="http://www.w3.org/2000/svg" xmlns:xlink="http://www.w3.org/1999/xlink" width="32" height="32" viewBox="0 0 32 32">
  <defs>
    <clipPath id="clip-governance">
      <rect width="32" height="32"/>
    </clipPath>
  </defs>
  <g id="governance" clip-path="url(#clip-governance)">
    <g id="Group_265" data-name="Group 265" transform="translate(-429.551 -185.329)">
      <g id="Group_264" data-name="Group 264" transform="translate(432.98 188.758)">
        <path id="Path_659" data-name="Path 659" d="M457.386,209.432h-.736v-3.073a2.21,2.21,0,0,0-.737-4.293h-2.259v-2.211a.737.737,0,0,0-.737-.736h-2.262a5.168,5.168,0,0,0-4.367-4.367v-1.575h3.683a.736.736,0,0,0,.736-.737v-2.946a.736.736,0,0,0-.736-.736h-4.419a.736.736,0,0,0-.737.736v5.258a5.169,5.169,0,0,0-4.367,4.367h-2.262a.737.737,0,0,0-.736.736v2.211H435.19a2.209,2.209,0,0,0-.736,4.293v3.073h-.736a.737.737,0,0,0-.737.737v2.995a.737.737,0,0,0,.737.737h23.669a.736.736,0,0,0,.736-.737v-2.995A.736.736,0,0,0,457.386,209.432Zm-11.1-19.2h2.947V191.7h-2.947Zm9.625,13.308a.737.737,0,1,1,0,1.473h-5.205v-1.473Zm-5.205,5.893v-2.946h4.469v2.946m-13.308-9.576a3.683,3.683,0,0,1,7.366,0,.736.736,0,0,0,.736.737h2.21v1.473h-1.987l-4.234-2.823a.736.736,0,0,0-.817,0l-4.234,2.823h-1.987v-1.473m10.313,8.839h-1.473v-5.156a.737.737,0,1,0-1.473,0v5.156h-1.473v-5.156a.736.736,0,1,0-1.473,0v5.156h-1.473V203.2l3.683-2.455,3.683,2.455m-14.045.342H440.4v1.473H435.19a.737.737,0,0,1,0-1.473Zm5.205,2.947v2.946h-4.468v-2.946Zm-2.607,5.942h-3.335V210.9h4.333Zm1.762,0,1-1.522h10.008l1,1.522Zm17.1,0h-3.335l-1-1.522h4.333Z" transform="translate(-432.98 -188.758)" fill="#0070ab"/>
      </g>
    </g>
  </g>
<?xml version="1.0" encoding="utf-8"?>
<!-- Generator: Adobe Illustrator 25.0.0, SVG Export Plug-In . SVG Version: 6.00 Build 0)  -->
<svg version="1.1" id="Layer_1" xmlns="http://www.w3.org/2000/svg" xmlns:xlink="http://www.w3.org/1999/xlink" x="0px" y="0px"
	 viewBox="0 0 50 50" style="enable-background:new 0 0 50 50;" xml:space="preserve">
<style type="text/css">
	.st0{fill:#FFFFFF;}
	.st1{fill:#1664C1;}
</style>
<circle class="st0" cx="25.4" cy="19.5" r="12.9"/>
<g id="OBJECTS">
	<g>
		<path class="st1" d="M25,3.5c-8.7,0-15.8,7.1-15.8,15.8c0,6.9,4.5,13,11.1,15.1l3.3,5.7c0.4,0.7,1.3,0.9,2,0.5
			c0.2-0.1,0.4-0.3,0.5-0.5l3.3-5.7c8.4-2.4,13.2-11.2,10.8-19.6C38.3,8.1,32.1,3.5,25,3.5L25,3.5z M25,31.4
			C18.4,31.4,13,26,13,19.3S18.4,7.2,25,7.2c6.7,0,12.1,5.4,12.1,12.1c0,0,0,0,0,0C37.1,26,31.7,31.4,25,31.4z M26.6,44.6
			c0,0.9-0.7,1.6-1.6,1.6c-0.9,0-1.6-0.7-1.6-1.6c0-0.9,0.7-1.6,1.6-1.6c0,0,0,0,0,0C25.9,43,26.6,43.7,26.6,44.6z"/>
	</g>
	<g>
		<path class="st1" d="M31.2,16.8c0,0.1-0.3,0.1-0.4,0.1c-2,0-4,0-6,0h-5.8c-0.6,0-0.6,0-0.6-0.6c0-0.1,0-0.2,0-0.3
			c0-0.3,0.1-0.4,0.4-0.5c1.9-0.7,3.8-1.4,5.8-2.1v-2.7c0-0.1,0.1-0.3,0.3-0.3c0.1,0,0.3,0.1,0.3,0.2c0,0,0,0,0,0l0,0l1.2,0.8h-0.8
			l1.1,0.8h-1.5v1.1c1.9,0.7,3.8,1.4,5.7,2.1c0.2,0,0.4,0.2,0.4,0.3C31.2,16.1,31.2,16.4,31.2,16.8z"/>
		<path class="st1" d="M24.8,25.7h-7c-0.5,0-0.7-0.3-0.5-0.8c0-0.1,0.3-0.2,0.4-0.2c1.4,0,2.7,0,4.1,0h10c0.5,0,0.7,0.3,0.5,0.8
			c-0.1,0.1-0.3,0.2-0.4,0.2C29.5,25.7,27.2,25.7,24.8,25.7z"/>
		<path class="st1" d="M24.8,24c-2,0-3.9,0-5.9,0c-0.3,0-0.5,0-0.5-0.4c0-0.4,0.1-0.5,0.5-0.5c3.9,0,7.9,0,11.8,0
			c0.3,0,0.5,0.1,0.5,0.5c0,0.4-0.2,0.5-0.5,0.5C28.7,24,26.8,24,24.8,24z"/>
		<path class="st1" d="M23.6,19.9c0-0.6,0-1.3,0-1.9c0-0.3,0.1-0.4,0.4-0.4c0.6,0,1.1,0,1.7,0c0.2,0,0.3,0.1,0.3,0.4
			c0,1.3,0,2.7,0,4c0,0.2-0.1,0.3-0.3,0.3c-0.6,0-1.2,0-1.7,0c-0.3,0-0.4-0.1-0.3-0.4C23.6,21.2,23.6,20.6,23.6,19.9z"/>
		<path class="st1" d="M22,20c0,0.6,0,1.2,0,1.9c0,0.3-0.1,0.5-0.4,0.4c-0.5,0-1.1,0-1.6,0c-0.3,0-0.4-0.1-0.4-0.4
			c0-1.3,0-2.6,0-3.9c0-0.3,0.1-0.4,0.4-0.4c0.5,0,1.1,0,1.6,0c0.3,0,0.4,0.1,0.4,0.4C21.9,18.7,22,19.3,22,20z"/>
		<path class="st1" d="M27.7,19.9c0-0.6,0-1.2,0-1.9c0-0.3,0.1-0.5,0.4-0.5c0.5,0,1.1,0,1.6,0c0.3,0,0.4,0.1,0.4,0.4
			c0,1.3,0,2.6,0,3.9c0,0.3-0.1,0.4-0.4,0.4c-0.5,0-1.1,0-1.6,0c-0.3,0-0.4-0.1-0.4-0.4C27.7,21.2,27.7,20.6,27.7,19.9L27.7,19.9z"
			/>
	</g>
</g>
</svg>
