<svg width="20" height="20" viewBox="0 0 20 20" fill="none" xmlns="http://www.w3.org/2000/svg">
<g clip-path="url(#clip0_15:252)">
<path d="M3.3217 11.4519C3.3217 11.8083 3.30336 12.1647 3.33086 12.521C3.34674 12.6735 3.41833 12.8131 3.53004 12.9095C4.0516 13.3373 4.69059 13.5691 5.34795 13.5691C6.00531 13.5691 6.64431 13.3373 7.16587 12.9095C7.22363 12.8541 7.27047 12.787 7.30367 12.712C7.33686 12.6371 7.35574 12.5558 7.3592 12.4729C7.3817 11.9259 7.3592 11.378 7.37003 10.83C7.34143 10.2966 7.50807 9.7722 7.83469 9.3678C8.1613 8.9634 8.62226 8.71072 9.12004 8.66324C9.72388 8.58177 10.3353 8.58807 10.9375 8.68194C11.4193 8.74022 11.8622 8.9926 12.176 9.3877C12.4898 9.78281 12.651 10.2909 12.6267 10.8086C12.6544 11.163 12.6524 11.5193 12.6209 11.8733C12.5117 12.6128 12.8167 12.9683 13.4367 13.2632C13.8116 13.4719 14.2286 13.5791 14.6513 13.5754C15.0739 13.5717 15.4893 13.4571 15.8609 13.2418C16.0417 13.1679 16.214 13.072 16.3742 12.9558C16.5227 12.8282 16.625 12.6493 16.6634 12.4498C16.7 11.86 16.6792 11.2666 16.6792 10.6741C16.6792 10.0504 16.6792 10.0504 17.2567 10.038C17.5641 10.047 17.8653 9.94448 18.1112 9.7471C18.3571 9.54971 18.5332 9.26911 18.6109 8.95101C18.7021 8.65342 18.7077 8.33336 18.6269 8.03233C18.5461 7.7313 18.3826 7.46316 18.1575 7.26265C15.9492 5.0629 13.7517 2.8507 11.5417 0.652727C11.1152 0.228296 10.5519 -0.00364804 9.96933 0.00531641C9.38674 0.0142809 8.82991 0.263448 8.41504 0.700826C6.24337 2.85603 4.08837 5.03084 1.91503 7.18426C1.65355 7.39619 1.46428 7.69393 1.37623 8.03187C1.28818 8.36981 1.3062 8.72931 1.42753 9.05526C1.52735 9.38458 1.73444 9.66463 2.0111 9.84449C2.28776 10.0244 2.61562 10.0921 2.93503 10.0353C3.21753 10.0085 3.34337 10.1172 3.32587 10.4353C3.30753 10.7703 3.3217 11.1116 3.3217 11.4519ZM14.6959 19.9792C15.5692 19.9923 16.4287 19.7455 17.1784 19.2664C17.8542 18.8583 18.606 18.6149 19.38 18.5536C19.5525 18.5357 19.7122 18.4487 19.8272 18.3101C19.9421 18.1715 20.0038 17.9916 19.9999 17.8064C19.996 17.6213 19.9268 17.4445 19.8061 17.3116C19.6854 17.1787 19.5222 17.0994 19.3492 17.0898C19.0603 17.0569 18.7682 17.0777 18.4859 17.1513C17.7505 17.4013 17.03 17.6988 16.3284 18.0422C15.8113 18.3304 15.2366 18.4802 14.6536 18.4786C14.0705 18.4771 13.4965 18.3243 12.9809 18.0333C12.61 17.8338 12.2309 17.6449 11.8542 17.4685C10.9904 17.0441 10.0179 16.9439 9.0942 17.1843C8.39251 17.4022 7.70926 17.6829 7.0517 18.0235C6.32881 18.4456 5.48939 18.5801 4.68253 18.4031C4.15538 18.2294 3.64276 18.0089 3.15003 17.7438C2.39084 17.3088 1.54218 17.0831 0.680863 17.0871C0.505727 17.0833 0.336209 17.1533 0.20896 17.282C0.0817105 17.4107 0.00696165 17.5878 0.000867796 17.775C-0.0109796 17.8637 -0.00624472 17.9541 0.0147978 18.0409C0.0358403 18.1277 0.0727678 18.2091 0.123453 18.2805C0.174138 18.352 0.237574 18.4119 0.310081 18.457C0.382587 18.502 0.462729 18.5312 0.545867 18.5429C1.51082 18.6528 2.44314 18.9795 3.2817 19.5016C3.91319 19.8283 4.60466 20.0011 5.30619 20.0074C6.00772 20.0137 6.70182 19.8535 7.33837 19.5381C7.71837 19.36 8.08837 19.1568 8.46503 18.9724C9.15975 18.5856 9.96187 18.4806 10.7234 18.6766C11.2237 18.8452 11.7101 19.058 12.1775 19.3127C12.953 19.7553 13.8194 19.9843 14.6984 19.9792H14.6959ZM14.6584 16.4261C15.5329 16.4368 16.394 16.1952 17.1509 15.7267C17.8385 15.3099 18.6036 15.0602 19.3917 14.9952C19.4787 14.9899 19.5638 14.9658 19.642 14.9245C19.7201 14.8832 19.7896 14.8255 19.8464 14.7548C19.9032 14.6841 19.9461 14.6019 19.9725 14.5131C19.9989 14.4243 20.0082 14.3307 20 14.2379C20.0001 14.1452 19.9831 14.0534 19.95 13.9677C19.9169 13.8821 19.8683 13.8042 19.807 13.7387C19.7457 13.6731 19.6729 13.6212 19.5927 13.5857C19.5126 13.5503 19.4267 13.5321 19.34 13.5323C19.0647 13.5011 18.7865 13.521 18.5175 13.5911C17.7699 13.8457 17.0363 14.1449 16.32 14.4874C15.8155 14.7687 15.2554 14.917 14.6864 14.9197C14.1174 14.9225 13.5561 14.7798 13.0492 14.5034C12.6653 14.2991 12.2764 14.1054 11.8825 13.9225C11.0081 13.4865 10.0207 13.3822 9.08336 13.6267C8.38199 13.8457 7.69926 14.128 7.04253 14.4704C6.3466 14.8831 5.53638 15.0185 4.75587 14.8526C4.20108 14.6777 3.6611 14.453 3.1417 14.1809C2.39385 13.7555 1.56044 13.5311 0.713364 13.5269C0.623372 13.5216 0.533306 13.5357 0.448459 13.5682C0.363612 13.6007 0.285699 13.651 0.21931 13.7161C0.152921 13.7813 0.0993924 13.86 0.0618775 13.9476C0.0243627 14.0353 0.00362216 14.13 0.000867796 14.2263C-0.0182989 14.6611 0.250865 14.9177 0.677532 15.0184C1.30698 15.1681 1.92821 15.3548 2.53837 15.5779C3.1517 15.8006 3.72754 16.1597 4.35087 16.3227C5.59728 16.6149 6.90113 16.3765 7.98587 15.6581C8.59645 15.2568 9.29955 15.0453 10.0163 15.0475C10.733 15.0497 11.435 15.2655 12.0434 15.6705C12.8264 16.1925 13.7359 16.4565 14.6584 16.4296V16.4261Z" fill="#518F6D"/>
</g>
<defs>
<clipPath id="clip0_15:252">
<rect width="20" height="20" fill="white"/>
</clipPath>
</defs>
</svg>
