<svg xmlns="http://www.w3.org/2000/svg" width="24" height="22.448" viewBox="0 0 24 22.448"><defs><style>.a{fill:#fff;opacity:0.87;}</style></defs><path class="a" d="M116.148,291.713h0c0,.4-.022.8.011,1.2a.653.653,0,0,0,.239.436,3.584,3.584,0,0,0,4.363,0,.7.7,0,0,0,.232-.49c.027-.614,0-1.229.013-1.844a2.309,2.309,0,0,1,2.1-2.432,8.094,8.094,0,0,1,2.181.021,2.287,2.287,0,0,1,2.027,2.387,6.71,6.71,0,0,1-.007,1.195c-.131.83.235,1.229.979,1.56a3.1,3.1,0,0,0,2.909-.024,3.016,3.016,0,0,0,.616-.321.983.983,0,0,0,.347-.568c.044-.662.019-1.328.019-1.993,0-.7,0-.7.693-.714a1.633,1.633,0,0,0,1.625-1.22,1.755,1.755,0,0,0-.544-1.895c-2.65-2.469-5.287-4.952-7.939-7.419a2.712,2.712,0,0,0-3.752.054c-2.606,2.419-5.192,4.86-7.8,7.277a1.8,1.8,0,0,0-.585,2.1,1.622,1.622,0,0,0,1.809,1.1c.339-.03.49.092.469.449C116.131,290.948,116.148,291.331,116.148,291.713Zm13.649,9.571a5.651,5.651,0,0,0,2.979-.8,6.321,6.321,0,0,1,2.642-.8.824.824,0,0,0-.037-1.643,3.024,3.024,0,0,0-1.036.069,22.867,22.867,0,0,0-2.589,1,4.324,4.324,0,0,1-4.017-.01c-.445-.224-.9-.436-1.352-.634a5.064,5.064,0,0,0-3.312-.319,15.6,15.6,0,0,0-2.451.942,4.179,4.179,0,0,1-2.843.426,11.855,11.855,0,0,1-1.839-.74,6.216,6.216,0,0,0-2.963-.737.8.8,0,0,0-.816.772.761.761,0,0,0,.654.862,8.261,8.261,0,0,1,3.283,1.076,5.687,5.687,0,0,0,4.868.041c.456-.2.9-.428,1.352-.635a3.894,3.894,0,0,1,2.71-.332,11.375,11.375,0,0,1,1.745.714A6.35,6.35,0,0,0,129.8,301.284Zm-.045-3.988a5.835,5.835,0,0,0,2.991-.785,6.46,6.46,0,0,1,2.689-.821.778.778,0,0,0,.73-.85.791.791,0,0,0-.792-.792,2.887,2.887,0,0,0-.987.066,25.177,25.177,0,0,0-2.637,1.006,4.281,4.281,0,0,1-3.925.018q-.691-.344-1.4-.652a5.092,5.092,0,0,0-3.359-.332,15.5,15.5,0,0,0-2.449.947,4.036,4.036,0,0,1-2.744.429,12.324,12.324,0,0,1-1.937-.754,6.266,6.266,0,0,0-2.914-.734.811.811,0,0,0-.855.785c-.023.488.3.776.812.889a20.992,20.992,0,0,1,2.233.628c.736.25,1.427.653,2.175.836a5.888,5.888,0,0,0,4.362-.746,4.627,4.627,0,0,1,4.869.014A5.64,5.64,0,0,0,129.752,297.3Z" transform="translate(-112.162 -278.86)"/></svg>