<svg xmlns="http://www.w3.org/2000/svg" xmlns:xlink="http://www.w3.org/1999/xlink" width="32" height="32" viewBox="0 0 32 32">
  <defs>
    <clipPath id="clip-heli">
      <rect width="32" height="32"/>
    </clipPath>
  </defs>
  <g id="heli" clip-path="url(#clip-heli)">
    <path id="Path_2" data-name="Path 2" d="M38.223,4.16a.737.737,0,0,0,0-1.475H19.535a.737.737,0,1,0,0,1.475h8.6V7.6H19.653a2.214,2.214,0,1,0-.128,1.766l4.189,1.676v.983h0v.065a4.367,4.367,0,0,0,4.17,4.352h.746V18.41H24.419a.7.7,0,0,0-.7.7v.076a.7.7,0,0,0,.7.7H35.4a.7.7,0,0,0,.221-.036l2.364-.788a.7.7,0,0,0-.443-1.327l-1.92.64a.7.7,0,0,1-.221.036h-.869V16.422a4.424,4.424,0,0,0-.486-8.82H29.622V4.16ZM17.573,9.076a.736.736,0,1,1,.522-.216A.737.737,0,0,1,17.573,9.076ZM30.111,18.42V16.451h2.944v1.966Zm6.884-6.394H33.553V9.082a3.822,3.822,0,0,1,.477.029A3.14,3.14,0,0,1,36.995,12.026Z" transform="translate(-12.081 4.071)" fill="#0070ab"/>
  </g>
</svg>
