<svg xmlns="http://www.w3.org/2000/svg" xmlns:xlink="http://www.w3.org/1999/xlink" width="25" height="25" viewBox="0 0 25 25">
  <defs>
    <clipPath id="clip-helicopter_marker">
      <rect width="25" height="25"/>
    </clipPath>
  </defs>
  <g id="helicopter_marker" data-name="helicopter marker" clip-path="url(#clip-helicopter_marker)">
    <path id="Path_2" data-name="Path 2" d="M33.22,3.837a.576.576,0,1,0,0-1.152h-14.6a.576.576,0,0,0,0,1.152h6.722V6.526h-6.63a1.73,1.73,0,1,0-.1,1.38l3.273,1.309v.768h0c0,.017,0,.033,0,.051a3.412,3.412,0,0,0,3.258,3.4l.022,0c.05,0,.1,0,.146,0h.415v1.536H22.435a.547.547,0,0,0-.547.547v.059a.547.547,0,0,0,.547.547h8.583a.55.55,0,0,0,.173-.028l1.847-.616a.547.547,0,0,0-.346-1.037l-1.5.5a.55.55,0,0,1-.173.028h-.679V13.417a3.456,3.456,0,0,0-.38-6.891H26.5V3.837ZM17.087,7.678a.576.576,0,1,1,.576-.576A.575.575,0,0,1,17.087,7.678Zm9.795,7.3V13.44h2.3v1.536ZM32.26,9.983H29.571v-2.3a2.986,2.986,0,0,1,.373.023A2.453,2.453,0,0,1,32.26,9.983Z" transform="translate(-12.796 2.593)" fill="#1664c1"/>
  </g>
</svg>
