<svg xmlns="http://www.w3.org/2000/svg" xmlns:xlink="http://www.w3.org/1999/xlink" width="61" height="50" viewBox="0 0 61 50">
  <defs>
    <clipPath id="clip-demographics">
      <rect width="61" height="50"/>
    </clipPath>
  </defs>
  <g id="demographics" clip-path="url(#clip-demographics)">
    <g id="family" transform="translate(5 -33.586)" opacity="0.97">
      <g id="Group_18222" data-name="Group 18222" transform="translate(31.914 48.185)">
        <g id="Group_18221" data-name="Group 18221" transform="translate(0 0)">
          <path id="Path_36869" data-name="Path 36869" d="M351.022,130.474a3.853,3.853,0,0,0-3.844-3.825h-8.132a4.441,4.441,0,0,0-3.907,2.327l-.565,1.042a4.317,4.317,0,0,1-.487,4.211,4.279,4.279,0,0,1,1.64.48l2.268-4.186a.263.263,0,0,1,.494.125v27.043a1.949,1.949,0,1,0,3.9,0V142.111h.842v15.582a1.949,1.949,0,0,0,3.9,0c0-25.173-.035-11.838-.035-27.193a.34.34,0,0,1,.68-.009l.06,11.934a1.624,1.624,0,0,0,1.624,1.616h.008a1.625,1.625,0,0,0,1.616-1.633Z" transform="translate(-334.086 -126.649)" fill="#d1e8f5"/>
        </g>
      </g>
      <g id="Group_18224" data-name="Group 18224" transform="translate(0 47.778)">
        <g id="Group_18223" data-name="Group 18223" transform="translate(0 0)">
          <path id="Path_36870" data-name="Path 36870" d="M34.324,134.657a2.781,2.781,0,0,0-2.774-2.761H25.255a2.781,2.781,0,0,0-2.774,2.76c0,.474,0,.07-.013,2.3l-1.293-.266s-2.893-7.962-3.928-10.974c-.761-2.214-2.036-3.336-3.791-3.336H7.775c-1.755,0-3.03,1.122-3.791,3.336C2.8,129.15.127,136.475.1,136.548a1.64,1.64,0,0,0,3.08,1.126c.023-.062,1.945-5.322,3.258-9.04-.088.72.19-.8-2.329,12.21A.913.913,0,0,0,5,141.929H6.255v11.894a1.968,1.968,0,1,0,3.935,0V141.929h.85v11.894a1.968,1.968,0,1,0,3.935,0V141.929h1.251a.911.911,0,0,0,.894-1.085c-2.519-13.007-2.241-11.489-2.329-12.21,1.313,3.718,3.236,8.978,3.259,9.04a1.639,1.639,0,0,0,1.48,1.075l3.866.794A1.173,1.173,0,0,0,24.8,138.4s.019-3.293.022-3.684a.226.226,0,0,1,.453,0c0,3.16,0,18.343,0,19.657a1.407,1.407,0,0,0,2.814,0V143.131H28.7v11.245a1.407,1.407,0,0,0,2.814,0c0-8.086-.02-17.595-.025-19.706a.245.245,0,0,1,.49,0l.043,8.613a1.172,1.172,0,0,0,1.172,1.166H33.2a1.172,1.172,0,0,0,1.166-1.174s0,0,0,0C34.358,141.479,34.332,136.266,34.324,134.657Z" transform="translate(0 -122.383)" fill="#d1e8f5"/>
        </g>
      </g>
      <g id="Group_18226" data-name="Group 18226" transform="translate(37.292 39.984)">
        <g id="Group_18225" data-name="Group 18225" transform="translate(0 0)">
          <circle id="Ellipse_407" data-name="Ellipse 407" cx="3.367" cy="3.367" r="3.367" fill="#d1e8f5"/>
        </g>
      </g>
      <g id="Group_18228" data-name="Group 18228" transform="translate(25.356 50.173)">
        <g id="Group_18227" data-name="Group 18227">
          <circle id="Ellipse_408" data-name="Ellipse 408" cx="3.057" cy="3.057" r="3.057" fill="#d1e8f5"/>
        </g>
      </g>
      <g id="Group_18230" data-name="Group 18230" transform="translate(7.217 39.898)">
        <g id="Group_18229" data-name="Group 18229" transform="translate(0 0)">
          <path id="Path_36871" data-name="Path 36871" d="M78.946,39.9a3.4,3.4,0,1,0,3.4,3.4A3.4,3.4,0,0,0,78.946,39.9Z" transform="translate(-75.548 -39.898)" fill="#d1e8f5"/>
        </g>
      </g>
    </g>
  </g>
</svg>
