<svg xmlns="http://www.w3.org/2000/svg" width="42" height="38.018" viewBox="0 0 42 38.018">
  <g id="Group_18210" data-name="Group 18210" transform="translate(-72.725 -796.672)">
    <path id="Path_36867" data-name="Path 36867" d="M105.1,840.406v12.981c-2.614,0-5.13.149-7.62-.046a3.977,3.977,0,0,1-3.6-4.055c-.069-3.761-.051-7.525.008-11.286a2.5,2.5,0,0,1,.729-1.528c4.384-4.438,8.815-8.83,13.209-13.259.88-.887,1.585-.821,2.439.04,4.393,4.43,8.83,8.816,13.2,13.266a2.88,2.88,0,0,1,.717,1.807c.067,3.532.053,7.065.024,10.6a4.32,4.32,0,0,1-4.5,4.524c-2.191.034-4.384.007-6.74.007V840.406Z" transform="translate(-15.306 -18.774)" fill="#a7b3bb"/>
    <path id="Path_36868" data-name="Path 36868" d="M102.861,803.221c0-1.09-.024-1.768,0-2.443a2.37,2.37,0,0,1,2.374-2.493,2.314,2.314,0,0,1,2.385,2.459c.042,2.063-.042,4.129.048,6.189a3,3,0,0,0,.727,1.782c1.724,1.839,3.551,3.579,5.322,5.375,1.25,1.268,1.332,2.719.253,3.741-1.044.989-2.413.883-3.639-.339q-7.5-7.479-14.976-14.979c-1.4-1.4-1.858-1.4-3.267.008q-7.3,7.292-14.585,14.591a7.134,7.134,0,0,1-1.01.928,2.262,2.262,0,0,1-3.019-.216,2.336,2.336,0,0,1-.286-3.125,8.693,8.693,0,0,1,.935-1q7.289-7.3,14.584-14.593c3.255-3.255,6.8-3.237,10.082.047C100.052,800.408,101.31,801.668,102.861,803.221Z" fill="#a7b3bb"/>
  </g>
</svg>
