<svg width="8" height="11" viewBox="0 0 8 11" fill="none" xmlns="http://www.w3.org/2000/svg">
<path d="M3.5 6.5H4.5V5H6V4H4.5V2.5H3.5V4H2V5H3.5V6.5ZM4 9.175C5.01667 8.24167 5.77083 7.39367 6.2625 6.631C6.75417 5.86867 7 5.19167 7 4.6C7 3.69167 6.71033 2.94783 6.131 2.3685C5.552 1.7895 4.84167 1.5 4 1.5C3.15833 1.5 2.44783 1.7895 1.8685 2.3685C1.2895 2.94783 1 3.69167 1 4.6C1 5.19167 1.24583 5.86867 1.7375 6.631C2.22917 7.39367 2.98333 8.24167 4 9.175ZM4 10.5C2.65833 9.35833 1.65633 8.29783 0.994 7.3185C0.331333 6.3395 0 5.43333 0 4.6C0 3.35 0.402167 2.35417 1.2065 1.6125C2.0105 0.870833 2.94167 0.5 4 0.5C5.05833 0.5 5.9895 0.870833 6.7935 1.6125C7.59783 2.35417 8 3.35 8 4.6C8 5.43333 7.66883 6.3395 7.0065 7.3185C6.34383 8.29783 5.34167 9.35833 4 10.5Z" fill="white"/>
</svg>
