<svg xmlns="http://www.w3.org/2000/svg" width="14" height="14.001" viewBox="0 0 14 14.001"><defs><style>.a{fill:#fff;}</style></defs><path class="a" d="M13.624,6.089h0L7.911.377a1.289,1.289,0,0,0-1.823,0L.38,6.085l-.006.006a1.288,1.288,0,0,0,.858,2.2l.04,0H1.5v4.2A1.51,1.51,0,0,0,3.008,14H5.242a.41.41,0,0,0,.41-.41V10.3a.689.689,0,0,1,.688-.688H7.659a.689.689,0,0,1,.688.688v3.3a.41.41,0,0,0,.41.41h2.235A1.51,1.51,0,0,0,12.5,12.492v-4.2h.211a1.289,1.289,0,0,0,.912-2.2Zm0,0" transform="translate(0 0.001)"/></svg>