<svg xmlns="http://www.w3.org/2000/svg" xmlns:xlink="http://www.w3.org/1999/xlink" width="24" height="24" viewBox="0 0 24 24">
  <defs>
    <clipPath id="clip-icon">
      <rect width="24" height="24"/>
    </clipPath>
  </defs>
  <g id="icon" clip-path="url(#clip-icon)">
    <g id="Group_4" data-name="Group 4" transform="translate(-41.419 -19.367)">
      <g id="Group_2" data-name="Group 2" transform="translate(49.695 31.291)">
        <circle id="Ellipse_1" data-name="Ellipse 1" cx="1.252" cy="1.252" r="1.252" transform="translate(1.806 2.318)"/>
        <g id="Group_1" data-name="Group 1" transform="translate(1.996)">
          <path id="Path_5" data-name="Path 5" d="M57.494,55.351l0,.007.015-.009Z" transform="translate(-57.321 -48.467)"/>
          <path id="Path_6" data-name="Path 6" d="M59.851,54.225l.29.065A.53.53,0,0,0,59.851,54.225Z" transform="translate(-58.545 -47.883)"/>
        </g>
      </g>
      <g id="Group_5" data-name="Group 5" transform="translate(0.211)">
        <path id="Path_1" data-name="Path 1" d="M53.23,48.581a.593.593,0,0,1,.1.03,1.807,1.807,0,0,1,1,1.128c.019.062.026.118-.043.146s-.1-.025-.124-.075a1.485,1.485,0,0,0-.994-.774.234.234,0,0,1-.184-.246A.241.241,0,0,1,53.23,48.581Z" transform="translate(-3.289 -13.663)"/>
        <path id="Path_2" data-name="Path 2" d="M67.109,51.031a.2.2,0,0,1-.214.2,1.291,1.291,0,0,0-.894.392c-.036.037-.075.081-.128.034s-.017-.091.01-.136a1.453,1.453,0,0,1,.617-.554,2.218,2.218,0,0,1,.359-.134A.2.2,0,0,1,67.109,51.031Z" transform="translate(-9.966 -14.83)"/>
        <path id="Path_3" data-name="Path 3" d="M66.841,41.5a.215.215,0,0,1-.144.207,1.445,1.445,0,0,0-.765.747c-.012.024-.015.055-.034.07s-.064.045-.088.037a.11.11,0,0,1-.056-.079.286.286,0,0,1,.016-.106,1.756,1.756,0,0,1,.69-1.037.234.234,0,0,1,.267-.032A.211.211,0,0,1,66.841,41.5Z" transform="translate(-9.917 -9.874)"/>
        <path id="Path_4" data-name="Path 4" d="M57.613,47.134a1.185,1.185,0,0,1,1.689-.045.6.6,0,0,0,.8-.023,1.357,1.357,0,0,1,.627-.351c-.031-.336-.1-1.107-.075-1.218a5.478,5.478,0,0,0-.006-2.612c-.172-.78-.282-1.231-.339-1.486a.377.377,0,0,0-.717-.143.121.121,0,0,0-.008.03,13.544,13.544,0,0,1,.257,3.163c-.142,1.362-.607,1.492-.607,1.492l-.7.2a1.412,1.412,0,0,0-.624.377h0c-.333.218-.765.617-.773.786A.586.586,0,0,0,57.613,47.134Z" transform="translate(-5.444 -9.747)"/>
        <path id="Path_7" data-name="Path 7" d="M47.812,55.163s.992.89,1.844.2a1.5,1.5,0,0,1,1.8.061.984.984,0,0,0,1.435,0c.686-.737,1.7,0,1.7,0a1.281,1.281,0,0,0,1.623-.013c.78-.688,1.829.115,1.829.115a1.4,1.4,0,0,0,1.632-.234" transform="translate(-0.604 -17.032)" fill="none" stroke="#000" stroke-linecap="round" stroke-miterlimit="10" stroke-width="1"/>
        <path id="Path_8" data-name="Path 8" d="M47.812,58.807s.992.891,1.844.2a1.5,1.5,0,0,1,1.8.061.984.984,0,0,0,1.435,0c.686-.737,1.7,0,1.7,0a1.281,1.281,0,0,0,1.623-.013c.78-.688,1.829.115,1.829.115a1.4,1.4,0,0,0,1.632-.234" transform="translate(-0.604 -18.924)" fill="none" stroke="#000" stroke-linecap="round" stroke-miterlimit="10" stroke-width="1"/>
      </g>
      <g id="Group_3" data-name="Group 3" transform="translate(46.419 22.261)">
        <path id="Path_9" data-name="Path 9" d="M54.5,23.72a8.353,8.353,0,0,1,1.356-.239,2.281,2.281,0,0,1,2.2,1.631.576.576,0,0,0,.433.446,2.38,2.38,0,0,1,1.689,2.529,2.413,2.413,0,0,1-2.2,2.107,2.305,2.305,0,0,1-.23.015c-2.882,0-5.765.008-8.647,0a2.393,2.393,0,0,1-2.343-1.692,2.365,2.365,0,0,1,1.61-2.968c.162-.053.279-.083.3-.307a3.166,3.166,0,0,1,5.79-1.562C54.484,23.711,54.515,23.742,54.5,23.72Zm-4.982,2.5c-.225.012-.453.012-.678.039A1.574,1.574,0,0,0,47.6,28.506a1.607,1.607,0,0,0,1.56.909h8.51c.066,0,.132,0,.2-.006a1.585,1.585,0,0,0-.047-3.169l-.434-.025A1.663,1.663,0,0,0,56.3,24.351a1.635,1.635,0,0,0-2.033.361,2.13,2.13,0,0,0-1.143-1.258,2.317,2.317,0,0,0-1.957-.293C49.929,23.525,49.434,24.433,49.513,26.219Z" transform="translate(-46.649 -22.261)"/>
      </g>
    </g>
  </g>
</svg>
