<svg xmlns="http://www.w3.org/2000/svg" width="14.761" height="20.125" viewBox="0 0 14.761 20.125"><defs><style>.a{opacity:0.72;}.b{fill:#fff;}</style></defs><g class="a" transform="translate(317.597 -161.33)"><g transform="translate(-317.597 161.33)"><path class="b" d="M-314.226,171.618l-1.184-.151c0-.413.022-.8-.011-1.191a.6.6,0,0,0-.24-.415,1.842,1.842,0,0,1-1-1.663c-.012-1.661-.021-3.323,0-4.984a1.84,1.84,0,0,1,1.849-1.885,1.843,1.843,0,0,1,1.845,1.89c.016,1.648.007,3.3,0,4.945a1.876,1.876,0,0,1-1.008,1.7.6.6,0,0,0-.236.416C-314.246,170.709-314.226,171.14-314.226,171.618Z" transform="translate(316.748 -161.33)"/><path class="b" d="M-248.956,185.48a1.811,1.811,0,0,1-1,1.584.548.548,0,0,0-.233.378c-.028.443-.012.89-.011,1.4v.042c-.314-.123-.588-.221-.847-.333q-.076-.032-.149-.066c-.083-.038-.138-.16-.183-.253a.392.392,0,0,1,0-.194,1.045,1.045,0,0,0-.551-1.218,1.51,1.51,0,0,1-.7-1.413c-.006-1.675-.021-3.352,0-5.027a1.833,1.833,0,0,1,1.838-1.86,1.816,1.816,0,0,1,1.839,1.813C-248.922,182.05-248.937,183.765-248.956,185.48Z" transform="translate(257.754 -177.17)"/><path class="b" d="M-183.274,227.109a1.811,1.811,0,0,1-1,1.584.548.548,0,0,0-.233.379c-.025.394-.015.791-.012,1.234a10.452,10.452,0,0,0-1.17-1,.932.932,0,0,0-.564-.854,1.509,1.509,0,0,1-.7-1.413c-.006-1.676-.021-3.352,0-5.028a1.832,1.832,0,0,1,1.837-1.859,1.816,1.816,0,0,1,1.839,1.813C-183.241,223.679-183.255,225.395-183.274,227.109Z" transform="translate(197.235 -215.528)"/><path class="b" d="M-302.822,313.792c-.313,0-.6.005-.89,0-.132,0-.263,0-.394-.01a.383.383,0,0,1-.256-.184,14.169,14.169,0,0,0-9.3-6.787c-1.259-.327-2.569-.453-3.913-.68,0-.105-.006-.3,0-.491.019-.509.237-.711.744-.678a18.255,18.255,0,0,1,5.827,1.327,15.245,15.245,0,0,1,7.43,6.037c.111.178.212.361.31.547.116.218.226.441.343.66C-302.889,313.6-302.869,313.673-302.822,313.792Z" transform="translate(317.583 -293.67)"/><path class="b" d="M-305.334,342.719c-.5,0-.974.009-1.448-.009-.079,0-.167-.11-.227-.187a12.756,12.756,0,0,0-7.977-4.592c-.372-.072-.749-.116-1.126-.16s-.728-.068-1.117-.1v-1.28C-313.2,336-306.852,339.36-305.334,342.719Z" transform="translate(317.258 -322.6)"/><path class="b" d="M-308.76,372c-.558,0-1.115.005-1.673-.006a.512.512,0,0,1-.276-.12,11.7,11.7,0,0,0-6.641-2.394,1.557,1.557,0,0,1-.162-.028,1.7,1.7,0,0,1-.034-.233c0-.338,0-.677,0-1.085A12.253,12.253,0,0,1-308.76,372Z" transform="translate(317.552 -351.876)"/><path class="b" d="M-312.849,401.52c-1.374,0-2.747,0-4.121,0a.573.573,0,0,1-.619-.575c-.019-.245,0-.491,0-.77A9.953,9.953,0,0,1-312.849,401.52Z" transform="translate(317.597 -381.398)"/></g><path class="b" d="M-317.591,400.172a9.953,9.953,0,0,1,4.742,1.348c-1.374,0-2.747,0-4.121,0a.573.573,0,0,1-.619-.575C-317.607,400.7-317.591,400.452-317.591,400.172Z" transform="translate(0 -220.068)"/><path class="b" d="M-231.442,306.475c-.314-.123-.588-.221-.847-.333q.433.137.847.291Z" transform="translate(-78.602 -133.429)"/><path class="b" d="M-308.76,372c-.558,0-1.115.005-1.673-.006a.512.512,0,0,1-.276-.12,11.7,11.7,0,0,0-6.641-2.394,1.557,1.557,0,0,1-.162-.028,1.7,1.7,0,0,1-.034-.233c0-.338,0-.677,0-1.085A12.253,12.253,0,0,1-308.76,372Z" transform="translate(-0.045 -190.546)"/><path class="b" d="M-305.334,342.719c-.5,0-.974.009-1.448-.009-.079,0-.167-.11-.227-.187a12.756,12.756,0,0,0-7.977-4.592c-.372-.072-.749-.116-1.126-.16s-.728-.068-1.117-.1v-1.28C-313.2,336-306.852,339.36-305.334,342.719Z" transform="translate(-0.339 -161.27)"/><path class="b" d="M-303.267,312.874a3.337,3.337,0,0,1-.445.92c-.132,0-.263,0-.394-.01a.383.383,0,0,1-.256-.184,14.169,14.169,0,0,0-9.3-6.787c-1.259-.327-2.569-.453-3.913-.68,0-.105-.006-.3,0-.491.019-.509.237-.711.744-.678a18.255,18.255,0,0,1,5.827,1.327,15.245,15.245,0,0,1,7.43,6.037C-303.466,312.5-303.365,312.688-303.267,312.874Z" transform="translate(-0.014 -132.34)"/></g></svg>