<svg width="6" height="10" viewBox="0 0 6 10" fill="none" xmlns="http://www.w3.org/2000/svg">
<path d="M5.12497 9.66669C5.0133 9.66703 4.90297 9.64505 4.80207 9.60236C4.70118 9.55967 4.61229 9.49737 4.54194 9.42002L0.931638 5.42002C0.821698 5.30073 0.761597 5.1511 0.761597 4.99669C0.761597 4.84227 0.821698 4.69264 0.931638 4.57335L4.66901 0.573354C4.79589 0.43721 4.9782 0.351594 5.17586 0.335341C5.37351 0.319087 5.5703 0.373529 5.72295 0.486688C5.8756 0.599847 5.97159 0.762454 5.98982 0.938739C6.00804 1.11502 5.947 1.29054 5.82012 1.42669L2.47891 5.00002L5.708 8.57335C5.79941 8.67121 5.85747 8.79037 5.87532 8.91674C5.89317 9.0431 5.87006 9.17139 5.80872 9.2864C5.74739 9.40142 5.65039 9.49836 5.52922 9.56576C5.40805 9.63315 5.26776 9.66818 5.12497 9.66669Z" fill="white"/>
</svg>
