<svg width="15" height="14" viewBox="0 0 15 14" fill="none" xmlns="http://www.w3.org/2000/svg">
<path d="M13.9662 11.1889L8.55509 1.22221C8.41183 0.958998 8.20025 0.739278 7.94263 0.586186C7.68501 0.433094 7.39088 0.352295 7.0912 0.352295C6.79152 0.352295 6.49739 0.433094 6.23977 0.586186C5.98215 0.739278 5.77057 0.958998 5.62731 1.22221L0.210645 11.1889C0.0688702 11.4434 -0.00372991 11.7306 8.16748e-05 12.0218C0.00389326 12.3131 0.0839833 12.5983 0.232369 12.849C0.380754 13.0997 0.592252 13.3071 0.84578 13.4506C1.09931 13.594 1.38601 13.6685 1.67731 13.6667H12.4995C12.7884 13.6669 13.0725 13.5921 13.3237 13.4495C13.575 13.3069 13.7849 13.1014 13.9328 12.8532C14.0807 12.605 14.1615 12.3227 14.1674 12.0338C14.1732 11.7449 14.1039 11.4595 13.9662 11.2055V11.1889ZM6.26064 4.07777C6.26064 3.85676 6.34844 3.64479 6.50472 3.48851C6.661 3.33223 6.87296 3.24444 7.09398 3.24444C7.31499 3.24444 7.52695 3.33223 7.68323 3.48851C7.83951 3.64479 7.92731 3.85676 7.92731 4.07777V7.90555C7.92731 8.12656 7.83951 8.33852 7.68323 8.4948C7.52695 8.65108 7.31499 8.73888 7.09398 8.73888C6.87296 8.73888 6.661 8.65108 6.50472 8.4948C6.34844 8.33852 6.26064 8.12656 6.26064 7.90555V4.07777ZM7.1162 11.5833C6.92721 11.5833 6.74246 11.5273 6.58532 11.4223C6.42818 11.3173 6.30571 11.168 6.23338 10.9934C6.16106 10.8188 6.14214 10.6267 6.17901 10.4413C6.21588 10.256 6.30688 10.0857 6.44052 9.95209C6.57416 9.81845 6.74442 9.72744 6.92978 9.69057C7.11514 9.6537 7.30727 9.67263 7.48187 9.74495C7.65648 9.81728 7.80572 9.93975 7.91072 10.0969C8.01571 10.254 8.07176 10.4388 8.07176 10.6278C8.07176 10.8812 7.97108 11.1242 7.79188 11.3034C7.61268 11.4827 7.36963 11.5833 7.1162 11.5833Z" fill="white"/>
</svg>
