<svg xmlns="http://www.w3.org/2000/svg" width="17.683" height="17.766" viewBox="0 0 17.683 17.766"><defs><style>.a{fill:#fff;opacity:0.67;}</style></defs><path class="a" d="M-5675.629-19087.988c-.271-1.1-.566-2.186-.907-3.262q-.145-.442-.29-.885l-1.316.1s.1.295.142.449a.04.04,0,0,0,0,.008c0,.006,0,.012.005.018a.04.04,0,0,1,0,.01c0,.008,0,.016.006.021a.071.071,0,0,1-.006-.021.044.044,0,0,0,.007.025c0,.012,0,.012,0,0,.224.764.411,1.541.589,2.318q.139.609.267,1.215h-3.829c-.062-.641-.136-1.281-.226-1.92a36.955,36.955,0,0,0-1.092-5.3,25.081,25.081,0,0,0-1.917-4.826,16.728,16.728,0,0,0-2.969-4.039c-.361-.363-.747-.691-1.143-1.023-.3-.223-.6-.447-.915-.66h6.14a23.049,23.049,0,0,1,3.771,3.471,31.7,31.7,0,0,1,3.111,4.229,42.89,42.89,0,0,1,2.526,4.715c.757,1.637,1.423,3.32,2.018,5.018.04.111.078.223.117.334Zm-2.361-3.561Zm-.01-.031v0S-5678-19091.584-5678-19091.58Zm-3.024-7.521s.178.352.2.408c0,0,0,0,0,0s0,0,0,0c.392.707.737,1.445,1.057,2.182s.61,1.463.879,2.2c0,.008,0,.008.005.012l1.286.006c-.224-.479-.427-.971-.641-1.449-.355-.807-.747-1.6-1.164-2.373-.2-.371-.412-.742-.63-1.1Zm-4.371-5.5c.274.256.548.51.818.773.31.3.6.625.894.949a22.141,22.141,0,0,1,1.429,1.84.1.1,0,0,1,.025.035h1.052c-.274-.354-.544-.717-.829-1.066a20.6,20.6,0,0,0-1.672-1.84c-.234-.229-.478-.447-.722-.666-.117-.105-.244-.2-.366-.3-.091-.076-.178-.162-.274-.232l-1.011-.012c0,.006.579.465.65.523v0A.007.007,0,0,0-5685.4-19104.605Zm7.413,13.082s0,0,0,0l0,.006Zm-.018-.057Zm-7.406-13.029s0,0,0,0Z" transform="translate(5689.213 19105.754)"/></svg>