<svg width="14" height="18" viewBox="0 0 14 18" fill="none" xmlns="http://www.w3.org/2000/svg">
<path d="M7.83332 10.6666C5.03332 10.6666 4.11666 11.7916 3.81666 12.5333C4.70832 12.9166 5.33332 13.8 5.33332 14.8333C5.33332 15.4963 5.06993 16.1322 4.60109 16.6011C4.13225 17.0699 3.49636 17.3333 2.83332 17.3333C2.17028 17.3333 1.5344 17.0699 1.06556 16.6011C0.596716 16.1322 0.333323 15.4963 0.333323 14.8333C0.333323 13.7416 1.02499 12.8166 1.99999 12.475V5.52496C1.51168 5.35362 1.08883 5.03448 0.790166 4.61186C0.491497 4.18925 0.331827 3.68412 0.333323 3.16663C0.333323 2.50358 0.596716 1.8677 1.06556 1.39886C1.5344 0.930018 2.17028 0.666626 2.83332 0.666626C3.49636 0.666626 4.13225 0.930018 4.60109 1.39886C5.06993 1.8677 5.33332 2.50358 5.33332 3.16663C5.33332 4.25829 4.64166 5.18329 3.66666 5.52496V9.93329C4.39999 9.39163 5.46666 8.99996 6.99999 8.99996C9.22499 8.99996 9.96666 7.88329 10.2083 7.14163C9.75242 6.9517 9.36283 6.63123 9.08852 6.22052C8.81422 5.80981 8.66745 5.32718 8.66666 4.83329C8.66666 4.17025 8.93005 3.53437 9.39889 3.06553C9.86773 2.59668 10.5036 2.33329 11.1667 2.33329C11.8297 2.33329 12.4656 2.59668 12.9344 3.06553C13.4033 3.53437 13.6667 4.17025 13.6667 4.83329C13.6667 5.94996 12.9333 6.91663 11.925 7.21663C11.7083 8.40829 10.9 10.6666 7.83332 10.6666ZM2.83332 14C2.61231 14 2.40035 14.0878 2.24407 14.244C2.08779 14.4003 1.99999 14.6123 1.99999 14.8333C1.99999 15.0543 2.08779 15.2663 2.24407 15.4225C2.40035 15.5788 2.61231 15.6666 2.83332 15.6666C3.05434 15.6666 3.2663 15.5788 3.42258 15.4225C3.57886 15.2663 3.66666 15.0543 3.66666 14.8333C3.66666 14.6123 3.57886 14.4003 3.42258 14.244C3.2663 14.0878 3.05434 14 2.83332 14ZM2.83332 2.33329C2.61231 2.33329 2.40035 2.42109 2.24407 2.57737C2.08779 2.73365 1.99999 2.94561 1.99999 3.16663C1.99999 3.38764 2.08779 3.5996 2.24407 3.75588C2.40035 3.91216 2.61231 3.99996 2.83332 3.99996C3.05434 3.99996 3.2663 3.91216 3.42258 3.75588C3.57886 3.5996 3.66666 3.38764 3.66666 3.16663C3.66666 2.94561 3.57886 2.73365 3.42258 2.57737C3.2663 2.42109 3.05434 2.33329 2.83332 2.33329ZM11.1667 3.99996C10.9456 3.99996 10.7337 4.08776 10.5774 4.24404C10.4211 4.40032 10.3333 4.61228 10.3333 4.83329C10.3333 5.05431 10.4211 5.26627 10.5774 5.42255C10.7337 5.57883 10.9456 5.66663 11.1667 5.66663C11.3877 5.66663 11.5996 5.57883 11.7559 5.42255C11.9122 5.26627 12 5.05431 12 4.83329C12 4.61228 11.9122 4.40032 11.7559 4.24404C11.5996 4.08776 11.3877 3.99996 11.1667 3.99996Z" fill="white"/>
</svg>
