<svg xmlns="http://www.w3.org/2000/svg" xmlns:xlink="http://www.w3.org/1999/xlink" width="106.462" height="112.693" viewBox="0 0 106.462 112.693"><defs><style>.a{fill:url(#a);}.b,.c{stroke:none;}.c{fill:rgba(255,255,255,0.18);}</style><linearGradient id="a" x1="0.136" y1="0.134" x2="0.754" y2="0.849" gradientUnits="objectBoundingBox"><stop offset="0" stop-color="#3989be"/><stop offset="1" stop-color="#4ba8bf"/></linearGradient></defs><g class="a"><path class="b" d="M17.222,112.191,14.8,107.986l-.013-.02-.912-1.5H5a5,5,0,0,1-5-5V5A5,5,0,0,1,5,0h96.462a5,5,0,0,1,5,5v96.463a5,5,0,0,1-5,5H22.3l-.912,1.5-.013.02-2.419,4.206a1,1,0,0,1-1.733,0Z"/><path class="c" d="M 18.08819770812988 111.6924743652344 L 20.52401161193848 107.458984375 C 20.52988815307617 107.449348449707 20.53570747375488 107.4400405883789 20.54157638549805 107.4309158325195 L 21.73522567749023 105.4627990722656 L 101.4624099731445 105.4627990722656 C 103.6677322387695 105.4627990722656 105.4619064331055 103.6686248779297 105.4619064331055 101.4633026123047 L 105.4619064331055 5.000397205352783 C 105.4619064331055 2.79456639289856 103.6677322387695 0.9999972581863403 101.4624099731445 0.9999972581863403 L 5.000395774841309 0.9999972581863403 C 2.794564723968506 0.9999972581863403 0.9999955296516418 2.79456639289856 0.9999955296516418 5.000397205352783 L 0.9999955296516418 101.4633026123047 C 0.9999955296516418 103.6686248779297 2.794564723968506 105.4627990722656 5.000395774841309 105.4627990722656 L 14.44118022918701 105.4627990722656 L 15.63488578796387 107.4310073852539 C 15.64020347595215 107.4392776489258 15.64536380767822 107.4475326538086 15.65039539337158 107.4557800292969 L 15.66913414001465 107.4869995117188 L 18.08819770812988 111.6924743652344 M 18.08819580078125 112.6928253173828 C 17.75091934204102 112.6928253173828 17.41365623474121 112.5256576538086 17.22150230407715 112.1913070678711 L 14.80230331420898 107.9856109619141 C 14.79779529571533 107.9783935546875 14.7941951751709 107.9721069335938 14.78970336914062 107.9658126831055 L 13.87813377380371 106.4627990722656 L 5.000395774841309 106.4627990722656 C 2.238303184509277 106.4627990722656 -4.444298156158766e-06 104.2245025634766 -4.444298156158766e-06 101.4633026123047 L -4.444298156158766e-06 5.000397205352783 C -4.444298156158766e-06 2.238304853439331 2.238303184509277 -2.725923877733294e-06 5.000395774841309 -2.725923877733294e-06 L 101.4624099731445 -2.725923877733294e-06 C 104.2236099243164 -2.725923877733294e-06 106.4619064331055 2.238304853439331 106.4619064331055 5.000397205352783 L 106.4619064331055 101.4633026123047 C 106.4619064331055 104.2245025634766 104.2236099243164 106.4627990722656 101.4624099731445 106.4627990722656 L 22.29827308654785 106.4627990722656 L 21.38670349121094 107.9658126831055 C 21.3821964263916 107.9721069335938 21.37859535217285 107.9783935546875 21.37410354614258 107.9856109619141 L 18.95490264892578 112.1913070678711 C 18.76274871826172 112.5256576538086 18.42547225952148 112.6928253173828 18.08819580078125 112.6928253173828 Z"/></g></svg>