<svg xmlns="http://www.w3.org/2000/svg" xmlns:xlink="http://www.w3.org/1999/xlink" width="106.462" height="106.463" viewBox="0 0 106.462 106.463"><defs><style>.a{opacity:0.25;fill:url(#a);}.b,.c{stroke:none;}.c{fill:rgba(255,255,255,0.18);}</style><linearGradient id="a" x1="0.136" y1="0.134" x2="0.754" y2="0.849" gradientUnits="objectBoundingBox"><stop offset="0" stop-color="#3989be"/><stop offset="1" stop-color="#4ba8bf"/></linearGradient></defs><g class="a"><path class="b" d="M5,0h96.462a5,5,0,0,1,5,5v96.463a5,5,0,0,1-5,5H5a5,5,0,0,1-5-5V5A5,5,0,0,1,5,0Z"/><path class="c" d="M 4.999992370605469 0.9999923706054688 C 2.794380187988281 0.9999923706054688 0.9999923706054688 2.794380187988281 0.9999923706054688 4.999992370605469 L 0.9999923706054688 101.4628829956055 C 0.9999923706054688 103.6684951782227 2.794380187988281 105.4628829956055 4.999992370605469 105.4628829956055 L 101.4620056152344 105.4628829956055 C 103.6676177978516 105.4628829956055 105.4620056152344 103.6684951782227 105.4620056152344 101.4628829956055 L 105.4620056152344 4.999992370605469 C 105.4620056152344 2.794380187988281 103.6676177978516 0.9999923706054688 101.4620056152344 0.9999923706054688 L 4.999992370605469 0.9999923706054688 M 4.999992370605469 -7.62939453125e-06 L 101.4620056152344 -7.62939453125e-06 C 104.2234344482422 -7.62939453125e-06 106.4620056152344 2.238578796386719 106.4620056152344 4.999992370605469 L 106.4620056152344 101.4628829956055 C 106.4620056152344 104.2242965698242 104.2234344482422 106.4628829956055 101.4620056152344 106.4628829956055 L 4.999992370605469 106.4628829956055 C 2.238578796386719 106.4628829956055 -7.62939453125e-06 104.2242965698242 -7.62939453125e-06 101.4628829956055 L -7.62939453125e-06 4.999992370605469 C -7.62939453125e-06 2.238578796386719 2.238578796386719 -7.62939453125e-06 4.999992370605469 -7.62939453125e-06 Z"/></g></svg>