<svg xmlns="http://www.w3.org/2000/svg" width="50" height="50" viewBox="0 0 50 50">
  <g id="OBJECTS">
    <g>
      <path d="M14.616,12.183H27.984a.979.979,0,0,1,.978.978v1.954a.978.978,0,0,0,1.953,0V13.161a2.936,2.936,0,0,0-2.931-2.931H14.616a.979.979,0,0,1-.978-.978.979.979,0,0,0-1.953,0A2.938,2.938,0,0,0,14.616,12.183Z" fill="#3c64bc"/>
      <path d="M10.7,16.1H20.816a.978.978,0,0,0,0-1.954H10.7a.979.979,0,0,1-.978-.978.978.978,0,0,0-1.954,0A2.939,2.939,0,0,0,10.7,16.1Z" fill="#3c64bc"/>
      <path d="M21.952,17.533H19.667a.978.978,0,0,0-.97.857l-1.075,8.6H24l-1.072-8.6a.979.979,0,0,0-.971-.857Z" fill="#3c64bc"/>
      <path d="M27.826,18.389l-1.074,8.6h6.372l-1.072-8.6a.978.978,0,0,0-.971-.857H28.8A.978.978,0,0,0,27.826,18.389Z" fill="#3c64bc"/>
      <path d="M34.179,41.66a.978.978,0,0,0,.978-.978h0V29.924a.978.978,0,0,0-.977-.98H16.571a.977.977,0,0,0-.977.977h0v10.6a1.14,1.14,0,0,0,1.14,1.14H34.179ZM20.815,33.836H19.506a.978.978,0,0,1,0-1.954h1.31a.978.978,0,0,1,0,1.954Zm5.217,0H24.723a.978.978,0,0,1,0-1.954h1.3a.978.978,0,0,1,0,1.954Zm5.217,0H29.94a.978.978,0,0,1,0-1.954h1.3a.978.978,0,0,1,0,1.954Z" fill="#3c64bc"/>
    </g>
  </g>
</svg>
