<svg width="20" height="20" viewBox="0 0 20 20" fill="none" xmlns="http://www.w3.org/2000/svg">
<g clip-path="url(#clip0_15:263)">
<path d="M13.9076 15.6091L17.127 16.5585C17.63 15.9626 18.057 15.3084 18.3986 14.6106L13.6995 12.8192C13.6456 12.7998 13.598 12.7668 13.5614 12.7234C13.5248 12.6799 13.5007 12.6277 13.4914 12.5721L13.1826 10.4422L10.3276 10.1301C10.2797 10.125 10.2336 10.1093 10.1926 10.0844C10.1516 10.0594 10.1168 10.0257 10.0907 9.98585C10.0648 9.94595 10.0483 9.90088 10.0423 9.85391C10.0364 9.80694 10.0411 9.75925 10.0563 9.71431L11.0488 6.79143L10.0745 4.87459C10.0479 4.8221 10.0366 4.76341 10.0418 4.705C10.0471 4.64659 10.0687 4.59074 10.1042 4.54365L12.4796 1.38977C11.5711 1.11664 10.6265 0.976842 9.67644 0.974915C9.43733 0.974915 9.20019 0.983401 8.96492 1.00037C8.96619 1.01638 8.96619 1.03245 8.96492 1.04846L8.61963 3.08221C8.60588 3.16268 8.56125 3.2349 8.49496 3.28398L7.11592 4.30133C7.06054 4.34209 6.99328 4.36423 6.92411 4.3645C6.87386 4.36454 6.82431 4.35306 6.77936 4.33096C6.73441 4.30886 6.69534 4.27677 6.66522 4.23722C6.6397 4.20385 6.62113 4.16587 6.61055 4.12545C6.59997 4.08502 6.59756 4.04294 6.60353 4.00161C6.60949 3.96029 6.62371 3.92052 6.64532 3.88458C6.66692 3.84865 6.69548 3.81725 6.72943 3.79219L8.00492 2.84933L8.30701 1.06731C6.23544 1.355 4.31605 2.29986 2.84068 3.75824C2.80232 3.79596 2.76397 3.83556 2.72561 3.87422L3.70474 4.83688C3.76518 4.89645 3.79916 4.97715 3.79916 5.06128C3.79916 5.14541 3.76518 5.22612 3.70474 5.28568C3.67496 5.3155 3.63945 5.33919 3.60026 5.35538C3.56108 5.37157 3.51903 5.37993 3.47652 5.37997C3.43402 5.37993 3.39197 5.37157 3.35278 5.35538C3.3136 5.33919 3.27802 5.3155 3.24825 5.28568L2.28924 4.34282C0.808191 6.05665 -0.00217164 8.23386 0.00394358 10.4827C0.000400753 11.7326 0.249055 12.9707 0.735487 14.1255C1.22192 15.2802 1.93648 16.3287 2.83781 17.2101C4.59156 18.9445 6.96122 19.9426 9.44822 19.9943L9.71865 19.1976C9.73208 19.158 9.75336 19.1213 9.78122 19.0897C9.80908 19.0582 9.84298 19.0323 9.88101 19.0137C9.91905 18.995 9.96047 18.9839 10.0029 18.981C10.0453 18.9781 10.0878 18.9835 10.1281 18.9968C10.1685 19.01 10.2058 19.0309 10.2379 19.0583C10.27 19.0857 10.2963 19.119 10.3153 19.1564C10.3342 19.1938 10.3455 19.2345 10.3485 19.2762C10.3514 19.3179 10.346 19.3598 10.3324 19.3994L10.1329 19.9877C12.6049 19.8725 14.9383 18.8314 16.6541 17.0781L15.5705 16.7584L13.9613 17.5495C13.9164 17.5718 13.8668 17.5835 13.8165 17.5834C13.7566 17.5831 13.6981 17.5665 13.6473 17.5353C13.5965 17.5042 13.5554 17.4598 13.5288 17.4071C13.4905 17.3317 13.4842 17.2445 13.5114 17.1646C13.5386 17.0846 13.5969 17.0186 13.6736 16.9809L14.6691 16.4916L13.7254 16.2087C13.6847 16.1968 13.6468 16.177 13.6139 16.1506C13.581 16.1242 13.5537 16.0917 13.5335 16.0549C13.5134 16.0181 13.5008 15.9778 13.4965 15.9363C13.4923 15.8947 13.4964 15.8527 13.5086 15.8127C13.5353 15.7345 13.5918 15.6696 13.6662 15.6316C13.7407 15.5935 13.8272 15.5855 13.9076 15.6091ZM3.23004 13.8412C3.19703 13.8524 3.16236 13.8582 3.12743 13.8582C3.05952 13.8581 2.99338 13.837 2.93831 13.7979C2.88325 13.7588 2.84204 13.7037 2.82055 13.6404L2.51846 12.7484L1.94788 12.4656C1.87113 12.4278 1.81277 12.3615 1.78563 12.2815C1.75848 12.2014 1.76476 12.114 1.80307 12.0385C1.84135 11.9631 1.9085 11.9057 1.98979 11.879C2.07108 11.8523 2.15982 11.8585 2.2365 11.8961L2.92602 12.2346L2.95482 12.2506L2.96442 12.2572L2.98069 12.2685L2.99316 12.2779L3.00563 12.2883L3.01622 12.2996L3.02769 12.3109L3.03729 12.3223L3.04689 12.3345L3.0555 12.3468L3.06416 12.36L3.07183 12.3751L3.07856 12.3873L3.09003 12.4156L3.43526 13.433C3.44965 13.473 3.4558 13.5154 3.45323 13.5578C3.45066 13.6002 3.43946 13.6416 3.42033 13.6797C3.4012 13.7177 3.37452 13.7516 3.34184 13.7794C3.30916 13.8071 3.27112 13.8282 3.23004 13.8412ZM7.8563 14.6898C7.88405 14.7214 7.90512 14.758 7.91841 14.7977C7.93169 14.8373 7.93689 14.8792 7.93368 14.9208C7.93048 14.9624 7.91895 15.003 7.89974 15.0402C7.88053 15.0774 7.85404 15.1105 7.82177 15.1377C7.76339 15.1871 7.68883 15.2142 7.61175 15.214C7.56508 15.2141 7.51893 15.2041 7.47654 15.1849C7.43415 15.1657 7.39649 15.1377 7.36621 15.1028L5.29766 12.7296C5.26989 12.6979 5.24873 12.6612 5.23544 12.6215C5.22214 12.5817 5.21695 12.5398 5.22016 12.4981C5.22337 12.4564 5.23494 12.4158 5.25417 12.3785C5.27339 12.3412 5.29989 12.308 5.33219 12.2808C5.39731 12.226 5.4819 12.199 5.56732 12.2055C5.65274 12.212 5.73198 12.2517 5.78769 12.3157L6.72656 13.3924L7.24826 11.601L5.31399 9.69922C5.25355 9.63965 5.21957 9.55895 5.21957 9.47482C5.21957 9.39068 5.25355 9.30998 5.31399 9.25042C5.37457 9.191 5.45663 9.15763 5.54221 9.15763C5.62778 9.15763 5.70984 9.191 5.77043 9.25042L7.83617 11.2813V11.2861L7.85244 11.303L7.8611 11.3153L7.87065 11.3275L7.88024 11.3436L7.88604 11.3539C7.88604 11.3596 7.89177 11.3662 7.89464 11.3719L7.89944 11.3822L7.90617 11.3992V11.4115V11.4275C7.90645 11.4325 7.90645 11.4375 7.90617 11.4426V11.4558V11.4727C7.90617 11.4727 7.90617 11.4812 7.90617 11.485C7.90617 11.4888 7.90617 11.4973 7.90617 11.5029C7.90617 11.5086 7.90617 11.5114 7.90617 11.5161C7.90617 11.5208 7.90617 11.5274 7.90617 11.5331C7.90617 11.5387 7.90617 11.5444 7.90617 11.5491C7.90617 11.5538 7.90617 11.5585 7.90617 11.5633C7.90497 11.5709 7.90337 11.5784 7.90137 11.5859C7.90153 11.5881 7.90153 11.5903 7.90137 11.5925L7.21279 13.9619L7.8563 14.6898Z" fill="#518F6D"/>
<path d="M19.4294 4.703L15.3057 7.13276C15.2916 7.13959 15.2761 7.14293 15.2604 7.14247C15.2447 7.14202 15.2294 7.13779 15.2158 7.13016C15.2021 7.12253 15.1906 7.11173 15.1822 7.0987C15.1738 7.08567 15.1688 7.07082 15.1676 7.05545V6.53781C15.1678 6.52121 15.1724 6.50495 15.181 6.49067L17.5785 2.65228C17.5866 2.64097 17.5971 2.63153 17.6092 2.62464C17.6214 2.61774 17.635 2.61357 17.649 2.6124C17.663 2.61123 17.6771 2.61309 17.6902 2.61787C17.7034 2.62264 17.7154 2.63021 17.7253 2.64002L19.4419 4.56912C19.4501 4.57867 19.4563 4.58973 19.4601 4.60167C19.464 4.6136 19.4653 4.62617 19.4642 4.63863C19.463 4.65109 19.4593 4.6632 19.4534 4.67426C19.4474 4.68531 19.4393 4.69508 19.4294 4.703Z" fill="#518F6D"/>
<path d="M19.811 9.51347L19.228 10.66C19.2164 10.6806 19.1973 10.6962 19.1746 10.7037C19.1519 10.7112 19.1271 10.7101 19.1052 10.7005L16.77 9.55213C16.756 9.54373 16.7443 9.53188 16.7362 9.51776C16.7281 9.50364 16.7239 9.48771 16.7239 9.47151C16.7239 9.4553 16.7281 9.43937 16.7362 9.42525C16.7443 9.41113 16.756 9.3993 16.77 9.3909L17.2975 9.13162C17.3133 9.12428 17.3309 9.12134 17.3483 9.12313L19.7391 9.38429C19.7533 9.38674 19.7667 9.39228 19.7784 9.40052C19.7901 9.40876 19.7998 9.41948 19.8067 9.43189C19.8136 9.44429 19.8175 9.45806 19.8183 9.47218C19.8191 9.48631 19.8166 9.50042 19.811 9.51347Z" fill="#518F6D"/>
<path d="M14.7859 2.70601L13.9592 3.84405C13.9469 3.85733 13.9309 3.86686 13.9132 3.8715C13.8956 3.87615 13.8769 3.87572 13.8594 3.87026C13.842 3.86481 13.8265 3.85456 13.8148 3.84073C13.803 3.82689 13.7956 3.81005 13.7933 3.79219C13.7935 3.77987 13.7961 3.7677 13.801 3.75636L14.4493 2.26853C14.4573 2.25399 14.469 2.24178 14.4833 2.23311C14.4977 2.22445 14.514 2.21963 14.5308 2.21916C14.5477 2.21868 14.5643 2.22255 14.5791 2.23039C14.5939 2.23823 14.6064 2.24975 14.6152 2.26381L14.7936 2.61361C14.8005 2.62836 14.8034 2.64462 14.8021 2.66081C14.8007 2.67699 14.7952 2.69257 14.7859 2.70601Z" fill="#518F6D"/>
<path d="M13.6983 6.87538C13.6683 6.84581 13.6327 6.82235 13.5934 6.80635C13.5542 6.79034 13.5121 6.7821 13.4696 6.7821C13.4271 6.7821 13.3851 6.79034 13.3458 6.80635C13.3066 6.82235 13.2709 6.84581 13.2409 6.87538L12.5514 7.55329C12.5213 7.5828 12.4975 7.61786 12.4812 7.65644C12.4649 7.69503 12.4565 7.73638 12.4565 7.77816C12.4565 7.81993 12.4649 7.8613 12.4812 7.89988C12.4975 7.93847 12.5213 7.97353 12.5514 8.00304C12.5812 8.03277 12.6168 8.0564 12.6559 8.07258C12.6951 8.08877 12.7372 8.09717 12.7796 8.09732C12.8221 8.09717 12.8642 8.08877 12.9033 8.07258C12.9425 8.0564 12.978 8.03277 13.0079 8.00304L13.6974 7.32511C13.7275 7.29566 13.7515 7.26067 13.7678 7.22211C13.7842 7.18356 13.7926 7.14222 13.7927 7.10044C13.7928 7.05867 13.7845 7.01728 13.7684 6.97866C13.7522 6.94004 13.7284 6.90495 13.6983 6.87538Z" fill="#518F6D"/>
<path d="M13.8144 9.45032H14.5039C14.5896 9.45032 14.6718 9.41684 14.7324 9.35725C14.793 9.29766 14.8271 9.21684 14.8271 9.13257C14.8271 9.0483 14.793 8.96748 14.7324 8.90789C14.6718 8.8483 14.5896 8.81482 14.5039 8.81482H13.8144C13.7287 8.81482 13.6465 8.8483 13.5859 8.90789C13.5252 8.96748 13.4912 9.0483 13.4912 9.13257C13.4912 9.21684 13.5252 9.29766 13.5859 9.35725C13.6465 9.41684 13.7287 9.45032 13.8144 9.45032Z" fill="#518F6D"/>
<path d="M17.5057 12.4854C17.5388 12.4961 17.5734 12.5015 17.6083 12.5014C17.6762 12.5014 17.7425 12.4804 17.7976 12.4413C17.8527 12.4022 17.8938 12.347 17.9152 12.2836C17.9422 12.2037 17.9359 12.1165 17.8976 12.0412C17.8593 11.9659 17.7921 11.9086 17.7109 11.8819L16.6762 11.5425C16.5949 11.5159 16.5062 11.5221 16.4296 11.5598C16.353 11.5974 16.2948 11.6634 16.2676 11.7433C16.2406 11.8232 16.2469 11.9104 16.2852 11.9857C16.3235 12.061 16.3907 12.1183 16.4719 12.145L17.5057 12.4854Z" fill="#518F6D"/>
<path d="M19.2299 6.79707L18.1952 7.13649C18.1139 7.16317 18.0468 7.22046 18.0085 7.29577C17.9702 7.37108 17.9639 7.45826 17.9909 7.53816C18.0123 7.60157 18.0534 7.65674 18.1085 7.69584C18.1636 7.73494 18.2298 7.75598 18.2978 7.75596C18.3326 7.7561 18.3673 7.75069 18.4004 7.73994L19.4351 7.40051C19.5164 7.37383 19.5835 7.31654 19.6218 7.24123C19.6601 7.16592 19.6664 7.07873 19.6394 6.99884C19.6261 6.9591 19.6049 6.92234 19.5771 6.89068C19.5493 6.85901 19.5153 6.83306 19.4773 6.81431C19.4393 6.79556 19.3978 6.7844 19.3553 6.78144C19.3129 6.77848 19.2703 6.78379 19.2299 6.79707Z" fill="#518F6D"/>
<path d="M16.2282 1.31429C16.2707 1.31415 16.3128 1.30574 16.3519 1.28956C16.3911 1.27338 16.4266 1.24974 16.4565 1.22001L17.146 0.542089C17.1761 0.512576 17.1999 0.477524 17.2162 0.438938C17.2325 0.400352 17.2408 0.358989 17.2408 0.317216C17.2408 0.275443 17.2325 0.23408 17.2162 0.195494C17.1999 0.156908 17.1761 0.121856 17.146 0.0923433C17.116 0.06278 17.0803 0.0393262 17.0411 0.0233238C17.0018 0.00732139 16.9598 -0.000915527 16.9173 -0.000915527C16.8748 -0.000915527 16.8327 0.00732139 16.7935 0.0233238C16.7542 0.0393262 16.7186 0.06278 16.6885 0.0923433L15.999 0.770261C15.969 0.799774 15.9451 0.834826 15.9288 0.873412C15.9126 0.911998 15.9042 0.953361 15.9042 0.995134C15.9042 1.03691 15.9126 1.07827 15.9288 1.11686C15.9451 1.15544 15.969 1.19049 15.999 1.22001C16.029 1.24985 16.0647 1.27356 16.104 1.28974C16.1434 1.30593 16.1856 1.31427 16.2282 1.31429Z" fill="#518F6D"/>
<path d="M19.5607 12.9775C19.5307 12.948 19.4951 12.9245 19.4558 12.9085C19.4166 12.8925 19.3745 12.8843 19.332 12.8843C19.2895 12.8843 19.2474 12.8925 19.2082 12.9085C19.1689 12.9245 19.1333 12.948 19.1033 12.9775C19.0732 13.007 19.0494 13.0421 19.0331 13.0807C19.0168 13.1193 19.0084 13.1606 19.0084 13.2024C19.0084 13.2442 19.0168 13.2855 19.0331 13.3241C19.0494 13.3627 19.0732 13.3978 19.1033 13.4273L19.4485 13.7667C19.4784 13.7964 19.5139 13.8201 19.5531 13.8363C19.5922 13.8524 19.6343 13.8608 19.6768 13.861C19.7193 13.8608 19.7613 13.8524 19.8005 13.8363C19.8396 13.8201 19.8752 13.7964 19.905 13.7667C19.9351 13.7372 19.9589 13.7021 19.9752 13.6636C19.9915 13.625 19.9999 13.5836 19.9999 13.5418C19.9999 13.5 19.9915 13.4587 19.9752 13.4201C19.9589 13.3815 19.9351 13.3465 19.905 13.317L19.5607 12.9775Z" fill="#518F6D"/>
</g>
<defs>
<clipPath id="clip0_15:263">
<rect width="20" height="20" fill="white"/>
</clipPath>
</defs>
</svg>
