<svg xmlns="http://www.w3.org/2000/svg" width="20.855" height="21.212" viewBox="0 0 20.855 21.212"><defs><style>.a{fill:#fff;}</style></defs><g transform="translate(109 -414.999)"><g transform="translate(-109 414.999)"><path class="a" d="M-581.566,42.521l3.357,1.007a10.082,10.082,0,0,0,1.326-2.066l-4.9-1.9A.337.337,0,0,1-582,39.3l-.322-2.259-2.977-.331a.337.337,0,0,1-.247-.153.338.338,0,0,1-.036-.288l1.035-3.1-1.016-2.033a.337.337,0,0,1,.031-.351l2.477-3.345A10.067,10.067,0,0,0-585.978,27q-.374,0-.742.027a.328.328,0,0,1,0,.051l-.36,2.157a.338.338,0,0,1-.13.214l-1.438,1.079a.336.336,0,0,1-.2.067.337.337,0,0,1-.27-.135.337.337,0,0,1,.067-.472l1.33-1,.315-1.89a10.015,10.015,0,0,0-5.7,2.854c-.04.04-.08.082-.12.123l1.021,1.021a.337.337,0,0,1,0,.476.334.334,0,0,1-.238.1.334.334,0,0,1-.238-.1l-1-1a10.016,10.016,0,0,0-2.383,6.512,10.024,10.024,0,0,0,2.955,7.135,10.018,10.018,0,0,0,6.893,2.953l.282-.845a.337.337,0,0,1,.427-.213.337.337,0,0,1,.213.427l-.208.624a10.1,10.1,0,0,0,6.8-3.086l-1.13-.339-1.678.839a.334.334,0,0,1-.151.036.337.337,0,0,1-.3-.187.337.337,0,0,1,.151-.452l1.038-.519-.984-.3a.337.337,0,0,1-.226-.42A.337.337,0,0,1-581.566,42.521ZM-592.7,40.646a.329.329,0,0,1-.107.018.338.338,0,0,1-.32-.231l-.315-.946-.595-.3a.338.338,0,0,1-.151-.453.337.337,0,0,1,.452-.151l.719.359.03.017.01.007.017.012.013.01.013.011.011.012.012.012.01.012.01.013.009.013.009.014.008.016.007.013.012.03h0l.36,1.079A.337.337,0,0,1-592.7,40.646Zm4.824.9a.336.336,0,0,1-.036.475.334.334,0,0,1-.219.081.336.336,0,0,1-.256-.118l-2.157-2.517a.337.337,0,0,1,.036-.476.337.337,0,0,1,.475.037l.979,1.142.544-1.9-2.017-2.017a.337.337,0,0,1,0-.476.337.337,0,0,1,.476,0l2.154,2.154h0v0l0,.005.017.018.009.013.01.013.01.017.006.011c0,.006.006.013.009.019l.005.011.007.018,0,.013,0,.017a.151.151,0,0,1,0,.016l0,.014,0,.018s0,.009,0,.013,0,.013,0,.019,0,.009,0,.014,0,.012,0,.018,0,.012,0,.017,0,.01,0,.015a.239.239,0,0,1-.005.024.052.052,0,0,1,0,.007v0l-.718,2.513,0,0Z" transform="translate(596.068 -25.966)"/><path class="a" d="M-239.629,67.754l-4.3,2.577a.1.1,0,0,1-.144-.082V69.7a.1.1,0,0,1,.014-.05l2.5-4.071a.1.1,0,0,1,.153-.013l1.79,2.046A.1.1,0,0,1-239.629,67.754Z" transform="translate(259.889 -62.766)"/><path class="a" d="M-204.951,219.671l-.608,1.216a.1.1,0,0,1-.128.043l-2.435-1.218a.1.1,0,0,1,0-.171l.55-.275a.1.1,0,0,1,.053-.009l2.493.277A.1.1,0,0,1-204.951,219.671Z" transform="translate(225.609 -209.581)"/><path class="a" d="M-275.033,56.76l-.862,1.207a.1.1,0,0,1-.173-.055h0a.1.1,0,0,1,.008-.038l.676-1.578a.1.1,0,0,1,.173-.005l.186.371A.1.1,0,0,1-275.033,56.76Z" transform="translate(290.451 -53.89)"/><path class="a" d="M-305.773,164.1a.337.337,0,0,0-.477,0l-.719.719a.337.337,0,0,0,0,.477.336.336,0,0,0,.238.1.336.336,0,0,0,.238-.1l.719-.719A.337.337,0,0,0-305.773,164.1Z" transform="translate(320.057 -156.808)"/><path class="a" d="M-282.731,212.673h.719a.337.337,0,0,0,.337-.337.337.337,0,0,0-.337-.337h-.719a.337.337,0,0,0-.337.337A.337.337,0,0,0-282.731,212.673Z" transform="translate(297.136 -202.65)"/><path class="a" d="M-217.762,277.014a.337.337,0,0,0,.107.017.337.337,0,0,0,.32-.231.337.337,0,0,0-.213-.426l-1.079-.36a.337.337,0,0,0-.426.213.337.337,0,0,0,.213.426Z" transform="translate(236.016 -263.772)"/><path class="a" d="M-177.761,164.014l-1.079.36a.337.337,0,0,0-.213.426.337.337,0,0,0,.32.231.337.337,0,0,0,.107-.017l1.079-.36a.337.337,0,0,0,.213-.426A.337.337,0,0,0-177.761,164.014Z" transform="translate(197.813 -156.805)"/><path class="a" d="M-226.731,5.393a.336.336,0,0,0,.238-.1l.719-.719a.337.337,0,0,0,0-.477.337.337,0,0,0-.477,0l-.719.719a.337.337,0,0,0,0,.477A.336.336,0,0,0-226.731,5.393Z" transform="translate(243.653 -3.999)"/><path class="a" d="M-154.492,308.1a.337.337,0,0,0-.477,0,.337.337,0,0,0,0,.477l.36.36a.336.336,0,0,0,.238.1.336.336,0,0,0,.238-.1.337.337,0,0,0,0-.477Z" transform="translate(174.889 -294.336)"/></g></g></svg>