<svg width="20" height="20" viewBox="0 0 20 20" fill="none" xmlns="http://www.w3.org/2000/svg">
<path d="M12.747 12.1558L10.3382 10.3492V6.66912C10.3382 6.2991 10.0391 6 9.66912 6C9.2991 6 9 6.2991 9 6.66912V10.6838C9 10.8945 9.09904 11.0933 9.26765 11.2191L11.9441 13.2264C12.0645 13.3167 12.205 13.3602 12.3449 13.3602C12.5489 13.3602 12.7497 13.2685 12.8808 13.0919C13.103 12.7968 13.0428 12.3773 12.747 12.1558Z" fill="#559572"/>
<path d="M10 2C5.58853 2 2 5.58853 2 10C2 14.4115 5.58853 18 10 18C14.4115 18 18 14.4115 18 10C18 5.58853 14.4115 2 10 2ZM10 16.7607C6.27266 16.7607 3.23934 13.7273 3.23934 10C3.23934 6.27266 6.27266 3.23934 10 3.23934C13.728 3.23934 16.7607 6.27266 16.7607 10C16.7607 13.7273 13.7273 16.7607 10 16.7607Z" fill="#559572"/>
</svg>
