<svg width="20" height="20" viewBox="0 0 20 20" fill="none" xmlns="http://www.w3.org/2000/svg">
<path d="M5.60001 5.92045V6.96086C5.60001 7.40761 5.9622 7.7698 6.40895 7.7698C6.8557 7.7698 7.21789 7.40761 7.21789 6.96086V5.92045C7.21789 4.56483 8.32074 3.46197 9.67631 3.46197C11.0319 3.46197 12.1347 4.56483 12.1347 5.92045V6.96086C12.1347 7.40761 12.4969 7.7698 12.9437 7.7698C13.3904 7.7698 13.7526 7.40761 13.7526 6.96086V5.92045C13.7526 3.67272 11.924 1.84409 9.67631 1.84409C7.42864 1.84409 5.60001 3.67272 5.60001 5.92045Z" fill="#559572"/>
<path d="M12.9437 9.77734C12.4969 9.77734 12.1347 10.1395 12.1347 10.5863V11.6267C12.1347 12.9823 11.0319 14.0852 9.67631 14.0852C8.32074 14.0852 7.21789 12.9823 7.21789 11.6267V10.5863C7.21789 10.1395 6.8557 9.77734 6.40895 9.77734C5.9622 9.77734 5.60001 10.1395 5.60001 10.5863V11.6267C5.60001 13.8744 7.42859 15.7031 9.67631 15.7031C11.924 15.7031 13.7526 13.8744 13.7526 11.6267V10.5863C13.7526 10.1395 13.3905 9.77734 12.9437 9.77734Z" fill="#559572"/>
<path d="M10.4852 10.6862V6.86112C10.4852 6.41437 10.123 6.05219 9.67628 6.05219C9.22953 6.05219 8.86734 6.41437 8.86734 6.86112V10.6862C8.86734 11.1329 9.22953 11.4951 9.67628 11.4951C10.123 11.4951 10.4852 11.1329 10.4852 10.6862Z" fill="#559572"/>
</svg>
