<svg xmlns="http://www.w3.org/2000/svg" width="17.231" height="14" viewBox="0 0 17.231 14">
  <path id="Icon_awesome-list-ul" data-name="Icon awesome-list-ul" d="M1.615,3.375A1.615,1.615,0,1,0,3.231,4.99,1.615,1.615,0,0,0,1.615,3.375Zm0,5.385a1.615,1.615,0,1,0,1.615,1.615A1.615,1.615,0,0,0,1.615,8.76Zm0,5.385A1.615,1.615,0,1,0,3.231,15.76a1.615,1.615,0,0,0-1.615-1.615Zm15.077.538H5.923a.538.538,0,0,0-.538.538V16.3a.538.538,0,0,0,.538.538H16.692a.538.538,0,0,0,.538-.538V15.221A.538.538,0,0,0,16.692,14.683Zm0-10.769H5.923a.538.538,0,0,0-.538.538V5.529a.538.538,0,0,0,.538.538H16.692a.538.538,0,0,0,.538-.538V4.452A.538.538,0,0,0,16.692,3.913Zm0,5.385H5.923a.538.538,0,0,0-.538.538v1.077a.538.538,0,0,0,.538.538H16.692a.538.538,0,0,0,.538-.538V9.837A.538.538,0,0,0,16.692,9.3Z" transform="translate(0 -3.375)" fill="#a6a6a6"/>
</svg>
