<svg width="16" height="20" viewBox="0 0 16 20" fill="none" xmlns="http://www.w3.org/2000/svg">
<path d="M15.7864 5.01563C15.9227 5.14955 16 5.33036 16 5.52009V19.2857C16 19.6808 15.675 20 15.2727 20H0.727273C0.325 20 0 19.6808 0 19.2857V0.714286C0 0.319196 0.325 0 0.727273 0H10.3795C10.5727 0 10.7591 0.0758929 10.8955 0.209821L15.7864 5.01563V5.01563ZM14.3227 5.84821L10.0455 1.64732V5.84821H14.3227ZM10.755 12.796C10.41 12.7848 10.0432 12.8109 9.62659 12.8621C9.07432 12.5275 8.7025 12.0679 8.43841 11.3926L8.46273 11.2949L8.49091 11.1792C8.58864 10.7746 8.64114 10.4792 8.65682 10.1815C8.66864 9.9567 8.65591 9.74933 8.61523 9.55714C8.54023 9.14219 8.24136 8.89955 7.86477 8.8846C7.51364 8.87054 7.19091 9.06317 7.10841 9.36161C6.97409 9.8442 7.05273 10.4792 7.3375 11.5623C6.97477 12.4116 6.49545 13.4074 6.17386 13.9627C5.74455 14.1801 5.41023 14.3779 5.12932 14.5971C4.75886 14.8866 4.5275 15.1842 4.46386 15.4967C4.43295 15.6415 4.47955 15.8308 4.58568 15.9859C4.70614 16.1618 4.8875 16.2761 5.105 16.2926C5.65386 16.3344 6.32841 15.7786 7.07318 14.5234C7.14795 14.4989 7.22705 14.473 7.32364 14.4408L7.59409 14.3511C7.76523 14.2944 7.88932 14.2538 8.01205 14.2147C8.54386 14.0446 8.94614 13.9373 9.31205 13.8761C9.94795 14.2105 10.683 14.4297 11.178 14.4297C11.5866 14.4297 11.8627 14.2217 11.9625 13.8942C12.05 13.6067 11.9807 13.2732 11.7925 13.0888C11.598 12.9011 11.2402 12.8114 10.755 12.796V12.796ZM5.11886 15.6625V15.6545L5.12182 15.6469C5.15507 15.5624 5.19776 15.4819 5.24909 15.4067C5.34636 15.2598 5.48023 15.1054 5.64614 14.9408C5.73523 14.8527 5.82795 14.7667 5.93682 14.6703C5.96114 14.6489 6.11659 14.5129 6.14568 14.4862L6.39955 14.254L6.215 14.5426C5.935 14.981 5.68182 15.2967 5.465 15.5025C5.38523 15.5783 5.315 15.6342 5.25818 15.6701C5.23942 15.6824 5.21957 15.693 5.19886 15.7018C5.18955 15.7056 5.18136 15.7078 5.17318 15.7085C5.16454 15.7096 5.15577 15.7084 5.14773 15.7051C5.13917 15.7016 5.13187 15.6957 5.12673 15.6881C5.1216 15.6805 5.11886 15.6716 5.11886 15.6625V15.6625ZM7.98114 10.7902L7.92977 10.8795L7.89796 10.7817C7.8275 10.5623 7.77568 10.2317 7.76136 9.93348C7.745 9.5942 7.7725 9.39063 7.88159 9.39063C8.03477 9.39063 8.105 9.6317 8.11045 9.99442C8.11545 10.3132 8.06432 10.6449 7.98091 10.7902H7.98114ZM7.84909 12.0951L7.88386 12.0047L7.93136 12.0895C8.19705 12.5636 8.54182 12.9592 8.92091 13.2348L9.00273 13.2942L8.90295 13.3143C8.53182 13.3897 8.18614 13.5031 7.71341 13.6904C7.76273 13.6708 7.22205 13.8882 7.08523 13.9397L6.96591 13.9846L7.02955 13.8757C7.31023 13.3958 7.56955 12.8194 7.84886 12.0951H7.84909ZM11.4314 13.7973C11.2527 13.8665 10.8682 13.8047 10.1911 13.5208L10.0193 13.4489L10.2057 13.4355C10.7352 13.3969 11.1102 13.4254 11.3289 13.504C11.422 13.5375 11.4841 13.5797 11.5116 13.6279C11.5261 13.6507 11.5309 13.6782 11.5252 13.7045C11.5194 13.7308 11.5034 13.7538 11.4807 13.7688C11.4662 13.7813 11.4495 13.7909 11.4314 13.7973V13.7973Z" fill="#626262"/>
</svg>
