<svg xmlns="http://www.w3.org/2000/svg" xmlns:xlink="http://www.w3.org/1999/xlink" width="36" height="36" viewBox="0 0 36 36">
  <defs>
    <clipPath id="clip-nepdat">
      <rect width="36" height="36"/>
    </clipPath>
  </defs>
  <g id="nepdat" clip-path="url(#clip-nepdat)">
    <g id="Group_252" data-name="Group 252" transform="translate(-293.659 -437.792)">
      <path id="Path_651" data-name="Path 651" d="M306.486,469.333c4.677,2.579,11.156,1.6,15.251-2.217a13.747,13.747,0,0,0,3.139-16.07c-2.268-4.813-7.879-8.336-12.468-7.738v1.318c0,3.765.02,7.53-.021,11.294a4.85,4.85,0,0,1-.444,1.938C310.164,461.673,308.333,465.465,306.486,469.333Zm-2.061.6,5.918-12.393c-4.5,0-8.749,0-13,0a4.6,4.6,0,0,0-.631.084C296.184,462.232,299.626,467.779,304.425,469.932Zm6.416-14.473V441.8c-8.76-.2-14.3,8.164-13.491,13.663Z" fill="#fff"/>
      <path id="Path_652" data-name="Path 652" d="M332.768,473.209c1.847-3.868,3.677-7.66,5.457-11.475a4.848,4.848,0,0,0,.444-1.937c.041-3.764.02-7.529.021-11.294v-1.318c4.589-.6,10.2,2.925,12.468,7.738a13.747,13.747,0,0,1-3.139,16.07C343.924,474.814,337.445,475.788,332.768,473.209Z" transform="translate(-26.282 -3.876)" fill="#e35163"/>
      <path id="Path_653" data-name="Path 653" d="M304.425,512.041c-4.8-2.154-8.241-7.7-7.713-12.306a4.59,4.59,0,0,1,.631-.084c4.25-.005,8.5,0,13,0Z" transform="translate(0 -42.109)" fill="#e35163"/>
      <path id="Path_654" data-name="Path 654" d="M312.48,455.459H298.989c-.807-5.5,4.732-13.865,13.491-13.663Zm-.875-.872V442.669c-7.516.352-12.138,7.507-11.754,11.918Z" transform="translate(-1.639)" fill="#e35163"/>
      <path id="Path_655" data-name="Path 655" d="M314.058,456.931H302.3c-.384-4.411,4.238-11.566,11.754-11.918Z" transform="translate(-4.093 -2.344)" fill="#fff"/>
    </g>
  </g>
</svg>
