<svg xmlns="http://www.w3.org/2000/svg" xmlns:xlink="http://www.w3.org/1999/xlink" width="32" height="32" viewBox="0 0 32 32">
  <defs>
    <clipPath id="clip-Bridge">
      <rect width="32" height="32"/>
    </clipPath>
  </defs>
  <g id="Bridge" clip-path="url(#clip-Bridge)">
    <g id="Group_254" data-name="Group 254" transform="translate(-332 -1727)">
      <path id="Path_639" data-name="Path 639" d="M358.234,1770a4.15,4.15,0,0,0-2.235.6,2.533,2.533,0,0,1-2.621,0,4.455,4.455,0,0,0-4.47,0,2.527,2.527,0,0,1-2.618,0,4.455,4.455,0,0,0-4.47,0,2.525,2.525,0,0,1-2.617,0,4.148,4.148,0,0,0-2.234-.6.967.967,0,0,0,0,1.934,2.269,2.269,0,0,1,1.308.365,4.452,4.452,0,0,0,4.469,0,2.529,2.529,0,0,1,2.618,0,4.455,4.455,0,0,0,4.47,0,2.531,2.531,0,0,1,2.619,0,4.457,4.457,0,0,0,4.471,0,2.275,2.275,0,0,1,1.31-.365.967.967,0,0,0,0-1.934Z" transform="translate(0 -19.116)" fill="#0070ab"/>
      <path id="Path_640" data-name="Path 640" d="M358.234,1762a4.148,4.148,0,0,0-2.235.6,2.533,2.533,0,0,1-2.621,0,4.455,4.455,0,0,0-4.47,0,2.527,2.527,0,0,1-2.618,0,4.455,4.455,0,0,0-4.47,0,2.525,2.525,0,0,1-2.617,0,4.148,4.148,0,0,0-2.234-.6.967.967,0,0,0,0,1.934,2.269,2.269,0,0,1,1.308.365,4.452,4.452,0,0,0,4.469,0,2.529,2.529,0,0,1,2.618,0,4.455,4.455,0,0,0,4.47,0,2.531,2.531,0,0,1,2.619,0,4.457,4.457,0,0,0,4.471,0,2.275,2.275,0,0,1,1.31-.365.967.967,0,0,0,0-1.934Z" transform="translate(0 -14.983)" fill="#0070ab"/>
      <path id="Path_641" data-name="Path 641" d="M336,1733v3.384a3.866,3.866,0,0,1,3.867,3.867v4.35h3.867v-4.35a3.867,3.867,0,0,1,7.734,0v4.35h3.867v-4.35a3.866,3.866,0,0,1,3.867-3.867V1733Z" transform="translate(0 0)" fill="#0070ab"/>
    </g>
  </g>
</svg>
