<svg xmlns="http://www.w3.org/2000/svg" xmlns:xlink="http://www.w3.org/1999/xlink" width="32" height="32" viewBox="0 0 32 32">
  <defs>
    <clipPath id="clip-government">
      <rect width="32" height="32"/>
    </clipPath>
  </defs>
  <g id="government" clip-path="url(#clip-government)">
    <g id="OBJECTS" transform="translate(-3.394 -3.343)">
      <path id="Path_1990" data-name="Path 1990" d="M29.756,17.468c-.014.086-.4.144-.6.144q-4.5.022-8.973.015H11.456c-.851,0-.851,0-.851-.88,0-.159.015-.3,0-.447-.058-.447.159-.649.577-.793,2.884-1.053,5.754-2.12,8.653-3.144V8.28a.413.413,0,0,1,.4-.4.358.358,0,0,1,.4.346h0l1.8,1.205H21.256l1.607,1.264h-2.22v1.67c2.87,1.024,5.725,2.076,8.595,3.144.231.072.577.259.591.433A6.042,6.042,0,0,1,29.756,17.468Z" transform="translate(-0.847 0)" fill="#0070ab"/>
      <path id="Path_1991" data-name="Path 1991" d="M19.384,41.427H8.928c-.755,0-1.1-.469-.778-1.142.071-.151.4-.248.617-.25,2.053-.021,4.107-.017,6.161-.017H29.863c.757,0,1.1.454.771,1.132-.077.161-.439.261-.67.263C26.438,41.431,22.911,41.427,19.384,41.427Z" transform="translate(0 -10.618)" fill="#0070ab"/>
      <path id="Path_1992" data-name="Path 1992" d="M20.234,37.661c-2.926,0-5.852-.005-8.778.006-.477,0-.788-.051-.783-.659,0-.562.177-.757.755-.755q8.839.025,17.679,0c.51,0,.75.117.753.691,0,.6-.25.727-.787.723C26.127,37.652,23.181,37.661,20.234,37.661Z" transform="translate(-0.873 -9.374)" fill="#0070ab"/>
      <path id="Path_1993" data-name="Path 1993" d="M22.3,27.552c0-.953.011-1.906-.005-2.859-.007-.4.149-.571.545-.567q1.272.012,2.545,0c.364,0,.521.153.52.524q-.011,2.982,0,5.965c0,.335-.139.492-.482.49-.871-.007-1.741-.013-2.612,0-.42.007-.527-.193-.521-.575C22.314,29.54,22.3,28.546,22.3,27.552Z" transform="translate(-4.712 -5.368)" fill="#0070ab"/>
      <path id="Path_1994" data-name="Path 1994" d="M16.851,27.657c0,.933-.017,1.866.007,2.8.012.469-.121.682-.63.661-.786-.034-1.575-.025-2.362,0-.421.012-.608-.134-.6-.569q.013-2.921,0-5.843c0-.431.192-.584.609-.575q1.18.025,2.362,0c.445-.011.638.146.627.613C16.837,25.707,16.851,26.681,16.851,27.657Z" transform="translate(-1.729 -5.368)" fill="#0070ab"/>
      <path id="Path_1995" data-name="Path 1995" d="M31.37,27.61c0-.933.018-1.866-.007-2.8-.013-.5.143-.721.67-.7.786.032,1.575.017,2.362.005.394-.006.567.159.565.554q-.008,2.922,0,5.844c0,.413-.143.6-.583.59q-1.211-.035-2.424,0c-.427.012-.6-.14-.589-.574.019-.974.006-1.948.006-2.922Z" transform="translate(-7.708 -5.364)" fill="#0070ab"/>
    </g>
  </g>
</svg>
