<svg xmlns="http://www.w3.org/2000/svg" xmlns:xlink="http://www.w3.org/1999/xlink" width="32" height="32" viewBox="0 0 32 32">
  <defs>
    <clipPath id="clip-Transportation">
      <rect width="32" height="32"/>
    </clipPath>
  </defs>
  <g id="Transportation" clip-path="url(#clip-Transportation)">
    <path id="Path_642" data-name="Path 642" d="M453.936,1733.245h-.464v-1.808a1.444,1.444,0,0,0-1.437-1.437H436.365a1.444,1.444,0,0,0-1.437,1.437v1.808h-.464a.465.465,0,0,0-.464.464v5.564a.465.465,0,0,0,.464.464h.464v7.372a1.437,1.437,0,0,0,1.391,1.432v.7a1.159,1.159,0,1,0,2.318,0v-.7h11.591v.7a1.159,1.159,0,1,0,2.318,0v-.788a1.454,1.454,0,0,0,.927-1.344v-7.372h.464a.465.465,0,0,0,.464-.464v-5.564A.465.465,0,0,0,453.936,1733.245Zm-17.618-1.391a.465.465,0,0,1,.464-.464h14.836a.465.465,0,0,1,.464.464v.464a.465.465,0,0,1-.464.464H436.782a.465.465,0,0,1-.464-.464Zm1.855,14.6a1.16,1.16,0,0,1-.7.232,1.118,1.118,0,0,1-.691-.232,1.157,1.157,0,1,1,1.386,0Zm5.1-5.8a.465.465,0,0,1-.464.464h-6.027a.465.465,0,0,1-.464-.464V1735.1a.465.465,0,0,1,.464-.464h6.027a.465.465,0,0,1,.464.464Zm1.855,0V1735.1a.465.465,0,0,1,.464-.464h6.027a.465.465,0,0,1,.464.464v5.564a.465.465,0,0,1-.464.464h-6.027A.465.465,0,0,1,445.127,1740.664Zm6.955,5.8a1.16,1.16,0,0,1-.7.232,1.118,1.118,0,0,1-.691-.232,1.157,1.157,0,1,1,1.386,0Z" transform="translate(-428 -1724)" fill="#0070ab"/>
  </g>
</svg>
