<svg xmlns="http://www.w3.org/2000/svg" xmlns:xlink="http://www.w3.org/1999/xlink" width="32" height="32" viewBox="0 0 32 32">
  <defs>
    <clipPath id="clip-education">
      <rect width="32" height="32"/>
    </clipPath>
  </defs>
  <g id="education" clip-path="url(#clip-education)">
    <path id="Path_628" data-name="Path 628" d="M23.276,14.678h5.706" transform="translate(-3.276 10.322)" fill="#3590f3"/>
    <path id="Layer_2" data-name="Layer 2" d="M18.632,0H16.373V4.517L14.68,3.952l-1.694.565V0H0V23.713H18.632a.553.553,0,0,0,.565-.536V.536A.553.553,0,0,0,18.632,0ZM3.388,21.737a.279.279,0,0,1-.282.282H1.976a.279.279,0,0,1-.282-.282V1.976a.279.279,0,0,1,.282-.282H3.105a.279.279,0,0,1,.282.282ZM14.4,12.986H7.057a.847.847,0,0,1,0-1.694H14.4a.847.847,0,1,1,0,1.694Zm0-3.388H7.057a.847.847,0,1,1,0-1.694H14.4a.847.847,0,1,1,0,1.694Z" transform="translate(6.402 4)" fill="#0070ab"/>
  </g>
</svg>
