<svg xmlns="http://www.w3.org/2000/svg" xmlns:xlink="http://www.w3.org/1999/xlink" width="32" height="32" viewBox="0 0 32 32">
  <defs>
    <clipPath id="clip-banking">
      <rect width="32" height="32"/>
    </clipPath>
  </defs>
  <g id="banking" clip-path="url(#clip-banking)">
    <g id="Layer_2" data-name="Layer 2" transform="translate(4 8)">
      <path id="Path_2002" data-name="Path 2002" d="M26.694,0H5.517A.518.518,0,0,0,5,.517v3.1h8.275a3.36,3.36,0,0,1,5.661,0h5.176a1.554,1.554,0,0,1,1.55,1.55v5.682h1.033a.518.518,0,0,0,.517-.517V.517A.518.518,0,0,0,26.694,0Z" transform="translate(-2.417)" fill="#0070ab"/>
      <path id="Path_2003" data-name="Path 2003" d="M21.694,9H.517A.518.518,0,0,0,0,9.517V19.33a.518.518,0,0,0,.517.517H21.694a.518.518,0,0,0,.517-.517V9.517A.518.518,0,0,0,21.694,9ZM3.1,16.231a1.547,1.547,0,0,1-.517-3.006,1.432,1.432,0,0,1,.517-.093,1.547,1.547,0,0,1,1.55,1.55,1.433,1.433,0,0,1-.093.517A1.533,1.533,0,0,1,3.1,16.231Zm8.006,1.55A3.352,3.352,0,0,1,7.841,15.2a3.186,3.186,0,0,1-.093-.775A3.351,3.351,0,0,1,10.6,11.107a2.7,2.7,0,0,1,.5-.041,3.352,3.352,0,0,1,3.357,3.357,3.186,3.186,0,0,1-.093.775A3.352,3.352,0,0,1,11.105,17.781Zm8.006-1.808a1.547,1.547,0,1,1,1.343-.775,1.547,1.547,0,0,1-1.343.775Z" transform="translate(0 -4.351)" fill="#0070ab"/>
    </g>
  </g>
</svg>
