<svg xmlns="http://www.w3.org/2000/svg" xmlns:xlink="http://www.w3.org/1999/xlink" width="32" height="32" viewBox="0 0 32 32">
  <defs>
    <clipPath id="clip-Open_Space">
      <rect width="32" height="32"/>
    </clipPath>
  </defs>
  <g id="Open_Space" data-name="Open Space" clip-path="url(#clip-Open_Space)">
    <g id="Group_262" data-name="Group 262" transform="translate(-251.607 -585.108)">
      <g id="Group_261" data-name="Group 261" transform="translate(255.607 591.108)">
        <path id="Path_655" data-name="Path 655" d="M255.607,611.971v-1.478h4.16v-3.926c-2.26-.916-3.108-2.892-3.6-5.058a12.147,12.147,0,0,1,.393-6.733,6.5,6.5,0,0,1,1.628-2.625,3.264,3.264,0,0,1,4.976.229,8.526,8.526,0,0,1,1.934,4.7,11.728,11.728,0,0,1-.841,6.52,5.087,5.087,0,0,1-2.926,2.953v3.9H266.1v-1.448h-1.452v-1.519h.924c.014-.2.036-.356.036-.51,0-1.022,0-2.045,0-3.067,0-1.082.179-1.264,1.242-1.264h10c.921,0,1.126.211,1.127,1.15,0,1.2,0,2.4,0,3.647l1.005.052v1.47h-1.48v1.5h2.137v1.505Zm20.329-2.951h-8.273v1.428h8.273Z" transform="translate(-255.607 -591.108)" fill="#0070ab"/>
      </g>
    </g>
  </g>
</svg>
