<svg xmlns="http://www.w3.org/2000/svg" xmlns:xlink="http://www.w3.org/1999/xlink" width="32" height="32" viewBox="0 0 32 32">
  <defs>
    <clipPath id="clip-Hotel_Restaurant">
      <rect width="32" height="32"/>
    </clipPath>
  </defs>
  <g id="Hotel_Restaurant" data-name="Hotel &amp; Restaurant" clip-path="url(#clip-Hotel_Restaurant)">
    <g id="Group_643" data-name="Group 643" transform="translate(-434.772 -432.487)">
      <path id="Path_1996" data-name="Path 1996" d="M475.25,545.435c0-.786-.008-1.481,0-2.176.011-.737.345-1,1.067-.929q4.851.492,9.7.966c.8.079,1.609.148,2.412.234a1.361,1.361,0,0,1,1.4,1.549c.005.617,0,1.234,0,1.921h-17.4c-.094,0-.188,0-.282,0-.6-.023-.962-.336-.939-.82.022-.451.382-.74.947-.743C473.167,545.432,474.178,545.435,475.25,545.435Z" transform="translate(-28.775 -92.999)" fill="#0070ab"/>
      <path id="Path_1997" data-name="Path 1997" d="M467.138,536.648h-1.682v-3.3H447.438v3.276H445.7c-.009-.193-.025-.376-.025-.559q0-5.669,0-11.338c0-.132,0-.264.01-.395a.793.793,0,0,1,.794-.792.852.852,0,0,1,.915.738,3.226,3.226,0,0,1,.014.507q0,3.131,0,6.261v.619h19.732Z" transform="translate(-6.122 -76.336)" fill="#0070ab"/>
      <path id="Path_1998" data-name="Path 1998" d="M461.836,443.133l-.934,1.874c-.219-.1-.419-.183-.613-.279-3.125-1.555-6.254-3.1-9.368-4.678a1.224,1.224,0,0,0-1.242.017c-3.1,1.562-6.211,3.1-9.319,4.646-.2.1-.4.191-.64.305l-.949-1.913c1.424-.708,2.818-1.4,4.21-2.093,2.3-1.146,4.593-2.3,6.9-3.428a1,1,0,0,1,.768-.035c3.672,1.8,7.33,3.629,10.991,5.452A2.149,2.149,0,0,1,461.836,443.133Z" transform="translate(0 0)" fill="#0070ab"/>
      <path id="Path_1999" data-name="Path 1999" d="M472.533,537.58a1.551,1.551,0,0,1-1.587-1.548,1.584,1.584,0,1,1,1.587,1.548Z" transform="translate(-28.543 -86.005)" fill="#0070ab"/>
    </g>
  </g>
</svg>
