<svg xmlns="http://www.w3.org/2000/svg" xmlns:xlink="http://www.w3.org/1999/xlink" width="32" height="32" viewBox="0 0 32 32">
  <defs>
    <clipPath id="clip-Culture">
      <rect width="32" height="32"/>
    </clipPath>
  </defs>
  <g id="Culture" clip-path="url(#clip-Culture)">
    <g id="Group_263" data-name="Group 263" transform="translate(-556.999 -177.514)">
      <path id="Path_656" data-name="Path 656" d="M563,200.132c1.591,1.16,3.042,2.235,4.521,3.267a.783.783,0,0,0,.7-.127c1.317-1.06,2.6-2.156,3.909-3.231a2.248,2.248,0,0,0,.887-1.765c.025-1.971.03-3.943.035-5.914,0-.58-.276-.968-.88-.96s-.858.4-.858.982c0,.752.037,1.505-.019,2.253-.017.229-.286.44-.44.659-.136-.212-.38-.418-.391-.637-.045-.819-.038-1.644-.006-2.465a1.606,1.606,0,0,1,1.323-1.611c.445-.1.547-.3.585-.7q.239-2.453.531-4.9c.076-.636.044-1.2-.68-1.421-.572-.175-.984.137-1.321.958-.732,1.78-1.5,3.546-2.172,5.347a6,6,0,0,0-.377,2.118c.016,1.454.168,2.906.255,4.359.068,1.13.02,1.2-.993,1.662C566.118,198.688,564.634,199.377,563,200.132Zm21,0c-1.723-.8-3.288-1.537-4.868-2.241a1.132,1.132,0,0,1-.763-1.263c.118-1.474.246-2.95.279-4.428a5.859,5.859,0,0,0-.3-2.132c-.736-1.977-1.58-3.914-2.381-5.868a.941.941,0,0,0-1.17-.652.923.923,0,0,0-.724,1.121c.19,1.773.373,3.548.6,5.317a.813.813,0,0,0,.457.543,1.787,1.787,0,0,1,1.421,1.851c.015.751.035,1.505-.022,2.252-.017.23-.281.441-.432.66-.137-.213-.375-.419-.392-.641-.053-.7-.017-1.408-.025-2.112-.008-.751-.294-1.13-.848-1.141s-.876.342-.883,1.1c-.016,1.9-.057,3.806.039,5.7a2.68,2.68,0,0,0,.747,1.671c1.318,1.233,2.743,2.352,4.146,3.491a.634.634,0,0,0,.593.036C580.951,202.362,582.405,201.293,584,200.134Z" fill="#0070ab"/>
      <path id="Path_657" data-name="Path 657" d="M563,200.132c1.635-.755,3.119-1.444,4.606-2.127,1.013-.466,1.06-.531.993-1.662-.087-1.453-.239-2.905-.255-4.359a6,6,0,0,1,.377-2.118c.673-1.8,1.44-3.567,2.172-5.347.337-.821.749-1.133,1.321-.958.724.222.756.785.68,1.421q-.29,2.447-.531,4.9c-.039.4-.141.606-.585.7a1.606,1.606,0,0,0-1.323,1.611c-.033.821-.039,1.645.006,2.465.012.219.255.425.391.637.154-.22.422-.43.44-.659.056-.747.019-1.5.019-2.253,0-.578.254-.975.858-.982s.881.38.88.96c-.005,1.971-.01,3.943-.035,5.914a2.248,2.248,0,0,1-.887,1.765c-1.3,1.074-2.592,2.171-3.909,3.231a.783.783,0,0,1-.7.127C566.041,202.367,564.59,201.292,563,200.132Z" fill="#0070ab"/>
      <path id="Path_658" data-name="Path 658" d="M588.847,200.135c-1.593,1.158-3.048,2.228-4.523,3.267a.634.634,0,0,1-.593-.036c-1.4-1.139-2.828-2.258-4.146-3.491a2.68,2.68,0,0,1-.747-1.671c-.1-1.9-.055-3.8-.039-5.7.006-.757.326-1.11.883-1.1s.84.39.848,1.141c.008.7-.028,1.411.025,2.112.017.222.255.428.392.641.151-.22.415-.43.432-.66.057-.747.037-1.5.022-2.252a1.787,1.787,0,0,0-1.421-1.851.813.813,0,0,1-.457-.543c-.224-1.769-.406-3.544-.6-5.317a.923.923,0,0,1,.724-1.121.941.941,0,0,1,1.17.652c.8,1.953,1.645,3.891,2.381,5.868a5.859,5.859,0,0,1,.3,2.132c-.033,1.478-.161,2.954-.279,4.428a1.132,1.132,0,0,0,.763,1.263C585.559,198.6,587.124,199.339,588.847,200.135Z" transform="translate(-4.848 -0.001)" fill="#0070ab"/>
    </g>
  </g>
</svg>
