<svg width="8" height="8" viewBox="0 0 8 8" fill="none" xmlns="http://www.w3.org/2000/svg">
<path d="M1.08333 6.91668H1.66667L5.26042 3.32293L4.67708 2.73959L1.08333 6.33334V6.91668ZM7.04167 2.71876L5.27083 0.96876L5.85417 0.385427C6.01389 0.225705 6.21014 0.145844 6.44292 0.145844C6.67542 0.145844 6.87153 0.225705 7.03125 0.385427L7.61458 0.96876C7.7743 1.12848 7.85764 1.32126 7.86458 1.54709C7.87153 1.77265 7.79514 1.96529 7.63542 2.12501L7.04167 2.71876ZM0.666667 7.75001C0.548611 7.75001 0.449722 7.71001 0.37 7.63001C0.29 7.55029 0.25 7.4514 0.25 7.33334V6.15626C0.25 6.1007 0.260417 6.04695 0.28125 5.99501C0.302083 5.94279 0.333333 5.89584 0.375 5.85418L4.66667 1.56251L6.4375 3.33334L2.14583 7.62501C2.10417 7.66668 2.05736 7.69793 2.00542 7.71876C1.95319 7.73959 1.89931 7.75001 1.84375 7.75001H0.666667ZM4.96875 3.03126L4.67708 2.73959L5.26042 3.32293L4.96875 3.03126Z" fill="white"/>
</svg>
