<svg width="20" height="22" viewBox="0 0 20 22" fill="none" xmlns="http://www.w3.org/2000/svg">
<path d="M6.40901 1.41665L7.33408 3.59701C7.73637 4.54682 7.51264 5.66444 6.78119 6.35932L4.74281 8.29336C4.86866 9.45077 5.25805 10.5899 5.9099 11.7118C6.52905 12.7958 7.35934 13.7446 8.35165 14.5021L10.7999 13.6857C11.7282 13.3769 12.7382 13.7319 13.3062 14.5677L14.6324 16.5146C15.294 17.487 15.1746 18.8273 14.3538 19.6523L13.475 20.5344C12.5994 21.4143 11.3484 21.7327 10.1921 21.3723C7.45993 20.5204 4.95041 17.9905 2.65925 13.7846C0.36486 9.57232 -0.445114 5.99789 0.230402 3.06241C0.514377 1.82755 1.39319 0.843319 2.542 0.476518L3.69941 0.106491C4.78476 -0.239873 5.94432 0.320547 6.40901 1.41665ZM14.7787 0.00752973L14.8885 0.00107571C15.0834 0.00108393 15.2718 0.071685 15.4187 0.199823C15.5656 0.32796 15.6612 0.504966 15.6877 0.698105L15.6952 0.807822V4.30803H19.1933C19.3884 4.30807 19.5769 4.37882 19.7238 4.50718C19.8707 4.63554 19.9662 4.8128 19.9925 5.00613L20 5.11585C20 5.3108 19.9294 5.49915 19.8013 5.64608C19.6731 5.793 19.4961 5.88855 19.303 5.91507L19.1933 5.9226H15.6952V9.41635C15.6952 9.6113 15.6246 9.79965 15.4965 9.94658C15.3683 10.0935 15.1913 10.1891 14.9982 10.2156L14.8885 10.2231C14.6935 10.2231 14.5051 10.1525 14.3582 10.0243C14.2113 9.89621 14.1157 9.7192 14.0892 9.52606L14.0817 9.41635V5.92152H10.5837C10.3889 5.92155 10.2006 5.8511 10.0537 5.72318C9.90684 5.59526 9.81119 5.41851 9.78444 5.22557L9.77691 5.11585C9.77695 4.92074 9.8477 4.73225 9.97606 4.58531C10.1044 4.43836 10.2817 4.34291 10.475 4.31663L10.5837 4.30803H14.0817V0.806747C14.0817 0.611796 14.1523 0.423443 14.2805 0.27652C14.4086 0.129597 14.5856 0.034043 14.7787 0.00752973L14.8885 0L14.7787 0.00752973Z" fill="#E35163"/>
</svg>
