<svg width="20" height="20" viewBox="0 0 20 20" fill="none" xmlns="http://www.w3.org/2000/svg">
<path d="M10.0135 0.000976562C11.9912 0.00428708 13.9235 0.594459 15.5658 1.69679C17.2082 2.79913 18.4868 4.36409 19.2397 6.19363C19.9927 8.02317 20.1863 10.0351 19.7959 11.9747C19.4056 13.9143 18.4489 15.6945 17.0469 17.09C15.6448 18.4855 13.8605 19.4335 11.9197 19.8142C9.97896 20.1948 7.96892 19.9909 6.144 19.2283C4.31908 18.4657 2.7613 17.1787 1.6678 15.53C0.574293 13.8814 -0.0057834 11.9453 0.000973898 9.9668C0.0192095 7.32053 1.08156 4.78859 2.95677 2.92212C4.83199 1.05564 7.36824 0.00575037 10.0135 0.000976562ZM9.99181 18.1235C11.5971 18.1252 13.1668 17.6509 14.5027 16.7606C15.8387 15.8702 16.881 14.6038 17.4979 13.1212C18.1149 11.6387 18.2789 10.0064 17.9691 8.43071C17.6594 6.85497 16.8898 5.4064 15.7576 4.26794C14.6255 3.12948 13.1815 2.3522 11.608 2.03426C10.0345 1.71632 8.40216 1.87198 6.91707 2.48159C5.43198 3.0912 4.16076 4.12742 3.26398 5.45936C2.3672 6.7913 1.88506 8.35924 1.87847 9.96514C1.87316 12.1233 2.72492 14.1952 4.24642 15.7251C5.76792 17.2551 7.83456 18.1178 9.99181 18.1235Z" fill="#518F6D"/>
<path d="M16.2283 10.0042C16.2276 11.2377 15.8612 12.4433 15.1753 13.4685C14.4895 14.4936 13.5151 15.2921 12.3754 15.763C11.2357 16.2339 9.98205 16.3559 8.77302 16.1137C7.56398 15.8715 6.45394 15.2759 5.58339 14.4023C4.71285 13.5287 4.12092 12.4164 3.88253 11.2061C3.64414 9.9958 3.77001 8.74199 4.24419 7.6033C4.71838 6.46462 5.51958 5.49225 6.54638 4.80927C7.57318 4.1263 8.77943 3.76343 10.0125 3.76656C11.6615 3.77557 13.2402 4.43624 14.4045 5.60461C15.5688 6.77299 16.2244 8.35437 16.2283 10.0042ZM10.0033 14.361C10.8671 14.3597 11.711 14.1017 12.4279 13.6197C13.1448 13.1377 13.7023 12.4534 14.0296 11.6537C14.357 10.854 14.4394 9.97504 14.2663 9.12842C14.0933 8.2818 13.6727 7.50573 13.0579 6.89877C12.443 6.2918 11.6618 5.88133 10.8133 5.71948C9.96482 5.55763 9.0874 5.6517 8.29247 5.98975C7.49753 6.32781 6.82097 6.89459 6.34869 7.61811C5.87641 8.34163 5.62971 9.18927 5.63995 10.0533C5.65334 11.2019 6.11907 12.2988 6.936 13.106C7.75293 13.9131 8.85513 14.3652 10.0033 14.3643V14.361Z" fill="#518F6D"/>
<path d="M9.99163 12.5211C9.49326 12.5202 9.00635 12.3715 8.59253 12.0937C8.17871 11.8159 7.85659 11.4215 7.66695 10.9604C7.4773 10.4993 7.42866 9.99235 7.52718 9.50362C7.6257 9.01489 7.86695 8.5664 8.2204 8.21491C8.57384 7.86342 9.02359 7.62474 9.51269 7.5291C10.0018 7.43345 10.5083 7.48513 10.968 7.6776C11.4277 7.87007 11.82 8.19469 12.0953 8.61033C12.3705 9.02597 12.5163 9.51394 12.5141 10.0125C12.508 10.6785 12.2398 11.3153 11.7676 11.7848C11.2955 12.2544 10.6574 12.5189 9.99163 12.5211Z" fill="#518F6D"/>
</svg>
