<svg xmlns="http://www.w3.org/2000/svg" width="24" height="23.99" viewBox="0 0 24 23.99"><defs><style>.a{opacity:0.87;}.b{fill:#fff;}</style></defs><g class="a" transform="translate(-53.31 -237.761)"><path class="b" d="M65.326,237.762a11.995,11.995,0,1,1-12.015,11.954A12.037,12.037,0,0,1,65.326,237.762ZM65.3,259.5a9.746,9.746,0,1,0-9.736-9.786A9.762,9.762,0,0,0,65.3,259.5Z" transform="translate(0 0)"/><path class="b" d="M141.089,318.07a7.478,7.478,0,1,1-7.459-7.482A7.5,7.5,0,0,1,141.089,318.07Zm-7.47,5.226a5.229,5.229,0,1,0-5.236-5.167A5.232,5.232,0,0,0,133.619,323.3Z" transform="translate(-68.305 -68.309)"/><path class="b" d="M202.078,389.559a3.022,3.022,0,1,1,3.027-3.009A3.037,3.037,0,0,1,202.078,389.559Z" transform="translate(-136.778 -136.779)"/></g></svg>