<svg xmlns="http://www.w3.org/2000/svg" xmlns:xlink="http://www.w3.org/1999/xlink" width="32" height="32" viewBox="0 0 32 32">
  <defs>
    <clipPath id="clip-roadway">
      <rect width="32" height="32"/>
    </clipPath>
  </defs>
  <g id="roadway" clip-path="url(#clip-roadway)">
    <g id="Group_47280" data-name="Group 47280" transform="translate(15.107 -1688.399)">
      <path id="Path_94939" data-name="Path 94939" d="M10.669,1693.877h1.81v4.118a10.367,10.367,0,0,0,0,17.92v1.131H-10.675c-.007-.055-.013-.077-.013-.1a22.728,22.728,0,0,1,8.164-17.993,21.449,21.449,0,0,1,6.429-3.7,21.95,21.95,0,0,1,5.98-1.295C10.147,1693.941,10.407,1693.905,10.669,1693.877Zm-6.028,6.267,2.129-1.468-.664-1.179-2.33,1.608Zm-3.3,3.973,1.463-2.13-1.04-.865-1.6,2.336Zm-2.3,1.96a14.327,14.327,0,0,0-.648,2.751l1.287.178.6-2.509Zm-.84,5.592.371,2.805c.43-.1.793-.194,1.161-.261.168-.031.187-.1.159-.245-.064-.332-.13-.665-.175-1-.059-.445-.1-.893-.147-1.361Zm10.945-14.054,2.514-.6-.2-1.336-2.755.66Z" transform="translate(0 0)" fill="#0070ab"/>
    </g>
  </g>
</svg>
