<svg xmlns="http://www.w3.org/2000/svg" width="50" height="50" viewBox="0 0 50 50">
  <g id="OBJECTS">
    <g>
      <path d="M14.131,30.59a3.167,3.167,0,0,0,1.553-2.485,2.983,2.983,0,0,0-1.863-2.794V21.584L25,26.553l17.079-7.764L25,11.026,7.921,18.789l3.726,1.553v4.969a2.983,2.983,0,0,0-1.863,2.794,3.167,3.167,0,0,0,1.553,2.485L9.784,35.869c-.932,3.1,1.553,3.1,1.553,3.1h3.105s2.484,0,1.553-3.1Z" fill="#3c64bc"/>
      <path d="M18.789,27.174v.931a6.511,6.511,0,0,1-1.242,3.416,8.976,8.976,0,0,1,1.242,4.348v1.863A16.9,16.9,0,0,0,25,38.974c7.763,0,10.869-4.658,10.869-4.658V25L25,29.969Z" fill="#3c64bc"/>
    </g>
  </g>
</svg>
