<svg width="20" height="20" viewBox="0 0 20 20" fill="none" xmlns="http://www.w3.org/2000/svg">
<path d="M11.5 3C8.4673 3 6 5.46726 6 8.5C6 11.5327 8.4673 14 11.5 14C14.5327 14 17 11.5327 17 8.5C17 5.46726 14.5327 3 11.5 3ZM13.3492 5.39875L14.0665 4.88441C14.5127 5.20202 14.8975 5.60019 15.2003 6.05729L13.8815 6.46795C13.4921 6.58916 13.0968 6.29819 13.0968 5.89034C13.0968 5.69539 13.1908 5.51236 13.3492 5.39875ZM7.51768 10.4516C7.22771 9.86233 7.06452 9.19992 7.06452 8.5C7.06452 7.6558 7.30165 6.866 7.7127 6.19355H9.01613C9.11396 6.19355 9.19355 6.27314 9.19355 6.37097V6.72581C9.19355 7.41061 9.75068 7.96774 10.4355 7.96774C10.729 7.96774 10.9677 8.20651 10.9677 8.5C10.9677 8.79349 10.729 9.03226 10.4355 9.03226C9.75068 9.03226 9.19355 9.58939 9.19355 10.2742C9.19355 10.372 9.11396 10.4516 9.01613 10.4516H7.51768ZM12.0323 12.9034V12.0484C12.0323 11.9506 12.1118 11.871 12.2097 11.871C13.0901 11.871 13.8065 11.1547 13.8065 10.2742C13.8065 9.98071 14.0452 9.74194 14.3387 9.74194H15.7583C15.268 11.4203 13.8103 12.6898 12.0323 12.9034ZM14.3387 8.67742C13.4582 8.67742 12.7419 9.39373 12.7419 10.2742C12.7419 10.5677 12.5032 10.8065 12.2097 10.8065C11.5249 10.8065 10.9677 11.3636 10.9677 12.0484V12.9034C9.89993 12.7752 8.94772 12.266 8.25106 11.5161H9.01613C9.70093 11.5161 10.2581 10.959 10.2581 10.2742C10.2581 10.1764 10.3377 10.0968 10.4355 10.0968C11.3159 10.0968 12.0323 9.38046 12.0323 8.5C12.0323 7.61954 11.3159 6.90323 10.4355 6.90323C10.3377 6.90323 10.2581 6.82364 10.2581 6.72581V6.37097C10.2581 5.68616 9.70093 5.12903 9.01616 5.12903H8.6207C9.39609 4.46573 10.402 4.06452 11.5 4.06452C12.0309 4.06452 12.5404 4.15841 13.0126 4.33025L12.7289 4.53365C12.2916 4.84718 12.0323 5.35226 12.0323 5.89034C12.0323 7.01589 13.1234 7.81892 14.198 7.48431L15.682 7.02224C15.846 7.4847 15.9355 7.98204 15.9355 8.5C15.9355 8.55944 15.934 8.61855 15.9316 8.67742H14.3387Z" fill="#559572"/>
<path d="M16.7861 3.21386C15.3585 1.78623 13.4604 1 11.4414 1C9.42247 1 7.52435 1.78623 6.09669 3.21386C4.66907 4.64148 3.88283 6.5396 3.88283 8.55858C3.88283 9.91586 4.23869 11.2183 4.90535 12.3601L1.56544 15.7C0.811519 16.454 0.811519 17.6806 1.56544 18.4346C2.31937 19.1885 3.54604 19.1885 4.29996 18.4346L7.63987 15.0946C8.78171 15.7613 10.0841 16.1172 11.4414 16.1172C13.4604 16.1172 15.3585 15.3309 16.7861 13.9033C18.2138 12.4757 19 10.5776 19 8.55858C19 6.5396 18.2138 4.64148 16.7861 3.21386ZM3.55419 17.6888C3.21149 18.0315 2.65391 18.0315 2.31125 17.6888C1.96854 17.3461 1.96854 16.7885 2.31125 16.4458L5.51109 13.246C5.69236 13.4744 5.88744 13.694 6.09669 13.9033C6.30598 14.1126 6.52563 14.3076 6.75404 14.4889L3.55419 17.6888ZM11.4414 15.0625C7.85517 15.0625 4.93752 12.1449 4.93752 8.55858C4.93752 4.9723 7.85517 2.05469 11.4414 2.05469C15.0277 2.05469 17.9453 4.9723 17.9453 8.55858C17.9453 12.1449 15.0277 15.0625 11.4414 15.0625Z" fill="#559572"/>
</svg>
