<svg width="17" height="20" viewBox="0 0 17 20" fill="none" xmlns="http://www.w3.org/2000/svg">
<path d="M17 12.8001C17 12.1636 16.7313 11.5531 16.2531 11.1031C15.7749 10.653 15.1263 10.4001 14.45 10.4001H2.55C1.8737 10.4001 1.2251 10.653 0.746878 11.1031C0.26866 11.5531 0 12.1636 0 12.8001V13.6001C0 16.7536 3.162 20 8.5 20C13.838 20 17 16.7536 17 13.6001V12.8001ZM13.175 4.40022C13.1751 3.45167 12.8494 2.52849 12.2466 1.76831C11.6438 1.00812 10.7961 0.451632 9.82992 0.181792C8.86371 -0.0880486 7.83072 -0.0567902 6.88492 0.270907C5.93913 0.598605 5.13117 1.20519 4.5815 2.00025H1.7C1.47457 2.00025 1.25837 2.08454 1.09896 2.23456C0.939554 2.38459 0.85 2.58807 0.85 2.80024V6.0002C0.85 6.0258 0.85 6.0498 0.8534 6.07379H0.85V7.60017C0.85 8.23668 1.11866 8.84712 1.59688 9.29721C2.0751 9.74729 2.7237 10.0001 3.4 10.0001H4.0579C4.2331 10 4.40544 9.95836 4.55899 9.87897C4.71254 9.79958 4.84235 9.68503 4.93641 9.54592C5.03047 9.40681 5.08575 9.24763 5.09713 9.08309C5.10852 8.91855 5.07564 8.75396 5.00155 8.60455C4.92745 8.45513 4.81452 8.32571 4.67321 8.22824C4.53189 8.13078 4.36675 8.06842 4.19305 8.04693C4.01934 8.02544 3.84269 8.04552 3.67941 8.1053C3.51613 8.16508 3.37151 8.26264 3.2589 8.38896C3.06074 8.35757 2.8808 8.26111 2.75102 8.11671C2.62125 7.97231 2.55003 7.7893 2.55 7.60017V6.80018H2.975C3.4799 6.80018 3.9508 6.66099 4.3469 6.42259C4.82807 7.2988 5.60808 7.99743 6.56174 8.40636C7.5154 8.81529 8.58739 8.91078 9.60564 8.67752C10.6239 8.44426 11.5293 7.89576 12.1766 7.12009C12.8239 6.34441 13.1755 5.38653 13.175 4.40022V4.40022ZM3.825 4.40022C3.825 4.61239 3.73545 4.81587 3.57604 4.9659C3.41663 5.11592 3.20043 5.20021 2.975 5.20021H2.55V3.60023H3.825V4.40022Z" fill="#626262"/>
</svg>
