<?xml version="1.0" encoding="utf-8"?>
<!-- Generator: Adobe Illustrator 25.0.0, SVG Export Plug-In . SVG Version: 6.00 Build 0)  -->
<svg version="1.1" id="Layer_1" xmlns="http://www.w3.org/2000/svg" xmlns:xlink="http://www.w3.org/1999/xlink" x="0px" y="0px"
	 viewBox="0 0 50 50" style="enable-background:new 0 0 50 50;" xml:space="preserve">
<style type="text/css">
	.st0{fill:#FFFFFF;}
	.st1{filter:url(#Adobe_OpacityMaskFilter);}
	.st2{mask:url(#mask_1_);}
	.st3{fill:#111010;}
	.st4{fill:#1664C1;}
</style>
<circle class="st0" cx="25.4" cy="19.5" r="12.9"/>
<g id="OBJECTS">
	<g>
		<defs>
			<filter id="Adobe_OpacityMaskFilter" filterUnits="userSpaceOnUse" x="24.5" y="43.7" width="3.2" height="3.2">
				<feColorMatrix  type="matrix" values="1 0 0 0 0  0 1 0 0 0  0 0 1 0 0  0 0 0 1 0"/>
			</filter>
		</defs>
		<mask maskUnits="userSpaceOnUse" x="24.5" y="43.7" width="3.2" height="3.2" id="mask_1_">
			<g class="st1">
				
					<image style="overflow:visible;enable-background:new    ;" width="37" height="48" xlink:href="81DF675B.png"  transform="matrix(1 0 0 1 7.329 1.548)">
				</image>
			</g>
		</mask>
		<g class="st2">
			<g>
				<path class="st3" d="M26.1,43.7c-0.9,0-1.6,0.7-1.6,1.6s0.7,1.6,1.6,1.6c0.9,0,1.6-0.7,1.6-1.6c0,0,0,0,0,0
					C27.7,44.4,27,43.7,26.1,43.7z"/>
			</g>
		</g>
		<path class="st4" d="M25,3.5c-8.7,0-15.8,7.1-15.8,15.8c0,6.9,4.5,13,11.1,15.1l3.3,5.7c0.4,0.7,1.3,0.9,2,0.5
			c0.2-0.1,0.4-0.3,0.5-0.5l3.3-5.7c8.4-2.4,13.2-11.2,10.8-19.6C38.3,8.1,32.1,3.5,25,3.5L25,3.5z M25,31.4
			C18.4,31.4,13,26,13,19.3S18.4,7.2,25,7.2c6.7,0,12.1,5.4,12.1,12.1c0,0,0,0,0,0C37.1,26,31.7,31.4,25,31.4z M26.6,44.6
			c0,0.9-0.7,1.6-1.6,1.6c-0.9,0-1.6-0.7-1.6-1.6c0-0.9,0.7-1.6,1.6-1.6c0,0,0,0,0,0C25.9,43,26.6,43.7,26.6,44.6z"/>
	</g>
	<g>
		<path class="st4" d="M18.9,26h-0.7c-0.1,0-0.2-0.1-0.2-0.2l0,0c0-2.4,0-4.9,0-7.3c0-0.1,0-0.2,0-0.3c0-0.4,0.2-0.6,0.6-0.6
			c0.3,0,0.6,0.3,0.6,0.6c0,0,0,0,0,0.1c0,1.3,0,2.6,0,4v0.5h12.2c0.2,0,0.3,0.1,0.3,0.3c0,0,0,0,0,0v2.4c0,0.3-0.2,0.5-0.5,0.5l0,0
			l0,0c-0.3,0-0.6-0.3-0.6-0.6c0,0,0,0,0,0v-1.3c0-0.1-0.1-0.3-0.3-0.3H19.4c-0.1,0-0.2,0.1-0.2,0.2l-0.1,1.8
			C19.1,25.9,19,26,18.9,26z"/>
		<path class="st4" d="M17.6,15.3c1.7-0.8,3.4-1.7,5.1-2.5c0.7-0.3,1.3-0.7,2-1c0.1-0.1,0.3-0.1,0.5,0c2.3,1.1,4.7,2.3,7,3.5
			c0,0,0.1,0.1,0.1,0.1l-0.6,1.2c-0.1-0.1-0.3-0.1-0.4-0.2c-2-1-4-2-6-3c-0.2-0.1-0.4-0.1-0.6,0c-2,1-4,2-6,3
			c-0.1,0.1-0.2,0.1-0.4,0.2l-0.6-1.1L17.6,15.3z"/>
		<path class="st4" d="M31.7,21.2C31.7,21.2,31.7,21.2,31.7,21.2c0,0.5-0.3,0.7-0.7,0.7H20.7c-0.1,0-0.2,0-0.3,0
			c-0.3,0-0.5-0.2-0.4-0.5c0,0,0,0,0,0c0-0.3,0.2-0.5,0.4-0.5c0,0,0,0,0.1,0c0.5,0,0.9,0,1.4,0c0.4,0,0.6-0.3,0.6-0.6c0,0,0,0,0,0v0
			c0-0.7,0.5-1.2,1.2-1.3c0.1,0,0.1,0,0.2,0c1.3,0.1,2.7,0.3,4,0.4c0.9,0.1,1.7,0.2,2.6,0.3c0.2,0,0.4,0,0.6,0.1
			c0.3,0,0.6,0.3,0.7,0.6C31.7,20.6,31.7,20.9,31.7,21.2z"/>
		<path class="st4" d="M21.9,19.4c0,0.6-0.5,1-1,1c-0.6,0-1-0.5-1-1c0-0.6,0.5-1,1-1C21.4,18.4,21.9,18.8,21.9,19.4
			C21.9,19.4,21.9,19.4,21.9,19.4z"/>
	</g>
</g>
</svg>
