<svg xmlns="http://www.w3.org/2000/svg" width="50" height="50" viewBox="0 0 50 50">
  <g id="OBJECTS">
    <g>
      <path d="M11.26,41.4H9.65a.5.5,0,0,1-.5-.5q-.007-8.44,0-16.882c0-.2-.007-.4,0-.593.052-.913.552-1.453,1.327-1.439a1.321,1.321,0,0,1,1.275,1.487c.009,3.053,0,6.106,0,9.159v1.263H40.068a.722.722,0,0,1,.722.722v5.575a1.2,1.2,0,0,1-1.2,1.2h0a1.341,1.341,0,0,1-1.341-1.341V37.061a.6.6,0,0,0-.595-.595H12.326a.507.507,0,0,0-.508.494l-.2,4.1A.357.357,0,0,1,11.26,41.4Z" fill="#3c64bc"/>
      <path d="M8.035,16.808q5.922-2.918,11.843-5.837c1.517-.749,3.02-1.531,4.554-2.244a1.421,1.421,0,0,1,1.08-.03q8.1,3.974,16.159,8.008a3.124,3.124,0,0,1,.294.2l-1.384,2.8c-.346-.161-.645-.294-.939-.44-4.651-2.308-9.306-4.608-13.945-6.942a1.379,1.379,0,0,0-1.4.014q-6.961,3.492-13.945,6.941c-.276.137-.557.265-.861.409L8.035,17.148Z" fill="#3c64bc"/>
      <path d="M40.8,30.3a.391.391,0,0,1,0,.2,1.612,1.612,0,0,1-1.627,1.529H15.234A3.919,3.919,0,0,1,14.477,32a1.106,1.106,0,0,1-1.035-1.217A1.057,1.057,0,0,1,14.609,29.7c1.085-.016,2.17,0,3.305,0a1.471,1.471,0,0,0,1.463-1.48v-.049a2.842,2.842,0,0,1,3.173-2.877q4.686.444,9.372.92c1.989.2,4,.395,5.985.609a9.394,9.394,0,0,1,1.348.164A1.731,1.731,0,0,1,40.768,28.4,18.236,18.236,0,0,1,40.8,30.3Z" fill="#3c64bc"/>
      <path d="M18.044,26.186a2.345,2.345,0,0,1-2.344,2.3,2.389,2.389,0,0,1-2.353-2.4,2.42,2.42,0,0,1,2.37-2.309A2.367,2.367,0,0,1,18.044,26.186Z" fill="#3c64bc"/>
    </g>
  </g>
</svg>
