<svg xmlns="http://www.w3.org/2000/svg" xmlns:xlink="http://www.w3.org/1999/xlink" width="171" height="171" viewBox="0 0 171 171">
  <defs>
    <clipPath id="clip-trade">
      <rect width="171" height="171"/>
    </clipPath>
  </defs>
  <g id="trade" clip-path="url(#clip-trade)">
    <g id="Group_18233" data-name="Group 18233" transform="translate(-26.5 -1418.302)">
      <path id="Path_36884" data-name="Path 36884" d="M159.81,1448.715a2.771,2.771,0,0,0-2.563-1.715H64.086a2.767,2.767,0,0,0-2.613,1.848l-12.061,34.173H173.936Z" transform="translate(2.5)" fill="#3c64bc"/>
      <path id="Path_36885" data-name="Path 36885" d="M140.667,1474.729a16.529,16.529,0,0,1-11.083-4.27,16.52,16.52,0,0,1-22.167,0,16.52,16.52,0,0,1-22.167,0,16.52,16.52,0,0,1-22.167,0A16.529,16.529,0,0,1,52,1474.729v44.333H63.083v-27.708a5.543,5.543,0,0,1,5.542-5.542H79.708a5.543,5.543,0,0,1,5.542,5.542v27.708h77.583v-44.333a16.529,16.529,0,0,1-11.083-4.27A16.529,16.529,0,0,1,140.667,1474.729Z" transform="translate(7.083 41.542)" fill="#3c64bc"/>
      <path id="Path_36886" data-name="Path 36886" d="M178.72,1462H49.956L48,1467.542v5.542a11.083,11.083,0,1,0,22.167,0,11.083,11.083,0,1,0,22.167,0,11.083,11.083,0,1,0,22.167,0,11.083,11.083,0,1,0,22.167,0,11.083,11.083,0,1,0,22.167,0,11.083,11.083,0,1,0,22.167,0v-5.542Z" transform="translate(0 26.563)" fill="#3c64bc"/>
    </g>
  </g>
</svg>
