<svg xmlns="http://www.w3.org/2000/svg" xmlns:xlink="http://www.w3.org/1999/xlink" width="171" height="171" viewBox="0 0 171 171">
  <defs>
    <clipPath id="clip-transport">
      <rect width="171" height="171"/>
    </clipPath>
  </defs>
  <g id="transport" clip-path="url(#clip-transport)">
    <g id="bus" transform="translate(30.5 30.5)">
      <g id="Group_18240" data-name="Group 18240" transform="translate(0 32.083)">
        <g id="Group_18239" data-name="Group 18239">
          <path id="Path_36899" data-name="Path 36899" d="M11.458,167.667v-13.75a2.292,2.292,0,0,0,0-4.583A11.471,11.471,0,0,0,0,160.792v4.583a6.883,6.883,0,0,0,6.875,6.875h4.583a2.292,2.292,0,1,0,0-4.583Z" transform="translate(0 -149.333)" fill="#1664c1"/>
        </g>
      </g>
      <g id="Group_18242" data-name="Group 18242" transform="translate(96.25 32.083)">
        <g id="Group_18241" data-name="Group 18241">
          <path id="Path_36900" data-name="Path 36900" d="M450.292,149.333a2.292,2.292,0,0,0,0,4.584v13.75a2.292,2.292,0,1,0,0,4.583h4.583a6.883,6.883,0,0,0,6.875-6.875v-4.583A11.471,11.471,0,0,0,450.292,149.333Z" transform="translate(-448 -149.333)" fill="#1664c1"/>
        </g>
      </g>
      <g id="Group_18244" data-name="Group 18244" transform="translate(18.333 96.25)">
        <g id="Group_18243" data-name="Group 18243">
          <path id="Path_36901" data-name="Path 36901" d="M105.957,448a2.293,2.293,0,0,0-2.292,2.292H89.915a2.292,2.292,0,0,0-4.583,0v4.583a6.883,6.883,0,0,0,6.875,6.875h9.167a6.883,6.883,0,0,0,6.875-6.875v-4.583A2.293,2.293,0,0,0,105.957,448Z" transform="translate(-85.332 -448)" fill="#1664c1"/>
        </g>
      </g>
      <g id="Group_18246" data-name="Group 18246" transform="translate(68.75 96.25)">
        <g id="Group_18245" data-name="Group 18245">
          <path id="Path_36902" data-name="Path 36902" d="M340.625,448a2.293,2.293,0,0,0-2.292,2.292h-13.75a2.292,2.292,0,1,0-4.583,0v4.583a6.883,6.883,0,0,0,6.875,6.875h9.167a6.883,6.883,0,0,0,6.875-6.875v-4.583A2.293,2.293,0,0,0,340.625,448Z" transform="translate(-320 -448)" fill="#1664c1"/>
        </g>
      </g>
      <g id="Group_18248" data-name="Group 18248" transform="translate(9.167)">
        <g id="Group_18247" data-name="Group 18247">
          <path id="Path_36903" data-name="Path 36903" d="M122.875,0H54.125A11.471,11.471,0,0,0,42.667,11.458V89.375a11.471,11.471,0,0,0,11.458,11.458h68.75a11.471,11.471,0,0,0,11.458-11.458V11.458A11.471,11.471,0,0,0,122.875,0ZM63.292,9.167h50.417a6.875,6.875,0,0,1,0,13.75H63.292a6.875,6.875,0,1,1,0-13.75Zm0,77.917a6.875,6.875,0,1,1,6.875-6.875A6.883,6.883,0,0,1,63.292,87.083Zm50.417,0a6.875,6.875,0,1,1,6.875-6.875A6.883,6.883,0,0,1,113.709,87.083Zm11.458-29.792a6.883,6.883,0,0,1-6.875,6.875H58.709a6.883,6.883,0,0,1-6.875-6.875V34.375A6.883,6.883,0,0,1,58.709,27.5h59.583a6.883,6.883,0,0,1,6.875,6.875V57.292Z" transform="translate(-42.667)" fill="#1664c1"/>
        </g>
      </g>
    </g>
  </g>
</svg>
