<svg xmlns="http://www.w3.org/2000/svg" xmlns:xlink="http://www.w3.org/1999/xlink" width="171" height="171" viewBox="0 0 171 171">
  <defs>
    <clipPath id="clip-transport_marker">
      <rect width="171" height="171"/>
    </clipPath>
  </defs>
  <g id="transport_marker" clip-path="url(#clip-transport_marker)">
    <g id="Group_18236" data-name="Group 18236" transform="translate(19.994 6.017)">
      <circle id="Ellipse_421" data-name="Ellipse 421" cx="45.91" cy="45.91" r="45.91" transform="translate(20.942 14.533)" fill="#fff"/>
      <g id="OBJECTS" transform="translate(9.201 3.5)">
        <path id="Path_36891" data-name="Path 36891" d="M65.428,3.5A56.263,56.263,0,0,0,48.7,113.471l11.744,20.286a5.182,5.182,0,0,0,7.107,1.787l.011-.007a4.289,4.289,0,0,0,1.779-1.779l11.744-20.286A56.056,56.056,0,0,0,65.428,3.5Zm0,99.293a43.063,43.063,0,1,1,43.063-43.063h0a42.984,42.984,0,0,1-42.906,43.063Zm5.694,46.978a5.694,5.694,0,1,1-5.694-5.694h0a5.622,5.622,0,0,1,5.694,5.552Z" transform="translate(-9.201 -3.5)" fill="#1664c1"/>
      </g>
    </g>
    <g id="bus" transform="translate(60.5 41)">
      <g id="Group_18240" data-name="Group 18240" transform="translate(0 14.583)">
        <g id="Group_18239" data-name="Group 18239">
          <path id="Path_36899" data-name="Path 36899" d="M5.208,157.666v-6.25a1.042,1.042,0,0,0,0-2.083A5.214,5.214,0,0,0,0,154.541v2.083a3.129,3.129,0,0,0,3.125,3.125H5.208a1.042,1.042,0,1,0,0-2.083Z" transform="translate(0 -149.333)" fill="#1664c1"/>
        </g>
      </g>
      <g id="Group_18242" data-name="Group 18242" transform="translate(43.75 14.583)">
        <g id="Group_18241" data-name="Group 18241">
          <path id="Path_36900" data-name="Path 36900" d="M449.042,149.333a1.042,1.042,0,0,0,0,2.083v6.25a1.042,1.042,0,1,0,0,2.083h2.083a3.129,3.129,0,0,0,3.125-3.125v-2.083A5.214,5.214,0,0,0,449.042,149.333Z" transform="translate(-448 -149.333)" fill="#1664c1"/>
        </g>
      </g>
      <g id="Group_18244" data-name="Group 18244" transform="translate(8.333 43.75)">
        <g id="Group_18243" data-name="Group 18243">
          <path id="Path_36901" data-name="Path 36901" d="M94.707,448a1.042,1.042,0,0,0-1.042,1.042h-6.25a1.042,1.042,0,0,0-2.083,0v2.083a3.129,3.129,0,0,0,3.125,3.125h4.167a3.129,3.129,0,0,0,3.125-3.125v-2.083A1.042,1.042,0,0,0,94.707,448Z" transform="translate(-85.332 -448)" fill="#1664c1"/>
        </g>
      </g>
      <g id="Group_18246" data-name="Group 18246" transform="translate(31.25 43.75)">
        <g id="Group_18245" data-name="Group 18245">
          <path id="Path_36902" data-name="Path 36902" d="M329.375,448a1.042,1.042,0,0,0-1.042,1.042h-6.25a1.042,1.042,0,1,0-2.083,0v2.083a3.129,3.129,0,0,0,3.125,3.125h4.167a3.129,3.129,0,0,0,3.125-3.125v-2.083A1.042,1.042,0,0,0,329.375,448Z" transform="translate(-320 -448)" fill="#1664c1"/>
        </g>
      </g>
      <g id="Group_18248" data-name="Group 18248" transform="translate(4.167)">
        <g id="Group_18247" data-name="Group 18247">
          <path id="Path_36903" data-name="Path 36903" d="M79.125,0H47.875a5.214,5.214,0,0,0-5.208,5.208V40.625a5.214,5.214,0,0,0,5.208,5.208h31.25a5.214,5.214,0,0,0,5.208-5.208V5.208A5.214,5.214,0,0,0,79.125,0ZM52.042,4.167H74.959a3.125,3.125,0,1,1,0,6.25H52.042a3.125,3.125,0,0,1,0-6.25Zm0,35.417a3.125,3.125,0,1,1,3.125-3.125A3.129,3.129,0,0,1,52.042,39.583Zm22.917,0a3.125,3.125,0,1,1,3.125-3.125A3.129,3.129,0,0,1,74.959,39.583Zm5.208-13.542a3.129,3.129,0,0,1-3.125,3.125H49.959a3.129,3.129,0,0,1-3.125-3.125V15.625A3.129,3.129,0,0,1,49.959,12.5H77.042a3.129,3.129,0,0,1,3.125,3.125V26.042Z" transform="translate(-42.667)" fill="#1664c1"/>
        </g>
      </g>
    </g>
  </g>
</svg>
