<svg xmlns="http://www.w3.org/2000/svg" xmlns:xlink="http://www.w3.org/1999/xlink" width="171" height="171" viewBox="0 0 171 171">
  <defs>
    <clipPath id="clip-waterlvl">
      <rect width="171" height="171"/>
    </clipPath>
  </defs>
  <g id="waterlvl" clip-path="url(#clip-waterlvl)">
    <g id="Group_18234" data-name="Group 18234" transform="translate(-877.842 -782.664)">
      <path id="Path_36887" data-name="Path 36887" d="M972.2,827.872v18.34h.07V863.3H957.2v-18.51h.06v-17.97l-4.82,5.37-2.81,3.11c-1.87,2.07-3.71,4.11-5.51,6.1-3.54-3.68-6.74-6.99-9.44-9.8,9.82-9.81,20.22-20.2,30.49-30.45,9.52,9.58,19.79,19.93,30.18,30.39-3.02,2.96-6.4,6.25-10.48,10.24Z" fill="#fff"/>
      <path id="Path_36888" data-name="Path 36888" d="M1006.322,886.975v15.66a42.182,42.182,0,0,0-6.4.64c-.15.02-.3.05-.44.08-.77.14-1.53.3-2.3.49-.2.04-.41.09-.61.15a.037.037,0,0,0-.03.01c-.4.1-.8.2-1.21.32-.39.11-.78.22-1.18.35-.5.15-1.01.32-1.52.49a.076.076,0,0,1-.05.02c-.47.16-.94.33-1.42.51-.05.02-.11.05-.17.07-.49.18-.98.38-1.48.59-.52.21-1.04.43-1.56.67-.43.19-.87.39-1.31.6-14.54,6.9-29.83,6.78-44.41-.12a50.886,50.886,0,0,0-13.12-4.28c-.3-.06-.6-.1-.9-.15-.42-.06-.84-.12-1.26-.17-.93-.12-1.85-.2-2.77-.24-.34-.03-.67-.04-1.01-.05-.94-.03-1.87-.03-2.81.01v-15.64c.52-.02,1.03-.03,1.54-.03.42,0,.84.01,1.26.02.32,0,.64.02.96.04.57.02,1.14.05,1.71.1.25.02.51.04.76.07s.48.05.72.08c.38.03.76.08,1.15.14.32.04.65.09.97.14q.63.09,1.26.21a54.345,54.345,0,0,1,11.33,3.39c.41.17.82.35,1.23.53.47.2.93.42,1.4.64,13.44,6.38,26.25,6.46,39.71.06.47-.22.94-.44,1.42-.65s.94-.42,1.41-.61.95-.39,1.43-.57c.39-.15.79-.3,1.18-.44.89-.32,1.78-.62,2.68-.89.05-.02.1-.03.15-.05.42-.12.85-.25,1.28-.36l1-.27c.62-.16,1.25-.3,1.87-.43.32-.07.65-.14.98-.2.62-.13,1.24-.24,1.87-.33.28-.05.57-.09.86-.13a45.894,45.894,0,0,1,4.82-.43c.28-.02.57-.03.85-.03A.86.86,0,0,0,1006.322,886.975Z" fill="#fff"/>
      <path id="Path_36889" data-name="Path 36889" d="M1006.322,909.411v15.66a42.182,42.182,0,0,0-6.4.64c-.15.02-.3.05-.44.08-.77.14-1.53.3-2.3.49-.2.04-.41.09-.61.15a.037.037,0,0,0-.03.01c-.4.1-.8.2-1.21.32-.39.11-.78.22-1.18.35-.5.15-1.01.32-1.52.49a.076.076,0,0,1-.05.02c-.47.16-.94.33-1.42.51-.05.02-.11.05-.17.07-.49.18-.98.38-1.48.59-.52.21-1.04.43-1.56.67-.43.19-.87.39-1.31.6-14.54,6.9-29.83,6.78-44.41-.12a50.885,50.885,0,0,0-13.12-4.28c-.3-.06-.6-.1-.9-.15-.42-.06-.84-.12-1.26-.17-.93-.12-1.85-.2-2.77-.24-.34-.03-.67-.04-1.01-.05-.94-.03-1.87-.03-2.81.01v-15.64c.52-.02,1.03-.03,1.54-.03.42,0,.84.01,1.26.02.32,0,.64.02.96.04.57.02,1.14.05,1.71.1.25.02.51.04.76.07s.48.05.72.08c.38.03.76.08,1.15.14.32.04.65.09.97.14q.63.09,1.26.21a54.345,54.345,0,0,1,11.33,3.39c.41.17.82.35,1.23.53.47.2.93.42,1.4.64,13.44,6.38,26.25,6.46,39.71.06.47-.22.94-.44,1.42-.65s.94-.42,1.41-.61.95-.39,1.43-.57c.39-.15.79-.3,1.18-.44.89-.32,1.78-.62,2.68-.89.05-.02.1-.03.15-.05.42-.12.85-.25,1.28-.36l1-.27c.62-.16,1.25-.3,1.87-.43.32-.07.65-.14.98-.2.62-.13,1.24-.24,1.87-.33.28-.05.57-.09.86-.13a45.894,45.894,0,0,1,4.82-.43c.28-.02.57-.03.85-.03A.86.86,0,0,0,1006.322,909.411Z" fill="#fff"/>
      <path id="Path_36890" data-name="Path 36890" d="M1006.322,864.593v15.57a4.273,4.273,0,0,0-.5.02c-.38.01-.76.02-1.15.05-.32.01-.64.04-.97.07l-.96.09c-.33.03-.66.07-.98.12-.25.03-.51.06-.76.1-.31.04-.62.09-.92.15-.32.05-.64.1-.95.17l-.63.12c-.3.06-.61.13-.92.2-.4.09-.8.18-1.21.29a.353.353,0,0,0-.14.03c-.39.1-.78.2-1.17.32s-.8.22-1.2.35c-.78.24-1.57.5-2.35.79-.86.3-1.72.64-2.58,1q-1.38.57-2.76,1.23a48.876,48.876,0,0,1-43.46-.11c-.88-.42-1.75-.82-2.63-1.18s-1.74-.71-2.61-1.02c-.44-.16-.87-.32-1.31-.46-.87-.29-1.73-.55-2.6-.79a45.824,45.824,0,0,0-5.17-1.1c-.87-.13-1.73-.24-2.58-.31a41.384,41.384,0,0,0-5.45-.15V864.7a50.2,50.2,0,0,1,10.37.69h.01c.94.17,1.89.36,2.82.57a54.827,54.827,0,0,1,11.29,3.99c13.27,6.35,26.05,6.35,39.31.07.96-.45,1.91-.88,2.87-1.27.82-.34,1.63-.66,2.45-.95.53-.19,1.05-.37,1.57-.54.38-.13.76-.25,1.15-.37,1.53-.47,3.05-.86,4.58-1.19.28-.06.56-.12.84-.17.64-.13,1.29-.24,1.93-.34.28-.05.57-.09.86-.13.26-.04.53-.07.79-.1q.555-.075,1.11-.12c.41-.05.82-.08,1.23-.11.59-.05,1.18-.09,1.77-.1.28-.02.57-.03.85-.03A.808.808,0,0,1,1006.322,864.593Z" fill="#fff"/>
    </g>
  </g>
</svg>
