<svg xmlns="http://www.w3.org/2000/svg" xmlns:xlink="http://www.w3.org/1999/xlink" width="171" height="171" viewBox="0 0 171 171">
  <defs>
    <clipPath id="clip-WATER_1">
      <rect width="171" height="171"/>
    </clipPath>
  </defs>
  <g id="WATER_1" data-name="WATER – 1" clip-path="url(#clip-WATER_1)">
    <g id="Group_18231" data-name="Group 18231" transform="translate(-408.792 -360.792)">
      <path id="Path_36881" data-name="Path 36881" d="M484.4,415.43c3.229,4.4,14.742,20.637,14.742,28.057a15.573,15.573,0,1,1-31.146,0c0-7.421,11.514-23.66,14.742-28.057A1.017,1.017,0,0,1,484.4,415.43Z" transform="translate(57.437 49.46)" fill="#3c64bc"/>
      <path id="Path_36882" data-name="Path 36882" d="M437.191,386.6h7.786a5.193,5.193,0,0,1,5.191,5.191v12.977h31.146V391.786h-11.68a3.893,3.893,0,0,1,0-7.786h36.337a3.893,3.893,0,0,1,0,7.786h-11.68v12.977h26.336a30.8,30.8,0,0,1,30.764,30.764V441.1h2.6a2.6,2.6,0,0,1,2.6,2.6v7.786a2.6,2.6,0,0,1-2.6,2.6H528.033a2.6,2.6,0,0,1-2.6-2.6V443.7a2.6,2.6,0,0,1,2.6-2.6h2.6v-5.573a10.012,10.012,0,0,0-10-10H450.168v12.977a5.193,5.193,0,0,1-5.191,5.191h-7.786A5.193,5.193,0,0,1,432,438.505V391.786A5.193,5.193,0,0,1,437.191,386.6Z" transform="translate(0 0)" fill="#3c64bc"/>
    </g>
  </g>
</svg>
