<svg xmlns="http://www.w3.org/2000/svg" xmlns:xlink="http://www.w3.org/1999/xlink" width="32" height="32" viewBox="0 0 32 32">
  <defs>
    <clipPath id="clip-waterway">
      <rect width="32" height="32"/>
    </clipPath>
  </defs>
  <g id="waterway" clip-path="url(#clip-waterway)">
    <g id="Group_47278" data-name="Group 47278" transform="translate(-42.556 -1913.851)">
      <rect id="Rectangle_1300" data-name="Rectangle 1300" width="5.398" height="3.351" rx="1" transform="translate(59.175 1923.351)" fill="#0070ab"/>
      <rect id="Rectangle_1301" data-name="Rectangle 1301" width="5.398" height="6.701" rx="1" transform="translate(51.659 1920)" fill="#0070ab"/>
      <path id="Path_94940" data-name="Path 94940" d="M53.783,1944.718a2.06,2.06,0,0,0,1.192-.334,4.066,4.066,0,0,1,4.068,0,2.284,2.284,0,0,0,2.379,0,4.066,4.066,0,0,1,4.068,0,2.039,2.039,0,0,0,1.069.33,8.86,8.86,0,0,0,2.028-4.759.874.874,0,0,0-.88-.954H51.883a.874.874,0,0,0-.88.954,8.847,8.847,0,0,0,1.887,4.583A1.883,1.883,0,0,0,53.783,1944.718Z" transform="translate(-1.679 -10.644)" fill="#0070ab"/>
      <path id="Path_94941" data-name="Path 94941" d="M68.232,1962a3.776,3.776,0,0,0-2.035.547,2.3,2.3,0,0,1-2.384,0,4.055,4.055,0,0,0-4.068,0,2.3,2.3,0,0,1-2.383,0,4.054,4.054,0,0,0-4.068,0,2.3,2.3,0,0,1-2.381,0A3.774,3.774,0,0,0,48.88,1962a.88.88,0,1,0,0,1.759,2.065,2.065,0,0,1,1.191.332,4.05,4.05,0,0,0,4.067,0,2.3,2.3,0,0,1,2.383,0,4.052,4.052,0,0,0,4.067,0,2.3,2.3,0,0,1,2.383,0,4.054,4.054,0,0,0,4.069,0,2.07,2.07,0,0,1,1.192-.332.88.88,0,0,0,0-1.759Z" transform="translate(0 -23.528)" fill="#0070ab"/>
      <path id="Path_94942" data-name="Path 94942" d="M48.88,1955.759a2.066,2.066,0,0,1,1.191.332,4.05,4.05,0,0,0,4.067,0,2.3,2.3,0,0,1,2.383,0,4.052,4.052,0,0,0,4.067,0,2.3,2.3,0,0,1,2.383,0,4.054,4.054,0,0,0,4.069,0,2.071,2.071,0,0,1,1.192-.332.88.88,0,0,0,0-1.759,3.775,3.775,0,0,0-2.035.547,2.305,2.305,0,0,1-2.384,0,4.053,4.053,0,0,0-4.068,0,2.3,2.3,0,0,1-2.383,0,4.053,4.053,0,0,0-4.068,0,2.3,2.3,0,0,1-2.381,0A3.773,3.773,0,0,0,48.88,1954a.88.88,0,0,0,0,1.759Z" transform="translate(0 -19.046)" fill="#0070ab"/>
    </g>
  </g>
</svg>
