<svg id="Layer_1" data-name="Layer 1" xmlns="http://www.w3.org/2000/svg" width="120.33mm" height="84.87mm" viewBox="0 0 341.11 240.59">
  <defs>
    <style>
      .cls-1, .cls-6 {
        font-size: 7px;
        font-family: FranklinGothic-Demi, Franklin Gothic Demi;
        font-weight: 300;
      }

      .cls-1 {
        fill: #606161;
      }

      .cls-2, .cls-3, .cls-4 {
        fill: #f37462;
      }

      .cls-3 {
        opacity: 0.15;
      }

      .cls-4 {
        opacity: 0.39;
      }

      .cls-5 {
        fill: none;
        stroke: #fff;
        stroke-miterlimit: 10;
      }

      .cls-6 {
        fill: #fff;
      }
    </style>
  </defs>
  <title>table-07</title>
  <text class="cls-1" transform="translate(18.08 13.73)">Preparedness</text>
  <rect class="cls-2" x="11.67" y="138.11" width="312.81" height="11.22"/>
  <rect class="cls-3" x="11.67" y="149.34" width="312.81" height="11.22"/>
  <rect class="cls-4" x="11.67" y="160.56" width="312.81" height="11.22"/>
  <rect class="cls-3" x="11.67" y="171.78" width="312.81" height="11.22"/>
  <rect class="cls-4" x="11.67" y="183" width="312.81" height="11.22"/>
  <rect class="cls-3" x="11.67" y="194.22" width="312.81" height="11.22"/>
  <rect class="cls-4" x="11.67" y="205.45" width="312.81" height="11.22"/>
  <rect class="cls-3" x="11.67" y="216.67" width="312.81" height="11.22"/>
  <line class="cls-5" x1="88.17" y1="138.11" x2="88.17" y2="227.89"/>
  <line class="cls-5" x1="121.93" y1="138.11" x2="121.93" y2="227.89"/>
  <line class="cls-5" x1="155.69" y1="138.11" x2="155.69" y2="227.89"/>
  <line class="cls-5" x1="189.45" y1="138.11" x2="189.45" y2="227.89"/>
  <line class="cls-5" x1="260.03" y1="138.11" x2="260.03" y2="227.89"/>
  <line class="cls-5" x1="324.48" y1="138.11" x2="324.48" y2="227.89"/>
  <text class="cls-6" transform="translate(18.08 146.84)">Activity Name</text>
  <text class="cls-1" transform="translate(18.08 132.12)">Recovery</text>
  <text class="cls-6" transform="translate(95.29 146.84)"><tspan xml:space="preserve"> Start</tspan></text>
  <text class="cls-6" transform="translate(130.23 146.84)">End</text>
  <text class="cls-6" transform="translate(161.99 146.84)">Source</text>
  <text class="cls-6" transform="translate(196.29 146.84)">SDRR Priority Area</text>
  <text class="cls-6" transform="translate(265.35 146.84)">Total Expenditure</text>
  <rect class="cls-2" x="11.67" y="20.35" width="312.81" height="11.22"/>
  <rect class="cls-3" x="11.67" y="31.57" width="312.81" height="11.22"/>
  <rect class="cls-4" x="11.67" y="42.8" width="312.81" height="11.22"/>
  <rect class="cls-3" x="11.67" y="54.02" width="312.81" height="11.22"/>
  <rect class="cls-4" x="11.67" y="65.24" width="312.81" height="11.22"/>
  <rect class="cls-3" x="11.67" y="76.46" width="312.81" height="11.22"/>
  <rect class="cls-4" x="11.67" y="87.68" width="312.81" height="11.22"/>
  <rect class="cls-3" x="11.67" y="98.91" width="312.81" height="11.22"/>
  <line class="cls-5" x1="88.17" y1="20.35" x2="88.17" y2="110.13"/>
  <line class="cls-5" x1="121.93" y1="20.35" x2="121.93" y2="110.13"/>
  <line class="cls-5" x1="155.69" y1="20.35" x2="155.69" y2="110.13"/>
  <line class="cls-5" x1="189.45" y1="20.35" x2="189.45" y2="110.13"/>
  <line class="cls-5" x1="260.03" y1="20.35" x2="260.03" y2="110.13"/>
  <line class="cls-5" x1="324.48" y1="20.35" x2="324.48" y2="110.13"/>
  <text class="cls-6" transform="translate(18.08 29.08)">Activity Name</text>
  <text class="cls-6" transform="translate(95.29 29.08)"><tspan xml:space="preserve"> Start</tspan></text>
  <text class="cls-6" transform="translate(130.23 29.08)">End</text>
  <text class="cls-6" transform="translate(161.99 29.08)">Source</text>
  <text class="cls-6" transform="translate(196.29 29.08)">SDRR Priority Area</text>
  <text class="cls-6" transform="translate(265.35 29.08)">Total Expenditure</text>
</svg>
