<svg id="Layer_1" data-name="Layer 1" xmlns="http://www.w3.org/2000/svg" xmlns:xlink="http://www.w3.org/1999/xlink" width="17.6522" height="17.6522" viewBox="0 0 17.6522 17.6522"><defs><pattern id="New_Pattern_2" data-name="New Pattern 2" x="-3.6739" y="-3.6739" width="4" height="4" patternUnits="userSpaceOnUse" viewBox="0 0 4 4"><rect width="4" height="4" fill="none"/><circle cx="3" cy="4.0001" r="0.1386"/><circle cx="1" cy="4.0001" r="0.1386"/><circle cx="4" cy="2.0001" r="0.1386"/><circle cx="2" cy="2.0001" r="0.1386"/><circle cy="2.0001" r="0.1386"/><circle cx="3" cy="0.0001" r="0.1386"/><circle cx="1" cy="0.0001" r="0.1386"/></pattern></defs><path d="M21.3261,21.3261H3.6739V3.6739H21.3261Zm-3.884-5.9727V9.6466L12.5,6.7933,7.5579,9.6466v5.7068L12.5,18.2067Z" transform="translate(-3.6739 -3.6739)" fill="#d3e878" opacity="0"/><polygon points="1.827 4.785 1.827 12.867 8.826 16.908 15.825 12.867 15.825 4.785 8.826 0.744 1.827 4.785" fill="#d3e878"/><polygon points="1.827 4.785 1.827 12.867 8.826 16.908 15.825 12.867 15.825 4.785 8.826 0.744 1.827 4.785" stroke="#fefffa" stroke-miterlimit="10" fill="url(#New_Pattern_2)"/></svg>