<?xml version="1.0" encoding="utf-8"?>
<!-- Generator: Adobe Illustrator 25.0.0, SVG Export Plug-In . SVG Version: 6.00 Build 0)  -->
<svg version="1.1" id="Layer_1" xmlns="http://www.w3.org/2000/svg" xmlns:xlink="http://www.w3.org/1999/xlink" x="0px" y="0px"
	 viewBox="0 0 50 50" style="enable-background:new 0 0 50 50;" xml:space="preserve">
<style type="text/css">
	.st0{fill:#FFFFFF;}
	.st1{fill:#1664C1;}
	.st2{filter:url(#Adobe_OpacityMaskFilter);}
	.st3{mask:url(#mask_1_);}
</style>
<circle class="st0" cx="25.4" cy="19.5" r="12.9"/>
<g id="OBJECTS">
	<g>
		<path class="st1" d="M18.1,23.5c1.1,0.8,2.1,1.5,3.1,2.2c0.2,0,0.3,0,0.5-0.1c0.9-0.7,1.8-1.5,2.7-2.2c0.4-0.3,0.6-0.7,0.6-1.2
			c0-1.3,0-2.7,0-4c0-0.4-0.2-0.7-0.6-0.7s-0.6,0.3-0.6,0.7c0,0.5,0,1,0,1.5c0,0.2-0.2,0.3-0.3,0.5c-0.1-0.1-0.3-0.3-0.3-0.4
			c0-0.6,0-1.1,0-1.7c0-0.5,0.4-1,0.9-1.1c0.3-0.1,0.4-0.2,0.4-0.5c0.1-1.1,0.2-2.2,0.4-3.3c0.1-0.4,0-0.8-0.5-1
			c-0.4-0.1-0.7,0.1-0.9,0.7c-0.5,1.2-1,2.4-1.5,3.7c-0.2,0.5-0.3,1-0.3,1.4c0,1,0.1,2,0.2,3c0,0.8,0,0.8-0.7,1.1
			C20.2,22.5,19.2,23,18.1,23.5z M32.4,23.5c-1.2-0.5-2.2-1-3.3-1.5c-0.4-0.1-0.6-0.5-0.5-0.9c0.1-1,0.2-2,0.2-3c0-0.5,0-1-0.2-1.5
			c-0.5-1.3-1.1-2.7-1.6-4c-0.1-0.3-0.4-0.5-0.8-0.4h0c-0.3,0.1-0.6,0.4-0.5,0.7c0,0,0,0,0,0l0,0c0.1,1.2,0.3,2.4,0.4,3.6
			c0,0.2,0.2,0.3,0.3,0.4c0.6,0.1,1,0.7,1,1.3c0,0.5,0,1,0,1.5c0,0.2-0.2,0.3-0.3,0.5c-0.1-0.1-0.3-0.3-0.3-0.4c0-0.5,0-1,0-1.4
			c0-0.5-0.2-0.8-0.6-0.8s-0.6,0.2-0.6,0.8c0,1.3,0,2.6,0,3.9c0,0.4,0.2,0.8,0.5,1.1c0.9,0.8,1.9,1.6,2.8,2.4c0.1,0.1,0.3,0.1,0.4,0
			C30.4,25,31.3,24.3,32.4,23.5L32.4,23.5z"/>
		<path class="st1" d="M18.1,23.5c1.1-0.5,2.1-1,3.1-1.5c0.7-0.3,0.7-0.4,0.7-1.1c-0.1-1-0.2-2-0.2-3c0-0.5,0.1-1,0.3-1.4
			c0.5-1.2,1-2.4,1.5-3.7c0.2-0.6,0.5-0.8,0.9-0.7c0.5,0.2,0.5,0.5,0.5,1c-0.1,1.1-0.3,2.2-0.4,3.3c0,0.3-0.1,0.4-0.4,0.5
			c-0.5,0.1-0.9,0.6-0.9,1.1c0,0.6,0,1.1,0,1.7c0,0.1,0.2,0.3,0.3,0.4c0.1-0.1,0.3-0.3,0.3-0.5c0-0.5,0-1,0-1.5
			c0-0.4,0.2-0.7,0.6-0.7s0.6,0.3,0.6,0.7c0,1.3,0,2.7,0,4c0,0.5-0.2,0.9-0.6,1.2c-0.9,0.7-1.8,1.5-2.7,2.2
			c-0.1,0.1-0.3,0.1-0.5,0.1C20.2,25,19.2,24.3,18.1,23.5z"/>
		<path class="st1" d="M32.4,23.5c-1.1,0.8-2.1,1.5-3.1,2.2c-0.1,0.1-0.3,0.1-0.4,0c-1-0.8-1.9-1.5-2.8-2.4
			c-0.3-0.3-0.5-0.7-0.5-1.1c-0.1-1.3,0-2.6,0-3.9c0-0.5,0.2-0.8,0.6-0.8s0.6,0.3,0.6,0.8c0,0.5,0,1,0,1.4c0,0.2,0.2,0.3,0.3,0.4
			c0.1-0.2,0.3-0.3,0.3-0.5c0-0.5,0-1,0-1.5c0-0.6-0.4-1.1-1-1.3c-0.2-0.1-0.3-0.2-0.3-0.4c-0.2-1.2-0.3-2.4-0.4-3.6
			c-0.1-0.3,0.1-0.7,0.5-0.8l0,0c0.3-0.1,0.7,0.1,0.8,0.4c0,0,0,0,0,0v0c0.5,1.3,1.1,2.7,1.6,4c0.2,0.5,0.2,1,0.2,1.5
			c0,1-0.1,2-0.2,3c-0.1,0.4,0.2,0.7,0.5,0.9C30.2,22.4,31.3,23,32.4,23.5z"/>
	</g>
	<g>
		<defs>
			<filter id="Adobe_OpacityMaskFilter" filterUnits="userSpaceOnUse" x="24.5" y="43.7" width="3.2" height="3.2">
				<feColorMatrix  type="matrix" values="1 0 0 0 0  0 1 0 0 0  0 0 1 0 0  0 0 0 1 0"/>
			</filter>
		</defs>
		<mask maskUnits="userSpaceOnUse" x="24.5" y="43.7" width="3.2" height="3.2" id="mask_1_">
			<g class="st2">
				
					<image style="overflow:visible;enable-background:new    ;" width="36" height="47" xlink:href="E66BC182.png"  transform="matrix(1 0 0 1 7.988 2)">
				</image>
			</g>
		</mask>
		<g class="st3">
			<g>
				<path class="st1" d="M26.1,43.7c-0.9,0-1.6,0.7-1.6,1.6s0.7,1.6,1.6,1.6c0.9,0,1.6-0.7,1.6-1.6c0,0,0,0,0,0
					C27.7,44.4,27,43.7,26.1,43.7z"/>
			</g>
		</g>
		<path class="st1" d="M25,3.5c-8.7,0-15.8,7.1-15.8,15.8c0,6.9,4.5,13,11.1,15.1l3.3,5.7c0.4,0.7,1.3,0.9,2,0.5
			c0.2-0.1,0.4-0.3,0.5-0.5l3.3-5.7c8.4-2.4,13.2-11.2,10.8-19.6C38.3,8.1,32.1,3.5,25,3.5L25,3.5z M25,31.4
			C18.4,31.4,13,26,13,19.3S18.4,7.2,25,7.2c6.7,0,12.1,5.4,12.1,12.1c0,0,0,0,0,0C37.1,26,31.7,31.4,25,31.4z M26.6,44.6
			c0,0.9-0.7,1.6-1.6,1.6c-0.9,0-1.6-0.7-1.6-1.6c0-0.9,0.7-1.6,1.6-1.6c0,0,0,0,0,0C25.9,43,26.6,43.7,26.6,44.6z"/>
	</g>
</g>
</svg>
