<svg xmlns="http://www.w3.org/2000/svg" width="37.174" height="41.72" viewBox="0 0 37.174 41.72">
  <g id="Group_18217" data-name="Group 18217" transform="translate(-1092.084 -366.267)">
    <path id="Path_36863" data-name="Path 36863" d="M339.672,769.233c.441,2.36.878,4.7,1.316,7.034q.786,4.2,1.574,8.4c.146.782-.1,1.072-.9,1.074h-2.273v.57c0,3.017.009,6.033-.011,9.05a2.457,2.457,0,0,1-.249,1.086,1.344,1.344,0,0,1-2.44.026,2.585,2.585,0,0,1-.267-1.173c-.021-3-.011-6-.011-9v-.523h-.959v.557c0,2.986.008,5.972-.009,8.958a2.9,2.9,0,0,1-.221,1.1,1.307,1.307,0,0,1-1.287.844,1.321,1.321,0,0,1-1.24-.849,2.743,2.743,0,0,1-.209-1.053c-.016-3-.009-6-.009-9v-.582h-2.266c-.808,0-1.053-.274-.9-1.062.525-2.8,1.071-5.593,1.594-8.392.436-2.336.849-4.676,1.279-7.051h-.731q-.391,2.028-.782,4.055c-.278,1.442-.539,2.888-.841,4.326a2.86,2.86,0,0,1-.43.987,1.356,1.356,0,0,1-1.438.666,1.428,1.428,0,0,1-1.14-1.221,3.251,3.251,0,0,1-.023-1.212c.643-3.438,1.311-6.871,1.972-10.3a2.008,2.008,0,0,1,1.852-1.878,10.63,10.63,0,0,1,1.892-.224c2.47-.012,4.94.008,7.41.041a9.965,9.965,0,0,1,1.438.2,1.944,1.944,0,0,1,1.7,1.71q.812,4.17,1.611,8.343c.14.729.285,1.457.42,2.187a2.33,2.33,0,0,1-.227,1.631,1.292,1.292,0,0,1-2.167.3,2.8,2.8,0,0,1-.652-1.26c-.539-2.6-1.022-5.2-1.525-7.8C340.4,769.16,340.4,769.16,339.672,769.233Z" transform="translate(784.114 -389.309)" fill="rgba(167,179,187,0.99)"/>
    <path id="Path_36864" data-name="Path 36864" d="M335.916,763.2a3.812,3.812,0,1,1,3.831-3.8A3.807,3.807,0,0,1,335.916,763.2Z" transform="translate(784.114 -389.309)" fill="rgba(167,179,187,0.99)"/>
    <path id="Path_36865" data-name="Path 36865" d="M53,822.529h-.652v.528q0,5.055,0,10.109a2.4,2.4,0,0,1-.45,1.541,1.481,1.481,0,0,1-2.524-.064,2.527,2.527,0,0,1-.4-1.273q-.047-5.487-.01-10.975a4.025,4.025,0,0,1,3.918-3.96q4.1-.057,8.2,0A4.031,4.031,0,0,1,65,822.4c.024,3.658.015,7.316,0,10.974a1.716,1.716,0,1,1-3.379-.026c-.009-3.415,0-6.831,0-10.246v-.566h-.654v.6q0,12.978-.006,25.956a3.61,3.61,0,0,1-.04.588,1.87,1.87,0,0,1-1.891,1.626,1.913,1.913,0,0,1-1.757-1.784c-.018-.211-.009-.425-.009-.637q0-6.513,0-13.024v-.575H56.7v.532q0,6.627-.007,13.252a3.043,3.043,0,0,1-.162,1.022,1.793,1.793,0,0,1-1.808,1.19,1.873,1.873,0,0,1-1.653-1.47A3.949,3.949,0,0,1,53,849Q53,836.066,53,823.133Z" transform="translate(1043.134 -443.321)" fill="rgba(167,179,187,0.99)"/>
    <path id="Path_36866" data-name="Path 36866" d="M56.979,809.589a3.815,3.815,0,1,1-3.813,3.825A3.812,3.812,0,0,1,56.979,809.589Z" transform="translate(1043.134 -443.321)" fill="rgba(167,179,187,0.99)"/>
  </g>
</svg>
