<?xml version="1.0" encoding="utf-8"?>
<!-- Generator: Adobe Illustrator 25.0.0, SVG Export Plug-In . SVG Version: 6.00 Build 0)  -->
<svg version="1.1" id="Layer_1" xmlns="http://www.w3.org/2000/svg" xmlns:xlink="http://www.w3.org/1999/xlink" x="0px" y="0px"
	 viewBox="0 0 50 50" style="enable-background:new 0 0 50 50;" xml:space="preserve">
<style type="text/css">
	.st0{fill:#FFFFFF;}
	.st1{fill:#1664C1;}
	.st2{filter:url(#Adobe_OpacityMaskFilter);}
	.st3{mask:url(#mask_1_);}
</style>
<circle class="st0" cx="25.4" cy="19.5" r="12.9"/>
<g id="OBJECTS">
	<polygon class="st1" points="27.1,16.5 30.9,16.5 30.9,21.4 27.1,21.4 27.1,25.1 22.3,25.1 22.3,21.4 18.5,21.4 18.5,16.5 
		22.3,16.5 22.3,12.8 27.1,12.8 	"/>
	<g>
		<defs>
			<filter id="Adobe_OpacityMaskFilter" filterUnits="userSpaceOnUse" x="24.5" y="43.7" width="3.2" height="3.2">
				<feColorMatrix  type="matrix" values="1 0 0 0 0  0 1 0 0 0  0 0 1 0 0  0 0 0 1 0"/>
			</filter>
		</defs>
		<mask maskUnits="userSpaceOnUse" x="24.5" y="43.7" width="3.2" height="3.2" id="mask_1_">
			<g class="st2">
				
					<image style="overflow:visible;enable-background:new    ;" width="37" height="47" xlink:href="F90DF701.png"  transform="matrix(1 0 0 1 7.562 2)">
				</image>
			</g>
		</mask>
		<g class="st3">
			<g>
				<path class="st1" d="M26.1,43.7c-0.9,0-1.6,0.7-1.6,1.6s0.7,1.6,1.6,1.6c0.9,0,1.6-0.7,1.6-1.6c0,0,0,0,0,0
					C27.7,44.4,27,43.7,26.1,43.7z"/>
			</g>
		</g>
		<path class="st1" d="M25,3.5c-8.7,0-15.8,7.1-15.8,15.8c0,6.9,4.5,13,11.1,15.1l3.3,5.7c0.4,0.7,1.3,0.9,2,0.5
			c0.2-0.1,0.4-0.3,0.5-0.5l3.3-5.7c8.4-2.4,13.2-11.2,10.8-19.6C38.3,8.1,32.1,3.5,25,3.5L25,3.5z M25,31.4
			C18.4,31.4,13,26,13,19.3S18.4,7.2,25,7.2c6.7,0,12.1,5.4,12.1,12.1c0,0,0,0,0,0C37.1,26,31.7,31.4,25,31.4z M26.6,44.6
			c0,0.9-0.7,1.6-1.6,1.6c-0.9,0-1.6-0.7-1.6-1.6c0-0.9,0.7-1.6,1.6-1.6c0,0,0,0,0,0C25.9,43,26.6,43.7,26.6,44.6z"/>
	</g>
</g>
</svg>
