<svg xmlns="http://www.w3.org/2000/svg" width="50" height="50" viewBox="0 0 50 50">
  <g id="OBJECTS">
    <g>
      <path d="M39.208,22.2c-.021.129-.6.215-.9.215q-6.718.033-13.4.022H11.88c-1.271,0-1.271,0-1.271-1.314,0-.237.022-.452,0-.668-.086-.667.237-.969.862-1.184,4.307-1.572,8.592-3.166,12.921-4.695V8.48a.616.616,0,0,1,.6-.6.535.535,0,0,1,.6.517h0l2.692,1.8H26.515l2.4,1.887H25.6v2.494c4.286,1.529,8.549,3.1,12.835,4.695.345.108.861.387.883.646A9.022,9.022,0,0,1,39.208,22.2Z" fill="#3c64bc"/>
      <path d="M24.985,42.122q-7.807,0-15.615,0c-1.128,0-1.637-.7-1.162-1.706.106-.225.6-.37.921-.373,3.066-.031,6.133-.025,9.2-.025q11.152,0,22.305,0c1.131,0,1.636.678,1.152,1.691-.115.24-.655.39-1,.392C35.519,42.129,30.252,42.122,24.985,42.122Z" fill="#3c64bc"/>
      <path d="M24.951,38.356c-4.369,0-8.739-.008-13.108.009-.712,0-1.177-.076-1.17-.984.006-.84.265-1.13,1.127-1.128q13.2.037,26.4,0c.761,0,1.12.175,1.125,1.032.005.9-.374,1.085-1.175,1.08C33.751,38.342,29.351,38.356,24.951,38.356Z" fill="#3c64bc"/>
      <path d="M22.309,29.242c0-1.423.016-2.846-.008-4.269-.01-.592.222-.852.814-.846q1.9.018,3.8,0c.544,0,.778.229.776.783q-.017,4.453,0,8.908c0,.5-.208.735-.72.731-1.3-.011-2.6-.019-3.9,0-.627.011-.787-.288-.778-.858C22.325,32.211,22.309,30.726,22.309,29.242Z" fill="#3c64bc"/>
      <path d="M18.621,29.4c0,1.393-.025,2.786.011,4.178.018.7-.181,1.019-.941.987-1.174-.051-2.352-.038-3.527-.005-.629.018-.908-.2-.9-.849q.02-4.362,0-8.726c0-.643.286-.872.909-.859,1.175.025,2.352.027,3.527,0,.665-.017.953.218.937.915C18.6,26.487,18.621,27.942,18.621,29.4Z" fill="#3c64bc"/>
      <path d="M31.374,29.336c0-1.393.027-2.786-.011-4.178-.02-.741.213-1.076,1-1.044,1.174.048,2.352.026,3.527.008.588-.009.846.238.844.827q-.012,4.363,0,8.727c0,.617-.214.9-.871.881q-1.809-.053-3.62,0c-.637.018-.892-.209-.88-.857.029-1.454.009-2.909.009-4.363Z" fill="#3c64bc"/>
    </g>
  </g>
</svg>
