<svg xmlns="http://www.w3.org/2000/svg" width="50" height="50" viewBox="0 0 50 50">
  <g id="OBJECTS">
    <g>
      <path d="M25.009,12.315a4.276,4.276,0,1,0,4.276,4.275A4.28,4.28,0,0,0,25.009,12.315Zm0,6.131a1.856,1.856,0,1,1,1.856-1.856A1.857,1.857,0,0,1,25.009,18.446Z" fill="#3c64bc"/>
      <path d="M20.258,11.84a1.21,1.21,0,0,0-1.711-1.711,9.15,9.15,0,0,0,0,12.923,1.21,1.21,0,1,0,1.711-1.711A6.727,6.727,0,0,1,20.258,11.84Z" fill="#3c64bc"/>
      <path d="M31.471,10.129A1.21,1.21,0,0,0,29.76,11.84a6.7,6.7,0,0,1,0,9.5,1.21,1.21,0,1,0,1.711,1.711,9.12,9.12,0,0,0,0-12.923Z" fill="#3c64bc"/>
      <path d="M12.738,16.611a12.208,12.208,0,0,1,3.608-8.684,1.21,1.21,0,1,0-1.711-1.711,14.672,14.672,0,0,0,0,20.789,1.21,1.21,0,1,0,1.711-1.711A12.205,12.205,0,0,1,12.738,16.611Z" fill="#3c64bc"/>
      <path d="M35.383,6.216a1.21,1.21,0,0,0-1.711,1.711,12.294,12.294,0,0,1,0,17.367A1.21,1.21,0,1,0,35.383,27,14.715,14.715,0,0,0,35.383,6.216Z" fill="#3c64bc"/>
      <rect x="26.115" y="24.88" width="2.42" height="17.911" transform="translate(-15.876 28.819) rotate(-44.453)" fill="#3c64bc"/>
      <rect x="13.741" y="32.626" width="17.941" height="2.42" transform="translate(-17.334 26.287) rotate(-45.454)" fill="#3c64bc"/>
      <path d="M35.707,42.519l-8.43-23.434A1.21,1.21,0,0,0,25,19.9l8.43,23.434a1.21,1.21,0,0,0,1.138.8,1.229,1.229,0,0,0,.41-.071A1.211,1.211,0,0,0,35.707,42.519Z" fill="#3c64bc"/>
      <path d="M24.331,18.356a1.211,1.211,0,0,0-1.549.727l-8.47,23.433a1.21,1.21,0,1,0,2.276.823l8.47-23.434A1.21,1.21,0,0,0,24.331,18.356Z" fill="#3c64bc"/>
    </g>
  </g>
</svg>
