<svg xmlns="http://www.w3.org/2000/svg" xmlns:xlink="http://www.w3.org/1999/xlink" width="16" height="14" viewBox="0 0 16 14">
  <defs>
    <clipPath id="clip-path">
      <rect id="Rectangle_307" data-name="Rectangle 307" width="16" height="16" fill="none"/>
    </clipPath>
    <clipPath id="clip-path-2">
      <rect id="Rectangle_306" data-name="Rectangle 306" width="17.717" height="17.057" transform="translate(-0.984 -0.693)" fill="none"/>
    </clipPath>
    <clipPath id="clip-path-3">
      <rect id="Rectangle_290" data-name="Rectangle 290" width="6" height="6" transform="translate(12 -6)" fill="none"/>
    </clipPath>
    <clipPath id="clip-path-4">
      <rect id="Rectangle_291" data-name="Rectangle 291" width="6" height="6" transform="translate(12)" fill="none"/>
    </clipPath>
    <clipPath id="clip-path-5">
      <rect id="Rectangle_292" data-name="Rectangle 292" width="6" height="6" transform="translate(12 6)" fill="none"/>
    </clipPath>
    <clipPath id="clip-path-6">
      <rect id="Rectangle_293" data-name="Rectangle 293" width="6" height="6" transform="translate(12 12)" fill="none"/>
    </clipPath>
    <clipPath id="clip-path-7">
      <rect id="Rectangle_294" data-name="Rectangle 294" width="6" height="6" transform="translate(6 -6)" fill="none"/>
    </clipPath>
    <clipPath id="clip-path-8">
      <rect id="Rectangle_295" data-name="Rectangle 295" width="6" height="6" transform="translate(6)" fill="none"/>
    </clipPath>
    <clipPath id="clip-path-9">
      <rect id="Rectangle_296" data-name="Rectangle 296" width="6" height="6" transform="translate(6 6)" fill="none"/>
    </clipPath>
    <clipPath id="clip-path-10">
      <rect id="Rectangle_297" data-name="Rectangle 297" width="6" height="6" transform="translate(6 12)" fill="none"/>
    </clipPath>
    <clipPath id="clip-path-11">
      <rect id="Rectangle_298" data-name="Rectangle 298" width="6" height="6" transform="translate(0 -6)" fill="none"/>
    </clipPath>
    <clipPath id="clip-path-12">
      <rect id="Rectangle_299" data-name="Rectangle 299" width="6" height="6" fill="none"/>
    </clipPath>
    <clipPath id="clip-path-13">
      <rect id="Rectangle_300" data-name="Rectangle 300" width="6" height="6" transform="translate(0 6)" fill="none"/>
    </clipPath>
    <clipPath id="clip-path-14">
      <rect id="Rectangle_301" data-name="Rectangle 301" width="6" height="6" transform="translate(0 12)" fill="none"/>
    </clipPath>
    <clipPath id="clip-path-15">
      <rect id="Rectangle_302" data-name="Rectangle 302" width="6" height="6" transform="translate(-6 -6)" fill="none"/>
    </clipPath>
    <clipPath id="clip-path-16">
      <rect id="Rectangle_303" data-name="Rectangle 303" width="6" height="6" transform="translate(-6)" fill="none"/>
    </clipPath>
    <clipPath id="clip-path-17">
      <rect id="Rectangle_304" data-name="Rectangle 304" width="6" height="6" transform="translate(-6 6)" fill="none"/>
    </clipPath>
    <clipPath id="clip-path-18">
      <rect id="Rectangle_305" data-name="Rectangle 305" width="6" height="6" transform="translate(-6 12)" fill="none"/>
    </clipPath>
    <clipPath id="clip-patternm">
      <rect width="16" height="14"/>
    </clipPath>
  </defs>
  <g id="patternm" clip-path="url(#clip-patternm)">
    <g id="Group_18285" data-name="Group 18285" transform="translate(0 -1)">
      <g id="Group_18284" data-name="Group 18284" clip-path="url(#clip-path)">
        <g id="Group_18283" data-name="Group 18283">
          <g id="Group_18282" data-name="Group 18282">
            <g id="Group_18281" data-name="Group 18281" clip-path="url(#clip-path-2)">
              <g id="Group_18235" data-name="Group 18235">
                <g id="Group_18234" data-name="Group 18234">
                  <g id="Group_18233" data-name="Group 18233" clip-path="url(#clip-path-3)">
                    <circle id="Ellipse_409" data-name="Ellipse 409" cx="0.5" cy="0.5" r="0.5" transform="translate(17.167 -1.5)"/>
                    <circle id="Ellipse_410" data-name="Ellipse 410" cx="0.5" cy="0.5" r="0.5" transform="translate(15.167 -1.5)"/>
                    <circle id="Ellipse_411" data-name="Ellipse 411" cx="0.5" cy="0.5" r="0.5" transform="translate(13.167 -1.5)"/>
                    <circle id="Ellipse_412" data-name="Ellipse 412" cx="0.5" cy="0.5" r="0.5" transform="translate(11.167 -1.5)"/>
                    <circle id="Ellipse_413" data-name="Ellipse 413" cx="0.5" cy="0.5" r="0.5" transform="translate(16.5 -3.5)"/>
                    <circle id="Ellipse_414" data-name="Ellipse 414" cx="0.5" cy="0.5" r="0.5" transform="translate(14.5 -3.5)"/>
                    <circle id="Ellipse_415" data-name="Ellipse 415" cx="0.5" cy="0.5" r="0.5" transform="translate(12.5 -3.5)"/>
                    <circle id="Ellipse_416" data-name="Ellipse 416" cx="0.5" cy="0.5" r="0.5" transform="translate(17.833 -5.5)"/>
                    <circle id="Ellipse_417" data-name="Ellipse 417" cx="0.5" cy="0.5" r="0.5" transform="translate(15.833 -5.5)"/>
                    <circle id="Ellipse_418" data-name="Ellipse 418" cx="0.5" cy="0.5" r="0.5" transform="translate(13.833 -5.5)"/>
                    <circle id="Ellipse_419" data-name="Ellipse 419" cx="0.5" cy="0.5" r="0.5" transform="translate(11.833 -5.5)"/>
                  </g>
                </g>
              </g>
              <g id="Group_18238" data-name="Group 18238">
                <g id="Group_18237" data-name="Group 18237">
                  <g id="Group_18236" data-name="Group 18236" clip-path="url(#clip-path-4)">
                    <circle id="Ellipse_420" data-name="Ellipse 420" cx="0.5" cy="0.5" r="0.5" transform="translate(17.167 4.5)"/>
                    <circle id="Ellipse_421" data-name="Ellipse 421" cx="0.5" cy="0.5" r="0.5" transform="translate(15.167 4.5)"/>
                    <circle id="Ellipse_422" data-name="Ellipse 422" cx="0.5" cy="0.5" r="0.5" transform="translate(13.167 4.5)"/>
                    <circle id="Ellipse_423" data-name="Ellipse 423" cx="0.5" cy="0.5" r="0.5" transform="translate(11.167 4.5)"/>
                    <circle id="Ellipse_424" data-name="Ellipse 424" cx="0.5" cy="0.5" r="0.5" transform="translate(16.5 2.5)"/>
                    <circle id="Ellipse_425" data-name="Ellipse 425" cx="0.5" cy="0.5" r="0.5" transform="translate(14.5 2.5)"/>
                    <circle id="Ellipse_426" data-name="Ellipse 426" cx="0.5" cy="0.5" r="0.5" transform="translate(12.5 2.5)"/>
                    <circle id="Ellipse_427" data-name="Ellipse 427" cx="0.5" cy="0.5" r="0.5" transform="translate(17.833 0.5)"/>
                    <circle id="Ellipse_428" data-name="Ellipse 428" cx="0.5" cy="0.5" r="0.5" transform="translate(15.833 0.5)"/>
                    <circle id="Ellipse_429" data-name="Ellipse 429" cx="0.5" cy="0.5" r="0.5" transform="translate(13.833 0.5)"/>
                    <circle id="Ellipse_430" data-name="Ellipse 430" cx="0.5" cy="0.5" r="0.5" transform="translate(11.833 0.5)"/>
                  </g>
                </g>
              </g>
              <g id="Group_18241" data-name="Group 18241">
                <g id="Group_18240" data-name="Group 18240">
                  <g id="Group_18239" data-name="Group 18239" clip-path="url(#clip-path-5)">
                    <circle id="Ellipse_431" data-name="Ellipse 431" cx="0.5" cy="0.5" r="0.5" transform="translate(17.167 10.5)"/>
                    <circle id="Ellipse_432" data-name="Ellipse 432" cx="0.5" cy="0.5" r="0.5" transform="translate(15.167 10.5)"/>
                    <circle id="Ellipse_433" data-name="Ellipse 433" cx="0.5" cy="0.5" r="0.5" transform="translate(13.167 10.5)"/>
                    <circle id="Ellipse_434" data-name="Ellipse 434" cx="0.5" cy="0.5" r="0.5" transform="translate(11.167 10.5)"/>
                    <circle id="Ellipse_435" data-name="Ellipse 435" cx="0.5" cy="0.5" r="0.5" transform="translate(16.5 8.5)"/>
                    <circle id="Ellipse_436" data-name="Ellipse 436" cx="0.5" cy="0.5" r="0.5" transform="translate(14.5 8.5)"/>
                    <circle id="Ellipse_437" data-name="Ellipse 437" cx="0.5" cy="0.5" r="0.5" transform="translate(12.5 8.5)"/>
                    <circle id="Ellipse_438" data-name="Ellipse 438" cx="0.5" cy="0.5" r="0.5" transform="translate(17.833 6.5)"/>
                    <circle id="Ellipse_439" data-name="Ellipse 439" cx="0.5" cy="0.5" r="0.5" transform="translate(15.833 6.5)"/>
                    <circle id="Ellipse_440" data-name="Ellipse 440" cx="0.5" cy="0.5" r="0.5" transform="translate(13.833 6.5)"/>
                    <circle id="Ellipse_441" data-name="Ellipse 441" cx="0.5" cy="0.5" r="0.5" transform="translate(11.833 6.5)"/>
                  </g>
                </g>
              </g>
              <g id="Group_18244" data-name="Group 18244">
                <g id="Group_18243" data-name="Group 18243">
                  <g id="Group_18242" data-name="Group 18242" clip-path="url(#clip-path-6)">
                    <circle id="Ellipse_442" data-name="Ellipse 442" cx="0.5" cy="0.5" r="0.5" transform="translate(17.167 16.5)"/>
                    <circle id="Ellipse_443" data-name="Ellipse 443" cx="0.5" cy="0.5" r="0.5" transform="translate(15.167 16.5)"/>
                    <circle id="Ellipse_444" data-name="Ellipse 444" cx="0.5" cy="0.5" r="0.5" transform="translate(13.167 16.5)"/>
                    <circle id="Ellipse_445" data-name="Ellipse 445" cx="0.5" cy="0.5" r="0.5" transform="translate(11.167 16.5)"/>
                    <circle id="Ellipse_446" data-name="Ellipse 446" cx="0.5" cy="0.5" r="0.5" transform="translate(16.5 14.5)"/>
                    <circle id="Ellipse_447" data-name="Ellipse 447" cx="0.5" cy="0.5" r="0.5" transform="translate(14.5 14.5)"/>
                    <circle id="Ellipse_448" data-name="Ellipse 448" cx="0.5" cy="0.5" r="0.5" transform="translate(12.5 14.5)"/>
                    <circle id="Ellipse_449" data-name="Ellipse 449" cx="0.5" cy="0.5" r="0.5" transform="translate(17.833 12.5)"/>
                    <circle id="Ellipse_450" data-name="Ellipse 450" cx="0.5" cy="0.5" r="0.5" transform="translate(15.833 12.5)"/>
                    <circle id="Ellipse_451" data-name="Ellipse 451" cx="0.5" cy="0.5" r="0.5" transform="translate(13.833 12.5)"/>
                    <circle id="Ellipse_452" data-name="Ellipse 452" cx="0.5" cy="0.5" r="0.5" transform="translate(11.833 12.5)"/>
                  </g>
                </g>
              </g>
              <g id="Group_18247" data-name="Group 18247">
                <g id="Group_18246" data-name="Group 18246">
                  <g id="Group_18245" data-name="Group 18245" clip-path="url(#clip-path-7)">
                    <circle id="Ellipse_453" data-name="Ellipse 453" cx="0.5" cy="0.5" r="0.5" transform="translate(11.167 -1.5)"/>
                    <circle id="Ellipse_454" data-name="Ellipse 454" cx="0.5" cy="0.5" r="0.5" transform="translate(9.167 -1.5)"/>
                    <circle id="Ellipse_455" data-name="Ellipse 455" cx="0.5" cy="0.5" r="0.5" transform="translate(7.167 -1.5)"/>
                    <circle id="Ellipse_456" data-name="Ellipse 456" cx="0.5" cy="0.5" r="0.5" transform="translate(5.167 -1.5)"/>
                    <circle id="Ellipse_457" data-name="Ellipse 457" cx="0.5" cy="0.5" r="0.5" transform="translate(10.5 -3.5)"/>
                    <circle id="Ellipse_458" data-name="Ellipse 458" cx="0.5" cy="0.5" r="0.5" transform="translate(8.5 -3.5)"/>
                    <circle id="Ellipse_459" data-name="Ellipse 459" cx="0.5" cy="0.5" r="0.5" transform="translate(6.5 -3.5)"/>
                    <circle id="Ellipse_460" data-name="Ellipse 460" cx="0.5" cy="0.5" r="0.5" transform="translate(11.833 -5.5)"/>
                    <circle id="Ellipse_461" data-name="Ellipse 461" cx="0.5" cy="0.5" r="0.5" transform="translate(9.833 -5.5)"/>
                    <circle id="Ellipse_462" data-name="Ellipse 462" cx="0.5" cy="0.5" r="0.5" transform="translate(7.833 -5.5)"/>
                    <circle id="Ellipse_463" data-name="Ellipse 463" cx="0.5" cy="0.5" r="0.5" transform="translate(5.833 -5.5)"/>
                  </g>
                </g>
              </g>
              <g id="Group_18250" data-name="Group 18250">
                <g id="Group_18249" data-name="Group 18249">
                  <g id="Group_18248" data-name="Group 18248" clip-path="url(#clip-path-8)">
                    <circle id="Ellipse_464" data-name="Ellipse 464" cx="0.5" cy="0.5" r="0.5" transform="translate(11.167 4.5)"/>
                    <circle id="Ellipse_465" data-name="Ellipse 465" cx="0.5" cy="0.5" r="0.5" transform="translate(9.167 4.5)"/>
                    <circle id="Ellipse_466" data-name="Ellipse 466" cx="0.5" cy="0.5" r="0.5" transform="translate(7.167 4.5)"/>
                    <circle id="Ellipse_467" data-name="Ellipse 467" cx="0.5" cy="0.5" r="0.5" transform="translate(5.167 4.5)"/>
                    <circle id="Ellipse_468" data-name="Ellipse 468" cx="0.5" cy="0.5" r="0.5" transform="translate(10.5 2.5)"/>
                    <circle id="Ellipse_469" data-name="Ellipse 469" cx="0.5" cy="0.5" r="0.5" transform="translate(8.5 2.5)"/>
                    <circle id="Ellipse_470" data-name="Ellipse 470" cx="0.5" cy="0.5" r="0.5" transform="translate(6.5 2.5)"/>
                    <circle id="Ellipse_471" data-name="Ellipse 471" cx="0.5" cy="0.5" r="0.5" transform="translate(11.833 0.5)"/>
                    <circle id="Ellipse_472" data-name="Ellipse 472" cx="0.5" cy="0.5" r="0.5" transform="translate(9.833 0.5)"/>
                    <circle id="Ellipse_473" data-name="Ellipse 473" cx="0.5" cy="0.5" r="0.5" transform="translate(7.833 0.5)"/>
                    <circle id="Ellipse_474" data-name="Ellipse 474" cx="0.5" cy="0.5" r="0.5" transform="translate(5.833 0.5)"/>
                  </g>
                </g>
              </g>
              <g id="Group_18253" data-name="Group 18253">
                <g id="Group_18252" data-name="Group 18252">
                  <g id="Group_18251" data-name="Group 18251" clip-path="url(#clip-path-9)">
                    <circle id="Ellipse_475" data-name="Ellipse 475" cx="0.5" cy="0.5" r="0.5" transform="translate(11.167 10.5)"/>
                    <circle id="Ellipse_476" data-name="Ellipse 476" cx="0.5" cy="0.5" r="0.5" transform="translate(9.167 10.5)"/>
                    <circle id="Ellipse_477" data-name="Ellipse 477" cx="0.5" cy="0.5" r="0.5" transform="translate(7.167 10.5)"/>
                    <circle id="Ellipse_478" data-name="Ellipse 478" cx="0.5" cy="0.5" r="0.5" transform="translate(5.167 10.5)"/>
                    <circle id="Ellipse_479" data-name="Ellipse 479" cx="0.5" cy="0.5" r="0.5" transform="translate(10.5 8.5)"/>
                    <circle id="Ellipse_480" data-name="Ellipse 480" cx="0.5" cy="0.5" r="0.5" transform="translate(8.5 8.5)"/>
                    <circle id="Ellipse_481" data-name="Ellipse 481" cx="0.5" cy="0.5" r="0.5" transform="translate(6.5 8.5)"/>
                    <circle id="Ellipse_482" data-name="Ellipse 482" cx="0.5" cy="0.5" r="0.5" transform="translate(11.833 6.5)"/>
                    <circle id="Ellipse_483" data-name="Ellipse 483" cx="0.5" cy="0.5" r="0.5" transform="translate(9.833 6.5)"/>
                    <circle id="Ellipse_484" data-name="Ellipse 484" cx="0.5" cy="0.5" r="0.5" transform="translate(7.833 6.5)"/>
                    <circle id="Ellipse_485" data-name="Ellipse 485" cx="0.5" cy="0.5" r="0.5" transform="translate(5.833 6.5)"/>
                  </g>
                </g>
              </g>
              <g id="Group_18256" data-name="Group 18256">
                <g id="Group_18255" data-name="Group 18255">
                  <g id="Group_18254" data-name="Group 18254" clip-path="url(#clip-path-10)">
                    <circle id="Ellipse_486" data-name="Ellipse 486" cx="0.5" cy="0.5" r="0.5" transform="translate(11.167 16.5)"/>
                    <circle id="Ellipse_487" data-name="Ellipse 487" cx="0.5" cy="0.5" r="0.5" transform="translate(9.167 16.5)"/>
                    <circle id="Ellipse_488" data-name="Ellipse 488" cx="0.5" cy="0.5" r="0.5" transform="translate(7.167 16.5)"/>
                    <circle id="Ellipse_489" data-name="Ellipse 489" cx="0.5" cy="0.5" r="0.5" transform="translate(5.167 16.5)"/>
                    <circle id="Ellipse_490" data-name="Ellipse 490" cx="0.5" cy="0.5" r="0.5" transform="translate(10.5 14.5)"/>
                    <circle id="Ellipse_491" data-name="Ellipse 491" cx="0.5" cy="0.5" r="0.5" transform="translate(8.5 14.5)"/>
                    <circle id="Ellipse_492" data-name="Ellipse 492" cx="0.5" cy="0.5" r="0.5" transform="translate(6.5 14.5)"/>
                    <circle id="Ellipse_493" data-name="Ellipse 493" cx="0.5" cy="0.5" r="0.5" transform="translate(11.833 12.5)"/>
                    <circle id="Ellipse_494" data-name="Ellipse 494" cx="0.5" cy="0.5" r="0.5" transform="translate(9.833 12.5)"/>
                    <circle id="Ellipse_495" data-name="Ellipse 495" cx="0.5" cy="0.5" r="0.5" transform="translate(7.833 12.5)"/>
                    <circle id="Ellipse_496" data-name="Ellipse 496" cx="0.5" cy="0.5" r="0.5" transform="translate(5.833 12.5)"/>
                  </g>
                </g>
              </g>
              <g id="Group_18259" data-name="Group 18259">
                <g id="Group_18258" data-name="Group 18258">
                  <g id="Group_18257" data-name="Group 18257" clip-path="url(#clip-path-11)">
                    <circle id="Ellipse_497" data-name="Ellipse 497" cx="0.5" cy="0.5" r="0.5" transform="translate(5.167 -1.5)"/>
                    <circle id="Ellipse_498" data-name="Ellipse 498" cx="0.5" cy="0.5" r="0.5" transform="translate(3.167 -1.5)"/>
                    <circle id="Ellipse_499" data-name="Ellipse 499" cx="0.5" cy="0.5" r="0.5" transform="translate(1.167 -1.5)"/>
                    <circle id="Ellipse_500" data-name="Ellipse 500" cx="0.5" cy="0.5" r="0.5" transform="translate(-0.833 -1.5)"/>
                    <circle id="Ellipse_501" data-name="Ellipse 501" cx="0.5" cy="0.5" r="0.5" transform="translate(4.5 -3.5)"/>
                    <circle id="Ellipse_502" data-name="Ellipse 502" cx="0.5" cy="0.5" r="0.5" transform="translate(2.5 -3.5)"/>
                    <circle id="Ellipse_503" data-name="Ellipse 503" cx="0.5" cy="0.5" r="0.5" transform="translate(0.5 -3.5)"/>
                    <circle id="Ellipse_504" data-name="Ellipse 504" cx="0.5" cy="0.5" r="0.5" transform="translate(5.833 -5.5)"/>
                    <circle id="Ellipse_505" data-name="Ellipse 505" cx="0.5" cy="0.5" r="0.5" transform="translate(3.833 -5.5)"/>
                    <circle id="Ellipse_506" data-name="Ellipse 506" cx="0.5" cy="0.5" r="0.5" transform="translate(1.833 -5.5)"/>
                    <circle id="Ellipse_507" data-name="Ellipse 507" cx="0.5" cy="0.5" r="0.5" transform="translate(-0.167 -5.5)"/>
                  </g>
                </g>
              </g>
              <g id="Group_18262" data-name="Group 18262">
                <g id="Group_18261" data-name="Group 18261">
                  <g id="Group_18260" data-name="Group 18260" clip-path="url(#clip-path-12)">
                    <circle id="Ellipse_508" data-name="Ellipse 508" cx="0.5" cy="0.5" r="0.5" transform="translate(5.167 4.5)"/>
                    <circle id="Ellipse_509" data-name="Ellipse 509" cx="0.5" cy="0.5" r="0.5" transform="translate(3.167 4.5)"/>
                    <circle id="Ellipse_510" data-name="Ellipse 510" cx="0.5" cy="0.5" r="0.5" transform="translate(1.167 4.5)"/>
                    <circle id="Ellipse_511" data-name="Ellipse 511" cx="0.5" cy="0.5" r="0.5" transform="translate(-0.833 4.5)"/>
                    <circle id="Ellipse_512" data-name="Ellipse 512" cx="0.5" cy="0.5" r="0.5" transform="translate(4.5 2.5)"/>
                    <circle id="Ellipse_513" data-name="Ellipse 513" cx="0.5" cy="0.5" r="0.5" transform="translate(2.5 2.5)"/>
                    <circle id="Ellipse_514" data-name="Ellipse 514" cx="0.5" cy="0.5" r="0.5" transform="translate(0.5 2.5)"/>
                    <circle id="Ellipse_515" data-name="Ellipse 515" cx="0.5" cy="0.5" r="0.5" transform="translate(5.833 0.5)"/>
                    <circle id="Ellipse_516" data-name="Ellipse 516" cx="0.5" cy="0.5" r="0.5" transform="translate(3.833 0.5)"/>
                    <circle id="Ellipse_517" data-name="Ellipse 517" cx="0.5" cy="0.5" r="0.5" transform="translate(1.833 0.5)"/>
                    <circle id="Ellipse_518" data-name="Ellipse 518" cx="0.5" cy="0.5" r="0.5" transform="translate(-0.167 0.5)"/>
                  </g>
                </g>
              </g>
              <g id="Group_18265" data-name="Group 18265">
                <g id="Group_18264" data-name="Group 18264">
                  <g id="Group_18263" data-name="Group 18263" clip-path="url(#clip-path-13)">
                    <circle id="Ellipse_519" data-name="Ellipse 519" cx="0.5" cy="0.5" r="0.5" transform="translate(5.167 10.5)"/>
                    <circle id="Ellipse_520" data-name="Ellipse 520" cx="0.5" cy="0.5" r="0.5" transform="translate(3.167 10.5)"/>
                    <circle id="Ellipse_521" data-name="Ellipse 521" cx="0.5" cy="0.5" r="0.5" transform="translate(1.167 10.5)"/>
                    <circle id="Ellipse_522" data-name="Ellipse 522" cx="0.5" cy="0.5" r="0.5" transform="translate(-0.833 10.5)"/>
                    <circle id="Ellipse_523" data-name="Ellipse 523" cx="0.5" cy="0.5" r="0.5" transform="translate(4.5 8.5)"/>
                    <circle id="Ellipse_524" data-name="Ellipse 524" cx="0.5" cy="0.5" r="0.5" transform="translate(2.5 8.5)"/>
                    <circle id="Ellipse_525" data-name="Ellipse 525" cx="0.5" cy="0.5" r="0.5" transform="translate(0.5 8.5)"/>
                    <circle id="Ellipse_526" data-name="Ellipse 526" cx="0.5" cy="0.5" r="0.5" transform="translate(5.833 6.5)"/>
                    <circle id="Ellipse_527" data-name="Ellipse 527" cx="0.5" cy="0.5" r="0.5" transform="translate(3.833 6.5)"/>
                    <circle id="Ellipse_528" data-name="Ellipse 528" cx="0.5" cy="0.5" r="0.5" transform="translate(1.833 6.5)"/>
                    <circle id="Ellipse_529" data-name="Ellipse 529" cx="0.5" cy="0.5" r="0.5" transform="translate(-0.167 6.5)"/>
                  </g>
                </g>
              </g>
              <g id="Group_18268" data-name="Group 18268">
                <g id="Group_18267" data-name="Group 18267">
                  <g id="Group_18266" data-name="Group 18266" clip-path="url(#clip-path-14)">
                    <circle id="Ellipse_530" data-name="Ellipse 530" cx="0.5" cy="0.5" r="0.5" transform="translate(5.167 16.5)"/>
                    <circle id="Ellipse_531" data-name="Ellipse 531" cx="0.5" cy="0.5" r="0.5" transform="translate(3.167 16.5)"/>
                    <circle id="Ellipse_532" data-name="Ellipse 532" cx="0.5" cy="0.5" r="0.5" transform="translate(1.167 16.5)"/>
                    <circle id="Ellipse_533" data-name="Ellipse 533" cx="0.5" cy="0.5" r="0.5" transform="translate(-0.833 16.5)"/>
                    <circle id="Ellipse_534" data-name="Ellipse 534" cx="0.5" cy="0.5" r="0.5" transform="translate(4.5 14.5)"/>
                    <circle id="Ellipse_535" data-name="Ellipse 535" cx="0.5" cy="0.5" r="0.5" transform="translate(2.5 14.5)"/>
                    <circle id="Ellipse_536" data-name="Ellipse 536" cx="0.5" cy="0.5" r="0.5" transform="translate(0.5 14.5)"/>
                    <circle id="Ellipse_537" data-name="Ellipse 537" cx="0.5" cy="0.5" r="0.5" transform="translate(5.833 12.5)"/>
                    <circle id="Ellipse_538" data-name="Ellipse 538" cx="0.5" cy="0.5" r="0.5" transform="translate(3.833 12.5)"/>
                    <circle id="Ellipse_539" data-name="Ellipse 539" cx="0.5" cy="0.5" r="0.5" transform="translate(1.833 12.5)"/>
                    <circle id="Ellipse_540" data-name="Ellipse 540" cx="0.5" cy="0.5" r="0.5" transform="translate(-0.167 12.5)"/>
                  </g>
                </g>
              </g>
              <g id="Group_18271" data-name="Group 18271">
                <g id="Group_18270" data-name="Group 18270">
                  <g id="Group_18269" data-name="Group 18269" clip-path="url(#clip-path-15)">
                    <circle id="Ellipse_541" data-name="Ellipse 541" cx="0.5" cy="0.5" r="0.5" transform="translate(-0.833 -1.5)"/>
                    <circle id="Ellipse_542" data-name="Ellipse 542" cx="0.5" cy="0.5" r="0.5" transform="translate(-2.833 -1.5)"/>
                    <circle id="Ellipse_543" data-name="Ellipse 543" cx="0.5" cy="0.5" r="0.5" transform="translate(-4.833 -1.5)"/>
                    <circle id="Ellipse_544" data-name="Ellipse 544" cx="0.5" cy="0.5" r="0.5" transform="translate(-6.833 -1.5)"/>
                    <circle id="Ellipse_545" data-name="Ellipse 545" cx="0.5" cy="0.5" r="0.5" transform="translate(-1.5 -3.5)"/>
                    <circle id="Ellipse_546" data-name="Ellipse 546" cx="0.5" cy="0.5" r="0.5" transform="translate(-3.5 -3.5)"/>
                    <circle id="Ellipse_547" data-name="Ellipse 547" cx="0.5" cy="0.5" r="0.5" transform="translate(-5.5 -3.5)"/>
                    <circle id="Ellipse_548" data-name="Ellipse 548" cx="0.5" cy="0.5" r="0.5" transform="translate(-0.167 -5.5)"/>
                    <circle id="Ellipse_549" data-name="Ellipse 549" cx="0.5" cy="0.5" r="0.5" transform="translate(-2.167 -5.5)"/>
                    <circle id="Ellipse_550" data-name="Ellipse 550" cx="0.5" cy="0.5" r="0.5" transform="translate(-4.167 -5.5)"/>
                    <circle id="Ellipse_551" data-name="Ellipse 551" cx="0.5" cy="0.5" r="0.5" transform="translate(-6.167 -5.5)"/>
                  </g>
                </g>
              </g>
              <g id="Group_18274" data-name="Group 18274">
                <g id="Group_18273" data-name="Group 18273">
                  <g id="Group_18272" data-name="Group 18272" clip-path="url(#clip-path-16)">
                    <circle id="Ellipse_552" data-name="Ellipse 552" cx="0.5" cy="0.5" r="0.5" transform="translate(-0.833 4.5)"/>
                    <circle id="Ellipse_553" data-name="Ellipse 553" cx="0.5" cy="0.5" r="0.5" transform="translate(-2.833 4.5)"/>
                    <circle id="Ellipse_554" data-name="Ellipse 554" cx="0.5" cy="0.5" r="0.5" transform="translate(-4.833 4.5)"/>
                    <circle id="Ellipse_555" data-name="Ellipse 555" cx="0.5" cy="0.5" r="0.5" transform="translate(-6.833 4.5)"/>
                    <circle id="Ellipse_556" data-name="Ellipse 556" cx="0.5" cy="0.5" r="0.5" transform="translate(-1.5 2.5)"/>
                    <circle id="Ellipse_557" data-name="Ellipse 557" cx="0.5" cy="0.5" r="0.5" transform="translate(-3.5 2.5)"/>
                    <circle id="Ellipse_558" data-name="Ellipse 558" cx="0.5" cy="0.5" r="0.5" transform="translate(-5.5 2.5)"/>
                    <circle id="Ellipse_559" data-name="Ellipse 559" cx="0.5" cy="0.5" r="0.5" transform="translate(-0.167 0.5)"/>
                    <circle id="Ellipse_560" data-name="Ellipse 560" cx="0.5" cy="0.5" r="0.5" transform="translate(-2.167 0.5)"/>
                    <circle id="Ellipse_561" data-name="Ellipse 561" cx="0.5" cy="0.5" r="0.5" transform="translate(-4.167 0.5)"/>
                    <circle id="Ellipse_562" data-name="Ellipse 562" cx="0.5" cy="0.5" r="0.5" transform="translate(-6.167 0.5)"/>
                  </g>
                </g>
              </g>
              <g id="Group_18277" data-name="Group 18277">
                <g id="Group_18276" data-name="Group 18276">
                  <g id="Group_18275" data-name="Group 18275" clip-path="url(#clip-path-17)">
                    <circle id="Ellipse_563" data-name="Ellipse 563" cx="0.5" cy="0.5" r="0.5" transform="translate(-0.833 10.5)"/>
                    <circle id="Ellipse_564" data-name="Ellipse 564" cx="0.5" cy="0.5" r="0.5" transform="translate(-2.833 10.5)"/>
                    <circle id="Ellipse_565" data-name="Ellipse 565" cx="0.5" cy="0.5" r="0.5" transform="translate(-4.833 10.5)"/>
                    <circle id="Ellipse_566" data-name="Ellipse 566" cx="0.5" cy="0.5" r="0.5" transform="translate(-6.833 10.5)"/>
                    <circle id="Ellipse_567" data-name="Ellipse 567" cx="0.5" cy="0.5" r="0.5" transform="translate(-1.5 8.5)"/>
                    <circle id="Ellipse_568" data-name="Ellipse 568" cx="0.5" cy="0.5" r="0.5" transform="translate(-3.5 8.5)"/>
                    <circle id="Ellipse_569" data-name="Ellipse 569" cx="0.5" cy="0.5" r="0.5" transform="translate(-5.5 8.5)"/>
                    <circle id="Ellipse_570" data-name="Ellipse 570" cx="0.5" cy="0.5" r="0.5" transform="translate(-0.167 6.5)"/>
                    <circle id="Ellipse_571" data-name="Ellipse 571" cx="0.5" cy="0.5" r="0.5" transform="translate(-2.167 6.5)"/>
                    <circle id="Ellipse_572" data-name="Ellipse 572" cx="0.5" cy="0.5" r="0.5" transform="translate(-4.167 6.5)"/>
                    <circle id="Ellipse_573" data-name="Ellipse 573" cx="0.5" cy="0.5" r="0.5" transform="translate(-6.167 6.5)"/>
                  </g>
                </g>
              </g>
              <g id="Group_18280" data-name="Group 18280">
                <g id="Group_18279" data-name="Group 18279">
                  <g id="Group_18278" data-name="Group 18278" clip-path="url(#clip-path-18)">
                    <circle id="Ellipse_574" data-name="Ellipse 574" cx="0.5" cy="0.5" r="0.5" transform="translate(-0.833 16.5)"/>
                    <circle id="Ellipse_575" data-name="Ellipse 575" cx="0.5" cy="0.5" r="0.5" transform="translate(-2.833 16.5)"/>
                    <circle id="Ellipse_576" data-name="Ellipse 576" cx="0.5" cy="0.5" r="0.5" transform="translate(-4.833 16.5)"/>
                    <circle id="Ellipse_577" data-name="Ellipse 577" cx="0.5" cy="0.5" r="0.5" transform="translate(-6.833 16.5)"/>
                    <circle id="Ellipse_578" data-name="Ellipse 578" cx="0.5" cy="0.5" r="0.5" transform="translate(-1.5 14.5)"/>
                    <circle id="Ellipse_579" data-name="Ellipse 579" cx="0.5" cy="0.5" r="0.5" transform="translate(-3.5 14.5)"/>
                    <circle id="Ellipse_580" data-name="Ellipse 580" cx="0.5" cy="0.5" r="0.5" transform="translate(-5.5 14.5)"/>
                    <circle id="Ellipse_581" data-name="Ellipse 581" cx="0.5" cy="0.5" r="0.5" transform="translate(-0.167 12.5)"/>
                    <circle id="Ellipse_582" data-name="Ellipse 582" cx="0.5" cy="0.5" r="0.5" transform="translate(-2.167 12.5)"/>
                    <circle id="Ellipse_583" data-name="Ellipse 583" cx="0.5" cy="0.5" r="0.5" transform="translate(-4.167 12.5)"/>
                    <circle id="Ellipse_584" data-name="Ellipse 584" cx="0.5" cy="0.5" r="0.5" transform="translate(-6.167 12.5)"/>
                  </g>
                </g>
              </g>
            </g>
          </g>
        </g>
      </g>
    </g>
  </g>
</svg>
