<?xml version="1.0" encoding="utf-8"?>
<!-- Generator: Adobe Illustrator 25.0.0, SVG Export Plug-In . SVG Version: 6.00 Build 0)  -->
<svg version="1.1" id="Layer_1" xmlns="http://www.w3.org/2000/svg" xmlns:xlink="http://www.w3.org/1999/xlink" x="0px" y="0px"
	 viewBox="0 0 50 50" style="enable-background:new 0 0 50 50;" xml:space="preserve">
<style type="text/css">
	.st0{fill:#3C64BC;}
</style>
<g>
	<path class="st0" d="M44.8,17.2l-5.4-2.6v-1.9c0.1-1.3-0.9-2.4-2.2-2.5c-1.2,0.1-2.2,1.1-2.2,2.4l-9.4-4.4c-0.6-0.3-1.3-0.3-1.9,0
		L5.2,17.2c-1.1,0.5-1.5,1.9-1,3c0.5,1.1,1.9,1.5,3,1l17.5-8.6l18.2,8.6c1.1,0.5,2.4,0,2.9-1.1C46.4,19,45.9,17.7,44.8,17.2
		L44.8,17.2z"/>
	<path class="st0" d="M35.7,42.1c2.1,0,3.7-1.7,3.7-3.7c0,0,0,0,0,0V21.3l-14.9-6.9L9.6,21.7v16.7c0,2.1,0.8,3.7,1.9,3.7h1.9V30.8
		c0-0.4,0.3-0.7,0.7-0.7h6.5c0.4,0,0.7,0.3,0.7,0.7v11.4H35.7z M30.9,29.6h4v9h-4V29.6z M25,29.6h4v9h-4L25,29.6z"/>
</g>
</svg>
