<svg id="Layer_1" data-name="Layer 1" xmlns="http://www.w3.org/2000/svg" width="50" height="50" viewBox="0 0 50 50">
  <circle cx="25.4" cy="19.5" r="12.9" fill="#fff"/>
  <g id="OBJECTS">
    <path d="M25,3.5a15.809,15.809,0,0,0-4.7,30.9l3.3,5.7a1.456,1.456,0,0,0,2,.5,1.205,1.205,0,0,0,.5-.5l3.3-5.7A15.751,15.751,0,0,0,25,3.5Zm0,27.9A12.1,12.1,0,1,1,37.1,19.3h0A12.078,12.078,0,0,1,25,31.4Zm1.6,13.2A1.6,1.6,0,1,1,25,43h0A1.58,1.58,0,0,1,26.6,44.6Z" fill="#1664c1"/>
  </g>
  <g>
    <path d="M21.2,26.9h0a.684.684,0,0,1-.7-.7V20.7a.684.684,0,0,1,.7-.7h0a.684.684,0,0,1,.7.7v5.5A.684.684,0,0,1,21.2,26.9Z" fill="#1664c1"/>
    <path d="M28.6,26.9h0a.684.684,0,0,1-.7-.7V20.7a.684.684,0,0,1,.7-.7h0a.684.684,0,0,1,.7.7v5.5A.842.842,0,0,1,28.6,26.9Z" fill="#1664c1"/>
    <rect x="24.52" y="13.253" width="2.4" height="0.4" transform="matrix(0.478, -0.878, 0.878, 0.478, 1.61, 29.616)" fill="#1664c1"/>
    <rect x="21.436" y="15.253" width="2.4" height="0.4" transform="matrix(0.478, -0.878, 0.878, 0.478, -1.754, 27.955)" fill="#1664c1"/>
    <rect x="25.501" y="15.183" width="2.4" height="0.4" transform="translate(0.428 31.486) rotate(-61.451)" fill="#1664c1"/>
    <rect x="28.68" y="13.049" width="2.4" height="0.4" transform="translate(3.962 33.164) rotate(-61.451)" fill="#1664c1"/>
    <rect x="29.6" y="15.307" width="2.4" height="0.4" transform="translate(2.459 35.151) rotate(-61.451)" fill="#1664c1"/>
    <rect x="27.046" y="17.312" width="2.4" height="0.4" transform="translate(-0.635 33.954) rotate(-61.451)" fill="#1664c1"/>
    <rect x="20.296" y="13.096" width="2.4" height="0.4" transform="translate(-0.455 25.827) rotate(-61.459)" fill="#1664c1"/>
    <rect x="18.775" y="17.281" width="2.4" height="0.4" transform="translate(-4.925 26.676) rotate(-61.459)" fill="#1664c1"/>
    <rect x="17.205" y="15.187" width="2.4" height="0.4" transform="matrix(0.478, -0.878, 0.878, 0.478, -3.906, 24.203)" fill="#1664c1"/>
    <polygon points="17.8 21.6 19.7 21.6 24.9 19.6 29.8 21.7 32 21.7 24.8 17.5 17.8 21.6" fill="#1664c1"/>
  </g>
</svg>
