<svg xmlns="http://www.w3.org/2000/svg" width="34" height="48" viewBox="0 0 34 48"><defs><style>.a{opacity:0.67;}.b{fill:#f1faff;}</style></defs><g class="a" transform="translate(-62 -864)"><path class="b" d="M78,870.5a6.5,6.5,0,0,0-13,0v25.077a9.5,9.5,0,1,0,13,0ZM71.5,909a6.5,6.5,0,0,1-4.061-11.57l.561-.45V870.5a3.5,3.5,0,0,1,7,0v26.48l.561.45A6.5,6.5,0,0,1,71.5,909Z"/><path class="b" d="M73,898.8v-9.3a1.5,1.5,0,0,0-3,0v9.3a4,4,0,1,0,3,0Z"/><path class="b" d="M94.5,874h-12a1.5,1.5,0,0,0,0,3h12a1.5,1.5,0,0,0,0-3Z"/></g></svg>