<svg width="400" height="400" viewBox="0 0 400 400" fill="none" xmlns="http://www.w3.org/2000/svg">
<path d="M150.25 130.25L130.75 198.5M218.25 130.25L203.75 198.5M190.25 130.25L167.25 193.5M257.25 193.168C271.817 187.464 286.5 174.468 286.5 148.25C286.5 109.25 254.003 99.5 237.75 99.5C237.75 80 237.75 41 179.25 41C120.75 41 120.75 80 120.75 99.5C104.497 99.5 72 109.25 72 148.25C72 174.468 86.684 187.464 101.25 193.168" stroke="#221F20" stroke-width="11.5" stroke-linecap="round" stroke-linejoin="round"/>
<path d="M170.708 270.207C167.467 268.336 164.934 265.448 163.502 261.99C162.07 258.533 161.819 254.699 162.787 251.085C163.756 247.47 165.89 244.276 168.859 241.998C171.828 239.719 175.466 238.485 179.208 238.485C182.95 238.485 186.588 239.719 189.557 241.998C192.526 244.276 194.66 247.47 195.629 251.085C196.597 254.699 196.346 258.533 194.914 261.99C193.482 265.448 190.949 268.336 187.708 270.207V305.354V340.502H170.708V270.207ZM215.248 291.542L203.263 279.557C208.065 274.818 211.345 268.754 212.683 262.142C214.021 255.529 213.356 248.667 210.774 242.434C208.191 236.201 203.808 230.88 198.185 227.151C192.562 223.422 185.955 221.455 179.208 221.502C172.48 221.497 165.901 223.488 160.305 227.224C154.708 230.959 150.346 236.271 147.771 242.487C145.195 248.703 144.522 255.544 145.836 262.142C147.15 268.741 150.393 274.802 155.153 279.557L143.168 291.542C136.041 284.407 131.19 275.32 129.226 265.428C127.263 255.537 128.276 245.285 132.138 235.97C136 226.654 142.537 218.692 150.922 213.091C159.308 207.489 169.166 204.5 179.251 204.5C189.335 204.5 199.193 207.489 207.579 213.091C215.964 218.692 222.501 226.654 226.363 235.97C230.225 245.285 231.238 255.537 229.275 265.428C227.311 275.32 222.46 284.407 215.333 291.542H215.248Z" fill="#221F20"/>
</svg>
