<svg width="400" height="400" viewBox="0 0 400 400" fill="none" xmlns="http://www.w3.org/2000/svg">
<path d="M151.501 149.742C152.045 147.484 153.107 145.678 154.451 144.722C155.796 143.764 157.313 143.736 158.671 144.64L178.051 157.54C181.995 160.164 186.395 160.164 190.339 157.54L201.524 150.09C208.098 145.715 215.433 145.715 222.008 150.09L233.203 157.54C237.148 160.164 241.547 160.164 245.491 157.54L256.676 150.09C263.25 145.715 270.585 145.715 277.16 150.09L288.355 157.54C292.3 160.164 296.699 160.164 300.643 157.54L320.024 144.64C320.699 144.162 321.425 143.914 322.159 143.908C322.893 143.904 323.62 144.143 324.298 144.611C324.975 145.079 325.59 145.768 326.106 146.636C326.621 147.505 327.028 148.537 327.301 149.67C327.574 150.803 327.709 152.016 327.696 153.236C327.684 154.457 327.526 155.661 327.23 156.779C326.934 157.897 326.507 158.904 325.975 159.744C325.442 160.584 324.814 161.238 324.127 161.668L304.736 174.569C298.161 178.944 290.827 178.944 284.252 174.569L273.067 167.119C269.123 164.494 264.723 164.494 260.78 167.119L249.583 174.569C243.009 178.944 235.675 178.944 229.1 174.569L217.915 167.119C213.971 164.494 209.571 164.494 205.628 167.119L194.431 174.569C187.857 178.944 180.523 178.944 173.948 174.569L154.568 161.668C153.21 160.763 152.125 158.998 151.55 156.761C150.975 154.525 150.957 151.999 151.501 149.742ZM151.501 204.791C152.045 202.533 153.107 200.727 154.451 199.771C155.796 198.814 157.313 198.785 158.671 199.689L178.051 212.589C181.995 215.214 186.395 215.214 190.339 212.589L201.524 205.139C208.098 200.764 215.433 200.764 222.008 205.139L233.203 212.589C237.148 215.214 241.547 215.214 245.491 212.589L256.676 205.139C263.25 200.764 270.585 200.764 277.16 205.139L288.355 212.589C292.3 215.214 296.699 215.214 300.643 212.589L320.024 199.689C320.699 199.212 321.425 198.963 322.159 198.958C322.893 198.953 323.62 199.192 324.298 199.66C324.975 200.128 325.59 200.817 326.106 201.686C326.621 202.555 327.028 203.586 327.301 204.719C327.574 205.852 327.709 207.065 327.696 208.285C327.684 209.506 327.526 210.711 327.23 211.828C326.934 212.946 326.507 213.954 325.975 214.793C325.442 215.633 324.814 216.287 324.127 216.718L304.736 229.618C298.161 233.993 290.827 233.993 284.252 229.618L273.067 222.168C269.123 219.544 264.723 219.544 260.78 222.168L249.583 229.618C243.009 233.993 235.675 233.993 229.1 229.618L217.915 222.168C213.971 219.544 209.571 219.544 205.628 222.168L194.431 229.618C187.857 233.993 180.523 233.993 173.948 229.618L154.568 216.718C153.21 215.812 152.125 214.047 151.55 211.81C150.975 209.574 150.957 207.049 151.501 204.791ZM151.501 259.84C152.045 257.582 153.107 255.777 154.451 254.82C155.796 253.863 157.313 253.834 158.671 254.738L178.051 267.638C181.995 270.263 186.395 270.263 190.339 267.638L201.524 260.189C208.098 255.814 215.433 255.814 222.008 260.189L233.203 267.638C237.148 270.263 241.547 270.263 245.491 267.638L256.676 260.189C263.25 255.814 270.585 255.814 277.16 260.189L288.355 267.638C292.3 270.263 296.699 270.263 300.643 267.638L320.024 254.738C320.699 254.261 321.425 254.012 322.159 254.007C322.893 254.002 323.62 254.241 324.298 254.709C324.975 255.178 325.59 255.867 326.106 256.735C326.621 257.604 327.028 258.635 327.301 259.768C327.574 260.901 327.709 262.114 327.696 263.334C327.684 264.556 327.526 265.76 327.23 266.877C326.934 267.995 326.507 269.003 325.975 269.842C325.442 270.682 324.814 271.336 324.127 271.767L304.736 284.667C298.161 289.042 290.827 289.042 284.252 284.667L273.067 277.217C269.123 274.593 264.723 274.593 260.78 277.217L249.583 284.667C243.009 289.042 235.675 289.042 229.1 284.667L217.915 277.217C213.971 274.593 209.571 274.593 205.628 277.217L194.431 284.667C187.857 289.042 180.523 289.042 173.948 284.667L154.568 271.767C153.21 270.862 152.125 269.097 151.55 266.859C150.975 264.623 150.957 262.098 151.501 259.84ZM151.501 314.889C152.045 312.632 153.107 310.826 154.451 309.869C155.796 308.912 157.313 308.883 158.671 309.787L178.051 322.688C181.995 325.312 186.395 325.312 190.339 322.688L201.524 315.238C208.098 310.863 215.433 310.863 222.008 315.238L233.203 322.688C237.148 325.312 241.547 325.312 245.491 322.688L256.676 315.238C263.25 310.863 270.585 310.863 277.16 315.238L288.355 322.688C292.3 325.312 296.699 325.312 300.643 322.688L320.024 309.787C320.699 309.31 321.425 309.062 322.159 309.056C322.893 309.052 323.62 309.29 324.298 309.759C324.975 310.227 325.59 310.916 326.106 311.784C326.621 312.653 327.028 313.684 327.301 314.817C327.574 315.95 327.709 317.163 327.696 318.384C327.684 319.605 327.526 320.809 327.23 321.927C326.934 323.044 326.507 324.052 325.975 324.891C325.442 325.732 324.814 326.386 324.127 326.816L304.736 339.716C298.161 344.091 290.827 344.091 284.252 339.716L273.067 332.266C269.123 329.642 264.723 329.642 260.78 332.266L249.583 339.716C243.009 344.091 235.675 344.091 229.1 339.716L217.915 332.266C213.971 329.642 209.571 329.642 205.628 332.266L194.431 339.716C187.857 344.091 180.523 344.091 173.948 339.716L154.568 326.816C153.21 325.911 152.125 324.146 151.55 321.909C150.975 319.672 150.957 317.147 151.501 314.889Z" fill="#E35163"/>
<path d="M234.746 102.174C232.991 100.489 231.62 97.8878 230.845 94.7735C230.069 91.6599 229.933 88.2076 230.457 84.9521C230.982 81.6967 232.137 78.82 233.745 76.7683C235.352 74.7166 237.321 73.6045 239.347 73.6045C241.373 73.6045 243.343 74.7166 244.95 76.7683C246.557 78.82 247.712 81.6967 248.237 84.9521C248.761 88.2076 248.625 91.6599 247.85 94.7735C247.075 97.8878 245.703 100.489 243.949 102.174V165.481H234.746V102.174ZM258.858 121.388L252.37 110.594C254.97 106.326 256.745 100.865 257.47 94.9104C258.194 88.9544 257.834 82.7747 256.436 77.1613C255.038 71.5477 252.665 66.7555 249.621 63.3975C246.577 60.0394 243 58.2681 239.347 58.31C235.705 58.3052 232.143 60.0985 229.114 63.4628C226.084 66.827 223.722 71.6111 222.328 77.2092C220.934 82.8073 220.569 88.9678 221.281 94.9104C221.992 100.853 223.748 106.312 226.325 110.594L219.836 121.388C215.978 114.962 213.352 106.779 212.289 97.8698C211.226 88.9618 211.774 79.7293 213.865 71.3396C215.956 62.9498 219.495 55.7795 224.034 50.7347C228.574 45.6901 233.911 42.9976 239.371 42.9976C244.83 42.9976 250.167 45.6901 254.706 50.7347C259.246 55.7795 262.785 62.9498 264.876 71.3396C266.966 79.7293 267.515 88.9618 266.452 97.8698C265.389 106.779 262.763 114.962 258.904 121.388H258.858Z" fill="#E35163"/>
</svg>
