<svg id="Layer_1" data-name="Layer 1" xmlns="http://www.w3.org/2000/svg" width="32" height="32" viewBox="0 0 32 32">
  <defs>
    <style>
      .cls-1 {
        fill: #9d6c3b;
      }
    </style>
  </defs>
  <title>icon</title>
  <path class="cls-1" d="M13.13,24.16a2.35,2.35,0,0,1-.7-1.68,2.39,2.39,0,0,1,2.38-2.39h1.93l.16,0,1.25-7.17H12A2.86,2.86,0,0,0,9.09,15.8v9.54A1.9,1.9,0,0,0,11,27.25h6.68a1.9,1.9,0,0,0,1.9-1.91v-.47H14.81a2.34,2.34,0,0,1-1.68-.71"/>
  <path class="cls-1" d="M13.38,22.48a1.41,1.41,0,0,0,.42,1,1.43,1.43,0,0,0,1,.42h1.43l.5-2.86H14.81a1.43,1.43,0,0,0-1.43,1.43"/>
  <path class="cls-1" d="M20.54,12.94v11H21a1.43,1.43,0,0,0,1.44-1.43V14.85a1.9,1.9,0,0,0-1.91-1.91"/>
  <path class="cls-1" d="M15.77,11a3.34,3.34,0,1,0-3.34-3.34A3.35,3.35,0,0,0,15.77,11"/>
</svg>
