<svg id="Layer_1" data-name="Layer 1" xmlns="http://www.w3.org/2000/svg" width="32" height="32" viewBox="0 0 32 32">
  <defs>
    <style>
      .cls-1 {
        fill: #9d6c3b;
      }
    </style>
  </defs>
  <title>icon</title>
  <g>
    <path class="cls-1" d="M22.78,17.74,19.39,11H11.61l-3.39,6.7a6,6,0,0,0,5.55,8.44h3.46a6,6,0,0,0,5.55-8.44m-6.85,4.11v.65a.65.65,0,0,1-1.3,0v-.65h-.21a.65.65,0,0,1-.65-.65.64.64,0,0,1,.65-.64h1.27a.65.65,0,1,0,0-1.3h-.38a1.95,1.95,0,0,1-.68-3.78v-.76a.65.65,0,1,1,1.3,0v.65h.65a.65.65,0,1,1,0,1.29H15.31a.68.68,0,0,0-.68.66.67.67,0,0,0,.68.64h.38a2,2,0,0,1,.24,3.89"/>
    <path class="cls-1" d="M11.61,10.18h3.46L14.35,7a.86.86,0,0,0-.84-.68H11.17a.44.44,0,0,0-.42.53Z"/>
    <path class="cls-1" d="M17.66,10.18h1.73l.86-4.24a.44.44,0,0,0-.43-.51H18.53a.88.88,0,0,0-.87.86.87.87,0,0,0-.86-.86H15.5a.44.44,0,0,0-.43.51l.86,4.24Z"/>
  </g>
</svg>
