<svg width="42" height="48" viewBox="0 0 42 48" fill="none" xmlns="http://www.w3.org/2000/svg">
<g clip-path="url(#clip0_732_1027)">
<path d="M29 10C21.589 10 16 15.159 16 22C16 22.5304 16.2107 23.0391 16.5858 23.4142C16.9609 23.7893 17.4696 24 18 24C18.5304 24 19.0391 23.7893 19.4142 23.4142C19.7893 23.0391 20 22.5304 20 22C19.9736 20.615 20.334 19.25 21.0406 18.0585C21.7472 16.867 22.772 15.8962 24 15.255V46C24 46.5304 24.2107 47.0391 24.5858 47.4142C24.9609 47.7893 25.4696 48 26 48C26.5304 48 27.0391 47.7893 27.4142 47.4142C27.7893 47.0391 28 46.5304 28 46V31H30V46C30 46.5304 30.2107 47.0391 30.5858 47.4142C30.9609 47.7893 31.4696 48 32 48C32.5304 48 33.0391 47.7893 33.4142 47.4142C33.7893 47.0391 34 46.5304 34 46V15.255C35.228 15.8962 36.2528 16.867 36.9594 18.0585C37.666 19.25 38.0264 20.615 38 22C38 22.5304 38.2107 23.0391 38.5858 23.4142C38.9609 23.7893 39.4696 24 40 24C40.5304 24 41.0391 23.7893 41.4142 23.4142C41.7893 23.0391 42 22.5304 42 22C42 15.159 36.411 10 29 10Z" fill="black"/>
<path d="M29 8C31.2091 8 33 6.20914 33 4C33 1.79086 31.2091 0 29 0C26.7909 0 25 1.79086 25 4C25 6.20914 26.7909 8 29 8Z" fill="black"/>
<path d="M8 2.50148e-07C6.41775 2.50148e-07 4.87103 0.469192 3.55544 1.34824C2.23985 2.22729 1.21447 3.47672 0.608967 4.93853C0.00346625 6.40034 -0.15496 8.00887 0.153721 9.56072C0.462403 11.1126 1.22433 12.538 2.34315 13.6569C3.46197 14.7757 4.88743 15.5376 6.43928 15.8463C7.99113 16.155 9.59966 15.9965 11.0615 15.391C12.5233 14.7855 13.7727 13.7602 14.6518 12.4446C15.5308 11.129 16 9.58225 16 8C16.0003 6.94935 15.7935 5.90895 15.3916 4.93822C14.9896 3.9675 14.4004 3.08548 13.6574 2.34256C12.9145 1.59964 12.0325 1.01037 11.0618 0.608429C10.0911 0.206484 9.05065 -0.000262511 8 2.50148e-07V2.50148e-07ZM11.72 10.3C11.9074 10.4888 12.0125 10.744 12.0125 11.01C12.0125 11.276 11.9074 11.5312 11.72 11.72C11.5304 11.9059 11.2755 12.0101 11.01 12.0101C10.7445 12.0101 10.4896 11.9059 10.3 11.72L8 9.41L5.7 11.72C5.51044 11.9059 5.25552 12.0101 4.99 12.0101C4.72449 12.0101 4.46957 11.9059 4.28 11.72C4.09265 11.5312 3.98752 11.276 3.98752 11.01C3.98752 10.744 4.09265 10.4888 4.28 10.3L6.59 8L4.28 5.7C4.18677 5.60676 4.1128 5.49607 4.06234 5.37425C4.01188 5.25243 3.98591 5.12186 3.98591 4.99C3.98591 4.85814 4.01188 4.72757 4.06234 4.60575C4.1128 4.48393 4.18677 4.37324 4.28 4.28C4.37324 4.18676 4.48393 4.1128 4.60575 4.06234C4.72758 4.01188 4.85814 3.98591 4.99 3.98591C5.12186 3.98591 5.25243 4.01188 5.37425 4.06234C5.49608 4.1128 5.60677 4.18676 5.7 4.28L8 6.59L10.3 4.28C10.4883 4.0917 10.7437 3.98591 11.01 3.98591C11.2763 3.98591 11.5317 4.0917 11.72 4.28C11.9083 4.4683 12.0141 4.7237 12.0141 4.99C12.0141 5.2563 11.9083 5.5117 11.72 5.7L9.41 8L11.72 10.3Z" fill="black"/>
</g>
<defs>
<clipPath id="clip0_732_1027">
<rect width="42" height="48" fill="white"/>
</clipPath>
</defs>
</svg>
