<svg width="28" height="48" viewBox="0 0 28 48" fill="none" xmlns="http://www.w3.org/2000/svg">
<g clip-path="url(#clip0_733_1044)">
<path d="M8.47 41.53C8.00264 41.0688 7.63192 40.5191 7.37952 39.913C7.12712 39.3069 6.99809 38.6566 7 38C7.00053 36.6741 7.52748 35.4026 8.46505 34.465C9.40262 33.5275 10.6741 33.0005 12 33H16.04C16.154 32.9996 16.2678 33.0097 16.38 33.03L19 18H6C4.40911 18.0013 2.88375 18.6339 1.75882 19.7588C0.633891 20.8838 0.00132421 22.4091 1.25074e-07 24V44C-0.000131255 44.5253 0.103242 45.0455 0.304214 45.5309C0.505187 46.0162 0.79982 46.4573 1.17128 46.8287C1.54274 47.2002 1.98375 47.4948 2.46911 47.6958C2.95447 47.8968 3.47468 48.0001 4 48H18C18.5253 48.0001 19.0455 47.8968 19.5309 47.6958C20.0163 47.4948 20.4573 47.2002 20.8287 46.8287C21.2002 46.4573 21.4948 46.0162 21.6958 45.5309C21.8968 45.0455 22.0001 44.5253 22 44V43H12C11.3434 43.0019 10.6931 42.8729 10.087 42.6205C9.48085 42.3681 8.93115 41.9974 8.47 41.53V41.53Z" fill="black"/>
<path d="M9 38C9.00132 38.7952 9.31782 39.5575 9.88014 40.1199C10.4425 40.6822 11.2048 40.9987 12 41H15L16.04 35H12C11.6059 34.9995 11.2155 35.0767 10.8513 35.2273C10.4871 35.3779 10.1562 35.5988 9.87751 35.8775C9.59883 36.1562 9.37787 36.4871 9.22729 36.8513C9.07671 37.2155 8.99948 37.6059 9 38ZM24.01 18L24 35V41H25C25.3941 41.0005 25.7845 40.9233 26.1487 40.7727C26.5129 40.6221 26.8438 40.4012 27.1225 40.1225C27.4012 39.8438 27.6221 39.5129 27.7727 39.1487C27.9233 38.7845 28.0005 38.3941 28 38V22C28.0008 20.9406 27.581 19.9243 26.8328 19.1742C26.0847 18.4242 25.0694 18.0019 24.01 18V18Z" fill="black"/>
<path d="M14 14C17.866 14 21 10.866 21 7C21 3.13401 17.866 0 14 0C10.134 0 7 3.13401 7 7C7 10.866 10.134 14 14 14Z" fill="black"/>
</g>
<defs>
<clipPath id="clip0_733_1044">
<rect width="28" height="48" fill="white"/>
</clipPath>
</defs>
</svg>
