<svg width="48" height="36" viewBox="0 0 48 36" fill="none" xmlns="http://www.w3.org/2000/svg">
<g clip-path="url(#clip0_733_1037)">
<path d="M46.707 10.664L40.464 5.80196L41.771 4.49396C42.0155 4.24964 42.2095 3.95954 42.3419 3.64024C42.4743 3.32094 42.5426 2.97869 42.5427 2.63302C42.5428 2.28736 42.4749 1.94505 42.3427 1.62564C42.2106 1.30623 42.0168 1.01598 41.7725 0.771461C41.5282 0.52694 41.2381 0.332936 40.9188 0.200527C40.5995 0.0681173 40.2572 -0.000104643 39.9116 -0.000243927C39.5659 -0.000383211 39.2236 0.0675629 38.9042 0.199715C38.5848 0.331867 38.2945 0.525637 38.05 0.769961L35.926 2.89496L35.562 2.53096C35.3176 2.28651 35.0275 2.09258 34.7081 1.96026C34.3888 1.82793 34.0465 1.7598 33.7009 1.75976C33.3552 1.75971 33.0129 1.82775 32.6935 1.95999C32.3742 2.09222 32.084 2.28607 31.8395 2.53046C31.3458 3.02403 31.0684 3.6935 31.0683 4.39161C31.0682 4.73727 31.1363 5.07956 31.2685 5.39894C31.4008 5.71831 31.5946 6.00851 31.839 6.25296L32.203 6.61696L31.188 7.63196H5.497C4.03959 7.63355 2.64233 8.21321 1.61179 9.24375C0.581245 10.2743 0.00158817 11.6716 0 13.129L0 22.266C0 22.7964 0.210714 23.3051 0.585786 23.6802C0.960859 24.0552 1.46957 24.266 2 24.266C2.53043 24.266 3.03914 24.0552 3.41421 23.6802C3.78929 23.3051 4 22.7964 4 22.266V13.129C4.00053 12.7324 4.15831 12.3522 4.43875 12.0717C4.71919 11.7913 5.0994 11.6335 5.496 11.633H6V32.633C6 33.4286 6.31607 34.1917 6.87868 34.7543C7.44129 35.3169 8.20435 35.633 9 35.633C9.79565 35.633 10.5587 35.3169 11.1213 34.7543C11.6839 34.1917 12 33.4286 12 32.633V26.633H13.794C14.8712 27.8877 16.2068 28.8948 17.7095 29.5852C19.2122 30.2757 20.8463 30.6331 22.5 30.6331C24.1537 30.6331 25.7878 30.2757 27.2905 29.5852C28.7932 28.8948 30.1288 27.8877 31.206 26.633H33V32.633C33 33.4286 33.3161 34.1917 33.8787 34.7543C34.4413 35.3169 35.2044 35.633 36 35.633C36.7956 35.633 37.5587 35.3169 38.1213 34.7543C38.6839 34.1917 39 33.4286 39 32.633V16.633H44.657C45.3525 16.6335 46.0308 16.4167 46.597 16.0129C47.1633 15.609 47.5891 15.0382 47.815 14.3804C48.0409 13.7226 48.0555 13.0106 47.8568 12.3441C47.6582 11.6775 47.2562 11.0898 46.707 10.663V10.664Z" fill="black"/>
</g>
<defs>
<clipPath id="clip0_733_1037">
<rect width="48" height="35.633" fill="white"/>
</clipPath>
</defs>
</svg>
