<svg width="42" height="48" viewBox="0 0 42 48" fill="none" xmlns="http://www.w3.org/2000/svg">
<g clip-path="url(#clip0_733_1039)">
<path d="M29 10C21.589 10 16 15.159 16 22C16 22.5304 16.2107 23.0391 16.5858 23.4142C16.9609 23.7893 17.4696 24 18 24C18.5304 24 19.0391 23.7893 19.4142 23.4142C19.7893 23.0391 20 22.5304 20 22C19.9736 20.615 20.334 19.25 21.0406 18.0585C21.7472 16.867 22.772 15.8962 24 15.255V46C24 46.5304 24.2107 47.0391 24.5858 47.4142C24.9609 47.7893 25.4696 48 26 48C26.5304 48 27.0391 47.7893 27.4142 47.4142C27.7893 47.0391 28 46.5304 28 46V31H30V46C30 46.5304 30.2107 47.0391 30.5858 47.4142C30.9609 47.7893 31.4696 48 32 48C32.5304 48 33.0391 47.7893 33.4142 47.4142C33.7893 47.0391 34 46.5304 34 46V15.255C35.228 15.8962 36.2528 16.867 36.9594 18.0585C37.666 19.25 38.0264 20.615 38 22C38 22.5304 38.2107 23.0391 38.5858 23.4142C38.9609 23.7893 39.4696 24 40 24C40.5304 24 41.0391 23.7893 41.4142 23.4142C41.7893 23.0391 42 22.5304 42 22C42 15.159 36.411 10 29 10Z" fill="black"/>
<path d="M29 8C31.2091 8 33 6.20914 33 4C33 1.79086 31.2091 0 29 0C26.7909 0 25 1.79086 25 4C25 6.20914 26.7909 8 29 8Z" fill="black"/>
<path d="M8 2.50148e-07C6.41775 2.50148e-07 4.87103 0.469192 3.55544 1.34824C2.23985 2.22729 1.21447 3.47672 0.608967 4.93853C0.00346625 6.40034 -0.15496 8.00887 0.153721 9.56072C0.462403 11.1126 1.22433 12.538 2.34315 13.6569C3.46197 14.7757 4.88743 15.5376 6.43928 15.8463C7.99113 16.155 9.59966 15.9965 11.0615 15.391C12.5233 14.7855 13.7727 13.7602 14.6518 12.4446C15.5308 11.129 16 9.58225 16 8C16.0003 6.94935 15.7935 5.90895 15.3916 4.93822C14.9896 3.9675 14.4004 3.08548 13.6574 2.34256C12.9145 1.59964 12.0325 1.01037 11.0618 0.608429C10.0911 0.206484 9.05065 -0.000262511 8 2.50148e-07V2.50148e-07ZM8 14.09C7.78442 14.09 7.57368 14.0261 7.39443 13.9063C7.21518 13.7865 7.07547 13.6163 6.99298 13.4171C6.91048 13.218 6.88889 12.9988 6.93095 12.7874C6.97301 12.5759 7.07682 12.3817 7.22926 12.2293C7.3817 12.0768 7.57592 11.973 7.78736 11.9309C7.99879 11.8889 8.21796 11.9105 8.41713 11.993C8.6163 12.0755 8.78653 12.2152 8.90631 12.3944C9.02608 12.5737 9.09 12.7844 9.09 13C9.08921 13.2888 8.97412 13.5656 8.76988 13.7699C8.56563 13.9741 8.28885 14.0892 8 14.09V14.09ZM10.94 5.8C10.8355 6.30706 10.602 6.77863 10.2622 7.16924C9.92244 7.55984 9.48772 7.85629 9 8.03V9.6C9 9.86522 8.89465 10.1196 8.70711 10.3071C8.51957 10.4946 8.26522 10.6 8 10.6C7.73479 10.6 7.48043 10.4946 7.2929 10.3071C7.10536 10.1196 7 9.86522 7 9.6V7.2C7.0008 6.93503 7.10641 6.68113 7.29377 6.49377C7.48114 6.3064 7.73503 6.20079 8 6.2C8.0737 6.19831 8.14721 6.19163 8.22 6.18C8.40786 6.13597 8.57922 6.03914 8.71387 5.90095C8.84852 5.76275 8.94086 5.58894 8.98 5.4C8.99263 5.33407 8.99933 5.26713 9 5.2C8.99831 5.1263 8.99163 5.0528 8.98 4.98C8.93597 4.79214 8.83915 4.62079 8.70095 4.48613C8.56275 4.35148 8.38894 4.25914 8.2 4.22C8.06498 4.19 7.92502 4.19 7.79 4.22C7.6202 4.25682 7.46281 4.33696 7.33314 4.45261C7.20347 4.56826 7.10593 4.7155 7.05 4.88C6.95688 5.12153 6.77373 5.31753 6.53907 5.4268C6.30441 5.53606 6.03652 5.55008 5.79173 5.46589C5.54695 5.38171 5.34435 5.20589 5.22653 4.9754C5.10872 4.74491 5.08487 4.47771 5.16 4.23C5.32871 3.73805 5.6218 3.2981 6.0108 2.9529C6.3998 2.60771 6.87148 2.36901 7.38 2.26C7.7861 2.17995 8.20391 2.17995 8.61 2.26C9.18057 2.3812 9.70399 2.66462 10.1173 3.07619C10.5307 3.48776 10.8163 4.00996 10.94 4.58C10.9798 4.78428 10.9999 4.99189 11 5.2C11.0008 5.40154 10.9807 5.60262 10.94 5.8V5.8Z" fill="black"/>
</g>
<defs>
<clipPath id="clip0_733_1039">
<rect width="42" height="48" fill="white"/>
</clipPath>
</defs>
</svg>
