<svg xmlns="http://www.w3.org/2000/svg" width="18.393" height="41.661" viewBox="0 0 18.393 41.661">
  <g id="Group_18204" data-name="Group 18204" transform="translate(-326.75 -755.576)">
    <path id="Path_36863" data-name="Path 36863" d="M339.672,769.233c.441,2.36.878,4.7,1.316,7.034q.786,4.2,1.574,8.4c.146.782-.1,1.072-.9,1.074h-2.273v.57c0,3.017.009,6.033-.011,9.05a2.457,2.457,0,0,1-.249,1.086,1.344,1.344,0,0,1-2.44.026,2.585,2.585,0,0,1-.267-1.173c-.021-3-.011-6-.011-9v-.523h-.959v.557c0,2.986.008,5.972-.009,8.958a2.9,2.9,0,0,1-.221,1.1,1.307,1.307,0,0,1-1.287.844,1.321,1.321,0,0,1-1.24-.849,2.743,2.743,0,0,1-.209-1.053c-.016-3-.009-6-.009-9v-.582h-2.266c-.808,0-1.053-.274-.9-1.062.525-2.8,1.071-5.593,1.594-8.392.436-2.336.849-4.676,1.279-7.051h-.731q-.391,2.028-.782,4.055c-.278,1.442-.539,2.888-.841,4.326a2.86,2.86,0,0,1-.43.987,1.356,1.356,0,0,1-1.438.666,1.428,1.428,0,0,1-1.14-1.221,3.251,3.251,0,0,1-.023-1.212c.643-3.438,1.311-6.871,1.972-10.3a2.008,2.008,0,0,1,1.852-1.878,10.63,10.63,0,0,1,1.892-.224c2.47-.012,4.94.008,7.41.041a9.965,9.965,0,0,1,1.438.2,1.944,1.944,0,0,1,1.7,1.71q.812,4.17,1.611,8.343c.14.729.285,1.457.42,2.187a2.33,2.33,0,0,1-.227,1.631,1.292,1.292,0,0,1-2.167.3,2.8,2.8,0,0,1-.652-1.26c-.539-2.6-1.022-5.2-1.525-7.8C340.4,769.16,340.4,769.16,339.672,769.233Z" fill="#a7b3bb"/>
    <path id="Path_36864" data-name="Path 36864" d="M335.916,763.2a3.812,3.812,0,1,1,3.831-3.8A3.807,3.807,0,0,1,335.916,763.2Z" fill="#a7b3bb"/>
  </g>
</svg>
