<svg xmlns="http://www.w3.org/2000/svg" xmlns:xlink="http://www.w3.org/1999/xlink" width="171" height="171" viewBox="0 0 171 171">
  <defs>
    <clipPath id="clip-hospital">
      <rect width="171" height="171"/>
    </clipPath>
  </defs>
  <g id="hospital" clip-path="url(#clip-hospital)">
    <g id="Group_18223" data-name="Group 18223">
      <circle id="Ellipse_405" data-name="Ellipse 405" cx="47" cy="47" r="47" transform="translate(41 22)" fill="#fff"/>
      <g id="Group_18218" data-name="Group 18218" transform="translate(61.668 43.667)">
        <path id="Path_36864" data-name="Path 36864" d="M106.284,26.83h15.674V47.143H106.284V62.824H85.968V47.143H70.295V26.83H85.968V11.156h20.316Z" transform="translate(-70.295 -11.156)" fill="#3c64bc"/>
      </g>
      <g id="OBJECTS" transform="translate(31.516 13.333)">
        <path id="Path_36878" data-name="Path 36878" d="M180.649-48A55.942,55.942,0,0,0,164.017,61.343l11.677,20.17a5.151,5.151,0,0,0,7.067,1.773l.011,0a4.264,4.264,0,0,0,1.769-1.769l11.677-20.17A55.737,55.737,0,0,0,180.649-48Zm0,98.727A42.817,42.817,0,1,1,223.466,7.91h0A42.742,42.742,0,0,1,180.8,50.727Zm5.662,46.71a5.662,5.662,0,1,1-5.662-5.662h0a5.591,5.591,0,0,1,5.662,5.517Z" transform="translate(-124.742 48.001)" fill="#3c64bc"/>
      </g>
    </g>
  </g>
</svg>
