<svg xmlns="http://www.w3.org/2000/svg" width="50" height="50" viewBox="0 0 50 50">
  <g id="OBJECTS">
    <path d="M10.644,10.6H39.356v4.165H25.906a16.875,16.875,0,0,1,.917,2.187,11.8,11.8,0,0,1,.51,2.186,5.681,5.681,0,0,1,1.12-.334,6.18,6.18,0,0,1,1.176-.11,6.632,6.632,0,0,1,2.482.472,6.328,6.328,0,0,1,3.52,3.416,6.667,6.667,0,0,1,.536,2.708A7.043,7.043,0,0,1,34.926,29.3a14.731,14.731,0,0,1-3.741,3.62l-3.113-3.569c.629-.444,1.151-.844,1.566-1.194a7.446,7.446,0,0,0,.984-.985,2.763,2.763,0,0,0,.667-1.846,2.3,2.3,0,0,0-.547-1.639,1.868,1.868,0,0,0-1.435-.585,3.008,3.008,0,0,0-1.075.186,3.538,3.538,0,0,0-.88.492,5.726,5.726,0,0,0-.749.694q-.351.39-.667.778a7.526,7.526,0,0,1-4.723,2.556l-.037.075q.779,1.109,1.584,2.148t1.7,2.019q.89,1,1.889,1.983t2.187,1.981L25.484,39.4a28.938,28.938,0,0,1-2.815-2.527q-1.355-1.381-2.575-2.881t-2.3-3.038q-1.075-1.535-1.969-3t-1.613-2.787Q13.5,23.844,13,22.787L17.1,20.7a6.4,6.4,0,0,0,1.354,2.351,2.2,2.2,0,0,0,1.52.686,2.1,2.1,0,0,0,.984-.246,2.4,2.4,0,0,0,.815-.713,3.84,3.84,0,0,0,.565-1.148,5.215,5.215,0,0,0,.213-1.565,8.95,8.95,0,0,0-.446-2.667,9.333,9.333,0,0,0-1.3-2.631H10.644Z" fill="#3c64bc"/>
  </g>
</svg>
