<?xml version="1.0" standalone="no"?>
<!DOCTYPE svg PUBLIC "-//W3C//DTD SVG 20010904//EN"
 "http://www.w3.org/TR/2001/REC-SVG-20010904/DTD/svg10.dtd">
<svg version="1.0" xmlns="http://www.w3.org/2000/svg"
 width="128.000000pt" height="108.000000pt" viewBox="0 0 128.000000 108.000000"
 preserveAspectRatio="xMidYMid meet">
<metadata>
Created by potrace 1.16, written by Peter Selinger 2001-2019
</metadata>
<g transform="translate(0.000000,108.000000) scale(0.100000,-0.100000)"
fill="#000000" stroke="none">
<path d="M560 1000 l0 -80 78 0 77 1 -44 39 -44 40 37 0 c20 0 36 4 36 8 0 7
-122 72 -135 72 -3 0 -5 -36 -5 -80z"/>
<path d="M433 1048 c-12 -6 -24 -19 -26 -30 -5 -17 -11 -19 -37 -13 -35 8 -93
-11 -87 -29 5 -14 -62 -65 -85 -66 -10 0 -18 -7 -18 -16 0 -9 -11 -25 -25 -36
-34 -27 -32 -42 5 -34 41 8 29 -9 -16 -24 -19 -7 -33 -17 -31 -23 2 -7 -9 -20
-25 -29 -39 -24 -38 -53 1 -45 29 6 29 6 15 -21 -8 -15 -14 -34 -14 -43 0 -8
-13 -25 -30 -37 -40 -30 -38 -45 5 -40 19 2 35 3 35 3 0 -1 -7 -16 -16 -33
-16 -34 -11 -57 12 -48 7 3 16 1 19 -4 4 -6 1 -10 -5 -10 -14 0 -60 -46 -60
-61 0 -7 11 -9 35 -5 33 7 48 -5 25 -19 -5 -3 -10 -20 -10 -36 l0 -30 -31 17
c-34 17 -36 14 -14 -39 6 -13 1 -18 -24 -23 -39 -8 -39 -18 -2 -34 16 -6 32
-18 35 -26 3 -7 27 -24 54 -38 27 -14 52 -34 54 -44 6 -22 95 -68 203 -104 63
-21 87 -23 250 -22 153 0 192 4 260 22 110 31 225 86 232 113 3 11 24 29 49
41 24 11 44 26 44 32 0 7 16 20 36 29 35 17 38 37 5 37 -26 0 -31 9 -20 37 5
14 8 28 5 30 -6 7 -84 -35 -88 -47 -2 -6 -26 -21 -55 -34 -44 -21 -52 -22 -57
-9 -8 21 1 33 26 33 16 0 19 4 14 24 -3 14 -1 37 4 52 l11 28 19 -31 c23 -38
39 -48 53 -34 8 8 6 20 -6 46 l-17 36 36 -7 c31 -6 36 -4 32 12 -2 10 -17 28
-34 39 -30 20 -36 49 -8 38 17 -6 19 29 3 59 -10 19 -9 20 24 14 32 -6 35 -5
30 14 -3 11 -18 28 -34 37 -15 9 -26 20 -23 24 2 4 -5 24 -15 43 l-20 35 29
-6 c40 -8 41 21 2 45 -16 9 -27 22 -25 29 3 7 -7 15 -21 19 -14 3 -26 10 -26
16 0 5 9 6 20 3 11 -4 20 -2 20 4 0 14 -37 51 -50 51 -5 0 -7 6 -4 14 3 9 -6
18 -27 25 -18 6 -47 26 -63 44 -43 45 -81 63 -99 48 -18 -14 -44 -5 -50 19 -7
26 -62 36 -92 16 -25 -16 -34 -59 -16 -70 5 -3 7 -16 3 -28 -4 -17 -2 -20 11
-15 10 4 20 0 26 -10 7 -14 10 -13 21 6 l12 23 19 -21 c11 -12 25 -19 30 -15
6 3 7 -4 3 -20 -7 -28 4 -34 24 -14 9 9 12 8 12 -5 0 -24 21 -21 27 3 3 11 9
18 13 15 5 -3 6 -14 3 -24 -3 -10 0 -22 6 -25 6 -4 11 -20 11 -37 0 -31 9 -36
28 -17 9 9 12 4 12 -24 0 -20 5 -40 10 -43 13 -8 -6 -35 -24 -35 -14 0 -96 60
-169 123 -42 36 -72 53 -124 67 -37 11 -70 20 -73 20 -3 0 -36 -22 -73 -49
-39 -29 -96 -59 -135 -72 -37 -12 -84 -30 -104 -41 -36 -17 -38 -17 -37 -1 2
37 15 68 23 55 12 -20 28 -14 25 11 -2 12 2 32 9 44 7 12 9 30 6 40 -3 10 2 5
12 -11 14 -25 18 -27 28 -14 6 8 17 13 24 11 7 -3 12 5 12 22 0 14 4 24 9 20
5 -3 19 7 30 21 14 18 21 21 21 12 0 -9 7 -21 15 -28 12 -10 15 -10 15 3 0 10
6 13 21 10 18 -5 20 -3 15 15 -4 11 -2 23 4 27 16 10 12 43 -10 65 -22 22 -53
25 -87 8z m582 -390 c-21 -18 -41 -35 -44 -38 -3 -3 -12 -17 -20 -32 -18 -35
-35 -36 -27 -2 6 21 4 25 -11 22 -10 -2 -22 -13 -28 -25 -12 -28 -84 -49 -126
-37 -40 12 -42 28 -3 32 18 2 40 12 50 23 9 10 23 19 29 19 7 0 48 16 90 35
52 24 80 32 85 25 5 -7 11 -6 20 5 7 8 15 13 17 11 3 -3 -12 -20 -32 -38z
m-553 -58 c18 -16 40 -30 50 -30 9 0 23 -9 31 -20 9 -13 20 -18 31 -14 10 4
26 -5 46 -26 23 -24 35 -30 51 -25 18 6 21 4 16 -9 -5 -12 0 -16 23 -16 17 0
33 -7 39 -17 7 -12 10 -14 11 -4 0 10 3 11 14 2 11 -9 15 -9 18 1 3 9 11 9 36
-1 19 -8 46 -11 67 -7 l36 7 -7 -36 c-4 -22 -2 -41 6 -50 16 -20 4 -50 -21
-52 -28 -2 -29 -4 -32 -41 -2 -25 -7 -33 -29 -38 -15 -3 -30 -10 -33 -15 -4
-5 -21 -9 -39 -9 -19 0 -49 -11 -70 -25 -21 -14 -42 -23 -47 -20 -5 4 -9 2 -9
-3 0 -19 114 -50 124 -34 3 5 26 13 51 16 25 4 45 11 45 17 0 5 9 9 19 9 11 0
30 9 43 20 12 11 32 27 43 35 19 14 19 14 -7 15 -21 0 -25 4 -21 20 3 11 9 17
14 14 5 -3 6 -10 3 -16 -5 -7 -1 -9 9 -5 17 6 47 -25 47 -49 0 -15 -82 -50
-178 -76 -58 -15 -108 -21 -202 -21 -137 -1 -221 15 -327 59 -55 23 -61 28
-52 45 5 10 7 19 3 19 -3 0 -1 7 6 15 8 10 21 13 33 9 14 -4 17 -3 12 6 -5 9
-4 11 3 6 19 -12 14 -26 -10 -26 -21 -1 -20 -3 12 -30 19 -17 46 -33 60 -37
14 -3 28 -10 31 -16 4 -5 27 -12 53 -14 27 -4 43 -10 39 -16 -8 -14 72 0 106
18 14 8 20 14 13 15 -7 0 -26 10 -42 22 -16 11 -44 22 -62 23 -50 4 -125 42
-131 66 -7 26 31 82 51 74 7 -3 22 -5 32 -5 16 0 17 -4 8 -34 -14 -44 -5 -66
26 -66 22 0 25 3 20 28 -8 41 15 63 69 69 83 10 70 46 -13 39 -25 -2 -56 2
-70 7 -14 6 -27 11 -30 12 -3 1 -14 5 -25 9 -11 4 -32 12 -47 18 -16 6 -28 14
-28 18 0 7 -46 32 -69 36 -23 4 -34 22 -26 41 4 10 10 27 12 38 5 27 44 67 60
60 8 -2 16 2 19 10 10 24 50 17 86 -15z"/>
</g>
</svg>
